<svg width="30" height="30" viewBox="0 0 30 30" fill="none" xmlns="http://www.w3.org/2000/svg">
<g clip-path="url(#clip0_197_5874)">
<path d="M29.9998 15.0918C29.9998 6.75555 23.2836 -0.00195312 14.9998 -0.00195312C6.71234 -7.81249e-05 -0.00390625 6.75555 -0.00390625 15.0937C-0.00390625 22.6255 5.48234 28.8693 12.6523 30.0018V19.4549H8.84609V15.0937H12.6561V11.7655C12.6561 7.98367 14.8967 5.89492 18.3223 5.89492C19.9648 5.89492 21.6805 6.1893 21.6805 6.1893V9.9018H19.7886C17.9267 9.9018 17.3455 11.0662 17.3455 12.2605V15.0918H21.5042L20.8405 19.453H17.3436V29.9999C24.5136 28.8674 29.9998 22.6237 29.9998 15.0918Z" fill="#FEC1A3"/>
</g>
<defs>
<clipPath id="clip0_197_5874">
<rect width="30" height="30" fill="white"/>
</clipPath>
</defs>
</svg>
