<svg width="30" height="30" viewBox="0 0 30 30" fill="none" xmlns="http://www.w3.org/2000/svg">
<g clip-path="url(#clip0_197_5876)">
<path d="M15.0956 3.74805H15.2625C16.8037 3.75367 24.6131 3.80992 26.7187 4.37617C27.3553 4.54899 27.9353 4.88584 28.4009 5.35306C28.8665 5.82029 29.2013 6.40152 29.3719 7.03867C29.5612 7.75117 29.6944 8.6943 29.7844 9.66742L29.8031 9.86242L29.8444 10.3499L29.8594 10.5449C29.9812 12.2587 29.9962 13.8637 29.9981 14.2143V14.3549C29.9962 14.7187 29.9794 16.4324 29.8444 18.2174L29.8294 18.4143L29.8125 18.6093C29.7187 19.6818 29.58 20.7468 29.3719 21.5306C29.2018 22.168 28.8672 22.7495 28.4015 23.2168C27.9359 23.6841 27.3556 24.0208 26.7187 24.1931C24.5437 24.778 16.2769 24.8193 15.1312 24.8212H14.865C14.2856 24.8212 11.8894 24.8099 9.37687 24.7237L9.05812 24.7124L8.895 24.7049L8.57437 24.6918L8.25375 24.6787C6.1725 24.5868 4.19062 24.4387 3.2775 24.1912C2.64092 24.019 2.06075 23.6826 1.59511 23.2157C1.12947 22.7487 0.794713 22.1676 0.624375 21.5306C0.41625 20.7487 0.2775 19.6818 0.18375 18.6093L0.16875 18.4124L0.15375 18.2174C0.0612142 16.9469 0.00993725 15.6738 0 14.3999L0 14.1693C0.00375 13.7662 0.01875 12.373 0.12 10.8355L0.133125 10.6424L0.13875 10.5449L0.15375 10.3499L0.195 9.86242L0.21375 9.66742C0.30375 8.6943 0.436875 7.7493 0.62625 7.03867C0.796301 6.40126 1.13093 5.81975 1.59659 5.35245C2.06224 4.88515 2.64257 4.54847 3.27937 4.37617C4.1925 4.13242 6.17437 3.98242 8.25562 3.88867L8.57437 3.87555L8.89687 3.8643L9.05812 3.85867L9.37875 3.84555C11.1632 3.78812 12.9484 3.75625 14.7337 3.74992H15.0956V3.74805ZM12 9.7668V18.8006L19.7944 14.2855L12 9.7668Z" fill="#FEC1A3"/>
</g>
<defs>
<clipPath id="clip0_197_5876">
<rect width="30" height="30" fill="white"/>
</clipPath>
</defs>
</svg>
