<svg width="48" height="48" viewBox="0 0 48 48" fill="none" xmlns="http://www.w3.org/2000/svg">
<circle cx="24" cy="24" r="24" fill="#E081AF"/>
<circle cx="24" cy="24" r="23" stroke="white" stroke-opacity="0.3" stroke-width="2"/>
<path d="M24.0062 17.4472C24.5591 11.9976 26.9082 9.27273 31.0534 9.27273C31.4336 10.4196 31.5317 11.5296 31.348 12.6028C31.2607 13.1126 30.9899 13.8395 30.5356 14.7836" stroke="white" stroke-linecap="round"/>
<path fill-rule="evenodd" clip-rule="evenodd" d="M24 35.9915C25.7128 35.9915 26.4174 36.9145 27.3355 37.1196C28.2535 37.3249 29.0242 37.3818 29.8136 37.034C31.3766 36.3453 32.3294 35.5248 33.4856 34.2995C35.6282 32.0285 36.6818 28.9061 36.6818 24.7247C36.6818 20.5432 35.5543 18.3823 33.8167 16.9688C32.0792 15.5553 31.0715 15.2845 28.9705 15.5553C26.8694 15.8261 25.7254 18.0836 24.0058 18.0836C22.2864 18.0836 20.1907 15.8576 18.3675 15.5553C16.5443 15.2529 15.5454 15.5553 13.967 16.9688C12.3886 18.3823 11.3182 20.5834 11.3182 24.7247C11.3182 28.866 12.4113 31.9367 14.5539 34.2076C15.7101 35.433 16.6234 36.3453 18.1864 37.034C18.9757 37.3818 19.7915 37.3249 20.6776 37.1196C21.5638 36.9145 22.2684 35.9915 24 35.9915ZM28.2469 19.9246C28.389 20.1614 28.3122 20.4685 28.0754 20.6106C24.5859 22.7043 21.011 21.4846 19.6387 20.6024C19.4064 20.4531 19.3392 20.1437 19.4885 19.9114C19.6378 19.6792 19.9472 19.6119 20.1795 19.7612C21.3527 20.5154 24.505 21.5866 27.5609 19.7531C27.7977 19.611 28.1048 19.6878 28.2469 19.9246Z" fill="white" fill-opacity="0.3"/>
<path fill-rule="evenodd" clip-rule="evenodd" d="M24 35.9915C25.7128 35.9915 26.4174 36.9145 27.3355 37.1196C28.2535 37.3249 29.0242 37.3818 29.8136 37.034C31.3766 36.3453 32.3294 35.5248 33.4856 34.2995C35.6282 32.0285 36.6818 28.9061 36.6818 24.7247C36.6818 20.5432 35.5543 18.3823 33.8167 16.9688C32.0792 15.5553 31.0715 15.2845 28.9705 15.5553C26.8694 15.8261 25.7254 18.0836 24.0058 18.0836C22.2864 18.0836 20.1907 15.8576 18.3675 15.5553C16.5443 15.2529 15.5454 15.5553 13.967 16.9688C12.3886 18.3823 11.3182 20.5834 11.3182 24.7247C11.3182 28.866 12.4113 31.9367 14.5539 34.2076C15.7101 35.433 16.6234 36.3453 18.1864 37.034C18.9757 37.3818 19.7915 37.3249 20.6776 37.1196C21.5638 36.9145 22.2684 35.9915 24 35.9915Z" stroke="white"/>
</svg>
