<svg width="88" height="88" viewBox="0 0 88 88" fill="none" xmlns="http://www.w3.org/2000/svg">
<circle cx="44" cy="44" r="44" fill="#E081AF"/>
<circle cx="44" cy="44" r="43" stroke="white" stroke-opacity="0.3" stroke-width="2"/>
<path d="M44.0114 31.9866C45.0251 21.9955 49.3317 17 56.9314 17C57.6282 19.1027 57.8082 21.1377 57.4714 23.1051C57.3114 24.0397 56.8149 25.3725 55.982 27.1033" stroke="white" stroke-width="2" stroke-linecap="round"/>
<path fill-rule="evenodd" clip-rule="evenodd" d="M44 65.9844C47.1402 65.9844 48.4318 67.6765 50.115 68.0527C51.7982 68.4289 53.2111 68.5333 54.6582 67.8957C57.5237 66.633 59.2706 65.1288 61.3902 62.8824C65.3184 58.7189 67.25 52.9945 67.25 45.3286C67.25 37.6626 65.1828 33.7009 61.9973 31.1094C58.8118 28.5181 56.9645 28.0216 53.1126 28.5181C49.2606 29.0145 47.1632 33.1532 44.0107 33.1532C40.8584 33.1532 37.0163 29.0724 33.6738 28.5181C30.3312 27.9637 28.5 28.5181 25.6062 31.1094C22.7125 33.7009 20.75 37.7362 20.75 45.3286C20.75 52.921 22.7541 58.5506 26.6822 62.7139C28.8019 64.9605 30.4762 66.633 33.3418 67.8957C34.7889 68.5333 36.2845 68.4289 37.909 68.0527C39.5337 67.6765 40.8253 65.9844 44 65.9844ZM51.8575 36.4855C52.1416 36.9591 51.9881 37.5734 51.5145 37.8575C45.0809 41.7177 38.4916 39.4691 35.9592 37.8412C35.4947 37.5425 35.3602 36.9238 35.6588 36.4593C35.9575 35.9947 36.5762 35.8602 37.0408 36.1588C39.1751 37.5309 44.9191 39.4824 50.4855 36.1425C50.9591 35.8584 51.5733 36.0119 51.8575 36.4855Z" fill="white" fill-opacity="0.3"/>
<path fill-rule="evenodd" clip-rule="evenodd" d="M44 65.9844C47.1402 65.9844 48.4318 67.6765 50.115 68.0527C51.7982 68.4289 53.2111 68.5333 54.6582 67.8957C57.5237 66.633 59.2706 65.1288 61.3902 62.8824C65.3184 58.7189 67.25 52.9945 67.25 45.3286C67.25 37.6626 65.1828 33.7009 61.9973 31.1094C58.8118 28.5181 56.9645 28.0216 53.1126 28.5181C49.2606 29.0145 47.1632 33.1532 44.0107 33.1532C40.8584 33.1532 37.0163 29.0724 33.6738 28.5181C30.3312 27.9637 28.5 28.5181 25.6062 31.1094C22.7125 33.7009 20.75 37.7362 20.75 45.3286C20.75 52.921 22.7541 58.5506 26.6822 62.7139C28.8019 64.9605 30.4762 66.633 33.3418 67.8957C34.7889 68.5333 36.2845 68.4289 37.909 68.0527C39.5337 67.6765 40.8253 65.9844 44 65.9844Z" stroke="white" stroke-width="2"/>
</svg>
