<svg width="88" height="88" viewBox="0 0 88 88" fill="none" xmlns="http://www.w3.org/2000/svg">
<circle cx="44" cy="44" r="44" fill="#BF7FDD"/>
<path d="M60.5208 22C59.8769 22.6871 57.003 25.6257 55.5 27C56.5 28 59.3559 30.3128 60 31C60.6441 31.6872 67.606 26.8101 66.9619 26.1229C66.4466 25.5732 62.4531 23.1453 60.5208 22Z" stroke="white" stroke-width="2" stroke-linecap="round" stroke-linejoin="round"/>
<path d="M28.1723 35.3212C28.1576 35.2142 28.1456 35.107 28.136 35C23.4395 39.5263 21.5703 42.74 21.0003 50.8756C20.975 55.2037 22.4123 59.3642 25.4004 62.5941C29.7075 67.2499 36.227 68.8809 42.6439 67.5547C46.5925 66.7386 50.5024 64.8029 53.834 61.7632C55.4853 60.2567 56.8764 58.5867 58 56.8182C55.2662 57.6359 52.2547 56.3154 51.1166 53.648C50.5486 52.3166 49.3702 51.3378 47.9502 51.0178L45.8821 50.5518C43.509 50.017 41.557 48.3489 40.6706 46.0983L40.5593 45.8156C39.586 43.3445 37.2568 41.6591 34.5899 41.4964C31.3204 41.2969 28.6489 38.83 28.211 35.6061L28.1723 35.3212Z" stroke="white" stroke-width="2" stroke-linecap="round" stroke-linejoin="round"/>
<path d="M30.5 43.5C28.3333 45.5 26 51 27.5 57.5" stroke="white" stroke-width="2" stroke-linecap="round"/>
<path d="M30.291 29.2857L29.9767 29.6118C28.4732 31.1715 27.7716 33.3044 28.0659 35.4208L28.1052 35.7038C28.5501 38.9042 31.2644 41.353 34.5863 41.5511C37.2958 41.7127 39.6622 43.3858 40.651 45.8388L40.7641 46.1195C41.6648 48.3537 43.6481 50.0096 46.0592 50.5406L48.1603 51.0032C49.6031 51.3209 50.8002 52.2925 51.3774 53.6143C52.621 56.4621 56.0658 57.7633 58.9938 56.5411C61.9514 55.3064 64.0935 52.6653 64.5913 49.5788L64.8509 47.9683C64.9909 47.1004 65.0324 46.2204 64.975 45.3438L64.8409 43.2956C64.5707 39.1707 63.048 35.2158 60.4647 31.9294L60.1502 31.5293C57.9636 28.7474 55.0326 26.6006 51.6763 25.3224C48.7749 24.2176 45.6452 23.7959 42.5435 24.0918L40.7887 24.2593C36.7766 24.6421 33.0451 26.4288 30.291 29.2857Z" fill="white" fill-opacity="0.3" stroke="white" stroke-width="2" stroke-linecap="round" stroke-linejoin="round"/>
<path d="M40 51L32 60" stroke="white" stroke-width="2" stroke-linecap="round"/>
<path d="M48.5 58C46.5 60 43 63.5 36 63.5" stroke="white" stroke-width="2" stroke-linecap="round"/>
<g filter="url(#filter0_b_759_5562)">
<circle cx="44" cy="44" r="44" fill="white" fill-opacity="0.6"/>
<circle cx="44" cy="44" r="43.5" stroke="white" stroke-opacity="0.3"/>
</g>
<path d="M61 33L37.625 56L27 45.5454" stroke="#6D6D6D" stroke-width="3" stroke-linecap="round" stroke-linejoin="round"/>
<defs>
<filter id="filter0_b_759_5562" x="-6" y="-6" width="100" height="100" filterUnits="userSpaceOnUse" color-interpolation-filters="sRGB">
<feFlood flood-opacity="0" result="BackgroundImageFix"/>
<feGaussianBlur in="BackgroundImageFix" stdDeviation="3"/>
<feComposite in2="SourceAlpha" operator="in" result="effect1_backgroundBlur_759_5562"/>
<feBlend mode="normal" in="SourceGraphic" in2="effect1_backgroundBlur_759_5562" result="shape"/>
</filter>
</defs>
</svg>
