<svg width="48" height="48" viewBox="0 0 48 48" fill="none" xmlns="http://www.w3.org/2000/svg">
<circle cx="24" cy="24" r="24" fill="#BF7FDD"/>
<circle cx="24" cy="24" r="23" stroke="white" stroke-opacity="0.3" stroke-width="2"/>
<path d="M33.0113 12C32.6601 12.3748 31.0925 13.9776 30.2727 14.7273C30.8182 15.2727 32.3759 16.5342 32.7273 16.9091C33.0786 17.2839 36.876 14.6237 36.5247 14.2489C36.2436 13.949 34.0653 12.6247 33.0113 12Z" stroke="white" stroke-linecap="round" stroke-linejoin="round"/>
<path d="M15.3667 19.2661C15.3587 19.2077 15.3521 19.1493 15.3469 19.0909C12.7852 21.5598 11.7656 23.3127 11.4547 27.7503C11.4409 30.1111 12.2249 32.3805 13.8547 34.1423C16.2041 36.6818 19.7602 37.5714 23.2603 36.848C25.4141 36.4029 27.5467 35.347 29.364 33.689C30.2647 32.8673 31.0235 31.9564 31.6363 30.9917C30.1452 31.4378 28.5026 30.7175 27.8818 29.2626C27.5719 28.5363 26.9292 28.0024 26.1546 27.8279L25.0266 27.5737C23.7322 27.282 22.6674 26.3721 22.184 25.1445L22.1232 24.9903C21.5924 23.6425 20.3219 22.7232 18.8672 22.6344C17.0838 22.5256 15.6266 21.18 15.3878 19.4215L15.3667 19.2661Z" stroke="white" stroke-linecap="round" stroke-linejoin="round"/>
<path d="M16.6364 23.7273C15.4546 24.8182 14.1818 27.8182 15 31.3636" stroke="white" stroke-linecap="round"/>
<path d="M16.5224 15.974L16.3509 16.1519C15.5308 17.0027 15.1481 18.166 15.3086 19.3205L15.3301 19.4748C15.5728 21.2205 17.0533 22.5562 18.8652 22.6642C20.3431 22.7524 21.6339 23.665 22.1732 25.003L22.235 25.1561C22.7262 26.3748 23.808 27.278 25.1232 27.5676L26.2692 27.8199C27.0562 27.9932 27.7092 28.5232 28.024 29.2441C28.7023 30.7975 30.5813 31.5072 32.1784 30.8406C33.7917 30.1671 34.9601 28.7265 35.2316 27.043L35.3732 26.1645C35.4495 25.6911 35.4722 25.2111 35.4409 24.733L35.3677 23.6158C35.2203 21.3659 34.3898 19.2086 32.9807 17.416L32.8092 17.1978C31.6165 15.6804 30.0178 14.5094 28.187 13.8122C26.6045 13.2096 24.8974 12.9796 23.2055 13.141L22.2484 13.2323C20.0599 13.4411 18.0246 14.4157 16.5224 15.974Z" fill="white" fill-opacity="0.3" stroke="white" stroke-linecap="round" stroke-linejoin="round"/>
<path d="M21.8182 27.8182L17.4545 32.7273" stroke="white" stroke-linecap="round"/>
<path d="M26.4545 31.6364C25.3636 32.7273 23.4545 34.6364 19.6364 34.6364" stroke="white" stroke-linecap="round"/>
</svg>
