<svg width="48" height="48" viewBox="0 0 48 48" fill="none" xmlns="http://www.w3.org/2000/svg">
<circle cx="24" cy="24" r="24" fill="#B49066"/>
<circle cx="24" cy="24" r="23" stroke="white" stroke-opacity="0.3" stroke-width="2"/>
<g clip-path="url(#clip0_782_2493)">
<mask id="mask0_782_2493" style="mask-type:luminance" maskUnits="userSpaceOnUse" x="7" y="7" width="34" height="34">
<path d="M40.9091 7.09091H7.09088V40.9091H40.9091V7.09091Z" fill="white"/>
</mask>
<g mask="url(#mask0_782_2493)">
<path d="M33.2727 33.2727C32.4815 32.4163 31.5974 31.774 29.4545 29.4545" stroke="white"/>
<path fill-rule="evenodd" clip-rule="evenodd" d="M25.8491 14.2888C29.7403 18.1799 31.4697 26.8269 28.8755 29.421C26.2815 32.0152 17.6345 30.2858 13.7433 26.3945C12.0139 24.6652 8.33884 19.6931 13.7433 14.2887C19.1477 8.88438 24.1197 12.5593 25.8491 14.2888ZM20.0865 19.7148C20.0865 20.3902 19.539 20.9377 18.8636 20.9377C18.1882 20.9377 17.6407 20.3902 17.6407 19.7148C17.6407 19.0394 18.1882 18.4919 18.8636 18.4919C19.539 18.4919 20.0865 19.0394 20.0865 19.7148ZM15.8061 22.772C16.4815 22.772 17.029 22.2245 17.029 21.5491C17.029 20.8737 16.4815 20.3262 15.8061 20.3262C15.1307 20.3262 14.5832 20.8737 14.5832 21.5491C14.5832 22.2245 15.1307 22.772 15.8061 22.772ZM20.0865 23.3834C20.0865 24.0588 19.539 24.6063 18.8636 24.6063C18.1882 24.6063 17.6407 24.0588 17.6407 23.3834C17.6407 22.7081 18.1882 22.1606 18.8636 22.1606C19.539 22.1606 20.0865 22.7081 20.0865 23.3834Z" fill="white" fill-opacity="0.3"/>
<path d="M28.8755 29.421C31.4697 26.8269 29.7403 18.1799 25.8491 14.2888C24.1197 12.5593 19.1477 8.88438 13.7433 14.2887C8.33884 19.6931 12.0139 24.6652 13.7433 26.3945C17.6345 30.2858 26.2815 32.0152 28.8755 29.421Z" stroke="white" stroke-linecap="round" stroke-linejoin="round"/>
</g>
<rect x="29.4156" y="34.2375" width="6.54545" height="2.83673" rx="1.41836" transform="rotate(-45 29.4156 34.2375)" fill="white"/>
</g>
<path d="M33 35L35 33" stroke="white" stroke-width="3" stroke-linecap="round"/>
<defs>
<clipPath id="clip0_782_2493">
<rect width="33.8182" height="33.8182" fill="white" transform="translate(7.09088 7.09091)"/>
</clipPath>
</defs>
</svg>
