<svg width="88" height="88" viewBox="0 0 88 88" fill="none" xmlns="http://www.w3.org/2000/svg">
<circle cx="44" cy="44" r="44" fill="#E9D48A"/>
<path d="M43.9583 59.0833C56.0855 59.0833 65.9167 49.9656 65.9167 37.125H22C22 49.9656 31.8311 59.0833 43.9583 59.0833Z" fill="white"/>
<path d="M63.958 37C63.958 29.2681 55.0037 23 43.958 23C32.9123 23 23.958 29.2681 23.958 37" fill="white" fill-opacity="0.3"/>
<path d="M63.958 37C63.958 29.2681 55.0037 23 43.958 23C32.9123 23 23.958 29.2681 23.958 37" stroke="white" stroke-width="2" stroke-linejoin="round"/>
<path d="M36.2083 57.7916L33.625 65.5416H54.2917L51.7083 57.7916" fill="white"/>
<path d="M52 29L53 31" stroke="white" stroke-width="2" stroke-linecap="round"/>
<path d="M35 30L34 32" stroke="white" stroke-width="2" stroke-linecap="round"/>
<path d="M43.686 30.8976L43.314 33.1024" stroke="white" stroke-width="2" stroke-linecap="round"/>
<g filter="url(#filter0_b_759_5559)">
<circle cx="44" cy="44" r="44" fill="white" fill-opacity="0.6"/>
<circle cx="44" cy="44" r="43.5" stroke="white" stroke-opacity="0.3"/>
</g>
<path d="M61 33L37.625 56L27 45.5454" stroke="#6D6D6D" stroke-width="3" stroke-linecap="round" stroke-linejoin="round"/>
<defs>
<filter id="filter0_b_759_5559" x="-6" y="-6" width="100" height="100" filterUnits="userSpaceOnUse" color-interpolation-filters="sRGB">
<feFlood flood-opacity="0" result="BackgroundImageFix"/>
<feGaussianBlur in="BackgroundImageFix" stdDeviation="3"/>
<feComposite in2="SourceAlpha" operator="in" result="effect1_backgroundBlur_759_5559"/>
<feBlend mode="normal" in="SourceGraphic" in2="effect1_backgroundBlur_759_5559" result="shape"/>
</filter>
</defs>
</svg>
