<svg width="48" height="48" viewBox="0 0 48 48" fill="none" xmlns="http://www.w3.org/2000/svg">
<circle cx="24" cy="24" r="24" fill="#A6D16E"/>
<circle cx="24" cy="24" r="23" stroke="white" stroke-opacity="0.3" stroke-width="2"/>
<path d="M24.0906 36.5455C22.3358 36.5456 20.8441 36.1497 19.8404 35.5473C18.6809 34.8494 18.0909 33.8574 18.0909 32.5978C18.0909 31.5477 18.9196 30.6719 19.721 29.8238C20.2898 29.2214 21.0779 28.036 21.0779 28.036C21.0779 28.036 21.4922 27.0572 21.4239 26.4217C21.2976 25.247 19.6326 24.3626 19.3624 23.7564C19.0346 23.0026 19.1146 22.5437 19.6108 22.3138C19.7634 22.242 20.3486 22.218 20.3486 22.218C20.3486 22.218 20.2383 21.1144 20.3074 20.7505C20.3904 20.3141 20.7231 18.592 21.505 18.5461C22.0463 18.5143 22.4743 19.6689 22.7518 20.068C22.8414 20.197 22.9032 20.3535 22.9898 20.5696C23.2528 21.2463 23.6732 22.0379 24.0869 22.6814C24.5013 22.0396 24.9223 21.248 25.187 20.57C25.2736 20.3539 25.3361 20.1975 25.4257 20.068C25.7032 19.6689 26.1318 18.5148 26.6731 18.5469C27.3333 18.586 27.7871 20.3149 27.8701 20.7505C27.9392 21.1144 27.9258 21.599 27.8289 22.218H27.8701C28.0579 22.218 28.4165 22.2412 28.5698 22.3134C29.0665 22.5433 29.0955 23.2216 28.8175 23.756C28.4566 24.4497 26.8885 25.1271 26.7105 26.2436C26.5982 26.9474 26.7933 27.3612 27.1043 28.0365C27.4499 28.7865 27.8901 29.2218 28.4607 29.8234C29.2622 30.6714 30.0909 31.5485 30.0909 32.5978C30.0909 33.857 29.5021 34.8494 28.3414 35.5464C27.3352 36.1488 25.8457 36.5454 24.0906 36.5455Z" fill="white"/>
<path d="M24 11.4545C25.086 11.4545 25.5768 12.3157 26.4783 12.6862C27.1609 12.9668 28.3067 12.6679 28.8222 13.2064C29.4043 13.8144 29.1148 15.1272 29.4121 16.1173C29.6613 16.9473 30.5454 17.3935 30.5454 18.5284C30.5454 19.4537 30.0113 20.1604 29.6788 21.132C29.3741 22.0224 29.2922 23.1775 28.8222 24.0352C26.8829 27.5747 24 30.5455 24 30.5455C24 30.5455 21.1171 27.5746 19.1779 24.0352C18.7079 23.1774 18.7818 22.0223 18.4771 21.132C18.1446 20.1604 17.4545 19.4537 17.4545 18.5284C17.4545 17.3935 18.2279 16.9472 18.4771 16.1173C18.7744 15.1272 18.5954 13.8144 19.1774 13.2064C19.6929 12.6679 20.9949 12.9668 21.6776 12.6862C22.5792 12.3157 22.9138 11.4545 24 11.4545Z" fill="white" fill-opacity="0.3" stroke="white" stroke-linecap="round" stroke-linejoin="round"/>
<path d="M23.9999 30.568C23.9999 30.568 27.4126 29.5468 30.3752 27.6787C31.0931 27.2259 31.6535 26.3763 32.2636 25.8266C32.9293 25.2267 33.6293 24.9177 34.0297 24.2085C34.5208 23.3387 34.0616 22.6115 34.2369 21.8668C34.4459 20.9784 35.2277 20.0983 35.0613 19.3788C34.914 18.7415 33.9393 18.4714 33.557 17.9591C33.0522 17.2824 33.0627 16.4085 32.2614 15.9354C31.46 15.4623 30.8405 15.9766 30.0149 15.8678" stroke="white" stroke-linecap="round" stroke-linejoin="round"/>
<path d="M24 30.568C24 30.568 20.5873 29.5467 17.6248 27.6786C16.9069 27.2259 16.4615 26.3084 15.8514 25.7587C15.1856 25.1588 14.3706 24.9177 13.9702 24.2085C13.4791 23.3387 13.8566 22.6598 13.6813 21.9151C13.4722 21.0267 12.772 20.0984 12.9384 19.3789C13.0857 18.7416 14.1757 18.4035 14.5579 17.8911C15.0628 17.2144 14.937 16.4086 15.7385 15.9354C16.5397 15.4624 17.2745 15.9087 18.1001 15.7999" stroke="white" stroke-linecap="round" stroke-linejoin="round"/>
</svg>
