<svg width="88" height="88" viewBox="0 0 88 88" fill="none" xmlns="http://www.w3.org/2000/svg">
<circle cx="44" cy="44" r="44" fill="#A6D16E"/>
<circle cx="44" cy="44" r="43" stroke="white" stroke-opacity="0.3" stroke-width="2"/>
<path d="M43.9997 67C42.2449 67.0002 40.7533 66.2744 39.7495 65.17C38.59 63.8906 38 62.0719 38 59.7626C38 57.8374 38.8287 56.2318 39.6302 54.677C40.199 53.5726 40.9871 51.3994 40.9871 51.3994C40.9871 51.3994 41.4013 49.6048 41.333 48.4397C41.2067 46.2861 39.5417 44.6647 39.2715 43.5535C38.9438 42.1713 39.0237 41.3301 39.5199 40.9087C39.6725 40.7771 40.2577 40.733 40.2577 40.733C40.2577 40.733 40.1474 38.7097 40.2165 38.0427C40.2995 37.2424 40.6322 34.0852 41.4142 34.0012C41.9554 33.9429 42.3834 36.0596 42.6609 36.7913C42.7505 37.0279 42.8123 37.3147 42.899 37.7109C43.1619 38.9515 43.5823 40.4028 43.996 41.5826C44.4104 40.4059 44.8314 38.9546 45.0962 37.7117C45.1828 37.3154 45.2452 37.0287 45.3349 36.7913C45.6123 36.0596 46.0409 33.9438 46.5822 34.0026C47.2424 34.0744 47.6962 37.244 47.7792 38.0427C47.8483 38.7097 47.8349 39.5981 47.738 40.733H47.7792C47.967 40.733 48.3256 40.7755 48.4789 40.908C48.9756 41.3293 49.0046 42.573 48.7267 43.5527C48.3657 44.8245 46.7976 46.0664 46.6196 48.1132C46.5074 49.4036 46.7024 50.1622 47.0135 51.4002C47.359 52.7753 47.7992 53.5733 48.3698 54.6762C49.1713 56.231 50 57.8389 50 59.7626C50 62.0711 49.4112 63.8906 48.2505 65.1684C47.2443 66.2729 45.7548 66.9999 43.9997 67Z" fill="white"/>
<path d="M44 21C45.991 21 46.8908 22.5789 48.5436 23.2581C49.7951 23.7724 51.8956 23.2245 52.8408 24.2117C53.9079 25.3264 53.3771 27.7332 53.9222 29.5484C54.3791 31.07 56 31.8881 56 33.9688C56 35.6651 55.0207 36.9607 54.4112 38.742C53.8526 40.3743 53.7024 42.492 52.8408 44.0646C49.2854 50.5536 44 56 44 56C44 56 38.7148 50.5534 35.1595 44.0646C34.2978 42.492 34.4333 40.3743 33.8747 38.742C33.2651 36.9607 32 35.6651 32 33.9688C32 31.8881 33.4179 31.07 33.8747 29.5484C34.4197 27.7332 34.0916 25.3264 35.1586 24.2117C36.1037 23.2245 38.4908 23.7724 39.7423 23.2581C41.3952 22.5788 42.0086 21 44 21Z" fill="white" fill-opacity="0.3" stroke="white" stroke-width="2" stroke-linecap="round" stroke-linejoin="round"/>
<path d="M43.9999 56.0413C43.9999 56.0413 50.2566 54.1692 55.6879 50.7442C57.0041 49.9142 58.0314 48.3566 59.1499 47.3488C60.3705 46.249 61.6537 45.6825 62.3878 44.3823C63.2882 42.7876 62.4463 41.4545 62.7676 40.0892C63.151 38.4605 64.5842 36.847 64.2791 35.5277C64.009 34.3594 62.2221 33.8643 61.5213 32.925C60.5957 31.6844 60.615 30.0823 59.1461 29.215C57.6768 28.3475 56.541 29.2904 55.0274 29.091" stroke="white" stroke-width="2" stroke-linecap="round" stroke-linejoin="round"/>
<path d="M44 56.0413C44 56.0413 37.7435 54.169 32.3122 50.7442C30.996 49.9142 30.1795 48.2321 29.061 47.2243C27.8404 46.1245 26.3462 45.6825 25.6122 44.3824C24.7118 42.7876 25.4039 41.5429 25.0825 40.1777C24.6991 38.549 23.4155 36.8472 23.7204 35.528C23.9905 34.3597 25.9888 33.7398 26.6896 32.8005C27.6153 31.5598 27.3847 30.0824 28.8539 29.215C30.3229 28.3477 31.67 29.1659 33.1835 28.9665" stroke="white" stroke-width="2" stroke-linecap="round" stroke-linejoin="round"/>
</svg>
