<svg width="48" height="48" viewBox="0 0 48 48" fill="none" xmlns="http://www.w3.org/2000/svg">
<circle cx="24" cy="24" r="24" fill="#84BCE4"/>
<circle cx="24" cy="24" r="23" stroke="white" stroke-opacity="0.3" stroke-width="2"/>
<path d="M15.8225 13.3744C15.7538 12.337 16.5153 11.4545 17.4792 11.4545H30.5207C31.4847 11.4545 32.2462 12.337 32.1775 13.3744L30.7539 34.8809C30.6917 35.8188 29.9685 36.5455 29.0972 36.5455H18.9028C18.0315 36.5455 17.3083 35.8188 17.2461 34.8809L15.8225 13.3744Z" fill="white" fill-opacity="0.3" stroke="white"/>
<path d="M17.458 19.3356C17.4031 18.6139 18.0123 18 18.7834 18H29.2166C29.9877 18 30.597 18.6139 30.542 19.3356L29.4031 34.2966C29.3534 34.949 28.7748 35.4545 28.0778 35.4545H19.9223C19.2252 35.4545 18.6466 34.949 18.5969 34.2966L17.458 19.3356Z" fill="white" fill-opacity="0.3"/>
</svg>
