<svg width="220" height="302" viewBox="0 0 220 302" fill="none" xmlns="http://www.w3.org/2000/svg">
<rect width="220" height="302" rx="15" fill="#D9D9D9"/>
<mask id="mask0_147_268" style="mask-type:alpha" maskUnits="userSpaceOnUse" x="92" y="119" width="36" height="36">
<rect x="92" y="119" width="36" height="36" fill="#D9D9D9"/>
</mask>
<g mask="url(#mask0_147_268)">
<path d="M99.5 152C98.25 152 97.1875 151.562 96.3125 150.688C95.4375 149.812 95 148.75 95 147.5V126.5C95 125.25 95.4375 124.188 96.3125 123.312C97.1875 122.437 98.25 122 99.5 122H120.5C121.75 122 122.812 122.437 123.688 123.312C124.562 124.188 125 125.25 125 126.5V147.5C125 148.75 124.562 149.812 123.688 150.688C122.812 151.562 121.75 152 120.5 152H99.5ZM99.5 149H120.5C120.925 149 121.281 148.856 121.569 148.569C121.856 148.281 122 147.925 122 147.5V126.5C122 126.075 121.856 125.719 121.569 125.431C121.281 125.144 120.925 125 120.5 125H99.5C99.075 125 98.7188 125.144 98.4313 125.431C98.1438 125.719 98 126.075 98 126.5V147.5C98 147.925 98.1438 148.281 98.4313 148.569C98.7188 148.856 99.075 149 99.5 149ZM101 146L107 140L109.7 142.663L113 138.5L119 146H101ZM104 134C103.175 134 102.469 133.706 101.881 133.119C101.294 132.531 101 131.825 101 131C101 130.175 101.294 129.469 101.881 128.881C102.469 128.294 103.175 128 104 128C104.825 128 105.531 128.294 106.119 128.881C106.706 129.469 107 130.175 107 131C107 131.825 106.706 132.531 106.119 133.119C105.531 133.706 104.825 134 104 134Z" fill="#A7A7A7"/>
</g>
<path d="M87.824 167.562H88.86V171.888H94.054V172.868H88.86V178.86H95.244V179.84H82.784V178.86H87.824V167.562ZM99.444 167.562L100.326 167.968C100.06 168.85 99.738 169.676 99.374 170.46V180.4H98.394V172.224C97.918 172.952 97.4 173.652 96.826 174.296L96.532 173.288C97.876 171.622 98.842 169.718 99.444 167.562ZM100.676 168.332H104.092V167.576H105.072V168.332H108.768V169.144H105.072V169.956H108.25V174.016H107.802C108.418 174.702 108.908 175.304 109.244 175.836L108.544 176.326C108.39 176.074 108.222 175.822 108.026 175.57C107.746 175.598 107.48 175.612 107.214 175.626V176.704H109.188V177.586H107.214V179.378C107.214 180.036 106.85 180.372 106.136 180.372H104.498L104.302 179.476C104.834 179.504 105.324 179.532 105.8 179.532C106.094 179.532 106.248 179.406 106.248 179.154V177.586H100.172V176.704H106.248V175.682C104.708 175.766 102.79 175.836 100.522 175.892L100.396 175.08C101.74 175.052 102.972 175.024 104.092 174.996V174.016H101.012V169.956H104.092V169.144H100.676V168.332ZM107.438 174.842C107.256 174.618 107.088 174.422 106.92 174.24L107.27 174.016H105.072V174.954C105.94 174.912 106.724 174.87 107.438 174.842ZM107.354 173.274V172.322H105.002V173.274H107.354ZM104.162 173.274V172.322H101.908V173.274H104.162ZM101.908 171.636H104.162V170.698H101.908V171.636ZM105.002 170.698V171.636H107.354V170.698H105.002ZM101.656 177.726C102.482 178.104 103.238 178.566 103.924 179.112L103.42 179.896C102.692 179.252 101.964 178.762 101.208 178.398L101.656 177.726ZM114.116 169.732H119.926V171.902H117.392L117.182 172.574H121.214V173.274H112.828V172.574H116.286L116.496 171.902H114.116V169.732ZM119.058 171.3V170.348H114.984V171.3H119.058ZM113.5 173.918H120.556V178.3H113.5V173.918ZM119.702 177.656V174.548H114.34V177.656H119.702ZM115.292 175.192H118.75V177.04H115.292V175.192ZM118.022 176.55V175.654H116.02V176.55H118.022ZM122.74 168.136V180.414H121.802V179.868H112.226V180.456H111.288V168.136H122.74ZM112.226 179.028H121.802V168.99H112.226V179.028ZM127.5 167.954H128.522V171.314H133.968V167.576H134.976V172.28H128.522V173.148C128.508 173.638 128.48 174.1 128.452 174.534H135.256V180.428H134.248V175.514H128.326C127.976 177.628 127.178 179.252 125.918 180.386L125.148 179.714C126.688 178.342 127.472 176.158 127.5 173.148V167.954Z" fill="#A7A7A7"/>
<rect x="188" y="267" width="17" height="17" rx="2" fill="black" fill-opacity="0.5"/>
<g clip-path="url(#clip0_147_268)">
<path fill-rule="evenodd" clip-rule="evenodd" d="M200.938 273.062C200.938 273.245 200.865 273.42 200.736 273.549C200.607 273.678 200.432 273.75 200.25 273.75H199.906V279.938C199.906 280.302 199.761 280.652 199.504 280.91C199.246 281.168 198.896 281.312 198.531 281.312H194.406C194.042 281.312 193.692 281.168 193.434 280.91C193.176 280.652 193.031 280.302 193.031 279.938V273.75H192.688C192.505 273.75 192.33 273.678 192.201 273.549C192.072 273.42 192 273.245 192 273.062V272.375C192 272.193 192.072 272.018 192.201 271.889C192.33 271.76 192.505 271.688 192.688 271.688H195.094C195.094 271.505 195.166 271.33 195.295 271.201C195.424 271.072 195.599 271 195.781 271H197.156C197.339 271 197.513 271.072 197.642 271.201C197.771 271.33 197.844 271.505 197.844 271.688H200.25C200.432 271.688 200.607 271.76 200.736 271.889C200.865 272.018 200.938 272.193 200.938 272.375V273.062ZM193.8 273.75L193.719 273.791V279.938C193.719 280.12 193.791 280.295 193.92 280.424C194.049 280.553 194.224 280.625 194.406 280.625H198.531C198.714 280.625 198.888 280.553 199.017 280.424C199.146 280.295 199.219 280.12 199.219 279.938V273.791L199.138 273.75H193.8ZM192.688 273.062V272.375H200.25V273.062H192.688Z" fill="white"/>
<path d="M194.76 274.545C194.85 274.545 194.937 274.579 195.001 274.639C195.066 274.7 195.102 274.782 195.102 274.867V278.734C195.102 278.82 195.066 278.902 195.001 278.962C194.937 279.023 194.85 279.057 194.76 279.057C194.669 279.057 194.582 279.023 194.518 278.962C194.454 278.902 194.418 278.82 194.418 278.734V274.867C194.418 274.782 194.454 274.7 194.518 274.639C194.582 274.579 194.669 274.545 194.76 274.545ZM196.469 274.545C196.559 274.545 196.646 274.579 196.71 274.639C196.775 274.7 196.811 274.782 196.811 274.867V278.734C196.811 278.82 196.775 278.902 196.71 278.962C196.646 279.023 196.559 279.057 196.469 279.057C196.378 279.057 196.291 279.023 196.227 278.962C196.163 278.902 196.127 278.82 196.127 278.734V274.867C196.127 274.782 196.163 274.7 196.227 274.639C196.291 274.579 196.378 274.545 196.469 274.545ZM198.52 274.867C198.52 274.782 198.484 274.7 198.419 274.639C198.355 274.579 198.268 274.545 198.178 274.545C198.087 274.545 198 274.579 197.936 274.639C197.872 274.7 197.836 274.782 197.836 274.867V278.734C197.836 278.82 197.872 278.902 197.936 278.962C198 279.023 198.087 279.057 198.178 279.057C198.268 279.057 198.355 279.023 198.419 278.962C198.484 278.902 198.52 278.82 198.52 278.734V274.867Z" fill="white"/>
</g>
<defs>
<clipPath id="clip0_147_268">
<rect width="10.9375" height="10.3125" fill="white" transform="translate(191 271)"/>
</clipPath>
</defs>
</svg>
