<svg width="158" height="38" viewBox="0 0 158 38" fill="none" xmlns="http://www.w3.org/2000/svg">
<g id="Group 110" filter="url(#filter0_d_322_19843)">
<g id="Group">
<path id="Vector" d="M5.21355 31.1952C4.73785 30.783 4.5 30.217 4.5 29.494V14.933C4.5 11.5079 5.59545 8.82859 7.78299 6.89846C9.97053 4.96834 13.0056 4 16.8816 4C20.7575 4 23.7892 4.96506 25.9801 6.89846C28.1677 8.82859 29.2631 11.5079 29.2631 14.933V29.494C29.2631 30.2137 29.0253 30.783 28.5529 31.1952C28.0772 31.6074 27.4441 31.8135 26.6535 31.8135C25.8629 31.8135 25.223 31.6008 24.7339 31.1755C24.2448 30.7503 24.0036 30.1908 24.0036 29.494V14.8153C24.0036 12.6267 23.3973 10.9517 22.1846 9.79365C20.9719 8.63558 19.2031 8.05654 16.8849 8.05654C14.5667 8.05654 12.7979 8.63558 11.5852 9.79365C10.3725 10.9517 9.76618 12.6267 9.76618 14.8153V29.494C9.76618 30.1876 9.52163 30.7503 9.03588 31.1755C8.54678 31.6008 7.90694 31.8135 7.11634 31.8135C6.32574 31.8135 5.69259 31.6074 5.2169 31.1952H5.21355Z" fill="white"/>
<path id="Vector_2" d="M50.6292 12.1982C50.1535 11.786 49.5371 11.5767 48.8001 11.5767C48.0631 11.5767 47.44 11.7893 46.9543 12.2113C46.4484 12.6497 46.1838 13.2516 46.1838 13.9484V23.7594C46.1838 25.0025 45.8689 25.9087 45.2223 26.527C44.5791 27.142 43.5842 27.4528 42.271 27.4528C40.9578 27.4528 39.9629 27.142 39.3197 26.527C38.6731 25.9087 38.3582 25.0025 38.3582 23.7594V13.9484C38.3582 13.2516 38.0902 12.6497 37.5877 12.2113C37.1053 11.7893 36.4822 11.5767 35.7419 11.5767C35.0015 11.5767 34.3885 11.786 33.9128 12.1982C33.417 12.6301 33.1523 13.2353 33.1523 13.9517V23.6841C33.1523 26.2064 33.9831 28.2183 35.6246 29.6675C37.2393 31.0938 39.4771 31.8168 42.271 31.8168C45.0649 31.8168 47.3027 31.0938 48.9174 29.6675C50.5589 28.2216 51.3897 26.2064 51.3897 23.6841V13.9517C51.3897 13.2353 51.1284 12.6301 50.6292 12.1982Z" fill="white"/>
</g>
<g id="Group_2">
<path id="Vector_3" d="M60.8921 30.0927C59.0027 28.9477 57.5388 27.3251 56.5036 25.2249C55.4685 23.1279 54.9492 20.7005 54.9492 17.9427C54.9492 15.1849 55.4651 12.715 56.5036 10.605C57.5388 8.49491 59.0027 6.86575 60.8921 5.71749C62.7815 4.5725 64.9657 4 67.448 4C69.5183 4 71.4278 4.37294 73.1731 5.11882C74.9185 5.8647 76.2853 6.90828 77.2735 8.24628C77.4645 8.47855 77.5616 8.76316 77.5616 9.09684C77.5616 9.50904 77.3941 9.84272 77.0558 10.1012C76.838 10.2549 76.5968 10.3334 76.3322 10.3334C75.8732 10.3334 75.488 10.1404 75.1764 9.7544C74.4059 8.69773 73.3574 7.88643 72.0341 7.32047C70.7109 6.75452 69.18 6.46991 67.448 6.46991C65.4481 6.46991 63.7161 6.93445 62.2488 7.86025C60.7815 8.78606 59.656 10.1142 58.8721 11.8383C58.0882 13.5623 57.6996 15.5971 57.6996 17.9427C57.6996 20.2883 58.0915 22.274 58.8721 23.9883C59.656 25.7025 60.7849 27.0209 62.2656 27.9467C63.7463 28.8725 65.4849 29.337 67.4849 29.337C69.3374 29.337 70.9588 29.0459 72.3424 28.4668C73.7259 27.8878 74.8146 27.083 75.6119 26.0525C75.9737 25.6403 76.359 25.4342 76.7677 25.4342C77.0558 25.4342 77.297 25.5258 77.4913 25.7058C77.8296 26.0165 77.9971 26.3502 77.9971 26.7101C77.9971 27.0176 77.8899 27.3153 77.6722 27.5999C76.6839 28.8888 75.2836 29.9128 73.4646 30.6717C71.6456 31.4307 69.6557 31.8102 67.4882 31.8102C64.9824 31.8102 62.7882 31.2377 60.8954 30.0927H60.8921Z" fill="white"/>
<path id="Vector_4" d="M82.7767 30.1515C81.4401 29.0457 80.7734 27.5114 80.7734 25.5551C80.7734 23.5988 81.4769 22.0907 82.8873 20.9588C84.2943 19.8269 86.2172 19.2577 88.6493 19.2577C90.0697 19.2577 91.3259 19.4638 92.4247 19.876C93.5201 20.2882 94.3677 20.841 94.9707 21.5378V19.0647C94.9707 17.5958 94.5184 16.477 93.6173 15.7049C92.7128 14.9329 91.3962 14.5469 89.6609 14.5469C87.4232 14.5469 85.4835 15.1128 83.8454 16.248C83.4367 16.5064 83.0983 16.634 82.8337 16.634C82.5925 16.634 82.3513 16.5326 82.1101 16.3265C81.8454 16.0942 81.7114 15.7998 81.7114 15.4367C81.7114 15.0507 81.8689 14.7301 82.1804 14.4716C83.0481 13.7519 84.1502 13.1761 85.4835 12.7541C86.8202 12.3289 88.187 12.1162 89.5839 12.1162C92.1366 12.1162 94.1164 12.7345 95.5234 13.9711C96.9304 15.2077 97.6373 16.9448 97.6373 19.1857V30.3117C97.6373 31.3161 97.2051 31.8166 96.3375 31.8166C95.9522 31.8166 95.6407 31.6825 95.3995 31.4109C95.1583 31.1394 95.0377 30.7861 95.0377 30.3477V28.9574C93.5436 30.8646 91.3058 31.8166 88.321 31.8166C85.9626 31.8166 84.1134 31.2637 82.7767 30.1547V30.1515ZM93.232 28.3162C94.4112 27.5572 95.0008 26.5725 95.0008 25.3621C95.0008 24.1517 94.4514 23.2193 93.356 22.5618C92.2605 21.9042 90.7129 21.5771 88.7163 21.5771C87.0312 21.5771 85.7314 21.9173 84.8169 22.6011C83.9023 23.2848 83.4434 24.2695 83.4434 25.5551C83.4434 26.8408 83.8889 27.783 84.78 28.4536C85.6711 29.1242 86.9575 29.4579 88.6459 29.4579C90.5252 29.4579 92.0528 29.0784 93.232 28.3195V28.3162Z" fill="white"/>
<path id="Vector_5" d="M102.892 31.4043C102.665 31.1328 102.551 30.7533 102.551 30.2659V20.1409C102.551 18.6197 103.013 17.1312 103.911 15.9535C104.018 15.8128 104.125 15.6983 104.212 15.6034C106.353 13.2906 109.053 12.4956 111.941 12.4956H112.842C113.301 12.4956 113.659 12.6068 113.924 12.8227C114.189 13.0419 114.323 13.3429 114.323 13.7289C114.323 14.1149 114.189 14.4126 113.924 14.6187C113.659 14.8248 113.298 14.9263 112.842 14.9263H111.83C109.783 14.9263 107.884 15.6591 106.695 16.9055C105.502 18.1551 105.187 19.7418 105.187 21.878V30.2593C105.187 30.7239 105.073 31.0968 104.846 31.3781C104.618 31.6627 104.286 31.8034 103.854 31.8034C103.445 31.8034 103.127 31.6693 102.896 31.3978L102.892 31.4043Z" fill="white"/>
<path id="Vector_6" d="M117.968 29.2227C116.333 27.4987 115.516 25.0517 115.516 21.885C115.516 18.7182 116.343 16.4577 118.001 14.7206C119.66 12.9835 121.924 12.1133 124.802 12.1133C126.574 12.1133 128.152 12.4273 129.532 13.0587C130.912 13.6901 131.988 14.5799 132.761 15.7249C133.532 16.8699 133.917 18.1785 133.917 19.644C133.917 20.7269 133.646 21.5611 133.106 22.1532C132.564 22.7453 131.823 23.043 130.879 23.043H118.105C118.105 25.0255 118.705 26.5761 119.901 27.6982C121.097 28.8171 122.765 29.3797 124.906 29.3797C126.219 29.3797 127.344 29.2194 128.289 28.8956C129.234 28.575 130.118 28.0516 130.949 27.3318C131.385 26.9196 131.743 26.7135 132.018 26.7135C132.225 26.7135 132.42 26.8182 132.604 27.0211C132.925 27.3318 133.086 27.6524 133.086 27.9861C133.086 28.2446 132.949 28.5259 132.671 28.8367C131.726 29.841 130.621 30.5869 129.358 31.0776C128.091 31.565 126.607 31.8104 124.906 31.8104C121.914 31.8104 119.599 30.9467 117.968 29.2227ZM130.118 20.7629C130.534 20.7629 130.842 20.6647 131.05 20.4717C131.257 20.2787 131.361 19.9254 131.361 19.4085C131.361 18.4827 131.086 17.6452 130.534 16.8993C129.981 16.1535 129.204 15.5744 128.202 15.1622C127.2 14.75 126.068 14.5439 124.802 14.5439C122.752 14.5439 121.137 15.1033 119.951 16.2254C118.765 17.3443 118.172 18.8589 118.172 20.7629H130.118Z" fill="white"/>
<path id="Vector_7" d="M139.913 30.7864C138.419 30.106 137.24 29.1573 136.372 27.9469C136.205 27.6884 136.121 27.4333 136.121 27.1748C136.121 26.9164 136.188 26.6906 136.319 26.4976C136.449 26.3046 136.627 26.1574 136.841 26.0527C137.032 25.9742 137.19 25.9382 137.31 25.9382C137.528 25.9382 137.712 25.9971 137.87 26.1116C138.027 26.2261 138.211 26.4159 138.429 26.671C139.994 28.4474 142.077 29.3372 144.677 29.3372C145.93 29.3372 146.942 29.1049 147.712 28.6437C148.483 28.1791 148.868 27.5379 148.868 26.7135C148.868 26.1214 148.717 25.6373 148.416 25.2643C148.114 24.8914 147.608 24.5446 146.898 24.2207C146.188 23.9001 145.025 23.4421 143.414 22.85C141.85 22.2841 140.62 21.7443 139.729 21.2274C138.838 20.7138 138.175 20.1282 137.742 19.4707C137.31 18.8131 137.093 18.0083 137.093 17.0564C137.093 15.5646 137.699 14.3673 138.915 13.4644C140.131 12.5647 141.749 12.1133 143.772 12.1133C145.267 12.1133 146.65 12.3914 147.926 12.9442C149.203 13.4971 150.164 14.2397 150.814 15.1655C151.008 15.4501 151.102 15.7184 151.102 15.9768C151.102 16.3628 150.908 16.6736 150.523 16.9026C150.281 17.0564 150.04 17.1349 149.799 17.1349C149.39 17.1349 149.005 16.9419 148.643 16.5558C148.017 15.8852 147.33 15.3912 146.583 15.0674C145.836 14.7468 144.885 14.5832 143.729 14.5832C142.453 14.5832 141.478 14.8024 140.804 15.2407C140.131 15.6791 139.793 16.2974 139.793 17.0956C139.793 17.6877 139.93 18.1588 140.208 18.5056C140.486 18.8524 140.932 19.1632 141.545 19.4314C142.158 19.7029 143.236 20.1086 144.777 20.6484C146.509 21.2667 147.853 21.8522 148.804 22.4051C149.756 22.958 150.442 23.5697 150.864 24.2404C151.286 24.911 151.498 25.7354 151.498 26.7135C151.498 28.2577 150.864 29.4942 149.601 30.42C148.338 31.3459 146.694 31.8104 144.67 31.8104C142.985 31.8104 141.394 31.4702 139.903 30.7864H139.913Z" fill="white"/>
</g>
</g>
<defs>
<filter id="filter0_d_322_19843" x="0.5" y="0" width="156.996" height="37.8169" filterUnits="userSpaceOnUse" color-interpolation-filters="sRGB">
<feFlood flood-opacity="0" result="BackgroundImageFix"/>
<feColorMatrix in="SourceAlpha" type="matrix" values="0 0 0 0 0 0 0 0 0 0 0 0 0 0 0 0 0 0 127 0" result="hardAlpha"/>
<feOffset dx="1" dy="1"/>
<feGaussianBlur stdDeviation="2.5"/>
<feComposite in2="hardAlpha" operator="out"/>
<feColorMatrix type="matrix" values="0 0 0 0 0 0 0 0 0 0 0 0 0 0 0 0 0 0 0.35 0"/>
<feBlend mode="normal" in2="BackgroundImageFix" result="effect1_dropShadow_322_19843"/>
<feBlend mode="normal" in="SourceGraphic" in2="effect1_dropShadow_322_19843" result="shape"/>
</filter>
</defs>
</svg>
