<svg width="100" height="19" viewBox="0 0 100 19" fill="none" xmlns="http://www.w3.org/2000/svg">
<g id="Group 110">
<g id="Group">
<path id="Vector" d="M0.485408 18.5002C0.161802 18.2198 0 17.8348 0 17.343V7.43747C0 5.10742 0.745205 3.28477 2.23334 1.97175C3.72147 0.658735 5.78616 0 8.42287 0C11.0596 0 13.122 0.656509 14.6124 1.97175C16.1005 3.28477 16.8457 5.10742 16.8457 7.43747V17.343C16.8457 17.8326 16.6839 18.2198 16.3626 18.5002C16.039 18.7806 15.6083 18.9208 15.0705 18.9208C14.5326 18.9208 14.0974 18.7762 13.7646 18.4869C13.4319 18.1975 13.2678 17.817 13.2678 17.343V7.35735C13.2678 5.86852 12.8554 4.72909 12.0304 3.94128C11.2054 3.15347 10.0022 2.75956 8.42514 2.75956C6.84814 2.75956 5.64487 3.15347 4.8199 3.94128C3.99494 4.72909 3.58245 5.86852 3.58245 7.35735V17.343C3.58245 17.8148 3.41609 18.1975 3.08565 18.4869C2.75293 18.7762 2.31765 18.9208 1.77983 18.9208C1.24201 18.9208 0.811293 18.7806 0.487687 18.5002H0.485408Z" fill="#51ACBF"/>
<path id="Vector_2" d="M31.3793 5.57713C31.0557 5.29673 30.6364 5.1543 30.135 5.1543C29.6337 5.1543 29.2098 5.29895 28.8794 5.58604C28.5352 5.88425 28.3552 6.29373 28.3552 6.76775V13.4419C28.3552 14.2876 28.141 14.904 27.7012 15.3246C27.2636 15.743 26.5868 15.9544 25.6934 15.9544C24.8001 15.9544 24.1233 15.743 23.6857 15.3246C23.2459 14.904 23.0317 14.2876 23.0317 13.4419V6.76775C23.0317 6.29373 22.8494 5.88425 22.5075 5.58604C22.1793 5.29895 21.7555 5.1543 21.2518 5.1543C20.7482 5.1543 20.3312 5.29673 20.0075 5.57713C19.6703 5.87089 19.4902 6.2826 19.4902 6.76998V13.3907C19.4902 15.1065 20.0554 16.4752 21.1721 17.4611C22.2705 18.4314 23.7928 18.9232 25.6934 18.9232C27.5941 18.9232 29.1164 18.4314 30.2148 17.4611C31.3315 16.4774 31.8966 15.1065 31.8966 13.3907V6.76998C31.8966 6.2826 31.7189 5.87089 31.3793 5.57713Z" fill="#51ACBF"/>
</g>
<g id="Group_2">
<path id="Vector_3" d="M38.3621 17.7502C37.0768 16.9713 36.0809 15.8675 35.3768 14.4387C34.6726 13.0122 34.3193 11.3609 34.3193 9.48489C34.3193 7.60883 34.6703 5.92861 35.3768 4.49319C36.0809 3.05777 37.0768 1.9495 38.3621 1.16836C39.6474 0.389455 41.1333 0 42.822 0C44.2303 0 45.5293 0.253702 46.7166 0.761105C47.9039 1.26851 48.8337 1.97843 49.506 2.88864C49.6359 3.04665 49.702 3.24026 49.702 3.46726C49.702 3.74767 49.5881 3.97466 49.3579 4.15047C49.2098 4.25507 49.0457 4.30848 48.8656 4.30848C48.5534 4.30848 48.2914 4.17718 48.0794 3.91457C47.5553 3.19575 46.842 2.64384 45.9418 2.25884C45.0416 1.87383 44.0002 1.68022 42.822 1.68022C41.4615 1.68022 40.2833 1.99623 39.2851 2.62604C38.2869 3.25584 37.5212 4.15937 36.9879 5.33219C36.4547 6.505 36.1903 7.88924 36.1903 9.48489C36.1903 11.0805 36.457 12.4314 36.9879 13.5975C37.5212 14.7637 38.2892 15.6605 39.2965 16.2903C40.3038 16.9201 41.4865 17.2361 42.847 17.2361C44.1073 17.2361 45.2103 17.0381 46.1515 16.6442C47.0927 16.2503 47.8333 15.7028 48.3757 15.0018C48.6218 14.7214 48.8839 14.5812 49.1619 14.5812C49.3579 14.5812 49.522 14.6435 49.6541 14.7659C49.8843 14.9773 49.9983 15.2043 49.9983 15.4491C49.9983 15.6583 49.9253 15.8608 49.7772 16.0544C49.1049 16.9313 48.1523 17.6278 46.9149 18.1441C45.6774 18.6604 44.3238 18.9186 42.8493 18.9186C41.1447 18.9186 39.652 18.5291 38.3644 17.7502H38.3621Z" fill="#51ACBF"/>
<path id="Vector_4" d="M53.2485 17.7904C52.3392 17.0382 51.8857 15.9945 51.8857 14.6637C51.8857 13.3328 52.3643 12.3069 53.3237 11.5369C54.2809 10.7669 55.589 10.3797 57.2435 10.3797C58.2097 10.3797 59.0643 10.5199 59.8118 10.8003C60.557 11.0807 61.1336 11.4568 61.5438 11.9308V10.2483C61.5438 9.24912 61.2361 8.48802 60.6231 7.96281C60.0078 7.4376 59.1122 7.175 57.9317 7.175C56.4094 7.175 55.0899 7.56 53.9755 8.33223C53.6975 8.50804 53.4673 8.59484 53.2873 8.59484C53.1232 8.59484 52.9591 8.52585 52.795 8.38564C52.615 8.22764 52.5238 8.02735 52.5238 7.78032C52.5238 7.51772 52.6309 7.29962 52.8429 7.12381C53.4331 6.63421 54.1829 6.24253 55.0899 5.95545C55.9992 5.66614 56.929 5.52148 57.8793 5.52148C59.6158 5.52148 60.9627 5.9421 61.9198 6.78332C62.8769 7.62454 63.3578 8.80626 63.3578 10.3307V17.8995C63.3578 18.5827 63.0638 18.9232 62.4736 18.9232C62.2115 18.9232 61.9996 18.8319 61.8355 18.6472C61.6714 18.4625 61.5894 18.2222 61.5894 17.9239V16.9781C60.573 18.2756 59.0506 18.9232 57.0201 18.9232C55.4158 18.9232 54.1578 18.5471 53.2485 17.7926V17.7904ZM60.361 16.5419C61.1632 16.0256 61.5643 15.3558 61.5643 14.5324C61.5643 13.7089 61.1905 13.0747 60.4453 12.6274C59.7001 12.18 58.6473 11.9575 57.2891 11.9575C56.1428 11.9575 55.2585 12.1889 54.6364 12.6541C54.0142 13.1192 53.702 13.789 53.702 14.6637C53.702 15.5383 54.0051 16.1792 54.6113 16.6354C55.2175 17.0916 56.0926 17.3186 57.2412 17.3186C58.5197 17.3186 59.5588 17.0605 60.361 16.5442V16.5419Z" fill="#51ACBF"/>
<path id="Vector_5" d="M66.9356 18.6424C66.7806 18.4577 66.7031 18.1996 66.7031 17.868V10.9802C66.7031 9.94535 67.0176 8.93277 67.6284 8.1316C67.7013 8.03591 67.7742 7.95802 67.8335 7.89348C69.2897 6.32008 71.1265 5.7793 73.0909 5.7793H73.7039C74.0162 5.7793 74.26 5.85496 74.44 6.00184C74.6201 6.15095 74.7112 6.35569 74.7112 6.61829C74.7112 6.8809 74.6201 7.08341 74.44 7.22362C74.26 7.36382 74.0139 7.43281 73.7039 7.43281H73.0157C71.6233 7.43281 70.3312 7.93131 69.5221 8.77921C68.7108 9.62933 68.4966 10.7087 68.4966 12.1619V17.8635C68.4966 18.1795 68.4191 18.4332 68.2642 18.6246C68.1092 18.8182 67.8836 18.9139 67.5896 18.9139C67.3116 18.9139 67.0951 18.8227 66.9379 18.638L66.9356 18.6424Z" fill="#51ACBF"/>
<path id="Vector_6" d="M77.1896 17.1582C76.0775 15.9854 75.5215 14.3207 75.5215 12.1665C75.5215 10.0122 76.0844 8.47445 77.2124 7.29273C78.3405 6.11101 79.881 5.51904 81.8386 5.51904C83.0442 5.51904 84.1175 5.73269 85.0565 6.1622C85.9954 6.59171 86.7269 7.19704 87.2533 7.97594C87.7775 8.75485 88.0396 9.64504 88.0396 10.642C88.0396 11.3787 87.855 11.9462 87.4881 12.349C87.1189 12.7518 86.6152 12.9543 85.9726 12.9543H77.2831C77.2831 14.3029 77.691 15.3578 78.5046 16.1211C79.3182 16.8822 80.4531 17.265 81.9093 17.265C82.8026 17.265 83.5683 17.1559 84.211 16.9356C84.8536 16.7175 85.4553 16.3615 86.0204 15.8719C86.3167 15.5915 86.5605 15.4512 86.7474 15.4512C86.8887 15.4512 87.0209 15.5225 87.1462 15.6604C87.365 15.8719 87.4744 16.09 87.4744 16.3169C87.4744 16.4928 87.3809 16.6841 87.1918 16.8956C86.5491 17.5788 85.7971 18.0862 84.938 18.42C84.0765 18.7516 83.067 18.9185 81.9093 18.9185C79.8742 18.9185 78.2995 18.331 77.1896 17.1582ZM85.4553 11.4031C85.7379 11.4031 85.9475 11.3364 86.0888 11.2051C86.2301 11.0738 86.3007 10.8334 86.3007 10.4818C86.3007 9.852 86.1139 9.28229 85.7379 8.77488C85.3618 8.26748 84.8331 7.87357 84.1517 7.59317C83.4703 7.31276 82.7001 7.17256 81.8386 7.17256C80.4439 7.17256 79.3455 7.55311 78.5388 8.31644C77.732 9.07754 77.3287 10.1079 77.3287 11.4031H85.4553Z" fill="#51ACBF"/>
<path id="Vector_7" d="M92.1188 18.2219C91.1024 17.759 90.3002 17.1137 89.71 16.2902C89.596 16.1144 89.5391 15.9408 89.5391 15.765C89.5391 15.5892 89.5846 15.4357 89.6735 15.3044C89.7624 15.1731 89.8832 15.0729 90.029 15.0017C90.1589 14.9483 90.266 14.9238 90.3481 14.9238C90.4962 14.9238 90.6215 14.9639 90.7287 15.0418C90.8358 15.1197 90.9611 15.2487 91.1092 15.4223C92.1735 16.6307 93.591 17.2361 95.3594 17.2361C96.2117 17.2361 96.9 17.0781 97.4241 16.7643C97.9483 16.4483 98.2103 16.0121 98.2103 15.4512C98.2103 15.0484 98.1078 14.7191 97.9027 14.4654C97.6976 14.2117 97.3535 13.9758 96.8703 13.7555C96.3872 13.5374 95.5964 13.2258 94.5003 12.823C93.436 12.438 92.5996 12.0708 91.9935 11.7192C91.3873 11.3698 90.936 10.9714 90.6421 10.5241C90.3481 10.0768 90.2 9.52931 90.2 8.88171C90.2 7.8669 90.6124 7.05238 91.4397 6.43816C92.2669 5.82616 93.3676 5.51904 94.7441 5.51904C95.7605 5.51904 96.7017 5.70821 97.57 6.08431C98.4382 6.46041 99.0923 6.96559 99.5344 7.59539C99.6666 7.78901 99.7304 7.97149 99.7304 8.14731C99.7304 8.40991 99.5982 8.62133 99.3361 8.77711C99.172 8.8817 99.008 8.93512 98.8439 8.93512C98.5658 8.93512 98.3038 8.80381 98.0576 8.54121C97.6315 8.08499 97.1643 7.74895 96.6561 7.52863C96.1479 7.31053 95.5007 7.19926 94.7145 7.19926C93.8462 7.19926 93.183 7.34837 92.725 7.64658C92.2669 7.94479 92.0368 8.3654 92.0368 8.90841C92.0368 9.31122 92.1302 9.63168 92.3193 9.86758C92.5085 10.1035 92.8116 10.3149 93.2286 10.4974C93.6457 10.6821 94.3795 10.9581 95.4278 11.3253C96.606 11.7459 97.5198 12.1442 98.167 12.5203C98.8142 12.8964 99.2814 13.3126 99.5686 13.7688C99.8557 14.225 99.9993 14.7858 99.9993 15.4512C99.9993 16.5017 99.5686 17.3429 98.7094 17.9727C97.8503 18.6025 96.7313 18.9185 95.3549 18.9185C94.2086 18.9185 93.1261 18.6871 92.112 18.2219H92.1188Z" fill="#51ACBF"/>
</g>
</g>
</svg>
