<svg width="170" height="28" viewBox="0 0 170 28" fill="none" xmlns="http://www.w3.org/2000/svg">
<path d="M30.0147 12.778C30.0147 11.7738 29.8522 10.7835 29.5271 9.83898C29.5086 9.78279 29.4791 9.72661 29.4495 9.67745C29.4495 9.61776 29.4532 9.55806 29.4532 9.49837C29.4532 4.26285 24.9723 0 19.4606 0H9.9926C4.48097 0 0 4.25934 0 9.49837V22.6627C0 25.6017 2.5157 27.9965 5.61137 27.9965H12.5009C12.9848 27.9965 13.3764 27.6243 13.3764 27.1643C13.3764 26.7043 12.9848 26.3321 12.5009 26.3321H5.61137C4.3332 26.3321 3.19911 25.7351 2.49723 24.8222C3.00332 23.3088 4.46989 22.2764 6.17288 22.2764H18.2342V22.6662C18.2342 25.6052 20.7499 28 23.8456 28C26.9412 28 29.4569 25.6087 29.4569 22.6662V16.1174C29.4569 16.0647 29.4495 16.0085 29.4385 15.9594C29.8116 14.9656 30.0147 13.8947 30.0147 12.7815V12.778ZM20.0221 20.612H19.9852V18.9862C23.4614 18.8141 26.4684 16.9461 28.116 14.2388C27.3956 17.8626 24.0413 20.612 20.0221 20.612ZM19.4606 1.66792C24.0044 1.66792 27.7022 5.18284 27.7022 9.50188C27.7022 13.8209 24.2852 17.0584 19.9852 17.3183V9.50188C19.9852 6.25382 18.26 3.38149 15.6372 1.66792H19.4606ZM9.9926 1.66792C14.5364 1.66792 18.2342 5.18284 18.2342 9.50188V17.3358H5.61137C4.11525 17.3358 2.75951 17.8977 1.75471 18.8071V9.50188C1.75101 5.17933 5.44883 1.66441 9.9926 1.66441V1.66792ZM6.75285 20.612H6.17288C4.39231 20.612 2.78906 21.3915 1.75471 22.6486C1.7621 20.6331 3.49094 18.9967 5.61137 18.9967H18.2342V20.6085H6.75285V20.612ZM27.7022 22.6662C27.7022 24.6887 25.9734 26.3321 23.8456 26.3321C21.7177 26.3321 19.9889 24.6887 19.9889 22.6662V22.2764H20.0258C23.1104 22.2764 25.8699 20.9421 27.7059 18.8457V22.6627L27.7022 22.6662Z" fill="url(#paint0_linear_2721_13579)"/>
<path d="M39.9765 25.5368C39.5556 25.1811 39.3398 24.697 39.3398 24.0795V11.5867C39.3398 8.64753 40.3184 6.35051 42.2704 4.69567C44.2223 3.04083 46.9266 2.21094 50.3885 2.21094C53.8504 2.21094 56.5494 3.04083 58.5066 4.69567C60.4585 6.35051 61.4371 8.64753 61.4371 11.5867V24.0795C61.4371 24.697 61.2267 25.1861 60.8005 25.5368C60.3796 25.8875 59.8114 26.0653 59.1064 26.0653C58.4014 26.0653 57.8279 25.8826 57.3965 25.517C56.9598 25.1515 56.7441 24.6723 56.7441 24.0746V11.483C56.7441 9.60585 56.2022 8.16837 55.1184 7.17546C54.0345 6.18256 52.4614 5.68363 50.3885 5.68363C48.3155 5.68363 46.7424 6.18256 45.6586 7.17546C44.5748 8.16837 44.0329 9.60585 44.0329 11.483V24.0746C44.0329 24.6723 43.8172 25.1515 43.3805 25.517C42.9438 25.8826 42.3756 26.0653 41.6706 26.0653C40.9656 26.0653 40.4026 25.8875 39.9765 25.5368Z" fill="#89CBD7"/>
<path d="M80.1133 9.24547C79.6871 8.8898 79.14 8.71197 78.4823 8.71197C77.8246 8.71197 77.267 8.89474 76.8355 9.25535C76.3831 9.63078 76.1463 10.1495 76.1463 10.7472V19.1646C76.1463 20.2316 75.8675 21.0072 75.2887 21.5358C74.7152 22.0643 73.8261 22.3311 72.6528 22.3311C71.4796 22.3311 70.5957 22.0643 70.0169 21.5358C69.4382 21.0023 69.1594 20.2267 69.1594 19.1597V10.7422C69.1594 10.1445 68.9226 9.62584 68.4701 9.25041C68.0387 8.88981 67.4863 8.70703 66.8234 8.70703C66.1604 8.70703 65.6133 8.88487 65.1924 9.24053C64.7504 9.61102 64.5137 10.1297 64.5137 10.7422V19.0905C64.5137 21.2542 65.2555 22.9782 66.7181 24.223C68.1597 25.4481 70.1537 26.0656 72.6476 26.0656C75.1414 26.0656 77.1354 25.4432 78.577 24.223C80.0396 22.9831 80.7815 21.2542 80.7815 19.0905V10.7422C80.7815 10.1297 80.5447 9.61102 80.1028 9.24053L80.1133 9.24547Z" fill="#89CBD7"/>
<path d="M89.1614 24.5883C87.4725 23.6053 86.1677 22.2123 85.247 20.4142C84.321 18.6161 83.8633 16.5315 83.8633 14.1703C83.8633 11.809 84.3263 9.68489 85.247 7.87692C86.173 6.064 87.4778 4.67097 89.1614 3.68301C90.845 2.69998 92.7969 2.21094 95.0119 2.21094C96.8586 2.21094 98.5632 2.53203 100.121 3.1742C101.678 3.81638 102.899 4.71049 103.777 5.85653C103.951 6.05412 104.035 6.30111 104.035 6.58762C104.035 6.94329 103.882 7.2298 103.582 7.44715C103.388 7.58053 103.172 7.64474 102.941 7.64474C102.53 7.64474 102.188 7.47679 101.909 7.14582C101.22 6.24183 100.289 5.54532 99.1051 5.05628C97.9214 4.57217 96.5587 4.32518 95.0119 4.32518C93.2283 4.32518 91.6815 4.72037 90.3715 5.51568C89.0614 6.31099 88.0565 7.44715 87.3568 8.9291C86.657 10.411 86.3098 12.1548 86.3098 14.1653C86.3098 16.1758 86.657 17.8801 87.3568 19.3521C88.0565 20.8193 89.0667 21.9554 90.3872 22.7507C91.7078 23.546 93.2599 23.9412 95.0435 23.9412C96.6955 23.9412 98.1423 23.6942 99.3787 23.1953C100.615 22.6964 101.588 22.0098 102.293 21.1255C102.614 20.7699 102.962 20.597 103.325 20.597C103.582 20.597 103.798 20.676 103.967 20.8291C104.266 21.0959 104.419 21.3824 104.419 21.6887C104.419 21.9554 104.324 22.2073 104.13 22.4494C103.251 23.5559 101.999 24.4303 100.378 25.0823C98.7579 25.7344 96.9796 26.0604 95.0435 26.0604C92.8074 26.0604 90.8502 25.5714 89.1614 24.5883Z" fill="#FEC1A3"/>
<path d="M108.693 24.6376C107.499 23.6892 106.904 22.3752 106.904 20.6956C106.904 19.0161 107.53 17.7268 108.788 16.7536C110.045 15.7805 111.755 15.2964 113.928 15.2964C115.196 15.2964 116.317 15.4742 117.295 15.825C118.274 16.1806 119.031 16.6548 119.568 17.2476V15.1284C119.568 13.8688 119.163 12.9105 118.358 12.2436C117.553 11.5816 116.375 11.2507 114.828 11.2507C112.828 11.2507 111.103 11.7348 109.64 12.7079C109.277 12.9302 108.972 13.0389 108.74 13.0389C108.525 13.0389 108.309 12.95 108.099 12.7721C107.862 12.5745 107.746 12.3177 107.746 12.0114C107.746 11.6804 107.883 11.4038 108.167 11.1815C108.94 10.564 109.924 10.0701 111.113 9.70945C112.308 9.3439 113.523 9.16113 114.77 9.16113C117.048 9.16113 118.816 9.68969 120.068 10.7518C121.32 11.8138 121.951 13.3007 121.951 15.2272V24.771C121.951 25.6305 121.567 26.0652 120.794 26.0652C120.452 26.0652 120.173 25.9516 119.957 25.7194C119.742 25.4872 119.637 25.1859 119.637 24.8105V23.62C118.305 25.2551 116.306 26.0701 113.644 26.0701C111.539 26.0701 109.893 25.5959 108.698 24.6475L108.693 24.6376ZM118.021 23.0618C119.074 22.4097 119.6 21.565 119.6 20.5277C119.6 19.4903 119.11 18.6901 118.132 18.1269C117.153 17.5638 115.775 17.2822 113.991 17.2822C112.486 17.2822 111.329 17.5737 110.514 18.1615C109.698 18.7493 109.288 19.594 109.288 20.6956C109.288 21.7972 109.687 22.6073 110.482 23.1804C111.276 23.7534 112.423 24.0399 113.928 24.0399C115.601 24.0399 116.969 23.7139 118.021 23.0618Z" fill="#FEC1A3"/>
<path d="M126.639 25.7146C126.434 25.4824 126.334 25.1564 126.334 24.7365V16.0523C126.334 14.7482 126.75 13.4737 127.549 12.461C127.644 12.3425 127.739 12.2437 127.818 12.1597C129.727 10.1739 132.137 9.49219 134.715 9.49219H135.52C135.931 9.49219 136.251 9.58604 136.488 9.77376C136.725 9.96147 136.841 10.2233 136.841 10.5543C136.841 10.8852 136.725 11.1421 136.488 11.315C136.251 11.4928 135.931 11.5817 135.52 11.5817H134.62C132.795 11.5817 131.101 12.2091 130.038 13.281C128.975 14.353 128.691 15.7114 128.691 17.5441V24.7365C128.691 25.1317 128.591 25.4528 128.386 25.6948C128.181 25.9369 127.886 26.0604 127.502 26.0604C127.139 26.0604 126.85 25.9467 126.65 25.7146H126.639Z" fill="#FEC1A3"/>
<path d="M140.083 23.8422C138.626 22.3603 137.895 20.2658 137.895 17.5489C137.895 14.832 138.636 12.8956 140.11 11.4038C141.588 9.91193 143.608 9.16602 146.176 9.16602C147.754 9.16602 149.164 9.43771 150.395 9.97615C151.626 10.5195 152.589 11.2803 153.273 12.2633C153.962 13.2463 154.304 14.3676 154.304 15.6273C154.304 16.556 154.062 17.2723 153.578 17.7811C153.094 18.2899 152.431 18.5418 151.59 18.5418H140.194C140.194 20.2411 140.725 21.5749 141.793 22.5332C142.861 23.4964 144.35 23.9756 146.26 23.9756C147.428 23.9756 148.438 23.8373 149.28 23.5607C150.122 23.284 150.911 22.8394 151.653 22.217C152.042 21.8614 152.363 21.6885 152.605 21.6885C152.789 21.6885 152.963 21.7774 153.131 21.9552C153.421 22.222 153.563 22.4986 153.563 22.7851C153.563 23.0074 153.442 23.2495 153.194 23.5162C152.352 24.3757 151.369 25.0179 150.237 25.4378C149.106 25.8577 147.786 26.0652 146.265 26.0652C143.598 26.0652 141.53 25.3242 140.073 23.8472L140.083 23.8422ZM150.927 16.5856C151.295 16.5856 151.574 16.5017 151.758 16.3386C151.942 16.1707 152.037 15.8694 152.037 15.4297C152.037 14.6344 151.79 13.9181 151.295 13.2759C150.8 12.6338 150.111 12.1398 149.217 11.7841C148.322 11.4334 147.312 11.2556 146.181 11.2556C144.355 11.2556 142.909 11.7347 141.856 12.698C140.799 13.6613 140.267 14.9555 140.267 16.5906H150.927V16.5856Z" fill="#FEC1A3"/>
<path d="M159.662 25.1859C158.331 24.603 157.279 23.7879 156.506 22.7505C156.353 22.5282 156.279 22.3109 156.279 22.0886C156.279 21.8663 156.337 21.6736 156.458 21.5106C156.574 21.3427 156.732 21.2192 156.926 21.1303C157.1 21.066 157.237 21.0315 157.347 21.0315C157.542 21.0315 157.705 21.0809 157.847 21.1797C157.984 21.2785 158.152 21.4415 158.347 21.6588C159.741 23.1852 161.604 23.946 163.919 23.946C165.034 23.946 165.939 23.7484 166.623 23.3483C167.312 22.9531 167.654 22.3998 167.654 21.6934C167.654 21.1846 167.517 20.7697 167.249 20.4486C166.981 20.1275 166.528 19.8311 165.897 19.5545C165.26 19.2778 164.229 18.8876 162.787 18.3788C161.393 17.8947 160.294 17.4303 159.499 16.9858C158.705 16.5461 158.115 16.0422 157.726 15.4791C157.337 14.916 157.147 14.2244 157.147 13.4093C157.147 12.1299 157.689 11.1024 158.773 10.3269C159.857 9.55626 161.304 9.16602 163.108 9.16602C164.44 9.16602 165.676 9.40313 166.812 9.87735C167.949 10.3516 168.812 10.9888 169.39 11.7841C169.564 12.0262 169.648 12.2583 169.648 12.4806C169.648 12.8116 169.475 13.0784 169.133 13.2759C168.917 13.4093 168.701 13.4735 168.491 13.4735C168.128 13.4735 167.78 13.3056 167.459 12.9746C166.902 12.4016 166.286 11.9768 165.623 11.7001C164.955 11.4235 164.108 11.2852 163.077 11.2852C161.94 11.2852 161.067 11.4729 160.467 11.8483C159.867 12.2238 159.562 12.7523 159.562 13.439C159.562 13.9478 159.683 14.3479 159.931 14.6492C160.178 14.9456 160.572 15.2124 161.125 15.4445C161.672 15.6767 162.635 16.0225 164.008 16.4868C165.555 17.0154 166.754 17.5193 167.602 17.9935C168.449 18.4677 169.064 18.9913 169.438 19.5693C169.811 20.1423 170.001 20.8487 170.001 21.6885C170.001 23.0123 169.438 24.0744 168.307 24.8697C167.181 25.665 165.713 26.0602 163.908 26.0602C162.403 26.0602 160.988 25.7688 159.657 25.1809L159.662 25.1859Z" fill="#FEC1A3"/>
<defs>
<linearGradient id="paint0_linear_2721_13579" x1="15.0074" y1="0" x2="15.0074" y2="28" gradientUnits="userSpaceOnUse">
<stop stop-color="#A8DAE2"/>
<stop offset="1" stop-color="#FFDBC9"/>
</linearGradient>
</defs>
</svg>
