<svg width="221" height="38" viewBox="0 0 221 38" fill="none" xmlns="http://www.w3.org/2000/svg">
<path d="M39 17.3416C39 15.9787 38.7888 14.6348 38.3664 13.3529C38.3424 13.2766 38.304 13.2004 38.2656 13.1337C38.2656 13.0527 38.2704 12.9717 38.2704 12.8906C38.2704 5.7853 32.448 0 25.2864 0H12.984C5.8224 0 0 5.78054 0 12.8906V30.7565C0 34.7452 3.2688 37.9952 7.2912 37.9952H16.2432C16.872 37.9952 17.3808 37.4901 17.3808 36.8658C17.3808 36.2415 16.872 35.7364 16.2432 35.7364H7.2912C5.6304 35.7364 4.1568 34.9263 3.2448 33.6872C3.9024 31.6333 5.808 30.2323 8.0208 30.2323H23.6928V30.7612C23.6928 34.7499 26.9616 38 30.984 38C35.0064 38 38.2752 34.7547 38.2752 30.7612V21.8736C38.2752 21.8021 38.2656 21.7259 38.2512 21.6591C38.736 20.3105 39 18.857 39 17.3464V17.3416ZM26.016 27.9734H25.968V25.767C30.4848 25.5335 34.392 22.9982 36.5328 19.3241C35.5968 24.242 31.2384 27.9734 26.016 27.9734ZM25.2864 2.26361C31.1904 2.26361 35.9952 7.03386 35.9952 12.8954C35.9952 18.757 31.5552 23.1507 25.968 23.5034V12.8954C25.968 8.48733 23.7264 4.58916 20.3184 2.26361H25.2864ZM12.984 2.26361C18.888 2.26361 23.6928 7.03386 23.6928 12.8954V23.5272H7.2912C5.3472 23.5272 3.5856 24.2897 2.28 25.524V12.8954C2.2752 7.02909 7.08 2.25884 12.984 2.25884V2.26361ZM8.7744 27.9734H8.0208C5.7072 27.9734 3.624 29.0314 2.28 30.7374C2.2896 28.002 4.536 25.7813 7.2912 25.7813H23.6928V27.9686H8.7744V27.9734ZM35.9952 30.7612C35.9952 33.5061 33.7488 35.7364 30.984 35.7364C28.2192 35.7364 25.9728 33.5061 25.9728 30.7612V30.2323H26.0208C30.0288 30.2323 33.6144 28.4214 36 25.5764V30.7565L35.9952 30.7612Z" fill="url(#paint0_linear_353_22537)"/>
<path d="M51.9444 34.6565C51.3975 34.1738 51.1172 33.5168 51.1172 32.6788V15.7243C51.1172 11.7354 52.3887 8.61799 54.925 6.37213C57.4613 4.12628 60.9751 3 65.4734 3C69.9716 3 73.4787 4.12628 76.0217 6.37213C78.558 8.61799 79.8295 11.7354 79.8295 15.7243V32.6788C79.8295 33.5168 79.5561 34.1805 79.0024 34.6565C78.4555 35.1325 77.7171 35.3738 76.8011 35.3738C75.885 35.3738 75.1399 35.1258 74.5793 34.6297C74.0119 34.1336 73.7316 33.4833 73.7316 32.6721V15.5835C73.7316 13.036 73.0275 11.0851 71.6192 9.73757C70.2109 8.39005 68.1669 7.71294 65.4734 7.71294C62.7799 7.71294 60.7358 8.39005 59.3276 9.73757C57.9193 11.0851 57.2151 13.036 57.2151 15.5835V32.6721C57.2151 33.4833 56.9349 34.1336 56.3674 34.6297C55.8 35.1258 55.0617 35.3738 54.1457 35.3738C53.2296 35.3738 52.4981 35.1325 51.9444 34.6565Z" fill="#89CBD7"/>
<path d="M104.098 12.5467C103.544 12.064 102.833 11.8226 101.978 11.8226C101.124 11.8226 100.399 12.0707 99.8387 12.5601C99.2508 13.0696 98.9431 13.7735 98.9431 14.5847V26.0084C98.9431 27.4565 98.5808 28.509 97.8288 29.2263C97.0837 29.9437 95.9283 30.3057 94.4038 30.3057C92.8793 30.3057 91.7309 29.9437 90.9789 29.2263C90.2269 28.5023 89.8645 27.4498 89.8645 26.0017V14.578C89.8645 13.7668 89.5569 13.0629 88.969 12.5534C88.4084 12.064 87.6906 11.8159 86.8292 11.8159C85.9679 11.8159 85.2569 12.0573 84.71 12.54C84.1358 13.0428 83.8281 13.7467 83.8281 14.578V25.9078C83.8281 28.8442 84.792 31.1839 86.6925 32.8733C88.5657 34.5359 91.1566 35.3739 94.397 35.3739C97.6374 35.3739 100.228 34.5292 102.101 32.8733C104.002 31.1906 104.966 28.8442 104.966 25.9078V14.578C104.966 13.7467 104.658 13.0428 104.084 12.54L104.098 12.5467Z" fill="#89CBD7"/>
<path d="M115.853 33.3693C113.658 32.0352 111.963 30.1447 110.767 27.7044C109.564 25.2641 108.969 22.435 108.969 19.2305C108.969 16.026 109.57 13.1432 110.767 10.6895C111.97 8.22916 113.665 6.33862 115.853 4.99781C118.04 3.6637 120.577 3 123.455 3C125.854 3 128.069 3.43576 130.093 4.30729C132.116 5.17882 133.702 6.39225 134.844 7.94759C135.07 8.21575 135.179 8.55095 135.179 8.93979C135.179 9.42248 134.981 9.81131 134.591 10.1063C134.338 10.2873 134.058 10.3745 133.757 10.3745C133.224 10.3745 132.779 10.1465 132.417 9.69734C131.522 8.4705 130.312 7.52523 128.773 6.86153C127.235 6.20454 125.465 5.86933 123.455 5.86933C121.137 5.86933 119.127 6.40566 117.425 7.48501C115.723 8.56436 114.417 10.1063 113.508 12.1175C112.599 14.1287 112.148 16.4952 112.148 19.2238C112.148 21.9523 112.599 24.2652 113.508 26.263C114.417 28.2541 115.73 29.7961 117.446 30.8754C119.162 31.9548 121.178 32.4911 123.496 32.4911C125.642 32.4911 127.522 32.1559 129.129 31.4788C130.735 30.8017 132 29.8698 132.916 28.6698C133.333 28.1871 133.784 27.9525 134.256 27.9525C134.591 27.9525 134.871 28.0597 135.09 28.2676C135.48 28.6296 135.678 29.0184 135.678 29.4341C135.678 29.7961 135.555 30.138 135.302 30.4665C134.16 31.9682 132.533 33.1548 130.428 34.0397C128.322 34.9247 126.012 35.3671 123.496 35.3671C120.59 35.3671 118.047 34.7034 115.853 33.3693Z" fill="#FEC1A3"/>
<path d="M141.231 33.4364C139.679 32.1492 138.906 30.3659 138.906 28.0866C138.906 25.8072 139.72 24.0574 141.354 22.7367C142.988 21.416 145.209 20.759 148.033 20.759C149.68 20.759 151.136 21.0004 152.408 21.4764C153.679 21.9591 154.664 22.6027 155.361 23.4071V20.5311C155.361 18.8216 154.835 17.521 153.789 16.6159C152.743 15.7176 151.212 15.2684 149.202 15.2684C146.604 15.2684 144.362 15.9254 142.461 17.2461C141.989 17.5478 141.593 17.6953 141.292 17.6953C141.012 17.6953 140.732 17.5746 140.458 17.3333C140.15 17.0651 140 16.7165 140 16.3008C140 15.8517 140.178 15.4763 140.547 15.1746C141.552 14.3366 142.83 13.6662 144.375 13.1768C145.927 12.6807 147.506 12.4326 149.126 12.4326C152.087 12.4326 154.384 13.1499 156.011 14.5913C157.638 16.0327 158.458 18.0506 158.458 20.6652V33.6174C158.458 34.7839 157.959 35.3739 156.954 35.3739C156.51 35.3739 156.147 35.2197 155.867 34.9046C155.587 34.5895 155.45 34.1805 155.45 33.671V32.0554C153.72 34.2744 151.123 35.3806 147.664 35.3806C144.929 35.3806 142.789 34.737 141.237 33.4498L141.231 33.4364ZM153.351 31.2978C154.719 30.4129 155.402 29.2665 155.402 27.8586C155.402 26.4508 154.766 25.3647 153.495 24.6005C152.223 23.8362 150.432 23.4541 148.115 23.4541C146.16 23.4541 144.656 23.8496 143.596 24.6474C142.536 25.4452 142.003 26.5916 142.003 28.0866C142.003 29.5816 142.523 30.681 143.555 31.4587C144.587 32.2364 146.077 32.6252 148.033 32.6252C150.207 32.6252 151.984 32.1827 153.351 31.2978Z" fill="#FEC1A3"/>
<path d="M164.549 34.8979C164.282 34.5828 164.152 34.1404 164.152 33.5705V21.7848C164.152 20.0149 164.692 18.2853 165.732 16.911C165.855 16.7501 165.978 16.616 166.08 16.502C168.562 13.807 171.693 12.8818 175.043 12.8818H176.088C176.622 12.8818 177.039 13.0092 177.346 13.264C177.654 13.5187 177.804 13.874 177.804 14.3232C177.804 14.7724 177.654 15.121 177.346 15.3556C177.039 15.597 176.622 15.7176 176.088 15.7176H174.919C172.547 15.7176 170.346 16.5691 168.965 18.0238C167.584 19.4786 167.215 21.3222 167.215 23.8094V33.5705C167.215 34.1068 167.085 34.5426 166.818 34.8711C166.552 35.1996 166.169 35.3672 165.67 35.3672C165.198 35.3672 164.822 35.213 164.563 34.8979H164.549Z" fill="#FEC1A3"/>
<path d="M182.02 32.3572C180.126 30.346 179.176 27.5034 179.176 23.8162C179.176 20.129 180.14 17.501 182.054 15.4764C183.975 13.4518 186.6 12.4395 189.936 12.4395C191.987 12.4395 193.819 12.8082 195.419 13.5389C197.018 14.2764 198.27 15.3088 199.158 16.6429C200.054 17.977 200.498 19.4988 200.498 21.2083C200.498 22.4687 200.184 23.4408 199.555 24.1313C198.926 24.8218 198.064 25.1637 196.971 25.1637H182.163C182.163 27.4699 182.854 29.28 184.241 30.5806C185.629 31.8879 187.564 32.5382 190.045 32.5382C191.563 32.5382 192.876 32.3505 193.969 31.975C195.063 31.5996 196.089 30.9963 197.053 30.1515C197.559 29.6689 197.976 29.4342 198.29 29.4342C198.529 29.4342 198.755 29.5549 198.974 29.7962C199.35 30.1583 199.534 30.5337 199.534 30.9225C199.534 31.2242 199.377 31.5527 199.056 31.9147C197.962 33.0812 196.683 33.9527 195.214 34.5226C193.744 35.0924 192.028 35.374 190.052 35.374C186.586 35.374 183.9 34.3684 182.006 32.3639L182.02 32.3572ZM196.109 22.5089C196.588 22.5089 196.95 22.395 197.189 22.1737C197.429 21.9458 197.552 21.5368 197.552 20.9402C197.552 19.8608 197.23 18.8887 196.588 18.0172C195.945 17.1457 195.05 16.4753 193.887 15.9926C192.725 15.5166 191.413 15.2753 189.943 15.2753C187.571 15.2753 185.691 15.9256 184.323 17.2328C182.949 18.5401 182.259 20.2966 182.259 22.5156H196.109V22.5089Z" fill="#FEC1A3"/>
<path d="M207.458 34.1807C205.729 33.3896 204.361 32.2834 203.356 30.8756C203.158 30.5739 203.062 30.2789 203.062 29.9772C203.062 29.6756 203.138 29.4141 203.295 29.1929C203.445 28.9649 203.65 28.7973 203.903 28.6767C204.129 28.5895 204.307 28.5426 204.45 28.5426C204.703 28.5426 204.915 28.6096 205.1 28.7437C205.277 28.8778 205.496 29.099 205.749 29.394C207.561 31.4655 209.981 32.498 212.989 32.498C214.438 32.498 215.614 32.2298 216.503 31.6868C217.398 31.1504 217.843 30.3996 217.843 29.4409C217.843 28.7504 217.665 28.1873 217.316 27.7515C216.967 27.3157 216.38 26.9135 215.559 26.5381C214.732 26.1626 213.392 25.633 211.519 24.9425C209.707 24.2855 208.279 23.6553 207.246 23.052C206.214 22.4553 205.448 21.7715 204.942 21.0072C204.437 20.243 204.19 19.3044 204.19 18.1982C204.19 16.4619 204.895 15.0674 206.303 14.0149C207.711 12.9691 209.591 12.4395 211.936 12.4395C213.666 12.4395 215.272 12.7612 216.749 13.4048C218.225 14.0484 219.347 14.9132 220.099 15.9926C220.324 16.3211 220.433 16.6362 220.433 16.9379C220.433 17.387 220.208 17.7491 219.764 18.0172C219.483 18.1982 219.203 18.2854 218.929 18.2854C218.458 18.2854 218.007 18.0574 217.59 17.6083C216.865 16.8306 216.065 16.2541 215.204 15.8786C214.336 15.5032 213.235 15.3155 211.895 15.3155C210.418 15.3155 209.284 15.5702 208.504 16.0798C207.725 16.5893 207.328 17.3066 207.328 18.2385C207.328 18.929 207.486 19.472 207.807 19.8809C208.128 20.2832 208.641 20.6452 209.359 20.9603C210.07 21.2754 211.321 21.7447 213.105 22.3748C215.115 23.0922 216.674 23.776 217.774 24.4196C218.875 25.0632 219.675 25.7738 220.16 26.5582C220.645 27.3358 220.892 28.2945 220.892 29.4342C220.892 31.2309 220.16 32.6723 218.69 33.7516C217.227 34.831 215.32 35.3673 212.975 35.3673C211.02 35.3673 209.181 34.9718 207.451 34.174L207.458 34.1807Z" fill="#FEC1A3"/>
<defs>
<linearGradient id="paint0_linear_353_22537" x1="19.5" y1="0" x2="19.5" y2="38" gradientUnits="userSpaceOnUse">
<stop stop-color="#A8DAE2"/>
<stop offset="1" stop-color="#FFDBC9"/>
</linearGradient>
</defs>
</svg>
