<svg width="220" height="275" viewBox="0 0 220 275" fill="none" xmlns="http://www.w3.org/2000/svg">
<rect width="220" height="275" rx="5" fill="#E7E7E7"/>
<path d="M87.824 156.562H88.86V160.888H94.054V161.868H88.86V167.86H95.244V168.84H82.784V167.86H87.824V156.562ZM99.444 156.562L100.326 156.968C100.06 157.85 99.738 158.676 99.374 159.46V169.4H98.394V161.224C97.918 161.952 97.4 162.652 96.826 163.296L96.532 162.288C97.876 160.622 98.842 158.718 99.444 156.562ZM100.676 157.332H104.092V156.576H105.072V157.332H108.768V158.144H105.072V158.956H108.25V163.016H107.802C108.418 163.702 108.908 164.304 109.244 164.836L108.544 165.326C108.39 165.074 108.222 164.822 108.026 164.57C107.746 164.598 107.48 164.612 107.214 164.626V165.704H109.188V166.586H107.214V168.378C107.214 169.036 106.85 169.372 106.136 169.372H104.498L104.302 168.476C104.834 168.504 105.324 168.532 105.8 168.532C106.094 168.532 106.248 168.406 106.248 168.154V166.586H100.172V165.704H106.248V164.682C104.708 164.766 102.79 164.836 100.522 164.892L100.396 164.08C101.74 164.052 102.972 164.024 104.092 163.996V163.016H101.012V158.956H104.092V158.144H100.676V157.332ZM107.438 163.842C107.256 163.618 107.088 163.422 106.92 163.24L107.27 163.016H105.072V163.954C105.94 163.912 106.724 163.87 107.438 163.842ZM107.354 162.274V161.322H105.002V162.274H107.354ZM104.162 162.274V161.322H101.908V162.274H104.162ZM101.908 160.636H104.162V159.698H101.908V160.636ZM105.002 159.698V160.636H107.354V159.698H105.002ZM101.656 166.726C102.482 167.104 103.238 167.566 103.924 168.112L103.42 168.896C102.692 168.252 101.964 167.762 101.208 167.398L101.656 166.726ZM114.116 158.732H119.926V160.902H117.392L117.182 161.574H121.214V162.274H112.828V161.574H116.286L116.496 160.902H114.116V158.732ZM119.058 160.3V159.348H114.984V160.3H119.058ZM113.5 162.918H120.556V167.3H113.5V162.918ZM119.702 166.656V163.548H114.34V166.656H119.702ZM115.292 164.192H118.75V166.04H115.292V164.192ZM118.022 165.55V164.654H116.02V165.55H118.022ZM122.74 157.136V169.414H121.802V168.868H112.226V169.456H111.288V157.136H122.74ZM112.226 168.028H121.802V157.99H112.226V168.028ZM127.5 156.954H128.522V160.314H133.968V156.576H134.976V161.28H128.522V162.148C128.508 162.638 128.48 163.1 128.452 163.534H135.256V169.428H134.248V164.514H128.326C127.976 166.628 127.178 168.252 125.918 169.386L125.148 168.714C126.688 167.342 127.472 165.158 127.5 162.148V156.954Z" fill="#6D6D6D"/>
<path fill-rule="evenodd" clip-rule="evenodd" d="M98.8486 129.461C98.8486 128.805 99.3801 128.274 100.036 128.274H120.217C120.872 128.274 121.404 128.805 121.404 129.461V146.08C121.404 146.736 120.872 147.267 120.217 147.267H100.036C99.3801 147.267 98.8486 146.736 98.8486 146.08V129.461Z" stroke="#6D6D6D" stroke-linecap="round" stroke-linejoin="round"/>
<path fill-rule="evenodd" clip-rule="evenodd" d="M104.488 134.209C104.98 134.209 105.378 133.81 105.378 133.319C105.378 132.827 104.98 132.428 104.488 132.428C103.996 132.428 103.598 132.827 103.598 133.319C103.598 133.81 103.996 134.209 104.488 134.209Z" stroke="#6D6D6D" stroke-linecap="round" stroke-linejoin="round"/>
<path d="M104.784 137.77L107.752 140.145L111.313 135.99L121.404 143.706V146.08C121.404 146.736 120.872 147.267 120.217 147.267H100.036C99.3801 147.267 98.8486 146.736 98.8486 146.08V143.706L104.784 137.77Z" stroke="#6D6D6D" stroke-linejoin="round"/>
</svg>
