<svg width="202" height="202" viewBox="0 0 202 202" fill="none" xmlns="http://www.w3.org/2000/svg">
<rect width="202" height="202" rx="5" fill="#E7E7E7"/>
<path fill-rule="evenodd" clip-rule="evenodd" d="M89.8491 92.4605C89.8491 91.8049 90.3806 91.2734 91.0362 91.2734H111.217C111.873 91.2734 112.404 91.8049 112.404 92.4605V109.08C112.404 109.736 111.873 110.267 111.217 110.267H91.0362C90.3806 110.267 89.8491 109.736 89.8491 109.08V92.4605Z" stroke="#6D6D6D" stroke-linecap="round" stroke-linejoin="round"/>
<path fill-rule="evenodd" clip-rule="evenodd" d="M95.4875 97.2094C95.9792 97.2094 96.3778 96.8107 96.3778 96.319C96.3778 95.8273 95.9792 95.4287 95.4875 95.4287C94.9958 95.4287 94.5972 95.8273 94.5972 96.319C94.5972 96.8107 94.9958 97.2094 95.4875 97.2094Z" stroke="#6D6D6D" stroke-linecap="round" stroke-linejoin="round"/>
<path d="M95.7847 100.771L98.7524 103.145L102.314 98.9902L112.404 106.706V109.081C112.404 109.736 111.873 110.268 111.217 110.268H91.0362C90.3806 110.268 89.8491 109.736 89.8491 109.081V106.706L95.7847 100.771Z" stroke="#6D6D6D" stroke-linejoin="round"/>
</svg>
