<svg width="28" height="27" viewBox="0 0 28 27" fill="none" xmlns="http://www.w3.org/2000/svg">
<path d="M26.1499 12.15L23.4499 14.85L20.7499 12.15" stroke="#2D2D2D" stroke-width="0.833333" stroke-linecap="round" stroke-linejoin="round"/>
<path d="M5.8999 8.90323C7.52591 6.00199 10.565 4.05005 14.0459 4.05005C19.2396 4.05005 23.4499 8.39573 23.4499 13.7564C23.4499 14.1261 23.4299 14.4911 23.3909 14.85" stroke="#2D2D2D" stroke-linecap="round"/>
<path d="M1.8501 14.85L4.5501 12.15L7.2501 14.85" stroke="#2D2D2D" stroke-width="0.833333" stroke-linecap="round" stroke-linejoin="round"/>
<path d="M22.1001 18.0968C20.4741 20.998 17.435 22.95 13.9541 22.95C8.76043 22.95 4.5501 18.6043 4.5501 13.2436C4.5501 12.8739 4.57013 12.5089 4.60913 12.15" stroke="#2D2D2D" stroke-linecap="round"/>
<path d="M14 12.375C15.5533 12.375 16.8125 11.1158 16.8125 9.5625C16.8125 8.00921 15.5533 6.75 14 6.75C12.4467 6.75 11.1875 8.00921 11.1875 9.5625C11.1875 11.1158 12.4467 12.375 14 12.375Z" stroke="#2D2D2D" stroke-linejoin="round"/>
<path d="M19.4001 20.25C19.4001 17.2676 16.9824 14.85 14.0001 14.85C11.0178 14.85 8.6001 17.2676 8.6001 20.25" stroke="#2D2D2D" stroke-linecap="round" stroke-linejoin="round"/>
</svg>
