<svg width="453" height="102" viewBox="0 0 453 102" fill="none" xmlns="http://www.w3.org/2000/svg">
<path d="M2.05396 3.21329C2.16587 3.66419 2.29658 4.16653 2.44812 4.7155C3.1751 7.34907 4.3799 11.0499 6.28551 15.2889C7.12224 17.1447 7.46662 19.277 7.01536 21.3669C6.66486 22.9903 6.5038 24.5157 6.5038 26.1672V77.0591C6.5038 89.5762 16.551 99.6951 28.9226 99.6951H429.081C441.453 99.6951 451.5 89.5762 451.5 77.0591V26.1768C451.5 13.6598 441.453 3.54093 429.081 3.54093H28.9226C25.2391 3.54093 21.7638 4.44463 18.6987 6.03606L2.05396 3.21329ZM2.05396 3.21329C2.49925 3.37692 2.99469 3.55492 3.53548 3.74339C6.09004 4.63367 9.66635 5.7608 13.7545 6.70751L13.7545 6.70754L13.7636 6.70958C15.4637 7.09219 17.2019 6.81513 18.6985 6.03615L2.05396 3.21329Z" stroke="#A8DAE2" stroke-width="3" stroke-miterlimit="10"/>
</svg>
