<svg width="40" height="40" viewBox="0 0 40 40" fill="none" xmlns="http://www.w3.org/2000/svg">
<g filter="url(#filter0_bd_816_9595)">
<path d="M1 6C1 3.23858 3.23858 1 6 1H32C34.7614 1 37 3.23858 37 6V32C37 34.7614 34.7614 37 32 37H6C3.23858 37 1 34.7614 1 32V6Z" fill="white" fill-opacity="0.3" shape-rendering="crispEdges"/>
<path d="M1.15 6C1.15 3.32142 3.32142 1.15 6 1.15H32C34.6786 1.15 36.85 3.32142 36.85 6V32C36.85 34.6786 34.6786 36.85 32 36.85H6C3.32142 36.85 1.15 34.6786 1.15 32V6Z" stroke="white" stroke-width="0.3" shape-rendering="crispEdges"/>
<g clip-path="url(#clip0_816_9595)">
<mask id="mask0_816_9595" style="mask-type:luminance" maskUnits="userSpaceOnUse" x="9" y="9" width="20" height="20">
<path d="M9.5 28.5V9.5H28.5V28.5H9.5Z" fill="white" stroke="white"/>
</mask>
<g mask="url(#mask0_816_9595)">
<path d="M21.916 12.7495L25.2493 16.0828" stroke="#3690A4" stroke-linecap="round" stroke-linejoin="round"/>
<path d="M12.3333 22.3328L22.3335 12.3329C23.2539 11.4126 24.7461 11.4125 25.6665 12.3328V12.3328C26.5871 13.2532 26.5871 14.7456 25.6666 15.6661L15.6667 25.6661L11.5 26.4994L12.3333 22.3328Z" stroke="#3690A4" stroke-linecap="round" stroke-linejoin="round"/>
<path d="M21.916 12.7495L25.2493 16.0828" stroke="#3690A4" stroke-linecap="round" stroke-linejoin="round"/>
<path d="M12.75 22.3325L15.6667 25.2492" stroke="#3690A4" stroke-linecap="round" stroke-linejoin="round"/>
</g>
</g>
</g>
<defs>
<filter id="filter0_bd_816_9595" x="-19" y="-19" width="76" height="76" filterUnits="userSpaceOnUse" color-interpolation-filters="sRGB">
<feFlood flood-opacity="0" result="BackgroundImageFix"/>
<feGaussianBlur in="BackgroundImageFix" stdDeviation="10"/>
<feComposite in2="SourceAlpha" operator="in" result="effect1_backgroundBlur_816_9595"/>
<feColorMatrix in="SourceAlpha" type="matrix" values="0 0 0 0 0 0 0 0 0 0 0 0 0 0 0 0 0 0 127 0" result="hardAlpha"/>
<feOffset dx="1" dy="1"/>
<feGaussianBlur stdDeviation="1"/>
<feComposite in2="hardAlpha" operator="out"/>
<feColorMatrix type="matrix" values="0 0 0 0 0 0 0 0 0 0 0 0 0 0 0 0 0 0 0.1 0"/>
<feBlend mode="normal" in2="effect1_backgroundBlur_816_9595" result="effect2_dropShadow_816_9595"/>
<feBlend mode="normal" in="SourceGraphic" in2="effect2_dropShadow_816_9595" result="shape"/>
</filter>
<clipPath id="clip0_816_9595">
<rect x="9" y="9" width="20" height="20" fill="white"/>
</clipPath>
</defs>
</svg>
