<svg width="40" height="40" viewBox="0 0 40 40" fill="none" xmlns="http://www.w3.org/2000/svg">
<g filter="url(#filter0_bd_1120_25553)">
<path d="M1 6C1 3.23858 3.23858 1 6 1H32C34.7614 1 37 3.23858 37 6V32C37 34.7614 34.7614 37 32 37H6C3.23858 37 1 34.7614 1 32V6Z" fill="white" fill-opacity="0.3" shape-rendering="crispEdges"/>
<path d="M1.15 6C1.15 3.32142 3.32142 1.15 6 1.15H32C34.6786 1.15 36.85 3.32142 36.85 6V32C36.85 34.6786 34.6786 36.85 32 36.85H6C3.32142 36.85 1.15 34.6786 1.15 32V6Z" stroke="white" stroke-opacity="0.3" stroke-width="0.3" shape-rendering="crispEdges"/>
<path d="M18.9993 27.3334C21.3005 27.3334 23.3838 26.4007 24.8919 24.8926C26.3999 23.3846 27.3327 21.3012 27.3327 19.0001C27.3327 16.6989 26.3999 14.6156 24.8919 13.1075C23.3838 11.5995 21.3005 10.6667 18.9993 10.6667C16.6982 10.6667 14.6148 11.5995 13.1068 13.1075C11.5988 14.6156 10.666 16.6989 10.666 19.0001C10.666 21.3012 11.5988 23.3846 13.1068 24.8926C14.6148 26.4007 16.6982 27.3334 18.9993 27.3334Z" stroke="#3690A4" stroke-linejoin="round"/>
<path fill-rule="evenodd" clip-rule="evenodd" d="M19.0007 13.5833C19.5759 13.5833 20.0423 14.0496 20.0423 14.6249C20.0423 15.2002 19.5759 15.6666 19.0007 15.6666C18.4254 15.6666 17.959 15.2002 17.959 14.6249C17.959 14.0496 18.4254 13.5833 19.0007 13.5833Z" fill="#3690A4"/>
<path d="M19.2083 23.1666V17.3333H18.7917H18.375" stroke="#3690A4" stroke-linecap="round" stroke-linejoin="round"/>
<path d="M17.75 23.1667H20.6667" stroke="#3690A4" stroke-linecap="round" stroke-linejoin="round"/>
</g>
<defs>
<filter id="filter0_bd_1120_25553" x="-19" y="-19" width="76" height="76" filterUnits="userSpaceOnUse" color-interpolation-filters="sRGB">
<feFlood flood-opacity="0" result="BackgroundImageFix"/>
<feGaussianBlur in="BackgroundImageFix" stdDeviation="10"/>
<feComposite in2="SourceAlpha" operator="in" result="effect1_backgroundBlur_1120_25553"/>
<feColorMatrix in="SourceAlpha" type="matrix" values="0 0 0 0 0 0 0 0 0 0 0 0 0 0 0 0 0 0 127 0" result="hardAlpha"/>
<feOffset dx="1" dy="1"/>
<feGaussianBlur stdDeviation="1"/>
<feComposite in2="hardAlpha" operator="out"/>
<feColorMatrix type="matrix" values="0 0 0 0 0 0 0 0 0 0 0 0 0 0 0 0 0 0 0.1 0"/>
<feBlend mode="normal" in2="effect1_backgroundBlur_1120_25553" result="effect2_dropShadow_1120_25553"/>
<feBlend mode="normal" in="SourceGraphic" in2="effect2_dropShadow_1120_25553" result="shape"/>
</filter>
</defs>
</svg>
