<svg width="32" height="32" viewBox="0 0 32 32" fill="none" xmlns="http://www.w3.org/2000/svg">
<g filter="url(#filter0_bd_1120_24353)">
<path d="M1 6C1 3.23858 3.23858 1 6 1H24C26.7614 1 29 3.23858 29 6V24C29 26.7614 26.7614 29 24 29H6C3.23858 29 1 26.7614 1 24V6Z" fill="#E9A197" shape-rendering="crispEdges"/>
<path d="M21.375 7.5H8.625C8.00368 7.5 7.5 8.00368 7.5 8.625V21.375C7.5 21.9963 8.00368 22.5 8.625 22.5H21.375C21.9963 22.5 22.5 21.9963 22.5 21.375V8.625C22.5 8.00368 21.9963 7.5 21.375 7.5Z" stroke="white" stroke-width="0.833333" stroke-linejoin="round"/>
<path d="M18.3333 7.5V15H11.25V7.5H18.3333Z" stroke="white" stroke-width="0.833333" stroke-linejoin="round"/>
<path d="M15.833 10.4167V12.0834" stroke="white" stroke-width="0.833333" stroke-linecap="round"/>
<path d="M9.58203 7.5H19.9993" stroke="white" stroke-width="0.833333" stroke-linecap="round"/>
<path d="M1.5 6C1.5 3.51472 3.51472 1.5 6 1.5H24C26.4853 1.5 28.5 3.51472 28.5 6V24C28.5 26.4853 26.4853 28.5 24 28.5H6C3.51472 28.5 1.5 26.4853 1.5 24V6Z" stroke="white" shape-rendering="crispEdges"/>
</g>
<defs>
<filter id="filter0_bd_1120_24353" x="-19" y="-19" width="68" height="68" filterUnits="userSpaceOnUse" color-interpolation-filters="sRGB">
<feFlood flood-opacity="0" result="BackgroundImageFix"/>
<feGaussianBlur in="BackgroundImageFix" stdDeviation="10"/>
<feComposite in2="SourceAlpha" operator="in" result="effect1_backgroundBlur_1120_24353"/>
<feColorMatrix in="SourceAlpha" type="matrix" values="0 0 0 0 0 0 0 0 0 0 0 0 0 0 0 0 0 0 127 0" result="hardAlpha"/>
<feOffset dx="1" dy="1"/>
<feGaussianBlur stdDeviation="1"/>
<feComposite in2="hardAlpha" operator="out"/>
<feColorMatrix type="matrix" values="0 0 0 0 0 0 0 0 0 0 0 0 0 0 0 0 0 0 0.1 0"/>
<feBlend mode="normal" in2="effect1_backgroundBlur_1120_24353" result="effect2_dropShadow_1120_24353"/>
<feBlend mode="normal" in="SourceGraphic" in2="effect2_dropShadow_1120_24353" result="shape"/>
</filter>
</defs>
</svg>
