<svg width="191" height="139" viewBox="0 0 191 139" fill="none" xmlns="http://www.w3.org/2000/svg">
<path d="M0 5.5C0 2.73858 2.23858 0.5 5 0.5H186C188.761 0.5 191 2.73858 191 5.5V133.5C191 136.261 188.761 138.5 186 138.5H5C2.23857 138.5 0 136.261 0 133.5V5.5Z" fill="#E7E7E7"/>
<path fill-rule="evenodd" clip-rule="evenodd" d="M83.5 60.25C83.5 59.5596 84.0596 59 84.75 59H106C106.69 59 107.25 59.5596 107.25 60.25V77.75C107.25 78.4404 106.69 79 106 79H84.75C84.0596 79 83.5 78.4404 83.5 77.75V60.25Z" stroke="#6D6D6D" stroke-linecap="round" stroke-linejoin="round"/>
<path fill-rule="evenodd" clip-rule="evenodd" d="M89.4375 65.25C89.9553 65.25 90.375 64.8303 90.375 64.3125C90.375 63.7947 89.9553 63.375 89.4375 63.375C88.9197 63.375 88.5 63.7947 88.5 64.3125C88.5 64.8303 88.9197 65.25 89.4375 65.25Z" stroke="#6D6D6D" stroke-linecap="round" stroke-linejoin="round"/>
<path d="M89.75 69L92.875 71.5L96.625 67.125L107.25 75.25V77.75C107.25 78.4404 106.69 79 106 79H84.75C84.0596 79 83.5 78.4404 83.5 77.75V75.25L89.75 69Z" stroke="#6D6D6D" stroke-linejoin="round"/>
</svg>
