<svg width="15" height="15" viewBox="0 0 15 15" fill="none" xmlns="http://www.w3.org/2000/svg">
<g id="icon/email(s)">
<path id="Subtract" fill-rule="evenodd" clip-rule="evenodd" d="M0.941855 3.39414C0.818827 3.6536 0.75 3.94376 0.75 4.25V10.75C0.75 11.8546 1.64543 12.75 2.75 12.75H12.25C13.3546 12.75 14.25 11.8546 14.25 10.75V4.25C14.25 3.94354 14.1811 3.65319 14.0579 3.39359C14.0551 3.39575 14.0523 3.39789 14.0495 3.4L7.79951 8.0875C7.62173 8.22083 7.37729 8.22083 7.19951 8.0875L0.949512 3.4C0.946936 3.39807 0.944383 3.39612 0.941855 3.39414ZM1.58332 2.62536L7.49951 7.0625L13.4162 2.625C13.0879 2.38899 12.6852 2.25 12.25 2.25H2.75C2.3146 2.25 1.9117 2.38913 1.58332 2.62536Z" fill="#888888"/>
</g>
</svg>
