<svg width="15" height="15" viewBox="0 0 15 15" fill="none" xmlns="http://www.w3.org/2000/svg">
<g id="icon/LINE(s)">
<path id="Vector" d="M10.9 1.5H4.1C2.66406 1.5 1.5 2.66406 1.5 4.1V10.9C1.5 12.3359 2.66406 13.5 4.1 13.5H10.9C12.3359 13.5 13.5 12.3359 13.5 10.9V4.1C13.5 2.66406 12.3359 1.5 10.9 1.5Z" fill="#3AAE36"/>
<path id="Vector_2" d="M11.999 7.26366C11.999 5.32649 9.98043 3.75 7.49949 3.75C5.01854 3.75 3 5.32649 3 7.26366C3 9.00067 4.60041 10.4553 6.76313 10.7297C6.90937 10.7605 7.10917 10.8229 7.15963 10.9428C7.20494 11.0518 7.1895 11.2232 7.17405 11.3342C7.17405 11.3342 7.12152 11.6394 7.1102 11.7048C7.09063 11.8138 7.01957 12.1328 7.49949 11.9386C7.9794 11.7444 10.0906 10.4701 11.035 9.42476C11.6869 8.73709 12 8.03852 12 7.26366" fill="white"/>
<path id="Vector_3" d="M6.61607 6H6.13393C6.05987 6 6 6.04122 6 6.09221V8.15779C6 8.20878 6.05987 8.25 6.13393 8.25H6.61607C6.69013 8.25 6.75 8.20878 6.75 8.15779V6.09221C6.75 6.04122 6.69013 6 6.61607 6Z" fill="#3AAE36"/>
<path id="Vector_4" d="M8.89677 6H8.51617C8.45771 6 8.41045 6.04117 8.41045 6.09208V7.31728L7.32587 6.04117C7.32587 6.04117 7.3209 6.03467 7.31716 6.03142C7.31468 6.02925 7.31343 6.02708 7.31095 6.026C7.31095 6.026 7.3097 6.026 7.30846 6.02492C7.30721 6.02383 7.30473 6.02167 7.30224 6.02058C7.30224 6.02058 7.301 6.0195 7.29975 6.01842C7.29851 6.01733 7.29602 6.01625 7.29478 6.01517C7.29478 6.01517 7.29229 6.01408 7.29105 6.013C7.28856 6.013 7.28731 6.01083 7.28483 6.00975C7.28483 6.00975 7.28234 6.00975 7.28109 6.00867C7.27861 6.00867 7.27736 6.00758 7.27488 6.0065C7.27488 6.0065 7.27239 6.0065 7.27114 6.0065C7.26866 6.0065 7.26741 6.00542 7.26493 6.00433C7.26493 6.00433 7.26244 6.00433 7.26119 6.00433C7.25871 6.00433 7.25746 6.00433 7.25498 6.00325C7.25373 6.00325 7.25249 6.00325 7.25 6.00325C7.24876 6.00325 7.24627 6.00325 7.24503 6.00325C7.24378 6.00325 7.24129 6.00325 7.24005 6.00325C7.23881 6.00325 7.23756 6.00325 7.23632 6.00325H6.85572C6.79726 6.00325 6.75 6.04442 6.75 6.09533V8.15792C6.75 8.20883 6.79726 8.25 6.85572 8.25H7.23632C7.29478 8.25 7.34204 8.20883 7.34204 8.15792V6.93272L8.42786 8.211C8.43532 8.21967 8.44403 8.22725 8.45522 8.23375C8.45771 8.23483 8.45895 8.23592 8.46144 8.237C8.46144 8.237 8.46393 8.237 8.46393 8.23808C8.46517 8.23808 8.46766 8.23917 8.46891 8.24025C8.47015 8.24025 8.47264 8.24133 8.47388 8.24242C8.47388 8.24242 8.47637 8.24242 8.47761 8.24242C8.4801 8.24242 8.48259 8.2435 8.48507 8.24458C8.48507 8.24458 8.48507 8.24458 8.48632 8.24458C8.49503 8.24675 8.50373 8.24783 8.51368 8.24783H8.89428C8.95274 8.24783 9 8.20667 9 8.15575V6.09316C9 6.04225 8.95274 6.00108 8.89428 6.00108" fill="#3AAE36"/>
<path id="Vector_5" d="M5.90854 7.73252H5.01219V6.09221C5.01219 6.04122 4.97131 6 4.92073 6H4.59146C4.54089 6 4.5 6.04122 4.5 6.09221V8.15779C4.5 8.18274 4.50968 8.20552 4.52582 8.22179C4.52582 8.22179 4.52582 8.22179 4.5269 8.22288C4.5269 8.22288 4.5269 8.22288 4.52798 8.22396C4.54412 8.24024 4.56671 8.25 4.59146 8.25H5.90854C5.95911 8.25 6 8.20878 6 8.15779V7.82582C6 7.77483 5.95911 7.73361 5.90854 7.73361" fill="#3AAE36"/>
<path id="Vector_6" d="M10.4075 6.51639C10.458 6.51639 10.4989 6.47517 10.4989 6.42418V6.09221C10.4989 6.04122 10.458 6 10.4075 6H9.09039C9.06564 6 9.04304 6.00976 9.0269 6.02604C9.0269 6.02604 9.0269 6.02712 9.02582 6.02821C9.00968 6.04448 9 6.06726 9 6.09221V8.15779C9 8.18274 9.00968 8.20552 9.02582 8.22179C9.02582 8.22179 9.02582 8.22179 9.0269 8.22288C9.0269 8.22288 9.0269 8.22288 9.02798 8.22396C9.04412 8.24024 9.06671 8.25 9.09146 8.25H10.4085C10.4591 8.25 10.5 8.20878 10.5 8.15779V7.82582C10.5 7.77483 10.4591 7.73361 10.4085 7.73361H9.51219V7.38428H10.4085C10.4591 7.38428 10.5 7.34306 10.5 7.29207V6.9601C10.5 6.90911 10.4591 6.86789 10.4085 6.86789H9.51219V6.51856H10.4085L10.4075 6.51639Z" fill="#3AAE36"/>
</g>
</svg>
