<svg width="784" height="45" viewBox="0 0 784 45" fill="none" xmlns="http://www.w3.org/2000/svg">
<path d="M5.61 29.598H9.068V28.548H10.034V29.598H13.492V30.48H10.034V31.39H12.694V37.858H13.982V38.754H5.12V37.858H6.422V31.39H9.068V30.48H5.61V29.598ZM7.374 37.858H11.742V36.948H7.374V37.858ZM7.374 36.22H11.742V35.366H7.374V36.22ZM7.374 34.652H11.742V33.784H7.374V34.652ZM7.374 33.07H11.742V32.188H7.374V33.07ZM11.112 38.95C12.078 39.454 12.974 40.056 13.786 40.756L13.184 41.456C12.344 40.728 11.448 40.084 10.482 39.524L11.112 38.95ZM8.004 38.95L8.676 39.538C7.864 40.266 6.856 40.91 5.652 41.456L5.064 40.7C6.226 40.196 7.206 39.622 8.004 38.95ZM1.2 31.992H2.768V28.618H3.734V31.992H5.176V32.944H3.734V37.312C4.21 37.144 4.686 36.962 5.148 36.766V37.76C3.972 38.236 2.698 38.628 1.34 38.95L1.088 37.984C1.648 37.872 2.208 37.746 2.768 37.606V32.944H1.2V31.992ZM24.244 37.9C24.524 38.432 24.776 38.992 25 39.58L24.23 39.916C23.992 39.258 23.74 38.684 23.474 38.208L24.244 37.9ZM22.214 38.138C22.466 38.754 22.704 39.44 22.9 40.168L22.018 40.378C21.85 39.594 21.64 38.908 21.388 38.306L22.214 38.138ZM23.292 41.358L23.054 40.476C23.516 40.504 23.95 40.518 24.37 40.518C25 40.518 25.42 40.322 25.616 39.958C25.812 39.566 25.952 38.74 26.008 37.466H18.196C17.566 37.97 16.88 38.432 16.124 38.838L15.494 38.082C16.768 37.466 17.846 36.696 18.728 35.772H17.272V31.544C18.588 31.46 19.708 31.264 20.66 30.942L21.108 31.684C20.38 31.95 19.4 32.16 18.168 32.314V33.238H20.884V34.022H18.168V34.946H24.832V34.022H22.256V33.252H24.832V32.314H22.074V31.502H25.756V35.772H19.848C19.61 36.08 19.358 36.36 19.106 36.626H26.988C26.946 37.774 26.876 38.712 26.764 39.44C26.638 40.14 26.442 40.644 26.162 40.924C25.882 41.19 25.434 41.33 24.818 41.358H23.292ZM17.51 38.18L18.364 38.404C18.112 39.44 17.804 40.364 17.44 41.162L16.53 40.84C16.908 40.14 17.23 39.244 17.51 38.18ZM20.184 38.278C20.38 39.02 20.548 39.832 20.702 40.714L19.792 40.924C19.68 39.986 19.526 39.16 19.344 38.46L20.184 38.278ZM27.31 29.668V32.188H26.358V30.564H16.656V32.202H15.704V29.668H20.968C20.8 29.304 20.604 28.982 20.408 28.688L21.444 28.52C21.626 28.856 21.808 29.248 21.976 29.668H27.31ZM34.674 29.472H41.856V30.41H39.196V39.818C39.196 40.756 38.776 41.232 37.95 41.232H35.906L35.696 40.266C36.354 40.308 36.984 40.336 37.6 40.336C38.02 40.336 38.23 40.084 38.23 39.58V30.41H34.674V29.472ZM30.614 40.518V41.442H29.648V36.458H33.862V41.19H32.896V40.518H30.614ZM32.896 39.594V37.368H30.614V39.594H32.896ZM29.256 30.396H31.51C31.314 29.836 31.062 29.29 30.768 28.786L31.748 28.52C32.028 29.136 32.266 29.71 32.434 30.214L31.944 30.396H34.324V31.334H29.256V30.396ZM29.76 32.44H33.722V33.336H29.76V32.44ZM29.76 34.372H33.722V35.282H29.76V34.372ZM43.578 29.094H47.372V37.592H43.578V29.094ZM46.462 36.752V34.918H44.488V36.752H46.462ZM44.488 34.092H46.462V32.37H44.488V34.092ZM44.488 31.558H46.462V29.934H44.488V31.558ZM46.476 38.054C47.092 38.978 47.554 39.804 47.89 40.518L47.162 41.022C46.826 40.252 46.35 39.412 45.762 38.488L46.476 38.054ZM44.376 38.082L45.146 38.446C44.81 39.398 44.362 40.322 43.802 41.232L43.018 40.826C43.592 39.902 44.04 38.992 44.376 38.082ZM49.864 28.52H50.774V29.584H52.958V28.52H53.882V29.584H55.562V30.382H53.882V31.348H55.31V32.118H53.882V33.084H55.842V33.882H52.3V34.778H55.128V38.306H55.884V39.132H55.128V40.322C55.128 40.994 54.75 41.344 53.994 41.344H52.86L52.636 40.518L53.714 40.546C54.036 40.546 54.204 40.392 54.204 40.112V39.132H49.5V41.358H48.576V39.132H47.75V38.306H48.576V34.778H51.376V33.882H47.89V33.084H49.864V32.118H48.436V31.348H49.864V30.382H48.17V29.584H49.864V28.52ZM49.5 38.306H51.376V37.256H49.5V38.306ZM52.3 38.306H54.204V37.256H52.3V38.306ZM50.774 33.084H52.958V32.118H50.774V33.084ZM50.774 31.348H52.958V30.382H50.774V31.348ZM54.204 36.556V35.534H52.3V36.556H54.204ZM51.376 35.534H49.5V36.556H51.376V35.534ZM63.542 30.2C63.108 30.788 62.562 31.306 61.918 31.768L61.358 31.026C62.38 30.34 63.08 29.5 63.444 28.506L64.368 28.618C64.27 28.87 64.172 29.122 64.06 29.36H69.072V30.074C68.708 30.802 68.302 31.418 67.854 31.922L67.154 31.376C67.476 31.04 67.77 30.648 68.036 30.2H63.542ZM57.62 29.374H61.064V30.242H57.62V29.374ZM57.34 31.894H61.358V32.776H57.34V31.894ZM65.18 30.452L66.048 30.62C65.992 30.844 65.922 31.054 65.838 31.25C66.846 32.272 68.148 32.888 69.716 33.084L69.31 33.924C67.784 33.686 66.496 33.028 65.446 31.95C64.774 32.874 63.696 33.476 62.212 33.77L61.736 33.042C63.668 32.692 64.816 31.824 65.18 30.452ZM58.992 33.812H68.036V39.356H58.992V33.812ZM67.042 38.544V37.648H59.986V38.544H67.042ZM59.986 36.962H67.042V36.15H59.986V36.962ZM59.986 35.464H67.042V34.596H59.986V35.464ZM64.998 39.482C66.608 39.762 68.162 40.154 69.646 40.672L69.31 41.47C67.826 40.91 66.258 40.49 64.634 40.182L64.998 39.482ZM61.806 39.44L62.31 40.098C61.274 40.658 59.776 41.12 57.816 41.456L57.354 40.672C59.314 40.35 60.798 39.944 61.806 39.44ZM72.208 29.724C72.488 30.564 72.74 31.53 72.964 32.622L72.166 32.846C71.956 31.852 71.69 30.9 71.368 29.99L72.208 29.724ZM75.708 29.514L76.562 29.626C76.478 30.802 76.282 31.838 75.96 32.748L75.19 32.496C75.47 31.628 75.652 30.634 75.708 29.514ZM71.452 33.504H73.608V28.548H74.588V33.504H76.618V34.47H74.588V41.358H73.608V34.47H71.452V33.504ZM81.476 28.59H82.442V36.584L83.786 36.374L83.94 37.354L82.442 37.578V41.386H81.476V37.732L77.262 38.376L77.108 37.396L81.476 36.724V28.59ZM78.41 29.64C79.39 30.34 80.202 31.026 80.86 31.698L80.202 32.356C79.614 31.712 78.802 31.012 77.766 30.27L78.41 29.64ZM78.046 32.93C79.012 33.658 79.824 34.372 80.482 35.086L79.81 35.758C79.222 35.058 78.424 34.33 77.388 33.56L78.046 32.93ZM75.918 35.24C76.226 36.192 76.506 37.298 76.758 38.544L75.988 38.74C75.792 37.592 75.54 36.5 75.246 35.45L75.918 35.24ZM72.236 35.296L72.978 35.492C72.684 36.948 72.32 38.222 71.886 39.314L71.13 39.048C71.55 38.068 71.928 36.808 72.236 35.296Z" fill="#3690A4"/>
<path d="M239.438 29.332H243.764V30.312H241.874C241.692 31.432 241.426 32.482 241.09 33.462H243.526V40.798H242.63V40.042H241.16V40.938H240.278V35.338C240.04 35.786 239.788 36.22 239.508 36.64L238.976 35.8C239.956 34.204 240.6 32.37 240.908 30.312H239.438V29.332ZM241.16 39.118H242.63V34.386H241.16V39.118ZM251.66 29.976V32.524H250.736V30.858H247.782C247.502 31.754 247.18 32.566 246.83 33.322H248.412C248.258 32.846 248.09 32.37 247.894 31.908L248.776 31.67C249 32.272 249.182 32.818 249.322 33.322H251.464V34.204H249.266V35.506H251.226V36.374H249.266V37.718H251.254V38.586H249.266V40.028H251.828V40.924H246.102V41.428H245.15V36.052C244.842 36.444 244.534 36.794 244.198 37.13L243.61 36.416C245.024 34.932 246.088 33.084 246.788 30.858H245.136V32.79H244.212V29.976H247.054C247.18 29.486 247.292 28.996 247.39 28.506L248.328 28.688C248.23 29.136 248.132 29.57 248.034 29.976H251.66ZM246.102 40.028H248.314V38.586H246.102V40.028ZM248.314 37.718V36.374H246.102V37.718H248.314ZM248.314 35.506V34.204H246.382C246.284 34.372 246.186 34.526 246.102 34.68V35.506H248.314ZM261.432 30.032H258.492V29.136H265.044C265.016 32.104 264.848 33.882 264.512 34.47C264.176 35.058 263.588 35.352 262.748 35.352C262.496 35.352 262.216 35.324 261.88 35.296L261.642 34.414C262.006 34.442 262.3 34.456 262.538 34.47C263.182 34.456 263.588 34.218 263.77 33.742C263.938 33.266 264.036 32.034 264.064 30.032H262.426C262.188 31.18 261.824 32.188 261.334 33.028C260.718 33.98 259.808 34.848 258.604 35.604L257.988 34.792C258.912 34.274 259.654 33.672 260.186 32.986C259.612 32.468 258.912 31.992 258.086 31.544L258.632 30.872C259.402 31.306 260.074 31.768 260.662 32.272C261.026 31.6 261.278 30.858 261.432 30.032ZM258.38 36.71L259.22 36.892C258.982 38.46 258.632 39.832 258.184 40.98L257.372 40.462C257.834 39.342 258.17 38.082 258.38 36.71ZM262.02 35.786C262.468 36.472 262.86 37.2 263.196 37.984L262.398 38.334C262.034 37.466 261.642 36.71 261.208 36.052L262.02 35.786ZM264.694 36.374C265.198 37.466 265.646 38.628 266.038 39.874L265.212 40.238C264.792 38.894 264.33 37.69 263.826 36.654L264.694 36.374ZM262.762 41.176H260.928C260.186 41.176 259.822 40.77 259.822 39.972V36.402H260.746V39.776C260.746 40.098 260.9 40.266 261.208 40.266H262.594C262.818 40.266 262.986 40.196 263.084 40.07C263.21 39.888 263.294 39.37 263.336 38.53L264.204 38.81C264.12 39.93 263.966 40.616 263.742 40.868C263.518 41.064 263.196 41.176 262.762 41.176ZM255.3 28.478C255.58 29.108 255.79 29.682 255.958 30.214L255.44 30.41H257.428V31.334H253.186V30.41H255.062C254.852 29.836 254.614 29.29 254.334 28.758L255.3 28.478ZM253.69 32.482H256.98V33.35H253.69V32.482ZM253.69 34.442H256.98V35.31H253.69V34.442ZM257.106 36.472V40.476H254.502V41.19H253.592V36.472H257.106ZM254.502 39.622H256.21V37.298H254.502V39.622ZM272.674 29.472H279.856V30.41H277.196V39.818C277.196 40.756 276.776 41.232 275.95 41.232H273.906L273.696 40.266C274.354 40.308 274.984 40.336 275.6 40.336C276.02 40.336 276.23 40.084 276.23 39.58V30.41H272.674V29.472ZM268.614 40.518V41.442H267.648V36.458H271.862V41.19H270.896V40.518H268.614ZM270.896 39.594V37.368H268.614V39.594H270.896ZM267.256 30.396H269.51C269.314 29.836 269.062 29.29 268.768 28.786L269.748 28.52C270.028 29.136 270.266 29.71 270.434 30.214L269.944 30.396H272.324V31.334H267.256V30.396ZM267.76 32.44H271.722V33.336H267.76V32.44ZM267.76 34.372H271.722V35.282H267.76V34.372ZM281.578 29.094H285.372V37.592H281.578V29.094ZM284.462 36.752V34.918H282.488V36.752H284.462ZM282.488 34.092H284.462V32.37H282.488V34.092ZM282.488 31.558H284.462V29.934H282.488V31.558ZM284.476 38.054C285.092 38.978 285.554 39.804 285.89 40.518L285.162 41.022C284.826 40.252 284.35 39.412 283.762 38.488L284.476 38.054ZM282.376 38.082L283.146 38.446C282.81 39.398 282.362 40.322 281.802 41.232L281.018 40.826C281.592 39.902 282.04 38.992 282.376 38.082ZM287.864 28.52H288.774V29.584H290.958V28.52H291.882V29.584H293.562V30.382H291.882V31.348H293.31V32.118H291.882V33.084H293.842V33.882H290.3V34.778H293.128V38.306H293.884V39.132H293.128V40.322C293.128 40.994 292.75 41.344 291.994 41.344H290.86L290.636 40.518L291.714 40.546C292.036 40.546 292.204 40.392 292.204 40.112V39.132H287.5V41.358H286.576V39.132H285.75V38.306H286.576V34.778H289.376V33.882H285.89V33.084H287.864V32.118H286.436V31.348H287.864V30.382H286.17V29.584H287.864V28.52ZM287.5 38.306H289.376V37.256H287.5V38.306ZM290.3 38.306H292.204V37.256H290.3V38.306ZM288.774 33.084H290.958V32.118H288.774V33.084ZM288.774 31.348H290.958V30.382H288.774V31.348ZM292.204 36.556V35.534H290.3V36.556H292.204ZM289.376 35.534H287.5V36.556H289.376V35.534ZM301.542 30.2C301.108 30.788 300.562 31.306 299.918 31.768L299.358 31.026C300.38 30.34 301.08 29.5 301.444 28.506L302.368 28.618C302.27 28.87 302.172 29.122 302.06 29.36H307.072V30.074C306.708 30.802 306.302 31.418 305.854 31.922L305.154 31.376C305.476 31.04 305.77 30.648 306.036 30.2H301.542ZM295.62 29.374H299.064V30.242H295.62V29.374ZM295.34 31.894H299.358V32.776H295.34V31.894ZM303.18 30.452L304.048 30.62C303.992 30.844 303.922 31.054 303.838 31.25C304.846 32.272 306.148 32.888 307.716 33.084L307.31 33.924C305.784 33.686 304.496 33.028 303.446 31.95C302.774 32.874 301.696 33.476 300.212 33.77L299.736 33.042C301.668 32.692 302.816 31.824 303.18 30.452ZM296.992 33.812H306.036V39.356H296.992V33.812ZM305.042 38.544V37.648H297.986V38.544H305.042ZM297.986 36.962H305.042V36.15H297.986V36.962ZM297.986 35.464H305.042V34.596H297.986V35.464ZM302.998 39.482C304.608 39.762 306.162 40.154 307.646 40.672L307.31 41.47C305.826 40.91 304.258 40.49 302.634 40.182L302.998 39.482ZM299.806 39.44L300.31 40.098C299.274 40.658 297.776 41.12 295.816 41.456L295.354 40.672C297.314 40.35 298.798 39.944 299.806 39.44ZM310.208 29.724C310.488 30.564 310.74 31.53 310.964 32.622L310.166 32.846C309.956 31.852 309.69 30.9 309.368 29.99L310.208 29.724ZM313.708 29.514L314.562 29.626C314.478 30.802 314.282 31.838 313.96 32.748L313.19 32.496C313.47 31.628 313.652 30.634 313.708 29.514ZM309.452 33.504H311.608V28.548H312.588V33.504H314.618V34.47H312.588V41.358H311.608V34.47H309.452V33.504ZM319.476 28.59H320.442V36.584L321.786 36.374L321.94 37.354L320.442 37.578V41.386H319.476V37.732L315.262 38.376L315.108 37.396L319.476 36.724V28.59ZM316.41 29.64C317.39 30.34 318.202 31.026 318.86 31.698L318.202 32.356C317.614 31.712 316.802 31.012 315.766 30.27L316.41 29.64ZM316.046 32.93C317.012 33.658 317.824 34.372 318.482 35.086L317.81 35.758C317.222 35.058 316.424 34.33 315.388 33.56L316.046 32.93ZM313.918 35.24C314.226 36.192 314.506 37.298 314.758 38.544L313.988 38.74C313.792 37.592 313.54 36.5 313.246 35.45L313.918 35.24ZM310.236 35.296L310.978 35.492C310.684 36.948 310.32 38.222 309.886 39.314L309.13 39.048C309.55 38.068 309.928 36.808 310.236 35.296Z" fill="#3690A4"/>
<path d="M508.21 28.436L509.148 28.884C508.84 29.864 508.448 30.774 508 31.642V41.428H506.992V33.308C506.488 34.05 505.914 34.75 505.284 35.422L504.976 34.372C506.46 32.65 507.538 30.676 508.21 28.436ZM509.442 31.6H514.804V28.59H515.812V31.6H517.828V32.58H515.812V39.888C515.812 40.84 515.364 41.316 514.496 41.316H512.466L512.242 40.322C512.9 40.364 513.53 40.392 514.146 40.392C514.58 40.392 514.804 40.14 514.804 39.636V32.58H509.442V31.6ZM510.73 34.106C511.794 35.366 512.62 36.472 513.194 37.41L512.34 38.012C511.738 36.99 510.926 35.856 509.904 34.61L510.73 34.106ZM519.186 29.836H522.154V28.562H523.106V29.836H525.682V30.732H523.106V31.964H525.36V32.832H519.676V31.964H522.154V30.732H519.186V29.836ZM520.138 33.952H524.926V34.848H520.138V33.952ZM519.284 35.968H525.836V36.85H523.008V41.344H522.056V36.85H519.284V35.968ZM520.362 37.522L521.174 37.69C520.88 38.796 520.46 39.748 519.928 40.56L519.172 40.084C519.718 39.3 520.11 38.446 520.362 37.522ZM524.632 37.438C524.968 38.082 525.276 38.768 525.542 39.51L524.758 39.86C524.478 39.048 524.156 38.32 523.82 37.69L524.632 37.438ZM527.082 28.604L528.006 28.758C527.922 29.486 527.81 30.144 527.684 30.76H531.394V31.376C531.198 32.566 530.96 33.742 530.666 34.904L529.728 34.638C530.008 33.77 530.232 32.79 530.428 31.67H527.474C527.138 32.846 526.718 33.798 526.2 34.526L525.43 33.98C526.284 32.692 526.83 30.9 527.082 28.604ZM528.02 32.776H528.944C528.944 33.714 528.888 34.568 528.804 35.352C529.42 37.578 530.47 39.342 531.954 40.644L531.282 41.414C530.078 40.238 529.154 38.81 528.51 37.102C528.482 37.2 528.468 37.298 528.44 37.41C528.006 39.062 527.026 40.406 525.486 41.47L524.87 40.728C526.2 39.804 527.082 38.656 527.516 37.256C527.852 36.08 528.02 34.596 528.02 32.776Z" fill="#3690A4"/>
<path d="M733.702 29.262H740.884V30.62H738.434V39.594C738.434 40.714 737.944 41.288 736.992 41.288H734.976L734.654 39.902C735.284 39.958 735.9 39.986 736.488 39.986C736.838 39.986 737.02 39.734 737.02 39.244V30.62H733.702V29.262ZM729.908 40.672V41.498H728.508V36.248H733.002V41.246H731.602V40.672H729.908ZM731.602 39.342V37.578H729.908V39.342H731.602ZM728.2 30.116H730.174C729.992 29.682 729.782 29.262 729.558 28.842L730.972 28.464C731.224 29.066 731.434 29.612 731.588 30.116H733.38V31.46H728.2V30.116ZM728.634 32.216H732.834V33.49H728.634V32.216ZM728.634 34.162H732.834V35.45H728.634V34.162ZM742.452 28.94H746.484V37.746H742.452V28.94ZM745.182 36.542V35.072H743.768V36.542H745.182ZM743.768 33.924H745.182V32.552H743.768V33.924ZM743.768 31.404H745.182V30.144H743.768V31.404ZM745.672 37.984C746.218 38.88 746.638 39.678 746.946 40.364L745.896 41.078C745.588 40.336 745.182 39.51 744.664 38.614L745.672 37.984ZM743.166 38.026L744.258 38.558C743.95 39.482 743.558 40.392 743.082 41.288L741.962 40.714C742.466 39.804 742.872 38.908 743.166 38.026ZM748.654 28.52H749.984V29.43H751.748V28.52H753.092V29.43H754.618V30.55H753.092V31.194H754.352V32.272H753.092V32.93H754.898V34.05H751.51V34.652H754.24V38.11H754.94V39.286H754.24V40.294C754.24 41.022 753.806 41.4 752.938 41.4H751.832L751.538 40.21L752.56 40.266C752.798 40.266 752.924 40.182 752.924 40.014V39.286H748.78V41.414H747.464V39.286H746.694V38.11H747.464V34.652H750.166V34.05H746.834V32.93H748.654V32.272H747.394V31.194H748.654V30.55H747.114V29.43H748.654V28.52ZM748.78 38.11H750.166V37.382H748.78V38.11ZM751.51 38.11H752.924V37.382H751.51V38.11ZM749.984 32.93H751.748V32.272H749.984V32.93ZM749.984 31.194H751.748V30.55H749.984V31.194ZM752.924 36.43V35.716H751.51V36.43H752.924ZM750.166 35.716H748.78V36.43H750.166V35.716ZM768.548 29.836V33.21H767.078V31.25H757.894V33.21H756.424V29.836H761.59C761.45 29.444 761.296 29.094 761.128 28.772L762.794 28.492C762.948 28.898 763.102 29.346 763.242 29.836H768.548ZM758.482 32.482H766.462V33.882H758.482V32.482ZM756.354 35.072H768.66V36.486H764.894V39.258C764.894 39.678 765.062 39.888 765.398 39.888H767.12C767.26 39.888 767.358 39.79 767.428 39.608C767.484 39.426 767.54 38.852 767.568 37.9L768.954 38.334C768.856 39.762 768.688 40.616 768.436 40.882C768.212 41.134 767.862 41.274 767.4 41.274H764.95C763.942 41.274 763.438 40.7 763.438 39.552V36.486H761.436C761.366 37.858 760.974 38.964 760.274 39.79C759.588 40.546 758.482 41.148 756.942 41.568L756.102 40.252C757.6 39.874 758.608 39.412 759.126 38.852C759.644 38.236 759.924 37.452 759.98 36.486H756.354V35.072ZM780.126 28.38C780.756 28.856 781.288 29.346 781.736 29.836L781.092 30.494H782.758V31.88H778.642C778.754 33.504 778.922 34.764 779.146 35.632C779.188 35.828 779.244 36.01 779.3 36.206C779.86 35.226 780.322 34.092 780.686 32.832L782.016 33.406C781.47 35.184 780.77 36.696 779.916 37.942C780.042 38.222 780.182 38.474 780.322 38.684C780.714 39.286 781.022 39.594 781.232 39.594C781.372 39.594 781.54 38.922 781.722 37.578L783.038 38.292C782.674 40.266 782.156 41.26 781.456 41.26C780.84 41.26 780.196 40.84 779.51 40.014C779.314 39.762 779.118 39.482 778.95 39.174C778.026 40.182 776.962 40.952 775.758 41.484L774.918 40.252C776.234 39.664 777.354 38.81 778.278 37.69C778.082 37.2 777.914 36.668 777.76 36.094C777.452 34.974 777.256 33.56 777.144 31.88H772.776V33.826H776.206C776.164 36.43 776.024 38.054 775.786 38.698C775.562 39.286 775.072 39.58 774.316 39.594C773.98 39.594 773.602 39.566 773.182 39.524L772.734 38.194C773.294 38.236 773.756 38.264 774.148 38.264C774.372 38.25 774.526 38.11 774.596 37.83C774.68 37.508 774.722 36.626 774.75 35.198H772.776C772.706 37.802 772.132 39.888 771.054 41.47L769.948 40.476C770.816 39.202 771.264 37.424 771.306 35.156V30.494H777.074C777.046 29.85 777.046 29.164 777.046 28.464H778.53C778.53 29.178 778.544 29.85 778.572 30.494H780.546C780.196 30.102 779.748 29.682 779.202 29.262L780.126 28.38Z" fill="#3690A4"/>
<rect x="33" y="0.5" width="19" height="19" rx="9.5" stroke="#3690A4"/>
<path d="M42.9104 5.504H43.8064V15.5H42.6584V6.904C42.0284 7.548 41.2444 7.996 40.3064 8.276V7.128C40.7544 7.002 41.2304 6.806 41.7064 6.526C42.1824 6.218 42.5744 5.882 42.9104 5.504Z" fill="#3690A4"/>
<rect x="57" y="7.5" width="209" height="5" stroke="#3690A4"/>
<rect x="271" y="0.5" width="19" height="19" rx="9.5" stroke="#3690A4"/>
<path d="M280.643 5.308C281.567 5.308 282.323 5.574 282.925 6.106C283.513 6.638 283.821 7.352 283.821 8.22C283.821 9.088 283.485 9.872 282.841 10.572C282.491 10.936 281.805 11.482 280.769 12.182C279.495 13.036 278.767 13.806 278.585 14.478H283.835V15.5H277.171C277.171 14.59 277.493 13.764 278.165 13.022C278.557 12.574 279.271 11.972 280.335 11.244C281.119 10.684 281.637 10.278 281.903 9.998C282.407 9.452 282.673 8.85 282.673 8.206C282.673 7.59 282.491 7.128 282.127 6.792C281.763 6.456 281.245 6.288 280.601 6.288C279.915 6.288 279.383 6.512 279.019 6.988C278.627 7.436 278.417 8.108 278.403 8.99H277.255C277.255 7.87 277.577 6.974 278.193 6.316C278.809 5.644 279.635 5.308 280.643 5.308Z" fill="#3690A4"/>
<rect x="295" y="7.5" width="209" height="5" stroke="#3690A4"/>
<rect x="509" y="0.5" width="19" height="19" rx="9.5" stroke="#3690A4"/>
<path d="M518.601 5.308C519.553 5.308 520.337 5.546 520.925 6.036C521.499 6.526 521.793 7.184 521.793 8.024C521.793 9.144 521.247 9.9 520.155 10.264C520.743 10.446 521.191 10.726 521.499 11.118C521.835 11.51 522.003 12 522.003 12.588C522.003 13.498 521.681 14.24 521.051 14.814C520.407 15.402 519.567 15.696 518.531 15.696C517.579 15.696 516.809 15.444 516.207 14.968C515.493 14.38 515.101 13.526 515.017 12.406H516.179C516.207 13.19 516.473 13.792 516.963 14.198C517.383 14.534 517.901 14.716 518.531 14.716C519.245 14.716 519.819 14.506 520.253 14.1C520.645 13.708 520.855 13.218 520.855 12.63C520.855 12.028 520.659 11.566 520.267 11.23C519.875 10.894 519.343 10.74 518.643 10.74H517.831V9.844H518.601C519.273 9.844 519.777 9.69 520.127 9.396C520.477 9.088 520.659 8.654 520.659 8.094C520.659 7.534 520.477 7.1 520.141 6.792C519.777 6.456 519.259 6.302 518.615 6.302C517.943 6.302 517.425 6.47 517.047 6.834C516.655 7.198 516.431 7.716 516.361 8.388H515.227C515.311 7.422 515.675 6.666 516.291 6.12C516.879 5.574 517.649 5.308 518.601 5.308Z" fill="#3690A4"/>
<rect x="533" y="7.5" width="209" height="5" stroke="#3690A4"/>
<rect x="746.5" width="20" height="20" rx="10" fill="#3690A4"/>
<path d="M751.5 9.53333L754.19 12.6579C754.577 13.108 755.269 13.1232 755.676 12.6907L761.5 6.5" stroke="white" stroke-linecap="round"/>
</svg>
