<svg width="784" height="45" viewBox="0 0 784 45" fill="none" xmlns="http://www.w3.org/2000/svg">
<path d="M5.61 29.598H9.068V28.548H10.034V29.598H13.492V30.48H10.034V31.39H12.694V37.858H13.982V38.754H5.12V37.858H6.422V31.39H9.068V30.48H5.61V29.598ZM7.374 37.858H11.742V36.948H7.374V37.858ZM7.374 36.22H11.742V35.366H7.374V36.22ZM7.374 34.652H11.742V33.784H7.374V34.652ZM7.374 33.07H11.742V32.188H7.374V33.07ZM11.112 38.95C12.078 39.454 12.974 40.056 13.786 40.756L13.184 41.456C12.344 40.728 11.448 40.084 10.482 39.524L11.112 38.95ZM8.004 38.95L8.676 39.538C7.864 40.266 6.856 40.91 5.652 41.456L5.064 40.7C6.226 40.196 7.206 39.622 8.004 38.95ZM1.2 31.992H2.768V28.618H3.734V31.992H5.176V32.944H3.734V37.312C4.21 37.144 4.686 36.962 5.148 36.766V37.76C3.972 38.236 2.698 38.628 1.34 38.95L1.088 37.984C1.648 37.872 2.208 37.746 2.768 37.606V32.944H1.2V31.992ZM24.244 37.9C24.524 38.432 24.776 38.992 25 39.58L24.23 39.916C23.992 39.258 23.74 38.684 23.474 38.208L24.244 37.9ZM22.214 38.138C22.466 38.754 22.704 39.44 22.9 40.168L22.018 40.378C21.85 39.594 21.64 38.908 21.388 38.306L22.214 38.138ZM23.292 41.358L23.054 40.476C23.516 40.504 23.95 40.518 24.37 40.518C25 40.518 25.42 40.322 25.616 39.958C25.812 39.566 25.952 38.74 26.008 37.466H18.196C17.566 37.97 16.88 38.432 16.124 38.838L15.494 38.082C16.768 37.466 17.846 36.696 18.728 35.772H17.272V31.544C18.588 31.46 19.708 31.264 20.66 30.942L21.108 31.684C20.38 31.95 19.4 32.16 18.168 32.314V33.238H20.884V34.022H18.168V34.946H24.832V34.022H22.256V33.252H24.832V32.314H22.074V31.502H25.756V35.772H19.848C19.61 36.08 19.358 36.36 19.106 36.626H26.988C26.946 37.774 26.876 38.712 26.764 39.44C26.638 40.14 26.442 40.644 26.162 40.924C25.882 41.19 25.434 41.33 24.818 41.358H23.292ZM17.51 38.18L18.364 38.404C18.112 39.44 17.804 40.364 17.44 41.162L16.53 40.84C16.908 40.14 17.23 39.244 17.51 38.18ZM20.184 38.278C20.38 39.02 20.548 39.832 20.702 40.714L19.792 40.924C19.68 39.986 19.526 39.16 19.344 38.46L20.184 38.278ZM27.31 29.668V32.188H26.358V30.564H16.656V32.202H15.704V29.668H20.968C20.8 29.304 20.604 28.982 20.408 28.688L21.444 28.52C21.626 28.856 21.808 29.248 21.976 29.668H27.31ZM34.674 29.472H41.856V30.41H39.196V39.818C39.196 40.756 38.776 41.232 37.95 41.232H35.906L35.696 40.266C36.354 40.308 36.984 40.336 37.6 40.336C38.02 40.336 38.23 40.084 38.23 39.58V30.41H34.674V29.472ZM30.614 40.518V41.442H29.648V36.458H33.862V41.19H32.896V40.518H30.614ZM32.896 39.594V37.368H30.614V39.594H32.896ZM29.256 30.396H31.51C31.314 29.836 31.062 29.29 30.768 28.786L31.748 28.52C32.028 29.136 32.266 29.71 32.434 30.214L31.944 30.396H34.324V31.334H29.256V30.396ZM29.76 32.44H33.722V33.336H29.76V32.44ZM29.76 34.372H33.722V35.282H29.76V34.372ZM43.578 29.094H47.372V37.592H43.578V29.094ZM46.462 36.752V34.918H44.488V36.752H46.462ZM44.488 34.092H46.462V32.37H44.488V34.092ZM44.488 31.558H46.462V29.934H44.488V31.558ZM46.476 38.054C47.092 38.978 47.554 39.804 47.89 40.518L47.162 41.022C46.826 40.252 46.35 39.412 45.762 38.488L46.476 38.054ZM44.376 38.082L45.146 38.446C44.81 39.398 44.362 40.322 43.802 41.232L43.018 40.826C43.592 39.902 44.04 38.992 44.376 38.082ZM49.864 28.52H50.774V29.584H52.958V28.52H53.882V29.584H55.562V30.382H53.882V31.348H55.31V32.118H53.882V33.084H55.842V33.882H52.3V34.778H55.128V38.306H55.884V39.132H55.128V40.322C55.128 40.994 54.75 41.344 53.994 41.344H52.86L52.636 40.518L53.714 40.546C54.036 40.546 54.204 40.392 54.204 40.112V39.132H49.5V41.358H48.576V39.132H47.75V38.306H48.576V34.778H51.376V33.882H47.89V33.084H49.864V32.118H48.436V31.348H49.864V30.382H48.17V29.584H49.864V28.52ZM49.5 38.306H51.376V37.256H49.5V38.306ZM52.3 38.306H54.204V37.256H52.3V38.306ZM50.774 33.084H52.958V32.118H50.774V33.084ZM50.774 31.348H52.958V30.382H50.774V31.348ZM54.204 36.556V35.534H52.3V36.556H54.204ZM51.376 35.534H49.5V36.556H51.376V35.534ZM63.542 30.2C63.108 30.788 62.562 31.306 61.918 31.768L61.358 31.026C62.38 30.34 63.08 29.5 63.444 28.506L64.368 28.618C64.27 28.87 64.172 29.122 64.06 29.36H69.072V30.074C68.708 30.802 68.302 31.418 67.854 31.922L67.154 31.376C67.476 31.04 67.77 30.648 68.036 30.2H63.542ZM57.62 29.374H61.064V30.242H57.62V29.374ZM57.34 31.894H61.358V32.776H57.34V31.894ZM65.18 30.452L66.048 30.62C65.992 30.844 65.922 31.054 65.838 31.25C66.846 32.272 68.148 32.888 69.716 33.084L69.31 33.924C67.784 33.686 66.496 33.028 65.446 31.95C64.774 32.874 63.696 33.476 62.212 33.77L61.736 33.042C63.668 32.692 64.816 31.824 65.18 30.452ZM58.992 33.812H68.036V39.356H58.992V33.812ZM67.042 38.544V37.648H59.986V38.544H67.042ZM59.986 36.962H67.042V36.15H59.986V36.962ZM59.986 35.464H67.042V34.596H59.986V35.464ZM64.998 39.482C66.608 39.762 68.162 40.154 69.646 40.672L69.31 41.47C67.826 40.91 66.258 40.49 64.634 40.182L64.998 39.482ZM61.806 39.44L62.31 40.098C61.274 40.658 59.776 41.12 57.816 41.456L57.354 40.672C59.314 40.35 60.798 39.944 61.806 39.44ZM72.208 29.724C72.488 30.564 72.74 31.53 72.964 32.622L72.166 32.846C71.956 31.852 71.69 30.9 71.368 29.99L72.208 29.724ZM75.708 29.514L76.562 29.626C76.478 30.802 76.282 31.838 75.96 32.748L75.19 32.496C75.47 31.628 75.652 30.634 75.708 29.514ZM71.452 33.504H73.608V28.548H74.588V33.504H76.618V34.47H74.588V41.358H73.608V34.47H71.452V33.504ZM81.476 28.59H82.442V36.584L83.786 36.374L83.94 37.354L82.442 37.578V41.386H81.476V37.732L77.262 38.376L77.108 37.396L81.476 36.724V28.59ZM78.41 29.64C79.39 30.34 80.202 31.026 80.86 31.698L80.202 32.356C79.614 31.712 78.802 31.012 77.766 30.27L78.41 29.64ZM78.046 32.93C79.012 33.658 79.824 34.372 80.482 35.086L79.81 35.758C79.222 35.058 78.424 34.33 77.388 33.56L78.046 32.93ZM75.918 35.24C76.226 36.192 76.506 37.298 76.758 38.544L75.988 38.74C75.792 37.592 75.54 36.5 75.246 35.45L75.918 35.24ZM72.236 35.296L72.978 35.492C72.684 36.948 72.32 38.222 71.886 39.314L71.13 39.048C71.55 38.068 71.928 36.808 72.236 35.296Z" fill="#3690A4"/>
<path d="M239.396 29.122H243.806V30.522H242.028C241.86 31.488 241.636 32.398 241.342 33.266H243.68V36.136C244.926 34.764 245.878 33.07 246.55 31.068H245.444V32.818H244.1V29.808H246.928C247.04 29.36 247.138 28.898 247.236 28.422L248.594 28.674C248.51 29.066 248.426 29.444 248.342 29.808H251.758V32.538H250.414V31.068H247.992C247.754 31.796 247.488 32.482 247.208 33.126H248.328C248.188 32.692 248.034 32.272 247.866 31.88L249.112 31.558C249.336 32.132 249.504 32.65 249.63 33.126H251.52V34.386H249.532V35.31H251.254V36.542H249.532V37.508H251.31V38.74H249.532V39.79H251.884V41.078H246.382V41.484H245.024V36.626C244.8 36.864 244.59 37.102 244.366 37.326L243.68 36.486V40.854H242.392V40.21H241.398V40.994H240.138V35.94C239.97 36.206 239.802 36.472 239.634 36.724L238.864 35.492C239.732 34.008 240.334 32.356 240.642 30.522H239.396V29.122ZM246.382 39.79H248.16V38.74H246.382V39.79ZM248.16 37.508V36.542H246.382V37.508H248.16ZM248.16 35.31V34.386H246.578C246.508 34.498 246.438 34.624 246.382 34.736V35.31H248.16ZM241.398 38.894H242.392V34.582H241.398V38.894ZM261.152 30.228H258.436V28.94H265.268C265.24 32.034 265.058 33.896 264.694 34.512C264.316 35.114 263.672 35.422 262.776 35.422C262.524 35.422 262.23 35.394 261.894 35.352L261.544 34.092L262.468 34.162C263.056 34.148 263.42 33.938 263.588 33.518C263.728 33.098 263.826 32.006 263.854 30.228H262.58C262.342 31.292 261.992 32.23 261.53 33.07C260.9 34.036 259.976 34.904 258.758 35.688L257.862 34.512C258.702 34.05 259.388 33.532 259.892 32.944C259.332 32.496 258.702 32.076 257.988 31.698L258.758 30.746C259.43 31.11 260.032 31.516 260.564 31.936C260.816 31.432 261.012 30.858 261.152 30.228ZM258.17 36.71L259.374 36.976C259.15 38.544 258.842 39.902 258.436 41.05L257.274 40.308C257.694 39.188 258.002 37.984 258.17 36.71ZM262.342 35.702C262.762 36.374 263.112 37.088 263.42 37.872L262.286 38.376C261.95 37.508 261.586 36.738 261.194 36.08L262.342 35.702ZM265.002 36.304C265.408 37.382 265.772 38.53 266.108 39.762L264.904 40.308C264.568 38.95 264.176 37.746 263.756 36.71L265.002 36.304ZM262.804 41.232H260.928C260.088 41.232 259.668 40.77 259.668 39.874V36.346H260.998V39.58C260.998 39.818 261.11 39.944 261.334 39.944H262.566C262.706 39.944 262.818 39.874 262.902 39.734C262.986 39.58 263.042 39.132 263.07 38.39L264.316 38.782C264.232 39.972 264.064 40.686 263.84 40.91C263.602 41.12 263.252 41.232 262.804 41.232ZM255.482 28.422C255.734 29.052 255.93 29.626 256.07 30.13H257.414V31.446H253.13V30.13H254.67C254.502 29.682 254.306 29.234 254.096 28.814L255.482 28.422ZM253.606 32.244H257.008V33.476H253.606V32.244ZM253.606 34.204H257.008V35.436H253.606V34.204ZM257.19 36.304V40.602H254.782V41.246H253.466V36.304H257.19ZM254.782 39.398H255.888V37.48H254.782V39.398ZM272.702 29.262H279.884V30.62H277.434V39.594C277.434 40.714 276.944 41.288 275.992 41.288H273.976L273.654 39.902C274.284 39.958 274.9 39.986 275.488 39.986C275.838 39.986 276.02 39.734 276.02 39.244V30.62H272.702V29.262ZM268.908 40.672V41.498H267.508V36.248H272.002V41.246H270.602V40.672H268.908ZM270.602 39.342V37.578H268.908V39.342H270.602ZM267.2 30.116H269.174C268.992 29.682 268.782 29.262 268.558 28.842L269.972 28.464C270.224 29.066 270.434 29.612 270.588 30.116H272.38V31.46H267.2V30.116ZM267.634 32.216H271.834V33.49H267.634V32.216ZM267.634 34.162H271.834V35.45H267.634V34.162ZM281.452 28.94H285.484V37.746H281.452V28.94ZM284.182 36.542V35.072H282.768V36.542H284.182ZM282.768 33.924H284.182V32.552H282.768V33.924ZM282.768 31.404H284.182V30.144H282.768V31.404ZM284.672 37.984C285.218 38.88 285.638 39.678 285.946 40.364L284.896 41.078C284.588 40.336 284.182 39.51 283.664 38.614L284.672 37.984ZM282.166 38.026L283.258 38.558C282.95 39.482 282.558 40.392 282.082 41.288L280.962 40.714C281.466 39.804 281.872 38.908 282.166 38.026ZM287.654 28.52H288.984V29.43H290.748V28.52H292.092V29.43H293.618V30.55H292.092V31.194H293.352V32.272H292.092V32.93H293.898V34.05H290.51V34.652H293.24V38.11H293.94V39.286H293.24V40.294C293.24 41.022 292.806 41.4 291.938 41.4H290.832L290.538 40.21L291.56 40.266C291.798 40.266 291.924 40.182 291.924 40.014V39.286H287.78V41.414H286.464V39.286H285.694V38.11H286.464V34.652H289.166V34.05H285.834V32.93H287.654V32.272H286.394V31.194H287.654V30.55H286.114V29.43H287.654V28.52ZM287.78 38.11H289.166V37.382H287.78V38.11ZM290.51 38.11H291.924V37.382H290.51V38.11ZM288.984 32.93H290.748V32.272H288.984V32.93ZM288.984 31.194H290.748V30.55H288.984V31.194ZM291.924 36.43V35.716H290.51V36.43H291.924ZM289.166 35.716H287.78V36.43H289.166V35.716ZM301.654 30.382C301.22 30.942 300.688 31.446 300.072 31.894L299.274 30.844C300.254 30.186 300.912 29.374 301.262 28.394L302.606 28.562C302.522 28.786 302.452 28.982 302.368 29.178H307.226V30.186C306.862 30.928 306.456 31.544 306.022 32.034L305.042 31.236C305.28 30.984 305.504 30.704 305.714 30.382H301.654ZM295.592 29.192H299.092V30.424H295.592V29.192ZM295.312 31.712H299.386V32.958H295.312V31.712ZM302.998 30.452L304.23 30.704C304.174 30.886 304.118 31.068 304.062 31.236C305.07 32.132 306.302 32.65 307.772 32.818L307.184 34.036C306.82 33.98 306.484 33.896 306.176 33.812V39.524H303.81C305.168 39.748 306.47 40.042 307.702 40.406L307.226 41.568C305.742 41.05 304.174 40.658 302.55 40.378L302.984 39.524H299.834L300.394 40.266C299.358 40.798 297.874 41.232 295.942 41.568L295.284 40.434C296.95 40.182 298.252 39.888 299.204 39.524H296.838V33.658H300.254L299.722 32.818C301.57 32.496 302.662 31.712 302.998 30.452ZM301.22 33.658H305.742C304.902 33.322 304.146 32.846 303.502 32.202C302.956 32.874 302.2 33.35 301.22 33.658ZM304.748 38.376V37.76H298.266V38.376H304.748ZM298.266 36.836H304.748V36.276H298.266V36.836ZM298.266 35.338H304.748V34.75H298.266V35.338ZM310.432 29.654C310.67 30.494 310.894 31.474 311.09 32.566L309.97 32.874C309.774 31.894 309.522 30.942 309.228 30.046L310.432 29.654ZM313.526 29.514L314.744 29.682C314.66 30.844 314.478 31.88 314.184 32.776L313.106 32.426C313.33 31.586 313.47 30.606 313.526 29.514ZM309.41 33.28H311.384V28.492H312.812V33.28H314.632V34.694H312.812V41.414H311.384V34.694H309.41V33.28ZM319.252 28.534H320.666V36.332L321.8 36.164L322.038 37.564L320.666 37.774V41.442H319.252V37.984L315.234 38.586L315.024 37.186L319.252 36.542V28.534ZM316.536 29.486C317.488 30.172 318.3 30.844 318.944 31.516L317.978 32.468C317.418 31.824 316.62 31.138 315.598 30.396L316.536 29.486ZM316.186 32.776C317.11 33.504 317.894 34.218 318.538 34.932L317.558 35.884C317.026 35.198 316.242 34.456 315.234 33.672L316.186 32.776ZM314.128 35.184C314.422 36.136 314.688 37.228 314.912 38.46L313.82 38.74C313.652 37.606 313.442 36.528 313.19 35.492L314.128 35.184ZM310.012 35.24L311.062 35.52C310.782 36.976 310.46 38.264 310.068 39.37L309.004 38.992C309.396 38.012 309.732 36.752 310.012 35.24Z" fill="#3690A4"/>
<path d="M508.21 28.436L509.148 28.884C508.84 29.864 508.448 30.774 508 31.642V41.428H506.992V33.308C506.488 34.05 505.914 34.75 505.284 35.422L504.976 34.372C506.46 32.65 507.538 30.676 508.21 28.436ZM509.442 31.6H514.804V28.59H515.812V31.6H517.828V32.58H515.812V39.888C515.812 40.84 515.364 41.316 514.496 41.316H512.466L512.242 40.322C512.9 40.364 513.53 40.392 514.146 40.392C514.58 40.392 514.804 40.14 514.804 39.636V32.58H509.442V31.6ZM510.73 34.106C511.794 35.366 512.62 36.472 513.194 37.41L512.34 38.012C511.738 36.99 510.926 35.856 509.904 34.61L510.73 34.106ZM519.186 29.836H522.154V28.562H523.106V29.836H525.682V30.732H523.106V31.964H525.36V32.832H519.676V31.964H522.154V30.732H519.186V29.836ZM520.138 33.952H524.926V34.848H520.138V33.952ZM519.284 35.968H525.836V36.85H523.008V41.344H522.056V36.85H519.284V35.968ZM520.362 37.522L521.174 37.69C520.88 38.796 520.46 39.748 519.928 40.56L519.172 40.084C519.718 39.3 520.11 38.446 520.362 37.522ZM524.632 37.438C524.968 38.082 525.276 38.768 525.542 39.51L524.758 39.86C524.478 39.048 524.156 38.32 523.82 37.69L524.632 37.438ZM527.082 28.604L528.006 28.758C527.922 29.486 527.81 30.144 527.684 30.76H531.394V31.376C531.198 32.566 530.96 33.742 530.666 34.904L529.728 34.638C530.008 33.77 530.232 32.79 530.428 31.67H527.474C527.138 32.846 526.718 33.798 526.2 34.526L525.43 33.98C526.284 32.692 526.83 30.9 527.082 28.604ZM528.02 32.776H528.944C528.944 33.714 528.888 34.568 528.804 35.352C529.42 37.578 530.47 39.342 531.954 40.644L531.282 41.414C530.078 40.238 529.154 38.81 528.51 37.102C528.482 37.2 528.468 37.298 528.44 37.41C528.006 39.062 527.026 40.406 525.486 41.47L524.87 40.728C526.2 39.804 527.082 38.656 527.516 37.256C527.852 36.08 528.02 34.596 528.02 32.776Z" fill="#3690A4"/>
<path d="M733.674 29.472H740.856V30.41H738.196V39.818C738.196 40.756 737.776 41.232 736.95 41.232H734.906L734.696 40.266C735.354 40.308 735.984 40.336 736.6 40.336C737.02 40.336 737.23 40.084 737.23 39.58V30.41H733.674V29.472ZM729.614 40.518V41.442H728.648V36.458H732.862V41.19H731.896V40.518H729.614ZM731.896 39.594V37.368H729.614V39.594H731.896ZM728.256 30.396H730.51C730.314 29.836 730.062 29.29 729.768 28.786L730.748 28.52C731.028 29.136 731.266 29.71 731.434 30.214L730.944 30.396H733.324V31.334H728.256V30.396ZM728.76 32.44H732.722V33.336H728.76V32.44ZM728.76 34.372H732.722V35.282H728.76V34.372ZM742.578 29.094H746.372V37.592H742.578V29.094ZM745.462 36.752V34.918H743.488V36.752H745.462ZM743.488 34.092H745.462V32.37H743.488V34.092ZM743.488 31.558H745.462V29.934H743.488V31.558ZM745.476 38.054C746.092 38.978 746.554 39.804 746.89 40.518L746.162 41.022C745.826 40.252 745.35 39.412 744.762 38.488L745.476 38.054ZM743.376 38.082L744.146 38.446C743.81 39.398 743.362 40.322 742.802 41.232L742.018 40.826C742.592 39.902 743.04 38.992 743.376 38.082ZM748.864 28.52H749.774V29.584H751.958V28.52H752.882V29.584H754.562V30.382H752.882V31.348H754.31V32.118H752.882V33.084H754.842V33.882H751.3V34.778H754.128V38.306H754.884V39.132H754.128V40.322C754.128 40.994 753.75 41.344 752.994 41.344H751.86L751.636 40.518L752.714 40.546C753.036 40.546 753.204 40.392 753.204 40.112V39.132H748.5V41.358H747.576V39.132H746.75V38.306H747.576V34.778H750.376V33.882H746.89V33.084H748.864V32.118H747.436V31.348H748.864V30.382H747.17V29.584H748.864V28.52ZM748.5 38.306H750.376V37.256H748.5V38.306ZM751.3 38.306H753.204V37.256H751.3V38.306ZM749.774 33.084H751.958V32.118H749.774V33.084ZM749.774 31.348H751.958V30.382H749.774V31.348ZM753.204 36.556V35.534H751.3V36.556H753.204ZM750.376 35.534H748.5V36.556H750.376V35.534ZM768.422 30.06V33.196H767.4V31.04H757.572V33.196H756.55V30.06H761.926C761.758 29.584 761.59 29.15 761.394 28.758L762.528 28.562C762.71 29.01 762.892 29.5 763.06 30.06H768.422ZM758.552 32.664H766.392V33.644H758.552V32.664ZM756.41 35.296H768.604V36.262H764.642V39.58C764.642 40 764.838 40.224 765.244 40.224H767.106C767.358 40.224 767.526 40.126 767.624 39.944C767.736 39.734 767.82 39.104 767.876 38.04L768.828 38.348C768.744 39.692 768.576 40.518 768.324 40.798C768.1 41.05 767.764 41.19 767.288 41.19H764.922C764.054 41.19 763.634 40.714 763.634 39.79V36.262H761.282V36.36C761.24 37.732 760.862 38.838 760.162 39.678C759.462 40.434 758.328 41.036 756.76 41.47L756.186 40.574C757.712 40.182 758.776 39.664 759.392 39.006C759.952 38.334 760.246 37.452 760.288 36.36V36.262H756.41V35.296ZM779.916 28.52C780.588 29.024 781.162 29.542 781.638 30.06L780.994 30.704H782.702V31.67H778.39C778.488 33.406 778.67 34.778 778.922 35.786C779.006 36.136 779.104 36.458 779.202 36.766C779.902 35.646 780.462 34.33 780.896 32.832L781.806 33.224C781.246 35.072 780.518 36.64 779.622 37.9C779.818 38.348 780.028 38.74 780.252 39.062C780.714 39.734 781.092 40.07 781.372 40.07C781.624 40.056 781.862 39.328 782.072 37.886L782.982 38.39C782.646 40.252 782.17 41.19 781.54 41.19C780.952 41.19 780.322 40.77 779.65 39.93C779.398 39.594 779.16 39.202 778.95 38.768C777.97 39.916 776.822 40.77 775.506 41.358L774.946 40.518C776.346 39.888 777.536 38.964 778.502 37.746C778.306 37.228 778.124 36.668 777.97 36.066C777.662 34.89 777.466 33.42 777.354 31.67H772.552V33.994H775.982C775.954 36.36 775.842 37.886 775.66 38.572C775.478 39.174 775.044 39.482 774.344 39.51C774.008 39.51 773.602 39.482 773.154 39.454L772.846 38.544C773.392 38.572 773.854 38.586 774.232 38.586C774.54 38.572 774.736 38.362 774.82 37.97C774.904 37.494 774.946 36.486 774.974 34.946H772.552V35.366C772.496 37.872 771.936 39.888 770.9 41.4L770.13 40.714C771.026 39.426 771.488 37.648 771.53 35.366V30.704H777.312C777.284 30.004 777.27 29.29 777.27 28.534H778.306C778.306 29.318 778.32 30.032 778.348 30.704H780.966C780.546 30.2 779.986 29.682 779.272 29.136L779.916 28.52Z" fill="#3690A4"/>
<rect x="33" y="0.5" width="19" height="19" rx="9.5" stroke="#3690A4"/>
<path d="M42.9104 5.504H43.8064V15.5H42.6584V6.904C42.0284 7.548 41.2444 7.996 40.3064 8.276V7.128C40.7544 7.002 41.2304 6.806 41.7064 6.526C42.1824 6.218 42.5744 5.882 42.9104 5.504Z" fill="#3690A4"/>
<rect x="57" y="7.5" width="209" height="5" stroke="#3690A4"/>
<rect x="270.5" width="20" height="20" rx="10" fill="#3690A4"/>
<path d="M280.643 5.308C281.567 5.308 282.323 5.574 282.925 6.106C283.513 6.638 283.821 7.352 283.821 8.22C283.821 9.088 283.485 9.872 282.841 10.572C282.491 10.936 281.805 11.482 280.769 12.182C279.495 13.036 278.767 13.806 278.585 14.478H283.835V15.5H277.171C277.171 14.59 277.493 13.764 278.165 13.022C278.557 12.574 279.271 11.972 280.335 11.244C281.119 10.684 281.637 10.278 281.903 9.998C282.407 9.452 282.673 8.85 282.673 8.206C282.673 7.59 282.491 7.128 282.127 6.792C281.763 6.456 281.245 6.288 280.601 6.288C279.915 6.288 279.383 6.512 279.019 6.988C278.627 7.436 278.417 8.108 278.403 8.99H277.255C277.255 7.87 277.577 6.974 278.193 6.316C278.809 5.644 279.635 5.308 280.643 5.308Z" fill="white"/>
<rect x="294.5" y="7" width="210" height="6" fill="#3690A4"/>
<rect x="509" y="0.5" width="19" height="19" rx="9.5" stroke="#3690A4"/>
<path d="M518.601 5.308C519.553 5.308 520.337 5.546 520.925 6.036C521.499 6.526 521.793 7.184 521.793 8.024C521.793 9.144 521.247 9.9 520.155 10.264C520.743 10.446 521.191 10.726 521.499 11.118C521.835 11.51 522.003 12 522.003 12.588C522.003 13.498 521.681 14.24 521.051 14.814C520.407 15.402 519.567 15.696 518.531 15.696C517.579 15.696 516.809 15.444 516.207 14.968C515.493 14.38 515.101 13.526 515.017 12.406H516.179C516.207 13.19 516.473 13.792 516.963 14.198C517.383 14.534 517.901 14.716 518.531 14.716C519.245 14.716 519.819 14.506 520.253 14.1C520.645 13.708 520.855 13.218 520.855 12.63C520.855 12.028 520.659 11.566 520.267 11.23C519.875 10.894 519.343 10.74 518.643 10.74H517.831V9.844H518.601C519.273 9.844 519.777 9.69 520.127 9.396C520.477 9.088 520.659 8.654 520.659 8.094C520.659 7.534 520.477 7.1 520.141 6.792C519.777 6.456 519.259 6.302 518.615 6.302C517.943 6.302 517.425 6.47 517.047 6.834C516.655 7.198 516.431 7.716 516.361 8.388H515.227C515.311 7.422 515.675 6.666 516.291 6.12C516.879 5.574 517.649 5.308 518.601 5.308Z" fill="#3690A4"/>
<rect x="533" y="7.5" width="209" height="5" stroke="#3690A4"/>
<rect x="747" y="0.5" width="19" height="19" rx="9.5" stroke="#3690A4"/>
<path d="M751.5 9.53333L754.19 12.6579C754.577 13.108 755.269 13.1232 755.676 12.6907L761.5 6.5" stroke="#3690A4" stroke-linecap="round"/>
</svg>
