<svg width="784" height="45" viewBox="0 0 784 45" fill="none" xmlns="http://www.w3.org/2000/svg">
<path d="M5.554 29.388H8.844V28.464H10.258V29.388H13.548V30.634H10.258V31.25H12.848V37.634H14.038V38.922H11.42C12.302 39.384 13.128 39.93 13.898 40.546L13.016 41.568C12.19 40.826 11.308 40.182 10.356 39.636L11.126 38.922H7.976L8.802 39.65C7.99 40.378 6.996 41.022 5.806 41.568L4.952 40.476C6.016 40.028 6.926 39.51 7.682 38.922H5.064V37.942C3.888 38.404 2.656 38.796 1.354 39.118L0.99 37.704C1.508 37.62 2.026 37.508 2.544 37.368V33.154H1.144V31.782H2.544V28.562H3.958V31.782H5.232V33.154H3.958V36.948C4.378 36.794 4.784 36.626 5.176 36.458V37.634H6.268V31.25H8.844V30.634H5.554V29.388ZM7.64 37.634H11.476V37.032H7.64V37.634ZM7.64 36.038H11.476V35.478H7.64V36.038ZM7.64 34.484H11.476V33.924H7.64V34.484ZM7.64 32.93H11.476V32.37H7.64V32.93ZM24.426 37.844C24.692 38.348 24.93 38.88 25.126 39.44L24.02 39.916C23.81 39.3 23.586 38.754 23.348 38.292L24.426 37.844ZM22.396 38.124C22.648 38.712 22.858 39.342 23.054 40.042L21.808 40.336C21.654 39.594 21.458 38.936 21.22 38.362L22.396 38.124ZM23.292 41.414L22.942 40.154C23.446 40.182 23.936 40.196 24.398 40.196C24.902 40.196 25.238 40.042 25.392 39.734C25.56 39.426 25.658 38.74 25.714 37.676H18.224C17.986 37.858 17.748 38.026 17.524 38.18L18.518 38.446C18.294 39.482 18 40.406 17.65 41.204L16.334 40.728C16.684 40.084 16.992 39.3 17.244 38.362C16.922 38.558 16.586 38.754 16.25 38.936L15.368 37.858C16.474 37.382 17.468 36.724 18.364 35.898H17.146V31.488C18.462 31.446 19.624 31.264 20.618 30.942L21.234 32.02C20.59 32.244 19.652 32.426 18.448 32.594V33.098H20.954V34.19H18.448V34.75H24.552V34.204H22.242V33.112H24.552V32.538H22.032V31.404H25.868V35.898H20.03C19.862 36.094 19.694 36.29 19.526 36.472H27.128C27.086 37.676 27.016 38.642 26.918 39.398C26.792 40.126 26.596 40.644 26.33 40.952C26.05 41.232 25.616 41.386 25.028 41.414H23.292ZM20.338 38.25C20.534 38.978 20.702 39.762 20.87 40.602L19.568 40.91C19.456 40 19.316 39.202 19.148 38.516L20.338 38.25ZM27.464 29.458V32.188H26.092V30.746H16.922V32.202H15.55V29.458H20.604C20.45 29.178 20.282 28.926 20.114 28.688L21.626 28.436C21.794 28.744 21.948 29.08 22.102 29.458H27.464ZM34.702 29.262H41.884V30.62H39.434V39.594C39.434 40.714 38.944 41.288 37.992 41.288H35.976L35.654 39.902C36.284 39.958 36.9 39.986 37.488 39.986C37.838 39.986 38.02 39.734 38.02 39.244V30.62H34.702V29.262ZM30.908 40.672V41.498H29.508V36.248H34.002V41.246H32.602V40.672H30.908ZM32.602 39.342V37.578H30.908V39.342H32.602ZM29.2 30.116H31.174C30.992 29.682 30.782 29.262 30.558 28.842L31.972 28.464C32.224 29.066 32.434 29.612 32.588 30.116H34.38V31.46H29.2V30.116ZM29.634 32.216H33.834V33.49H29.634V32.216ZM29.634 34.162H33.834V35.45H29.634V34.162ZM43.452 28.94H47.484V37.746H43.452V28.94ZM46.182 36.542V35.072H44.768V36.542H46.182ZM44.768 33.924H46.182V32.552H44.768V33.924ZM44.768 31.404H46.182V30.144H44.768V31.404ZM46.672 37.984C47.218 38.88 47.638 39.678 47.946 40.364L46.896 41.078C46.588 40.336 46.182 39.51 45.664 38.614L46.672 37.984ZM44.166 38.026L45.258 38.558C44.95 39.482 44.558 40.392 44.082 41.288L42.962 40.714C43.466 39.804 43.872 38.908 44.166 38.026ZM49.654 28.52H50.984V29.43H52.748V28.52H54.092V29.43H55.618V30.55H54.092V31.194H55.352V32.272H54.092V32.93H55.898V34.05H52.51V34.652H55.24V38.11H55.94V39.286H55.24V40.294C55.24 41.022 54.806 41.4 53.938 41.4H52.832L52.538 40.21L53.56 40.266C53.798 40.266 53.924 40.182 53.924 40.014V39.286H49.78V41.414H48.464V39.286H47.694V38.11H48.464V34.652H51.166V34.05H47.834V32.93H49.654V32.272H48.394V31.194H49.654V30.55H48.114V29.43H49.654V28.52ZM49.78 38.11H51.166V37.382H49.78V38.11ZM52.51 38.11H53.924V37.382H52.51V38.11ZM50.984 32.93H52.748V32.272H50.984V32.93ZM50.984 31.194H52.748V30.55H50.984V31.194ZM53.924 36.43V35.716H52.51V36.43H53.924ZM51.166 35.716H49.78V36.43H51.166V35.716ZM63.654 30.382C63.22 30.942 62.688 31.446 62.072 31.894L61.274 30.844C62.254 30.186 62.912 29.374 63.262 28.394L64.606 28.562C64.522 28.786 64.452 28.982 64.368 29.178H69.226V30.186C68.862 30.928 68.456 31.544 68.022 32.034L67.042 31.236C67.28 30.984 67.504 30.704 67.714 30.382H63.654ZM57.592 29.192H61.092V30.424H57.592V29.192ZM57.312 31.712H61.386V32.958H57.312V31.712ZM64.998 30.452L66.23 30.704C66.174 30.886 66.118 31.068 66.062 31.236C67.07 32.132 68.302 32.65 69.772 32.818L69.184 34.036C68.82 33.98 68.484 33.896 68.176 33.812V39.524H65.81C67.168 39.748 68.47 40.042 69.702 40.406L69.226 41.568C67.742 41.05 66.174 40.658 64.55 40.378L64.984 39.524H61.834L62.394 40.266C61.358 40.798 59.874 41.232 57.942 41.568L57.284 40.434C58.95 40.182 60.252 39.888 61.204 39.524H58.838V33.658H62.254L61.722 32.818C63.57 32.496 64.662 31.712 64.998 30.452ZM63.22 33.658H67.742C66.902 33.322 66.146 32.846 65.502 32.202C64.956 32.874 64.2 33.35 63.22 33.658ZM66.748 38.376V37.76H60.266V38.376H66.748ZM60.266 36.836H66.748V36.276H60.266V36.836ZM60.266 35.338H66.748V34.75H60.266V35.338ZM72.432 29.654C72.67 30.494 72.894 31.474 73.09 32.566L71.97 32.874C71.774 31.894 71.522 30.942 71.228 30.046L72.432 29.654ZM75.526 29.514L76.744 29.682C76.66 30.844 76.478 31.88 76.184 32.776L75.106 32.426C75.33 31.586 75.47 30.606 75.526 29.514ZM71.41 33.28H73.384V28.492H74.812V33.28H76.632V34.694H74.812V41.414H73.384V34.694H71.41V33.28ZM81.252 28.534H82.666V36.332L83.8 36.164L84.038 37.564L82.666 37.774V41.442H81.252V37.984L77.234 38.586L77.024 37.186L81.252 36.542V28.534ZM78.536 29.486C79.488 30.172 80.3 30.844 80.944 31.516L79.978 32.468C79.418 31.824 78.62 31.138 77.598 30.396L78.536 29.486ZM78.186 32.776C79.11 33.504 79.894 34.218 80.538 34.932L79.558 35.884C79.026 35.198 78.242 34.456 77.234 33.672L78.186 32.776ZM76.128 35.184C76.422 36.136 76.688 37.228 76.912 38.46L75.82 38.74C75.652 37.606 75.442 36.528 75.19 35.492L76.128 35.184ZM72.012 35.24L73.062 35.52C72.782 36.976 72.46 38.264 72.068 39.37L71.004 38.992C71.396 38.012 71.732 36.752 72.012 35.24Z" fill="#3690A4"/>
<path d="M239.438 29.332H243.764V30.312H241.874C241.692 31.432 241.426 32.482 241.09 33.462H243.526V40.798H242.63V40.042H241.16V40.938H240.278V35.338C240.04 35.786 239.788 36.22 239.508 36.64L238.976 35.8C239.956 34.204 240.6 32.37 240.908 30.312H239.438V29.332ZM241.16 39.118H242.63V34.386H241.16V39.118ZM251.66 29.976V32.524H250.736V30.858H247.782C247.502 31.754 247.18 32.566 246.83 33.322H248.412C248.258 32.846 248.09 32.37 247.894 31.908L248.776 31.67C249 32.272 249.182 32.818 249.322 33.322H251.464V34.204H249.266V35.506H251.226V36.374H249.266V37.718H251.254V38.586H249.266V40.028H251.828V40.924H246.102V41.428H245.15V36.052C244.842 36.444 244.534 36.794 244.198 37.13L243.61 36.416C245.024 34.932 246.088 33.084 246.788 30.858H245.136V32.79H244.212V29.976H247.054C247.18 29.486 247.292 28.996 247.39 28.506L248.328 28.688C248.23 29.136 248.132 29.57 248.034 29.976H251.66ZM246.102 40.028H248.314V38.586H246.102V40.028ZM248.314 37.718V36.374H246.102V37.718H248.314ZM248.314 35.506V34.204H246.382C246.284 34.372 246.186 34.526 246.102 34.68V35.506H248.314ZM261.432 30.032H258.492V29.136H265.044C265.016 32.104 264.848 33.882 264.512 34.47C264.176 35.058 263.588 35.352 262.748 35.352C262.496 35.352 262.216 35.324 261.88 35.296L261.642 34.414C262.006 34.442 262.3 34.456 262.538 34.47C263.182 34.456 263.588 34.218 263.77 33.742C263.938 33.266 264.036 32.034 264.064 30.032H262.426C262.188 31.18 261.824 32.188 261.334 33.028C260.718 33.98 259.808 34.848 258.604 35.604L257.988 34.792C258.912 34.274 259.654 33.672 260.186 32.986C259.612 32.468 258.912 31.992 258.086 31.544L258.632 30.872C259.402 31.306 260.074 31.768 260.662 32.272C261.026 31.6 261.278 30.858 261.432 30.032ZM258.38 36.71L259.22 36.892C258.982 38.46 258.632 39.832 258.184 40.98L257.372 40.462C257.834 39.342 258.17 38.082 258.38 36.71ZM262.02 35.786C262.468 36.472 262.86 37.2 263.196 37.984L262.398 38.334C262.034 37.466 261.642 36.71 261.208 36.052L262.02 35.786ZM264.694 36.374C265.198 37.466 265.646 38.628 266.038 39.874L265.212 40.238C264.792 38.894 264.33 37.69 263.826 36.654L264.694 36.374ZM262.762 41.176H260.928C260.186 41.176 259.822 40.77 259.822 39.972V36.402H260.746V39.776C260.746 40.098 260.9 40.266 261.208 40.266H262.594C262.818 40.266 262.986 40.196 263.084 40.07C263.21 39.888 263.294 39.37 263.336 38.53L264.204 38.81C264.12 39.93 263.966 40.616 263.742 40.868C263.518 41.064 263.196 41.176 262.762 41.176ZM255.3 28.478C255.58 29.108 255.79 29.682 255.958 30.214L255.44 30.41H257.428V31.334H253.186V30.41H255.062C254.852 29.836 254.614 29.29 254.334 28.758L255.3 28.478ZM253.69 32.482H256.98V33.35H253.69V32.482ZM253.69 34.442H256.98V35.31H253.69V34.442ZM257.106 36.472V40.476H254.502V41.19H253.592V36.472H257.106ZM254.502 39.622H256.21V37.298H254.502V39.622ZM272.674 29.472H279.856V30.41H277.196V39.818C277.196 40.756 276.776 41.232 275.95 41.232H273.906L273.696 40.266C274.354 40.308 274.984 40.336 275.6 40.336C276.02 40.336 276.23 40.084 276.23 39.58V30.41H272.674V29.472ZM268.614 40.518V41.442H267.648V36.458H271.862V41.19H270.896V40.518H268.614ZM270.896 39.594V37.368H268.614V39.594H270.896ZM267.256 30.396H269.51C269.314 29.836 269.062 29.29 268.768 28.786L269.748 28.52C270.028 29.136 270.266 29.71 270.434 30.214L269.944 30.396H272.324V31.334H267.256V30.396ZM267.76 32.44H271.722V33.336H267.76V32.44ZM267.76 34.372H271.722V35.282H267.76V34.372ZM281.578 29.094H285.372V37.592H281.578V29.094ZM284.462 36.752V34.918H282.488V36.752H284.462ZM282.488 34.092H284.462V32.37H282.488V34.092ZM282.488 31.558H284.462V29.934H282.488V31.558ZM284.476 38.054C285.092 38.978 285.554 39.804 285.89 40.518L285.162 41.022C284.826 40.252 284.35 39.412 283.762 38.488L284.476 38.054ZM282.376 38.082L283.146 38.446C282.81 39.398 282.362 40.322 281.802 41.232L281.018 40.826C281.592 39.902 282.04 38.992 282.376 38.082ZM287.864 28.52H288.774V29.584H290.958V28.52H291.882V29.584H293.562V30.382H291.882V31.348H293.31V32.118H291.882V33.084H293.842V33.882H290.3V34.778H293.128V38.306H293.884V39.132H293.128V40.322C293.128 40.994 292.75 41.344 291.994 41.344H290.86L290.636 40.518L291.714 40.546C292.036 40.546 292.204 40.392 292.204 40.112V39.132H287.5V41.358H286.576V39.132H285.75V38.306H286.576V34.778H289.376V33.882H285.89V33.084H287.864V32.118H286.436V31.348H287.864V30.382H286.17V29.584H287.864V28.52ZM287.5 38.306H289.376V37.256H287.5V38.306ZM290.3 38.306H292.204V37.256H290.3V38.306ZM288.774 33.084H290.958V32.118H288.774V33.084ZM288.774 31.348H290.958V30.382H288.774V31.348ZM292.204 36.556V35.534H290.3V36.556H292.204ZM289.376 35.534H287.5V36.556H289.376V35.534ZM301.542 30.2C301.108 30.788 300.562 31.306 299.918 31.768L299.358 31.026C300.38 30.34 301.08 29.5 301.444 28.506L302.368 28.618C302.27 28.87 302.172 29.122 302.06 29.36H307.072V30.074C306.708 30.802 306.302 31.418 305.854 31.922L305.154 31.376C305.476 31.04 305.77 30.648 306.036 30.2H301.542ZM295.62 29.374H299.064V30.242H295.62V29.374ZM295.34 31.894H299.358V32.776H295.34V31.894ZM303.18 30.452L304.048 30.62C303.992 30.844 303.922 31.054 303.838 31.25C304.846 32.272 306.148 32.888 307.716 33.084L307.31 33.924C305.784 33.686 304.496 33.028 303.446 31.95C302.774 32.874 301.696 33.476 300.212 33.77L299.736 33.042C301.668 32.692 302.816 31.824 303.18 30.452ZM296.992 33.812H306.036V39.356H296.992V33.812ZM305.042 38.544V37.648H297.986V38.544H305.042ZM297.986 36.962H305.042V36.15H297.986V36.962ZM297.986 35.464H305.042V34.596H297.986V35.464ZM302.998 39.482C304.608 39.762 306.162 40.154 307.646 40.672L307.31 41.47C305.826 40.91 304.258 40.49 302.634 40.182L302.998 39.482ZM299.806 39.44L300.31 40.098C299.274 40.658 297.776 41.12 295.816 41.456L295.354 40.672C297.314 40.35 298.798 39.944 299.806 39.44ZM310.208 29.724C310.488 30.564 310.74 31.53 310.964 32.622L310.166 32.846C309.956 31.852 309.69 30.9 309.368 29.99L310.208 29.724ZM313.708 29.514L314.562 29.626C314.478 30.802 314.282 31.838 313.96 32.748L313.19 32.496C313.47 31.628 313.652 30.634 313.708 29.514ZM309.452 33.504H311.608V28.548H312.588V33.504H314.618V34.47H312.588V41.358H311.608V34.47H309.452V33.504ZM319.476 28.59H320.442V36.584L321.786 36.374L321.94 37.354L320.442 37.578V41.386H319.476V37.732L315.262 38.376L315.108 37.396L319.476 36.724V28.59ZM316.41 29.64C317.39 30.34 318.202 31.026 318.86 31.698L318.202 32.356C317.614 31.712 316.802 31.012 315.766 30.27L316.41 29.64ZM316.046 32.93C317.012 33.658 317.824 34.372 318.482 35.086L317.81 35.758C317.222 35.058 316.424 34.33 315.388 33.56L316.046 32.93ZM313.918 35.24C314.226 36.192 314.506 37.298 314.758 38.544L313.988 38.74C313.792 37.592 313.54 36.5 313.246 35.45L313.918 35.24ZM310.236 35.296L310.978 35.492C310.684 36.948 310.32 38.222 309.886 39.314L309.13 39.048C309.55 38.068 309.928 36.808 310.236 35.296Z" fill="#3690A4"/>
<path d="M508.21 28.436L509.148 28.884C508.84 29.864 508.448 30.774 508 31.642V41.428H506.992V33.308C506.488 34.05 505.914 34.75 505.284 35.422L504.976 34.372C506.46 32.65 507.538 30.676 508.21 28.436ZM509.442 31.6H514.804V28.59H515.812V31.6H517.828V32.58H515.812V39.888C515.812 40.84 515.364 41.316 514.496 41.316H512.466L512.242 40.322C512.9 40.364 513.53 40.392 514.146 40.392C514.58 40.392 514.804 40.14 514.804 39.636V32.58H509.442V31.6ZM510.73 34.106C511.794 35.366 512.62 36.472 513.194 37.41L512.34 38.012C511.738 36.99 510.926 35.856 509.904 34.61L510.73 34.106ZM519.186 29.836H522.154V28.562H523.106V29.836H525.682V30.732H523.106V31.964H525.36V32.832H519.676V31.964H522.154V30.732H519.186V29.836ZM520.138 33.952H524.926V34.848H520.138V33.952ZM519.284 35.968H525.836V36.85H523.008V41.344H522.056V36.85H519.284V35.968ZM520.362 37.522L521.174 37.69C520.88 38.796 520.46 39.748 519.928 40.56L519.172 40.084C519.718 39.3 520.11 38.446 520.362 37.522ZM524.632 37.438C524.968 38.082 525.276 38.768 525.542 39.51L524.758 39.86C524.478 39.048 524.156 38.32 523.82 37.69L524.632 37.438ZM527.082 28.604L528.006 28.758C527.922 29.486 527.81 30.144 527.684 30.76H531.394V31.376C531.198 32.566 530.96 33.742 530.666 34.904L529.728 34.638C530.008 33.77 530.232 32.79 530.428 31.67H527.474C527.138 32.846 526.718 33.798 526.2 34.526L525.43 33.98C526.284 32.692 526.83 30.9 527.082 28.604ZM528.02 32.776H528.944C528.944 33.714 528.888 34.568 528.804 35.352C529.42 37.578 530.47 39.342 531.954 40.644L531.282 41.414C530.078 40.238 529.154 38.81 528.51 37.102C528.482 37.2 528.468 37.298 528.44 37.41C528.006 39.062 527.026 40.406 525.486 41.47L524.87 40.728C526.2 39.804 527.082 38.656 527.516 37.256C527.852 36.08 528.02 34.596 528.02 32.776Z" fill="#3690A4"/>
<path d="M733.674 29.472H740.856V30.41H738.196V39.818C738.196 40.756 737.776 41.232 736.95 41.232H734.906L734.696 40.266C735.354 40.308 735.984 40.336 736.6 40.336C737.02 40.336 737.23 40.084 737.23 39.58V30.41H733.674V29.472ZM729.614 40.518V41.442H728.648V36.458H732.862V41.19H731.896V40.518H729.614ZM731.896 39.594V37.368H729.614V39.594H731.896ZM728.256 30.396H730.51C730.314 29.836 730.062 29.29 729.768 28.786L730.748 28.52C731.028 29.136 731.266 29.71 731.434 30.214L730.944 30.396H733.324V31.334H728.256V30.396ZM728.76 32.44H732.722V33.336H728.76V32.44ZM728.76 34.372H732.722V35.282H728.76V34.372ZM742.578 29.094H746.372V37.592H742.578V29.094ZM745.462 36.752V34.918H743.488V36.752H745.462ZM743.488 34.092H745.462V32.37H743.488V34.092ZM743.488 31.558H745.462V29.934H743.488V31.558ZM745.476 38.054C746.092 38.978 746.554 39.804 746.89 40.518L746.162 41.022C745.826 40.252 745.35 39.412 744.762 38.488L745.476 38.054ZM743.376 38.082L744.146 38.446C743.81 39.398 743.362 40.322 742.802 41.232L742.018 40.826C742.592 39.902 743.04 38.992 743.376 38.082ZM748.864 28.52H749.774V29.584H751.958V28.52H752.882V29.584H754.562V30.382H752.882V31.348H754.31V32.118H752.882V33.084H754.842V33.882H751.3V34.778H754.128V38.306H754.884V39.132H754.128V40.322C754.128 40.994 753.75 41.344 752.994 41.344H751.86L751.636 40.518L752.714 40.546C753.036 40.546 753.204 40.392 753.204 40.112V39.132H748.5V41.358H747.576V39.132H746.75V38.306H747.576V34.778H750.376V33.882H746.89V33.084H748.864V32.118H747.436V31.348H748.864V30.382H747.17V29.584H748.864V28.52ZM748.5 38.306H750.376V37.256H748.5V38.306ZM751.3 38.306H753.204V37.256H751.3V38.306ZM749.774 33.084H751.958V32.118H749.774V33.084ZM749.774 31.348H751.958V30.382H749.774V31.348ZM753.204 36.556V35.534H751.3V36.556H753.204ZM750.376 35.534H748.5V36.556H750.376V35.534ZM768.422 30.06V33.196H767.4V31.04H757.572V33.196H756.55V30.06H761.926C761.758 29.584 761.59 29.15 761.394 28.758L762.528 28.562C762.71 29.01 762.892 29.5 763.06 30.06H768.422ZM758.552 32.664H766.392V33.644H758.552V32.664ZM756.41 35.296H768.604V36.262H764.642V39.58C764.642 40 764.838 40.224 765.244 40.224H767.106C767.358 40.224 767.526 40.126 767.624 39.944C767.736 39.734 767.82 39.104 767.876 38.04L768.828 38.348C768.744 39.692 768.576 40.518 768.324 40.798C768.1 41.05 767.764 41.19 767.288 41.19H764.922C764.054 41.19 763.634 40.714 763.634 39.79V36.262H761.282V36.36C761.24 37.732 760.862 38.838 760.162 39.678C759.462 40.434 758.328 41.036 756.76 41.47L756.186 40.574C757.712 40.182 758.776 39.664 759.392 39.006C759.952 38.334 760.246 37.452 760.288 36.36V36.262H756.41V35.296ZM779.916 28.52C780.588 29.024 781.162 29.542 781.638 30.06L780.994 30.704H782.702V31.67H778.39C778.488 33.406 778.67 34.778 778.922 35.786C779.006 36.136 779.104 36.458 779.202 36.766C779.902 35.646 780.462 34.33 780.896 32.832L781.806 33.224C781.246 35.072 780.518 36.64 779.622 37.9C779.818 38.348 780.028 38.74 780.252 39.062C780.714 39.734 781.092 40.07 781.372 40.07C781.624 40.056 781.862 39.328 782.072 37.886L782.982 38.39C782.646 40.252 782.17 41.19 781.54 41.19C780.952 41.19 780.322 40.77 779.65 39.93C779.398 39.594 779.16 39.202 778.95 38.768C777.97 39.916 776.822 40.77 775.506 41.358L774.946 40.518C776.346 39.888 777.536 38.964 778.502 37.746C778.306 37.228 778.124 36.668 777.97 36.066C777.662 34.89 777.466 33.42 777.354 31.67H772.552V33.994H775.982C775.954 36.36 775.842 37.886 775.66 38.572C775.478 39.174 775.044 39.482 774.344 39.51C774.008 39.51 773.602 39.482 773.154 39.454L772.846 38.544C773.392 38.572 773.854 38.586 774.232 38.586C774.54 38.572 774.736 38.362 774.82 37.97C774.904 37.494 774.946 36.486 774.974 34.946H772.552V35.366C772.496 37.872 771.936 39.888 770.9 41.4L770.13 40.714C771.026 39.426 771.488 37.648 771.53 35.366V30.704H777.312C777.284 30.004 777.27 29.29 777.27 28.534H778.306C778.306 29.318 778.32 30.032 778.348 30.704H780.966C780.546 30.2 779.986 29.682 779.272 29.136L779.916 28.52Z" fill="#3690A4"/>
<rect x="32.5" width="20" height="20" rx="10" fill="#3690A4"/>
<path d="M42.9104 5.504H43.8064V15.5H42.6584V6.904C42.0284 7.548 41.2444 7.996 40.3064 8.276V7.128C40.7544 7.002 41.2304 6.806 41.7064 6.526C42.1824 6.218 42.5744 5.882 42.9104 5.504Z" fill="white"/>
<rect x="56.5" y="7" width="210" height="6" fill="#3690A4"/>
<rect x="271" y="0.5" width="19" height="19" rx="9.5" stroke="#3690A4"/>
<path d="M280.643 5.308C281.567 5.308 282.323 5.574 282.925 6.106C283.513 6.638 283.821 7.352 283.821 8.22C283.821 9.088 283.485 9.872 282.841 10.572C282.491 10.936 281.805 11.482 280.769 12.182C279.495 13.036 278.767 13.806 278.585 14.478H283.835V15.5H277.171C277.171 14.59 277.493 13.764 278.165 13.022C278.557 12.574 279.271 11.972 280.335 11.244C281.119 10.684 281.637 10.278 281.903 9.998C282.407 9.452 282.673 8.85 282.673 8.206C282.673 7.59 282.491 7.128 282.127 6.792C281.763 6.456 281.245 6.288 280.601 6.288C279.915 6.288 279.383 6.512 279.019 6.988C278.627 7.436 278.417 8.108 278.403 8.99H277.255C277.255 7.87 277.577 6.974 278.193 6.316C278.809 5.644 279.635 5.308 280.643 5.308Z" fill="#3690A4"/>
<rect x="295" y="7.5" width="209" height="5" stroke="#3690A4"/>
<rect x="509" y="0.5" width="19" height="19" rx="9.5" stroke="#3690A4"/>
<path d="M518.601 5.308C519.553 5.308 520.337 5.546 520.925 6.036C521.499 6.526 521.793 7.184 521.793 8.024C521.793 9.144 521.247 9.9 520.155 10.264C520.743 10.446 521.191 10.726 521.499 11.118C521.835 11.51 522.003 12 522.003 12.588C522.003 13.498 521.681 14.24 521.051 14.814C520.407 15.402 519.567 15.696 518.531 15.696C517.579 15.696 516.809 15.444 516.207 14.968C515.493 14.38 515.101 13.526 515.017 12.406H516.179C516.207 13.19 516.473 13.792 516.963 14.198C517.383 14.534 517.901 14.716 518.531 14.716C519.245 14.716 519.819 14.506 520.253 14.1C520.645 13.708 520.855 13.218 520.855 12.63C520.855 12.028 520.659 11.566 520.267 11.23C519.875 10.894 519.343 10.74 518.643 10.74H517.831V9.844H518.601C519.273 9.844 519.777 9.69 520.127 9.396C520.477 9.088 520.659 8.654 520.659 8.094C520.659 7.534 520.477 7.1 520.141 6.792C519.777 6.456 519.259 6.302 518.615 6.302C517.943 6.302 517.425 6.47 517.047 6.834C516.655 7.198 516.431 7.716 516.361 8.388H515.227C515.311 7.422 515.675 6.666 516.291 6.12C516.879 5.574 517.649 5.308 518.601 5.308Z" fill="#3690A4"/>
<rect x="533" y="7.5" width="209" height="5" stroke="#3690A4"/>
<rect x="747" y="0.5" width="19" height="19" rx="9.5" stroke="#3690A4"/>
<path d="M751.5 9.53333L754.19 12.6579C754.577 13.108 755.269 13.1232 755.676 12.6907L761.5 6.5" stroke="#3690A4" stroke-linecap="round"/>
</svg>
