<svg width="390" height="36" viewBox="0 0 390 36" fill="none" xmlns="http://www.w3.org/2000/svg">
<path d="M36.192 3.184L36.972 3.544C36.672 4.468 36.3 5.332 35.844 6.148V14.2H34.98V7.492C34.596 8.032 34.164 8.548 33.708 9.028L33.432 8.128C34.704 6.688 35.616 5.044 36.192 3.184ZM44.136 3.664V14.188H43.356V13.48H38.052V14.188H37.272V3.664H44.136ZM38.052 12.712H43.356V4.42H38.052V12.712ZM38.604 6.364H40.344V4.996H41.1V6.364H42.828V7.108H41.1V8.512H42.348V11.908H39.12V8.512H40.344V7.108H38.604V6.364ZM41.664 11.236V9.184H39.804V11.236H41.664ZM51.432 3.22C51.432 4.252 51.396 5.14 51.348 5.884C52.02 9.148 53.76 11.644 56.556 13.36L55.992 14.116C53.544 12.508 51.888 10.348 51.036 7.636C50.316 10.252 48.612 12.412 45.948 14.128L45.42 13.36C48.72 11.332 50.424 8.584 50.532 5.128C50.544 4.312 50.556 3.676 50.556 3.22H51.432ZM57.96 4.096H60.084V3.184H60.924V4.096H65.064V3.184H65.904V4.096H68.028V4.828H65.904V8.8H68.208V9.568H65.712C66.288 10.288 67.188 10.852 68.388 11.26L68.04 12.004C66.552 11.38 65.496 10.564 64.872 9.568H61.104C60.48 10.564 59.472 11.392 58.08 12.04L57.636 11.308C58.824 10.852 59.7 10.276 60.276 9.568H57.78V8.8H60.084V4.828H57.96V4.096ZM60.924 8.8H65.064V7.936H60.924V8.8ZM60.924 7.252H65.064V6.4H60.924V7.252ZM60.924 5.716H65.064V4.828H60.924V5.716ZM62.58 9.988H63.42V10.948H65.856V11.716H63.42V12.988H67.536V13.792H58.38V12.988H62.58V11.716H60.12V10.948H62.58V9.988ZM69.864 5.404H74.556V3.232H75.444V5.404H80.124V6.232H76.212C77.016 8.14 78.456 9.844 80.52 11.344L79.932 12.088C77.82 10.36 76.356 8.404 75.54 6.232H75.444V10.912H78.012V11.74H75.444V14.2H74.556V11.74H72.084V10.912H74.556V6.232H74.472C73.584 8.668 72.072 10.672 69.936 12.244L69.444 11.44C71.46 10.096 72.9 8.356 73.788 6.232H69.864V5.404ZM85.704 3.16H86.556L82.308 14.2H81.444L85.704 3.16ZM38.892 24.268C38.412 25.36 37.8 26.272 37.056 27.016L36.504 26.308C37.632 25.132 38.4 23.536 38.796 21.532L39.672 21.688C39.54 22.312 39.384 22.888 39.204 23.428H41.772V21.292H42.648V23.428H46.596V24.268H42.648V27.04H46.356V27.88H42.648V30.928H47.364V31.792H36.792V30.928H41.772V27.88H38.244V27.04H41.772V24.268H38.892ZM52.992 21.676H58.86V27.22H56.364V28.636H59.064V29.452H56.364V31.012H59.508V31.84H52.284V31.012H55.5V29.452H52.788V28.636H55.5V27.22H52.992V21.676ZM58.032 26.452V24.832H56.364V26.452H58.032ZM55.5 26.452V24.832H53.82V26.452H55.5ZM53.82 24.076H55.5V22.444H53.82V24.076ZM56.364 22.444V24.076H58.032V22.444H56.364ZM48.756 25.648H50.064V22.804H48.588V21.988H52.416V22.804H50.952V25.648H52.272V26.476H50.952V29.2C51.408 29.044 51.84 28.876 52.272 28.684V29.524C51.168 29.98 49.98 30.364 48.708 30.676L48.492 29.848C49.02 29.752 49.548 29.632 50.064 29.488V26.476H48.756V25.648ZM66.036 22.6C65.664 23.104 65.196 23.548 64.644 23.944L64.164 23.308C65.04 22.72 65.64 22 65.952 21.148L66.744 21.244C66.66 21.46 66.576 21.676 66.48 21.88H70.776V22.492C70.464 23.116 70.116 23.644 69.732 24.076L69.132 23.608C69.408 23.32 69.66 22.984 69.888 22.6H66.036ZM60.96 21.892H63.912V22.636H60.96V21.892ZM60.72 24.052H64.164V24.808H60.72V24.052ZM67.44 22.816L68.184 22.96C68.136 23.152 68.076 23.332 68.004 23.5C68.868 24.376 69.984 24.904 71.328 25.072L70.98 25.792C69.672 25.588 68.568 25.024 67.668 24.1C67.092 24.892 66.168 25.408 64.896 25.66L64.488 25.036C66.144 24.736 67.128 23.992 67.44 22.816ZM62.136 25.696H69.888V30.448H62.136V25.696ZM69.036 29.752V28.984H62.988V29.752H69.036ZM62.988 28.396H69.036V27.7H62.988V28.396ZM62.988 27.112H69.036V26.368H62.988V27.112ZM67.284 30.556C68.664 30.796 69.996 31.132 71.268 31.576L70.98 32.26C69.708 31.78 68.364 31.42 66.972 31.156L67.284 30.556ZM64.548 30.52L64.98 31.084C64.092 31.564 62.808 31.96 61.128 32.248L60.732 31.576C62.412 31.3 63.684 30.952 64.548 30.52ZM73.464 22.192C73.704 22.912 73.92 23.74 74.112 24.676L73.428 24.868C73.248 24.016 73.02 23.2 72.744 22.42L73.464 22.192ZM76.464 22.012L77.196 22.108C77.124 23.116 76.956 24.004 76.68 24.784L76.02 24.568C76.26 23.824 76.416 22.972 76.464 22.012ZM72.816 25.432H74.664V21.184H75.504V25.432H77.244V26.26H75.504V32.164H74.664V26.26H72.816V25.432ZM81.408 21.22H82.236V28.072L83.388 27.892L83.52 28.732L82.236 28.924V32.188H81.408V29.056L77.796 29.608L77.664 28.768L81.408 28.192V21.22ZM78.78 22.12C79.62 22.72 80.316 23.308 80.88 23.884L80.316 24.448C79.812 23.896 79.116 23.296 78.228 22.66L78.78 22.12ZM78.468 24.94C79.296 25.564 79.992 26.176 80.556 26.788L79.98 27.364C79.476 26.764 78.792 26.14 77.904 25.48L78.468 24.94ZM76.644 26.92C76.908 27.736 77.148 28.684 77.364 29.752L76.704 29.92C76.536 28.936 76.32 28 76.068 27.1L76.644 26.92ZM73.488 26.968L74.124 27.136C73.872 28.384 73.56 29.476 73.188 30.412L72.54 30.184C72.9 29.344 73.224 28.264 73.488 26.968Z" fill="#B0B0B0"/>
<path d="M138.192 3.184L138.972 3.544C138.672 4.468 138.3 5.332 137.844 6.148V14.2H136.98V7.492C136.596 8.032 136.164 8.548 135.708 9.028L135.432 8.128C136.704 6.688 137.616 5.044 138.192 3.184ZM146.136 3.664V14.188H145.356V13.48H140.052V14.188H139.272V3.664H146.136ZM140.052 12.712H145.356V4.42H140.052V12.712ZM140.604 6.364H142.344V4.996H143.1V6.364H144.828V7.108H143.1V8.512H144.348V11.908H141.12V8.512H142.344V7.108H140.604V6.364ZM143.664 11.236V9.184H141.804V11.236H143.664ZM153.432 3.22C153.432 4.252 153.396 5.14 153.348 5.884C154.02 9.148 155.76 11.644 158.556 13.36L157.992 14.116C155.544 12.508 153.888 10.348 153.036 7.636C152.316 10.252 150.612 12.412 147.948 14.128L147.42 13.36C150.72 11.332 152.424 8.584 152.532 5.128C152.544 4.312 152.556 3.676 152.556 3.22H153.432ZM163.704 3.16H164.556L160.308 14.2H159.444L163.704 3.16ZM132.144 21.124C132.288 21.46 132.42 21.832 132.552 22.252H137.064V24.34H136.212V23.056H127.788V24.34H126.936V22.252H131.688C131.556 21.892 131.412 21.556 131.256 21.268L132.144 21.124ZM128.4 24.22H135.6V25.024H132.876C132.54 25.264 132.204 25.468 131.88 25.66C132.36 26.176 132.732 26.74 132.996 27.352C134.016 26.968 134.988 26.344 135.9 25.492L136.5 26.08C135.636 26.872 134.664 27.484 133.584 27.904C134.556 29.008 135.84 29.932 137.424 30.676L136.98 31.444C135.492 30.676 134.292 29.752 133.38 28.672C133.428 28.984 133.452 29.296 133.464 29.62C133.464 30.556 133.332 31.204 133.068 31.564C132.78 31.972 132.12 32.176 131.076 32.176H130.68L130.392 31.42H130.956C131.676 31.408 132.12 31.3 132.3 31.108C132.516 30.856 132.624 30.364 132.624 29.62C132.612 29.404 132.6 29.188 132.576 28.996C131.232 30.052 129.48 30.904 127.296 31.564L126.864 30.82C129.252 30.124 131.1 29.248 132.408 28.18C132.312 27.856 132.204 27.556 132.06 27.268C130.908 28.156 129.372 28.876 127.452 29.428L127.02 28.684C129.024 28.156 130.584 27.484 131.7 26.644C131.556 26.428 131.388 26.212 131.22 26.02C131.124 26.068 131.028 26.104 130.944 26.152C130.116 26.536 129.024 26.92 127.68 27.304L127.236 26.596C128.388 26.344 129.432 26.02 130.344 25.624C130.776 25.432 131.196 25.24 131.592 25.024H128.4V24.22ZM147.216 29.308C148.164 30.208 148.896 31 149.412 31.696L148.728 32.176C148.164 31.408 147.456 30.604 146.592 29.752L147.216 29.308ZM145.044 25.816C144.768 26.416 144.456 26.932 144.108 27.364L143.616 26.752C144.144 26.08 144.576 25.132 144.936 23.908L145.644 24.052C145.548 24.4 145.452 24.724 145.344 25.036H148.692V25.816H146.76C146.748 26.464 146.7 27.052 146.628 27.592H149.28V28.42H146.484C146.436 28.636 146.376 28.852 146.328 29.044C145.956 30.34 145.104 31.396 143.784 32.224L143.244 31.552C144.384 30.844 145.14 29.956 145.512 28.876C145.56 28.72 145.596 28.564 145.644 28.42H143.388V27.592H145.812C145.884 27.04 145.932 26.452 145.944 25.816H145.044ZM138.72 22.936H140.64C140.424 22.372 140.184 21.856 139.92 21.388L140.796 21.244C141.036 21.736 141.252 22.3 141.456 22.936H142.896V23.764H140.568V25.456H142.74C142.74 28.48 142.68 30.352 142.56 31.048C142.464 31.756 141.972 32.116 141.096 32.116C140.976 32.116 140.784 32.104 140.496 32.08L140.316 31.36C140.568 31.384 140.784 31.396 140.976 31.396C141.432 31.396 141.696 31.18 141.792 30.748C141.876 30.268 141.924 28.78 141.936 26.26H140.568C140.496 28.972 140.016 30.964 139.104 32.248L138.468 31.684C139.296 30.46 139.716 28.504 139.74 25.804V23.764H138.72V22.936ZM144.42 23.368C144.084 24.16 143.712 24.868 143.292 25.48L142.752 24.844C143.388 23.908 143.904 22.684 144.3 21.172L145.104 21.352C144.984 21.772 144.864 22.168 144.732 22.54H149.076V23.368H144.42ZM157.5 28.276C157.164 29.092 156.624 29.788 155.88 30.34L155.364 29.716C156.144 29.116 156.66 28.36 156.924 27.448L157.032 26.98H154.956V32.164H154.14V26.188H157.14C157.188 25.792 157.212 25.372 157.224 24.916H153.828V24.124H161.148V24.916H158.016C158.004 25.372 157.98 25.792 157.944 26.188H160.812V30.916C160.812 31.696 160.452 32.092 159.744 32.092H158.508L158.292 31.276L159.456 31.312C159.816 31.312 159.996 31.12 159.996 30.736V26.98H157.836C157.788 27.184 157.752 27.388 157.716 27.58C158.388 28.12 159.012 28.744 159.576 29.464L159.108 30.184C158.568 29.404 158.028 28.768 157.5 28.276ZM152.496 26.344C152.496 26.236 152.508 26.128 152.508 26.032V22.12H156.528C156.396 21.796 156.252 21.496 156.096 21.22L156.972 21.076C157.116 21.388 157.26 21.736 157.404 22.12H161.232V22.936H153.348V26.032C153.3 28.564 152.784 30.592 151.8 32.116L151.152 31.552C151.86 30.472 152.292 29.044 152.436 27.28C151.932 27.7 151.368 28.096 150.744 28.456L150.504 27.628C151.236 27.256 151.896 26.824 152.496 26.344ZM151.248 23.044C151.656 23.764 152.004 24.52 152.292 25.336L151.548 25.636C151.236 24.772 150.888 24.004 150.504 23.356L151.248 23.044ZM163.752 22.744H167.664V21.22H168.54V22.744H172.368V26.92H168.492C168.372 28.072 168.048 29.02 167.496 29.764C169.176 30.676 171.156 31.192 173.436 31.3L173.208 32.152C170.796 32.02 168.696 31.444 166.908 30.412C166.02 31.204 164.772 31.804 163.176 32.212L162.684 31.444C164.148 31.072 165.288 30.556 166.116 29.908C165.324 29.368 164.604 28.744 163.956 28.024L164.652 27.532C165.276 28.228 165.96 28.816 166.728 29.308C167.208 28.696 167.496 27.904 167.604 26.92H163.752V22.744ZM171.516 26.092V23.572H168.54V26.092H171.516ZM167.664 26.092V23.572H164.604V26.092H167.664Z" fill="#B0B0B0"/>
<path d="M218.34 9.4V10.072H220.14V9.4H218.34ZM220.14 8.392V7.708H218.34V8.392H220.14ZM218.172 5.644C217.8 6.016 217.404 6.376 216.984 6.736L216.312 5.8C217.224 5.068 218.052 4.204 218.808 3.196H219.636C220.428 3.844 221.184 4.528 221.892 5.224L221.088 6.076C220.872 5.848 220.68 5.644 220.512 5.476V6.208H218.172V5.644ZM220.284 5.248C219.9 4.876 219.576 4.588 219.3 4.372C219.06 4.672 218.82 4.96 218.556 5.248H220.284ZM217.176 14.068L216.828 13.072C217.068 12.988 217.2 12.844 217.2 12.652V6.676H221.256V11.128H218.34V12.76C218.976 12.592 219.552 12.412 220.068 12.232C219.96 11.992 219.852 11.764 219.744 11.56L220.728 11.236C221.016 11.788 221.268 12.376 221.496 12.976C222.372 12.256 222.948 11.404 223.236 10.444C223.5 9.496 223.644 8.26 223.656 6.748H224.772C224.772 7.468 224.736 8.128 224.676 8.74C225.204 10.66 226.164 12.184 227.556 13.312L226.74 14.272C225.696 13.3 224.892 12.124 224.328 10.756C223.968 12.148 223.128 13.312 221.796 14.224L221.232 13.54L220.68 13.792C220.608 13.564 220.524 13.36 220.452 13.168C219.492 13.504 218.4 13.804 217.176 14.068ZM222.732 3.112L223.896 3.304C223.824 3.88 223.728 4.408 223.632 4.912H227.184V5.716C227.016 6.736 226.8 7.756 226.536 8.776L225.336 8.428C225.564 7.756 225.756 6.988 225.9 6.1H223.344C223.056 7.072 222.696 7.852 222.264 8.428L221.316 7.744C222.036 6.64 222.516 5.092 222.732 3.112ZM233.58 3.16H234.444C235.908 4.516 237.612 5.584 239.532 6.376L238.908 7.468C238.368 7.24 237.864 7 237.396 6.736V10.96L237.72 10.588L238.776 11.116C238.344 11.596 237.888 12.04 237.396 12.448C238.02 12.736 238.584 13.048 239.112 13.372L238.332 14.32C237.108 13.492 235.548 12.724 233.628 12.016L234.336 11.176C235.056 11.428 235.728 11.692 236.364 11.968C236.7 11.68 237.012 11.38 237.3 11.068H231.972V12.964C232.824 12.796 233.64 12.604 234.42 12.388L234.66 13.444C233.556 13.768 232.176 14.056 230.544 14.296L230.22 13.3C230.556 13.192 230.736 12.892 230.736 12.388V6.76C230.208 7.048 229.656 7.324 229.08 7.588L228.468 6.484C230.52 5.596 232.224 4.492 233.58 3.16ZM231.204 6.484H236.94C236.436 6.196 235.98 5.896 235.548 5.584V6.064H232.5V5.62C232.092 5.92 231.66 6.208 231.204 6.484ZM233.172 5.08H234.9C234.576 4.816 234.276 4.564 234.012 4.3C233.736 4.564 233.46 4.828 233.172 5.08ZM231.972 9.304V9.964H236.16V9.304H231.972ZM236.16 8.248V7.588H231.972V8.248H236.16ZM250.224 8.776V14.26H249.024V13.828H243.492V14.26H242.292V8.776H245.352C245.472 8.5 245.58 8.224 245.652 7.936L246.828 8.092C246.756 8.332 246.672 8.56 246.564 8.776H250.224ZM243.492 12.676H249.024V11.86H243.492V12.676ZM243.492 10.756H249.024V9.916H243.492V10.756ZM244.512 5.716V4.42H241.272V3.412H245.688V7.372C245.688 8.068 245.28 8.428 244.476 8.428H243.576L243.3 7.444L244.26 7.48C244.428 7.48 244.512 7.312 244.512 7V6.688C243.528 7.168 242.448 7.6 241.272 8.008L240.948 6.928C242.268 6.568 243.456 6.16 244.512 5.716ZM241.74 4.624C242.436 4.756 243.096 4.936 243.744 5.176L243.396 6.028C242.712 5.8 242.004 5.62 241.284 5.488L241.74 4.624ZM249.468 5.704V4.42H246.108V3.412H250.644V7.408C250.644 8.08 250.212 8.416 249.36 8.416H248.556L248.28 7.42L249.132 7.456C249.348 7.456 249.468 7.312 249.468 7.036V6.664C248.544 7.12 247.524 7.54 246.408 7.924L246.084 6.844C247.332 6.508 248.46 6.124 249.468 5.704ZM246.66 4.612C247.356 4.756 248.028 4.948 248.664 5.212L248.304 6.064C247.632 5.812 246.936 5.62 246.216 5.476L246.66 4.612ZM257.22 3.316H262.884L262.776 4.816H263.364V5.776H262.704L262.596 7.24H256.812L256.968 5.776H256.308V4.816H257.064L257.22 3.316ZM257.988 6.328H259.26L259.332 5.776H258.06L257.988 6.328ZM260.4 5.776L260.328 6.328H261.564L261.612 5.776H260.4ZM258.168 4.816H259.44L259.512 4.228H258.24L258.168 4.816ZM260.592 4.228L260.52 4.816H261.696L261.756 4.228H260.592ZM256.776 7.576H262.872V12.412H261.372C262.14 12.7 262.872 13.048 263.568 13.444L262.848 14.26C262.044 13.78 261.18 13.36 260.256 13.012L260.928 12.412H258.816L259.428 12.94C258.684 13.456 257.76 13.912 256.668 14.296L255.996 13.432C256.908 13.132 257.676 12.796 258.324 12.412H256.776V7.576ZM261.708 11.476V11.032H257.952V11.476H261.708ZM257.952 10.216H261.708V9.772H257.952V10.216ZM257.952 8.944H261.708V8.512H257.952V8.944ZM252.72 5.512L253.68 5.584C253.656 6.784 253.548 7.924 253.368 9.004L252.36 8.716C252.576 7.708 252.696 6.64 252.72 5.512ZM255.948 5.2C256.236 5.968 256.5 6.856 256.74 7.852L255.756 8.104C255.588 7.324 255.396 6.58 255.168 5.86V14.212H253.92V3.172H255.168V5.452L255.948 5.2Z" fill="#3690A4"/>
<path d="M310.38 4.084H313.344V3.184H314.172V4.084H317.136V4.84H314.172V5.62H316.452V11.164H317.556V11.932H309.96V11.164H311.076V5.62H313.344V4.84H310.38V4.084ZM311.892 11.164H315.636V10.384H311.892V11.164ZM311.892 9.76H315.636V9.028H311.892V9.76ZM311.892 8.416H315.636V7.672H311.892V8.416ZM311.892 7.06H315.636V6.304H311.892V7.06ZM315.096 12.1C315.924 12.532 316.692 13.048 317.388 13.648L316.872 14.248C316.152 13.624 315.384 13.072 314.556 12.592L315.096 12.1ZM312.432 12.1L313.008 12.604C312.312 13.228 311.448 13.78 310.416 14.248L309.912 13.6C310.908 13.168 311.748 12.676 312.432 12.1ZM306.6 6.136H307.944V3.244H308.772V6.136H310.008V6.952H308.772V10.696C309.18 10.552 309.588 10.396 309.984 10.228V11.08C308.976 11.488 307.884 11.824 306.72 12.1L306.504 11.272C306.984 11.176 307.464 11.068 307.944 10.948V6.952H306.6V6.136ZM326.352 11.2C326.592 11.656 326.808 12.136 327 12.64L326.34 12.928C326.136 12.364 325.92 11.872 325.692 11.464L326.352 11.2ZM324.612 11.404C324.828 11.932 325.032 12.52 325.2 13.144L324.444 13.324C324.3 12.652 324.12 12.064 323.904 11.548L324.612 11.404ZM325.536 14.164L325.332 13.408C325.728 13.432 326.1 13.444 326.46 13.444C327 13.444 327.36 13.276 327.528 12.964C327.696 12.628 327.816 11.92 327.864 10.828H321.168C320.628 11.26 320.04 11.656 319.392 12.004L318.852 11.356C319.944 10.828 320.868 10.168 321.624 9.376H320.376V5.752C321.504 5.68 322.464 5.512 323.28 5.236L323.664 5.872C323.04 6.1 322.2 6.28 321.144 6.412V7.204H323.472V7.876H321.144V8.668H326.856V7.876H324.648V7.216H326.856V6.412H324.492V5.716H327.648V9.376H322.584C322.38 9.64 322.164 9.88 321.948 10.108H328.704C328.668 11.092 328.608 11.896 328.512 12.52C328.404 13.12 328.236 13.552 327.996 13.792C327.756 14.02 327.372 14.14 326.844 14.164H325.536ZM320.58 11.44L321.312 11.632C321.096 12.52 320.832 13.312 320.52 13.996L319.74 13.72C320.064 13.12 320.34 12.352 320.58 11.44ZM322.872 11.524C323.04 12.16 323.184 12.856 323.316 13.612L322.536 13.792C322.44 12.988 322.308 12.28 322.152 11.68L322.872 11.524ZM328.98 4.144V6.304H328.164V4.912H319.848V6.316H319.032V4.144H323.544C323.4 3.832 323.232 3.556 323.064 3.304L323.952 3.16C324.108 3.448 324.264 3.784 324.408 4.144H328.98ZM341.076 4.48V7.168H340.2V5.32H331.776V7.168H330.9V4.48H335.508C335.364 4.072 335.22 3.7 335.052 3.364L336.024 3.196C336.18 3.58 336.336 4 336.48 4.48H341.076ZM332.616 6.712H339.336V7.552H332.616V6.712ZM330.78 8.968H341.232V9.796H337.836V12.64C337.836 13 338.004 13.192 338.352 13.192H339.948C340.164 13.192 340.308 13.108 340.392 12.952C340.488 12.772 340.56 12.232 340.608 11.32L341.424 11.584C341.352 12.736 341.208 13.444 340.992 13.684C340.8 13.9 340.512 14.02 340.104 14.02H338.076C337.332 14.02 336.972 13.612 336.972 12.82V9.796H334.956V9.88C334.92 11.056 334.596 12.004 333.996 12.724C333.396 13.372 332.424 13.888 331.08 14.26L330.588 13.492C331.896 13.156 332.808 12.712 333.336 12.148C333.816 11.572 334.068 10.816 334.104 9.88V9.796H330.78V8.968ZM350.928 3.16C351.504 3.592 351.996 4.036 352.404 4.48L351.852 5.032H353.316V5.86H349.62C349.704 7.348 349.86 8.524 350.076 9.388C350.148 9.688 350.232 9.964 350.316 10.228C350.916 9.268 351.396 8.14 351.768 6.856L352.548 7.192C352.068 8.776 351.444 10.12 350.676 11.2C350.844 11.584 351.024 11.92 351.216 12.196C351.612 12.772 351.936 13.06 352.176 13.06C352.392 13.048 352.596 12.424 352.776 11.188L353.556 11.62C353.268 13.216 352.86 14.02 352.32 14.02C351.816 14.02 351.276 13.66 350.7 12.94C350.484 12.652 350.28 12.316 350.1 11.944C349.26 12.928 348.276 13.66 347.148 14.164L346.668 13.444C347.868 12.904 348.888 12.112 349.716 11.068C349.548 10.624 349.392 10.144 349.26 9.628C348.996 8.62 348.828 7.36 348.732 5.86H344.616V7.852H347.556C347.532 9.88 347.436 11.188 347.28 11.776C347.124 12.292 346.752 12.556 346.152 12.58C345.864 12.58 345.516 12.556 345.132 12.532L344.868 11.752C345.336 11.776 345.732 11.788 346.056 11.788C346.32 11.776 346.488 11.596 346.56 11.26C346.632 10.852 346.668 9.988 346.692 8.668H344.616V9.028C344.568 11.176 344.088 12.904 343.2 14.2L342.54 13.612C343.308 12.508 343.704 10.984 343.74 9.028V5.032H348.696C348.672 4.432 348.66 3.82 348.66 3.172H349.548C349.548 3.844 349.56 4.456 349.584 5.032H351.828C351.468 4.6 350.988 4.156 350.376 3.688L350.928 3.16Z" fill="#3690A4"/>
</svg>
