<svg width="744" height="45" viewBox="0 0 744 45" fill="none" xmlns="http://www.w3.org/2000/svg">
<rect x="50.5" y="0.5" width="19" height="19" rx="9.5" stroke="#B0B0B0"/>
<path d="M60.4104 5.504H61.3064V15.5H60.1584V6.904C59.5284 7.548 58.7444 7.996 57.8064 8.276V7.128C58.2544 7.002 58.7304 6.806 59.2064 6.526C59.6824 6.218 60.0744 5.882 60.4104 5.504Z" fill="#B0B0B0"/>
<rect x="74.5" y="7.5" width="179" height="5" stroke="#B0B0B0"/>
<rect x="258.5" y="0.5" width="19" height="19" rx="9.5" stroke="#B0B0B0"/>
<path d="M268.143 5.308C269.067 5.308 269.823 5.574 270.425 6.106C271.013 6.638 271.321 7.352 271.321 8.22C271.321 9.088 270.985 9.872 270.341 10.572C269.991 10.936 269.305 11.482 268.269 12.182C266.995 13.036 266.267 13.806 266.085 14.478H271.335V15.5H264.671C264.671 14.59 264.993 13.764 265.665 13.022C266.057 12.574 266.771 11.972 267.835 11.244C268.619 10.684 269.137 10.278 269.403 9.998C269.907 9.452 270.173 8.85 270.173 8.206C270.173 7.59 269.991 7.128 269.627 6.792C269.263 6.456 268.745 6.288 268.101 6.288C267.415 6.288 266.883 6.512 266.519 6.988C266.127 7.436 265.917 8.108 265.903 8.99H264.755C264.755 7.87 265.077 6.974 265.693 6.316C266.309 5.644 267.135 5.308 268.143 5.308Z" fill="#B0B0B0"/>
<rect x="282.5" y="7.5" width="179" height="5" stroke="#B0B0B0"/>
<rect x="466" width="20" height="20" rx="10" fill="#3690A4"/>
<path d="M476.101 5.308C477.053 5.308 477.837 5.546 478.425 6.036C478.999 6.526 479.293 7.184 479.293 8.024C479.293 9.144 478.747 9.9 477.655 10.264C478.243 10.446 478.691 10.726 478.999 11.118C479.335 11.51 479.503 12 479.503 12.588C479.503 13.498 479.181 14.24 478.551 14.814C477.907 15.402 477.067 15.696 476.031 15.696C475.079 15.696 474.309 15.444 473.707 14.968C472.993 14.38 472.601 13.526 472.517 12.406H473.679C473.707 13.19 473.973 13.792 474.463 14.198C474.883 14.534 475.401 14.716 476.031 14.716C476.745 14.716 477.319 14.506 477.753 14.1C478.145 13.708 478.355 13.218 478.355 12.63C478.355 12.028 478.159 11.566 477.767 11.23C477.375 10.894 476.843 10.74 476.143 10.74H475.331V9.844H476.101C476.773 9.844 477.277 9.69 477.627 9.396C477.977 9.088 478.159 8.654 478.159 8.094C478.159 7.534 477.977 7.1 477.641 6.792C477.277 6.456 476.759 6.302 476.115 6.302C475.443 6.302 474.925 6.47 474.547 6.834C474.155 7.198 473.931 7.716 473.861 8.388H472.727C472.811 7.422 473.175 6.666 473.791 6.12C474.379 5.574 475.149 5.308 476.101 5.308Z" fill="white"/>
<rect width="180" height="6" transform="translate(490 7)" fill="#3690A4"/>
<rect x="674.5" y="0.5" width="19" height="19" rx="9.5" stroke="#3690A4"/>
<path d="M679 9.53333L681.69 12.6579C682.077 13.108 682.769 13.1232 683.176 12.6907L689 6.5" stroke="#3690A4" stroke-linecap="round"/>
<path d="M4.224 28.548L5.134 28.968C4.784 30.046 4.35 31.054 3.818 32.006V41.4H2.81V33.574C2.362 34.204 1.858 34.806 1.326 35.366L1.004 34.316C2.488 32.636 3.552 30.718 4.224 28.548ZM13.492 29.108V41.386H12.582V40.56H6.394V41.386H5.484V29.108H13.492ZM6.394 39.664H12.582V29.99H6.394V39.664ZM7.038 32.258H9.068V30.662H9.95V32.258H11.966V33.126H9.95V34.764H11.406V38.726H7.64V34.764H9.068V33.126H7.038V32.258ZM10.608 37.942V35.548H8.438V37.942H10.608ZM22.004 28.59C22.004 29.794 21.962 30.83 21.906 31.698C22.69 35.506 24.72 38.418 27.982 40.42L27.324 41.302C24.468 39.426 22.536 36.906 21.542 33.742C20.702 36.794 18.714 39.314 15.606 41.316L14.99 40.42C18.84 38.054 20.828 34.848 20.954 30.816C20.968 29.864 20.982 29.122 20.982 28.59H22.004ZM29.62 29.612H32.098V28.548H33.078V29.612H37.908V28.548H38.888V29.612H41.366V30.466H38.888V35.1H41.576V35.996H38.664C39.336 36.836 40.386 37.494 41.786 37.97L41.38 38.838C39.644 38.11 38.412 37.158 37.684 35.996H33.288C32.56 37.158 31.384 38.124 29.76 38.88L29.242 38.026C30.628 37.494 31.65 36.822 32.322 35.996H29.41V35.1H32.098V30.466H29.62V29.612ZM33.078 35.1H37.908V34.092H33.078V35.1ZM33.078 33.294H37.908V32.3H33.078V33.294ZM33.078 31.502H37.908V30.466H33.078V31.502ZM35.01 36.486H35.99V37.606H38.832V38.502H35.99V39.986H40.792V40.924H30.11V39.986H35.01V38.502H32.14V37.606H35.01V36.486ZM43.508 31.138H48.982V28.604H50.018V31.138H55.478V32.104H50.914C51.852 34.33 53.532 36.318 55.94 38.068L55.254 38.936C52.79 36.92 51.082 34.638 50.13 32.104H50.018V37.564H53.014V38.53H50.018V41.4H48.982V38.53H46.098V37.564H48.982V32.104H48.884C47.848 34.946 46.084 37.284 43.592 39.118L43.018 38.18C45.37 36.612 47.05 34.582 48.086 32.104H43.508V31.138ZM61.988 28.52H62.982L58.026 41.4H57.018L61.988 28.52ZM66.874 32.146C66.314 33.42 65.6 34.484 64.732 35.352L64.088 34.526C65.404 33.154 66.3 31.292 66.762 28.954L67.784 29.136C67.63 29.864 67.448 30.536 67.238 31.166H70.234V28.674H71.256V31.166H75.862V32.146H71.256V35.38H75.582V36.36H71.256V39.916H76.758V40.924H64.424V39.916H70.234V36.36H66.118V35.38H70.234V32.146H66.874ZM83.324 29.122H90.17V35.59H87.258V37.242H90.408V38.194H87.258V40.014H90.926V40.98H82.498V40.014H86.25V38.194H83.086V37.242H86.25V35.59H83.324V29.122ZM89.204 34.694V32.804H87.258V34.694H89.204ZM86.25 34.694V32.804H84.29V34.694H86.25ZM84.29 31.922H86.25V30.018H84.29V31.922ZM87.258 30.018V31.922H89.204V30.018H87.258ZM78.382 33.756H79.908V30.438H78.186V29.486H82.652V30.438H80.944V33.756H82.484V34.722H80.944V37.9C81.476 37.718 81.98 37.522 82.484 37.298V38.278C81.196 38.81 79.81 39.258 78.326 39.622L78.074 38.656C78.69 38.544 79.306 38.404 79.908 38.236V34.722H78.382V33.756ZM98.542 30.2C98.108 30.788 97.562 31.306 96.918 31.768L96.358 31.026C97.38 30.34 98.08 29.5 98.444 28.506L99.368 28.618C99.27 28.87 99.172 29.122 99.06 29.36H104.072V30.074C103.708 30.802 103.302 31.418 102.854 31.922L102.154 31.376C102.476 31.04 102.77 30.648 103.036 30.2H98.542ZM92.62 29.374H96.064V30.242H92.62V29.374ZM92.34 31.894H96.358V32.776H92.34V31.894ZM100.18 30.452L101.048 30.62C100.992 30.844 100.922 31.054 100.838 31.25C101.846 32.272 103.148 32.888 104.716 33.084L104.31 33.924C102.784 33.686 101.496 33.028 100.446 31.95C99.774 32.874 98.696 33.476 97.212 33.77L96.736 33.042C98.668 32.692 99.816 31.824 100.18 30.452ZM93.992 33.812H103.036V39.356H93.992V33.812ZM102.042 38.544V37.648H94.986V38.544H102.042ZM94.986 36.962H102.042V36.15H94.986V36.962ZM94.986 35.464H102.042V34.596H94.986V35.464ZM99.998 39.482C101.608 39.762 103.162 40.154 104.646 40.672L104.31 41.47C102.826 40.91 101.258 40.49 99.634 40.182L99.998 39.482ZM96.806 39.44L97.31 40.098C96.274 40.658 94.776 41.12 92.816 41.456L92.354 40.672C94.314 40.35 95.798 39.944 96.806 39.44ZM107.208 29.724C107.488 30.564 107.74 31.53 107.964 32.622L107.166 32.846C106.956 31.852 106.69 30.9 106.368 29.99L107.208 29.724ZM110.708 29.514L111.562 29.626C111.478 30.802 111.282 31.838 110.96 32.748L110.19 32.496C110.47 31.628 110.652 30.634 110.708 29.514ZM106.452 33.504H108.608V28.548H109.588V33.504H111.618V34.47H109.588V41.358H108.608V34.47H106.452V33.504ZM116.476 28.59H117.442V36.584L118.786 36.374L118.94 37.354L117.442 37.578V41.386H116.476V37.732L112.262 38.376L112.108 37.396L116.476 36.724V28.59ZM113.41 29.64C114.39 30.34 115.202 31.026 115.86 31.698L115.202 32.356C114.614 31.712 113.802 31.012 112.766 30.27L113.41 29.64ZM113.046 32.93C114.012 33.658 114.824 34.372 115.482 35.086L114.81 35.758C114.222 35.058 113.424 34.33 112.388 33.56L113.046 32.93ZM110.918 35.24C111.226 36.192 111.506 37.298 111.758 38.544L110.988 38.74C110.792 37.592 110.54 36.5 110.246 35.45L110.918 35.24ZM107.236 35.296L107.978 35.492C107.684 36.948 107.32 38.222 106.886 39.314L106.13 39.048C106.55 38.068 106.928 36.808 107.236 35.296Z" fill="#B0B0B0"/>
<path d="M226.224 28.548L227.134 28.968C226.784 30.046 226.35 31.054 225.818 32.006V41.4H224.81V33.574C224.362 34.204 223.858 34.806 223.326 35.366L223.004 34.316C224.488 32.636 225.552 30.718 226.224 28.548ZM235.492 29.108V41.386H234.582V40.56H228.394V41.386H227.484V29.108H235.492ZM228.394 39.664H234.582V29.99H228.394V39.664ZM229.038 32.258H231.068V30.662H231.95V32.258H233.966V33.126H231.95V34.764H233.406V38.726H229.64V34.764H231.068V33.126H229.038V32.258ZM232.608 37.942V35.548H230.438V37.942H232.608ZM244.004 28.59C244.004 29.794 243.962 30.83 243.906 31.698C244.69 35.506 246.72 38.418 249.982 40.42L249.324 41.302C246.468 39.426 244.536 36.906 243.542 33.742C242.702 36.794 240.714 39.314 237.606 41.316L236.99 40.42C240.84 38.054 242.828 34.848 242.954 30.816C242.968 29.864 242.982 29.122 242.982 28.59H244.004ZM255.988 28.52H256.982L252.026 41.4H251.018L255.988 28.52ZM264.668 28.478C264.836 28.87 264.99 29.304 265.144 29.794H270.408V32.23H269.414V30.732H259.586V32.23H258.592V29.794H264.136C263.982 29.374 263.814 28.982 263.632 28.646L264.668 28.478ZM260.3 32.09H268.7V33.028H265.522C265.13 33.308 264.738 33.546 264.36 33.77C264.92 34.372 265.354 35.03 265.662 35.744C266.852 35.296 267.986 34.568 269.05 33.574L269.75 34.26C268.742 35.184 267.608 35.898 266.348 36.388C267.482 37.676 268.98 38.754 270.828 39.622L270.31 40.518C268.574 39.622 267.174 38.544 266.11 37.284C266.166 37.648 266.194 38.012 266.208 38.39C266.208 39.482 266.054 40.238 265.746 40.658C265.41 41.134 264.64 41.372 263.422 41.372H262.96L262.624 40.49H263.282C264.122 40.476 264.64 40.35 264.85 40.126C265.102 39.832 265.228 39.258 265.228 38.39C265.214 38.138 265.2 37.886 265.172 37.662C263.604 38.894 261.56 39.888 259.012 40.658L258.508 39.79C261.294 38.978 263.45 37.956 264.976 36.71C264.864 36.332 264.738 35.982 264.57 35.646C263.226 36.682 261.434 37.522 259.194 38.166L258.69 37.298C261.028 36.682 262.848 35.898 264.15 34.918C263.982 34.666 263.786 34.414 263.59 34.19C263.478 34.246 263.366 34.288 263.268 34.344C262.302 34.792 261.028 35.24 259.46 35.688L258.942 34.862C260.286 34.568 261.504 34.19 262.568 33.728C263.072 33.504 263.562 33.28 264.024 33.028H260.3V32.09ZM282.252 38.026C283.358 39.076 284.212 40 284.814 40.812L284.016 41.372C283.358 40.476 282.532 39.538 281.524 38.544L282.252 38.026ZM279.718 33.952C279.396 34.652 279.032 35.254 278.626 35.758L278.052 35.044C278.668 34.26 279.172 33.154 279.592 31.726L280.418 31.894C280.306 32.3 280.194 32.678 280.068 33.042H283.974V33.952H281.72C281.706 34.708 281.65 35.394 281.566 36.024H284.66V36.99H281.398C281.342 37.242 281.272 37.494 281.216 37.718C280.782 39.23 279.788 40.462 278.248 41.428L277.618 40.644C278.948 39.818 279.83 38.782 280.264 37.522C280.32 37.34 280.362 37.158 280.418 36.99H277.786V36.024H280.614C280.698 35.38 280.754 34.694 280.768 33.952H279.718ZM272.34 30.592H274.58C274.328 29.934 274.048 29.332 273.74 28.786L274.762 28.618C275.042 29.192 275.294 29.85 275.532 30.592H277.212V31.558H274.496V33.532H277.03C277.03 37.06 276.96 39.244 276.82 40.056C276.708 40.882 276.134 41.302 275.112 41.302C274.972 41.302 274.748 41.288 274.412 41.26L274.202 40.42C274.496 40.448 274.748 40.462 274.972 40.462C275.504 40.462 275.812 40.21 275.924 39.706C276.022 39.146 276.078 37.41 276.092 34.47H274.496C274.412 37.634 273.852 39.958 272.788 41.456L272.046 40.798C273.012 39.37 273.502 37.088 273.53 33.938V31.558H272.34V30.592ZM278.99 31.096C278.598 32.02 278.164 32.846 277.674 33.56L277.044 32.818C277.786 31.726 278.388 30.298 278.85 28.534L279.788 28.744C279.648 29.234 279.508 29.696 279.354 30.13H284.422V31.096H278.99ZM294.25 36.822C293.858 37.774 293.228 38.586 292.36 39.23L291.758 38.502C292.668 37.802 293.27 36.92 293.578 35.856L293.704 35.31H291.282V41.358H290.33V34.386H293.83C293.886 33.924 293.914 33.434 293.928 32.902H289.966V31.978H298.506V32.902H294.852C294.838 33.434 294.81 33.924 294.768 34.386H298.114V39.902C298.114 40.812 297.694 41.274 296.868 41.274H295.426L295.174 40.322L296.532 40.364C296.952 40.364 297.162 40.14 297.162 39.692V35.31H294.642C294.586 35.548 294.544 35.786 294.502 36.01C295.286 36.64 296.014 37.368 296.672 38.208L296.126 39.048C295.496 38.138 294.866 37.396 294.25 36.822ZM288.412 34.568C288.412 34.442 288.426 34.316 288.426 34.204V29.64H293.116C292.962 29.262 292.794 28.912 292.612 28.59L293.634 28.422C293.802 28.786 293.97 29.192 294.138 29.64H298.604V30.592H289.406V34.204C289.35 37.158 288.748 39.524 287.6 41.302L286.844 40.644C287.67 39.384 288.174 37.718 288.342 35.66C287.754 36.15 287.096 36.612 286.368 37.032L286.088 36.066C286.942 35.632 287.712 35.128 288.412 34.568ZM286.956 30.718C287.432 31.558 287.838 32.44 288.174 33.392L287.306 33.742C286.942 32.734 286.536 31.838 286.088 31.082L286.956 30.718ZM301.544 30.368H306.108V28.59H307.13V30.368H311.596V35.24H307.074C306.934 36.584 306.556 37.69 305.912 38.558C307.872 39.622 310.182 40.224 312.842 40.35L312.576 41.344C309.762 41.19 307.312 40.518 305.226 39.314C304.19 40.238 302.734 40.938 300.872 41.414L300.298 40.518C302.006 40.084 303.336 39.482 304.302 38.726C303.378 38.096 302.538 37.368 301.782 36.528L302.594 35.954C303.322 36.766 304.12 37.452 305.016 38.026C305.576 37.312 305.912 36.388 306.038 35.24H301.544V30.368ZM310.602 34.274V31.334H307.13V34.274H310.602ZM306.108 34.274V31.334H302.538V34.274H306.108Z" fill="#B0B0B0"/>
<path d="M450.73 35.8V36.584H452.83V35.8H450.73ZM452.83 34.624V33.826H450.73V34.624H452.83ZM450.534 31.418C450.1 31.852 449.638 32.272 449.148 32.692L448.364 31.6C449.428 30.746 450.394 29.738 451.276 28.562H452.242C453.166 29.318 454.048 30.116 454.874 30.928L453.936 31.922C453.684 31.656 453.46 31.418 453.264 31.222V32.076H450.534V31.418ZM452.998 30.956C452.55 30.522 452.172 30.186 451.85 29.934C451.57 30.284 451.29 30.62 450.982 30.956H452.998ZM449.372 41.246L448.966 40.084C449.246 39.986 449.4 39.818 449.4 39.594V32.622H454.132V37.816H450.73V39.72C451.472 39.524 452.144 39.314 452.746 39.104C452.62 38.824 452.494 38.558 452.368 38.32L453.516 37.942C453.852 38.586 454.146 39.272 454.412 39.972C455.434 39.132 456.106 38.138 456.442 37.018C456.75 35.912 456.918 34.47 456.932 32.706H458.234C458.234 33.546 458.192 34.316 458.122 35.03C458.738 37.27 459.858 39.048 461.482 40.364L460.53 41.484C459.312 40.35 458.374 38.978 457.716 37.382C457.296 39.006 456.316 40.364 454.762 41.428L454.104 40.63L453.46 40.924C453.376 40.658 453.278 40.42 453.194 40.196C452.074 40.588 450.8 40.938 449.372 41.246ZM455.854 28.464L457.212 28.688C457.128 29.36 457.016 29.976 456.904 30.564H461.048V31.502C460.852 32.692 460.6 33.882 460.292 35.072L458.892 34.666C459.158 33.882 459.382 32.986 459.55 31.95H456.568C456.232 33.084 455.812 33.994 455.308 34.666L454.202 33.868C455.042 32.58 455.602 30.774 455.854 28.464ZM468.51 28.52H469.518C471.226 30.102 473.214 31.348 475.454 32.272L474.726 33.546C474.096 33.28 473.508 33 472.962 32.692V37.62L473.34 37.186L474.572 37.802C474.068 38.362 473.536 38.88 472.962 39.356C473.69 39.692 474.348 40.056 474.964 40.434L474.054 41.54C472.626 40.574 470.806 39.678 468.566 38.852L469.392 37.872C470.232 38.166 471.016 38.474 471.758 38.796C472.15 38.46 472.514 38.11 472.85 37.746H466.634V39.958C467.628 39.762 468.58 39.538 469.49 39.286L469.77 40.518C468.482 40.896 466.872 41.232 464.968 41.512L464.59 40.35C464.982 40.224 465.192 39.874 465.192 39.286V32.72C464.576 33.056 463.932 33.378 463.26 33.686L462.546 32.398C464.94 31.362 466.928 30.074 468.51 28.52ZM465.738 32.398H472.43C471.842 32.062 471.31 31.712 470.806 31.348V31.908H467.25V31.39C466.774 31.74 466.27 32.076 465.738 32.398ZM468.034 30.76H470.05C469.672 30.452 469.322 30.158 469.014 29.85C468.692 30.158 468.37 30.466 468.034 30.76ZM466.634 35.688V36.458H471.52V35.688H466.634ZM471.52 34.456V33.686H466.634V34.456H471.52ZM487.928 35.072V41.47H486.528V40.966H480.074V41.47H478.674V35.072H482.244C482.384 34.75 482.51 34.428 482.594 34.092L483.966 34.274C483.882 34.554 483.784 34.82 483.658 35.072H487.928ZM480.074 39.622H486.528V38.67H480.074V39.622ZM480.074 37.382H486.528V36.402H480.074V37.382ZM481.264 31.502V29.99H477.484V28.814H482.636V33.434C482.636 34.246 482.16 34.666 481.222 34.666H480.172L479.85 33.518L480.97 33.56C481.166 33.56 481.264 33.364 481.264 33V32.636C480.116 33.196 478.856 33.7 477.484 34.176L477.106 32.916C478.646 32.496 480.032 32.02 481.264 31.502ZM478.03 30.228C478.842 30.382 479.612 30.592 480.368 30.872L479.962 31.866C479.164 31.6 478.338 31.39 477.498 31.236L478.03 30.228ZM487.046 31.488V29.99H483.126V28.814H488.418V33.476C488.418 34.26 487.914 34.652 486.92 34.652H485.982L485.66 33.49L486.654 33.532C486.906 33.532 487.046 33.364 487.046 33.042V32.608C485.968 33.14 484.778 33.63 483.476 34.078L483.098 32.818C484.554 32.426 485.87 31.978 487.046 31.488ZM483.77 30.214C484.582 30.382 485.366 30.606 486.108 30.914L485.688 31.908C484.904 31.614 484.092 31.39 483.252 31.222L483.77 30.214ZM496.09 28.702H502.698L502.572 30.452H503.258V31.572H502.488L502.362 33.28H495.614L495.796 31.572H495.026V30.452H495.908L496.09 28.702ZM496.986 32.216H498.47L498.554 31.572H497.07L496.986 32.216ZM499.8 31.572L499.716 32.216H501.158L501.214 31.572H499.8ZM497.196 30.452H498.68L498.764 29.766H497.28L497.196 30.452ZM500.024 29.766L499.94 30.452H501.312L501.382 29.766H500.024ZM495.572 33.672H502.684V39.314H500.934C501.83 39.65 502.684 40.056 503.496 40.518L502.656 41.47C501.718 40.91 500.71 40.42 499.632 40.014L500.416 39.314H497.952L498.666 39.93C497.798 40.532 496.72 41.064 495.446 41.512L494.662 40.504C495.726 40.154 496.622 39.762 497.378 39.314H495.572V33.672ZM501.326 38.222V37.704H496.944V38.222H501.326ZM496.944 36.752H501.326V36.234H496.944V36.752ZM496.944 35.268H501.326V34.764H496.944V35.268ZM490.84 31.264L491.96 31.348C491.932 32.748 491.806 34.078 491.596 35.338L490.42 35.002C490.672 33.826 490.812 32.58 490.84 31.264ZM494.606 30.9C494.942 31.796 495.25 32.832 495.53 33.994L494.382 34.288C494.186 33.378 493.962 32.51 493.696 31.67V41.414H492.24V28.534H493.696V31.194L494.606 30.9Z" fill="#3690A4"/>
<path d="M661.11 29.598H664.568V28.548H665.534V29.598H668.992V30.48H665.534V31.39H668.194V37.858H669.482V38.754H660.62V37.858H661.922V31.39H664.568V30.48H661.11V29.598ZM662.874 37.858H667.242V36.948H662.874V37.858ZM662.874 36.22H667.242V35.366H662.874V36.22ZM662.874 34.652H667.242V33.784H662.874V34.652ZM662.874 33.07H667.242V32.188H662.874V33.07ZM666.612 38.95C667.578 39.454 668.474 40.056 669.286 40.756L668.684 41.456C667.844 40.728 666.948 40.084 665.982 39.524L666.612 38.95ZM663.504 38.95L664.176 39.538C663.364 40.266 662.356 40.91 661.152 41.456L660.564 40.7C661.726 40.196 662.706 39.622 663.504 38.95ZM656.7 31.992H658.268V28.618H659.234V31.992H660.676V32.944H659.234V37.312C659.71 37.144 660.186 36.962 660.648 36.766V37.76C659.472 38.236 658.198 38.628 656.84 38.95L656.588 37.984C657.148 37.872 657.708 37.746 658.268 37.606V32.944H656.7V31.992ZM679.744 37.9C680.024 38.432 680.276 38.992 680.5 39.58L679.73 39.916C679.492 39.258 679.24 38.684 678.974 38.208L679.744 37.9ZM677.714 38.138C677.966 38.754 678.204 39.44 678.4 40.168L677.518 40.378C677.35 39.594 677.14 38.908 676.888 38.306L677.714 38.138ZM678.792 41.358L678.554 40.476C679.016 40.504 679.45 40.518 679.87 40.518C680.5 40.518 680.92 40.322 681.116 39.958C681.312 39.566 681.452 38.74 681.508 37.466H673.696C673.066 37.97 672.38 38.432 671.624 38.838L670.994 38.082C672.268 37.466 673.346 36.696 674.228 35.772H672.772V31.544C674.088 31.46 675.208 31.264 676.16 30.942L676.608 31.684C675.88 31.95 674.9 32.16 673.668 32.314V33.238H676.384V34.022H673.668V34.946H680.332V34.022H677.756V33.252H680.332V32.314H677.574V31.502H681.256V35.772H675.348C675.11 36.08 674.858 36.36 674.606 36.626H682.488C682.446 37.774 682.376 38.712 682.264 39.44C682.138 40.14 681.942 40.644 681.662 40.924C681.382 41.19 680.934 41.33 680.318 41.358H678.792ZM673.01 38.18L673.864 38.404C673.612 39.44 673.304 40.364 672.94 41.162L672.03 40.84C672.408 40.14 672.73 39.244 673.01 38.18ZM675.684 38.278C675.88 39.02 676.048 39.832 676.202 40.714L675.292 40.924C675.18 39.986 675.026 39.16 674.844 38.46L675.684 38.278ZM682.81 29.668V32.188H681.858V30.564H672.156V32.202H671.204V29.668H676.468C676.3 29.304 676.104 28.982 675.908 28.688L676.944 28.52C677.126 28.856 677.308 29.248 677.476 29.668H682.81ZM696.922 30.06V33.196H695.9V31.04H686.072V33.196H685.05V30.06H690.426C690.258 29.584 690.09 29.15 689.894 28.758L691.028 28.562C691.21 29.01 691.392 29.5 691.56 30.06H696.922ZM687.052 32.664H694.892V33.644H687.052V32.664ZM684.91 35.296H697.104V36.262H693.142V39.58C693.142 40 693.338 40.224 693.744 40.224H695.606C695.858 40.224 696.026 40.126 696.124 39.944C696.236 39.734 696.32 39.104 696.376 38.04L697.328 38.348C697.244 39.692 697.076 40.518 696.824 40.798C696.6 41.05 696.264 41.19 695.788 41.19H693.422C692.554 41.19 692.134 40.714 692.134 39.79V36.262H689.782V36.36C689.74 37.732 689.362 38.838 688.662 39.678C687.962 40.434 686.828 41.036 685.26 41.47L684.686 40.574C686.212 40.182 687.276 39.664 687.892 39.006C688.452 38.334 688.746 37.452 688.788 36.36V36.262H684.91V35.296ZM708.416 28.52C709.088 29.024 709.662 29.542 710.138 30.06L709.494 30.704H711.202V31.67H706.89C706.988 33.406 707.17 34.778 707.422 35.786C707.506 36.136 707.604 36.458 707.702 36.766C708.402 35.646 708.962 34.33 709.396 32.832L710.306 33.224C709.746 35.072 709.018 36.64 708.122 37.9C708.318 38.348 708.528 38.74 708.752 39.062C709.214 39.734 709.592 40.07 709.872 40.07C710.124 40.056 710.362 39.328 710.572 37.886L711.482 38.39C711.146 40.252 710.67 41.19 710.04 41.19C709.452 41.19 708.822 40.77 708.15 39.93C707.898 39.594 707.66 39.202 707.45 38.768C706.47 39.916 705.322 40.77 704.006 41.358L703.446 40.518C704.846 39.888 706.036 38.964 707.002 37.746C706.806 37.228 706.624 36.668 706.47 36.066C706.162 34.89 705.966 33.42 705.854 31.67H701.052V33.994H704.482C704.454 36.36 704.342 37.886 704.16 38.572C703.978 39.174 703.544 39.482 702.844 39.51C702.508 39.51 702.102 39.482 701.654 39.454L701.346 38.544C701.892 38.572 702.354 38.586 702.732 38.586C703.04 38.572 703.236 38.362 703.32 37.97C703.404 37.494 703.446 36.486 703.474 34.946H701.052V35.366C700.996 37.872 700.436 39.888 699.4 41.4L698.63 40.714C699.526 39.426 699.988 37.648 700.03 35.366V30.704H705.812C705.784 30.004 705.77 29.29 705.77 28.534H706.806C706.806 29.318 706.82 30.032 706.848 30.704H709.466C709.046 30.2 708.486 29.682 707.772 29.136L708.416 28.52Z" fill="#3690A4"/>
</svg>
