<svg width="744" height="45" viewBox="0 0 744 45" fill="none" xmlns="http://www.w3.org/2000/svg">
<rect x="50.5" y="0.5" width="19" height="19" rx="9.5" stroke="#B0B0B0"/>
<path d="M60.4104 5.504H61.3064V15.5H60.1584V6.904C59.5284 7.548 58.7444 7.996 57.8064 8.276V7.128C58.2544 7.002 58.7304 6.806 59.2064 6.526C59.6824 6.218 60.0744 5.882 60.4104 5.504Z" fill="#B0B0B0"/>
<rect x="74.5" y="7.5" width="179" height="5" stroke="#B0B0B0"/>
<rect x="258" width="20" height="20" rx="10" fill="#3690A4"/>
<path d="M268.143 5.308C269.067 5.308 269.823 5.574 270.425 6.106C271.013 6.638 271.321 7.352 271.321 8.22C271.321 9.088 270.985 9.872 270.341 10.572C269.991 10.936 269.305 11.482 268.269 12.182C266.995 13.036 266.267 13.806 266.085 14.478H271.335V15.5H264.671C264.671 14.59 264.993 13.764 265.665 13.022C266.057 12.574 266.771 11.972 267.835 11.244C268.619 10.684 269.137 10.278 269.403 9.998C269.907 9.452 270.173 8.85 270.173 8.206C270.173 7.59 269.991 7.128 269.627 6.792C269.263 6.456 268.745 6.288 268.101 6.288C267.415 6.288 266.883 6.512 266.519 6.988C266.127 7.436 265.917 8.108 265.903 8.99H264.755C264.755 7.87 265.077 6.974 265.693 6.316C266.309 5.644 267.135 5.308 268.143 5.308Z" fill="white"/>
<rect width="180" height="6" transform="translate(282 7)" fill="#3690A4"/>
<rect x="466.5" y="0.5" width="19" height="19" rx="9.5" stroke="#3690A4"/>
<path d="M476.101 5.308C477.053 5.308 477.837 5.546 478.425 6.036C478.999 6.526 479.293 7.184 479.293 8.024C479.293 9.144 478.747 9.9 477.655 10.264C478.243 10.446 478.691 10.726 478.999 11.118C479.335 11.51 479.503 12 479.503 12.588C479.503 13.498 479.181 14.24 478.551 14.814C477.907 15.402 477.067 15.696 476.031 15.696C475.079 15.696 474.309 15.444 473.707 14.968C472.993 14.38 472.601 13.526 472.517 12.406H473.679C473.707 13.19 473.973 13.792 474.463 14.198C474.883 14.534 475.401 14.716 476.031 14.716C476.745 14.716 477.319 14.506 477.753 14.1C478.145 13.708 478.355 13.218 478.355 12.63C478.355 12.028 478.159 11.566 477.767 11.23C477.375 10.894 476.843 10.74 476.143 10.74H475.331V9.844H476.101C476.773 9.844 477.277 9.69 477.627 9.396C477.977 9.088 478.159 8.654 478.159 8.094C478.159 7.534 477.977 7.1 477.641 6.792C477.277 6.456 476.759 6.302 476.115 6.302C475.443 6.302 474.925 6.47 474.547 6.834C474.155 7.198 473.931 7.716 473.861 8.388H472.727C472.811 7.422 473.175 6.666 473.791 6.12C474.379 5.574 475.149 5.308 476.101 5.308Z" fill="#3690A4"/>
<rect x="490.5" y="7.5" width="179" height="5" stroke="#3690A4"/>
<rect x="674.5" y="0.5" width="19" height="19" rx="9.5" stroke="#3690A4"/>
<path d="M679 9.53333L681.69 12.6579C682.077 13.108 682.769 13.1232 683.176 12.6907L689 6.5" stroke="#3690A4" stroke-linecap="round"/>
<path d="M4.224 28.548L5.134 28.968C4.784 30.046 4.35 31.054 3.818 32.006V41.4H2.81V33.574C2.362 34.204 1.858 34.806 1.326 35.366L1.004 34.316C2.488 32.636 3.552 30.718 4.224 28.548ZM13.492 29.108V41.386H12.582V40.56H6.394V41.386H5.484V29.108H13.492ZM6.394 39.664H12.582V29.99H6.394V39.664ZM7.038 32.258H9.068V30.662H9.95V32.258H11.966V33.126H9.95V34.764H11.406V38.726H7.64V34.764H9.068V33.126H7.038V32.258ZM10.608 37.942V35.548H8.438V37.942H10.608ZM22.004 28.59C22.004 29.794 21.962 30.83 21.906 31.698C22.69 35.506 24.72 38.418 27.982 40.42L27.324 41.302C24.468 39.426 22.536 36.906 21.542 33.742C20.702 36.794 18.714 39.314 15.606 41.316L14.99 40.42C18.84 38.054 20.828 34.848 20.954 30.816C20.968 29.864 20.982 29.122 20.982 28.59H22.004ZM29.62 29.612H32.098V28.548H33.078V29.612H37.908V28.548H38.888V29.612H41.366V30.466H38.888V35.1H41.576V35.996H38.664C39.336 36.836 40.386 37.494 41.786 37.97L41.38 38.838C39.644 38.11 38.412 37.158 37.684 35.996H33.288C32.56 37.158 31.384 38.124 29.76 38.88L29.242 38.026C30.628 37.494 31.65 36.822 32.322 35.996H29.41V35.1H32.098V30.466H29.62V29.612ZM33.078 35.1H37.908V34.092H33.078V35.1ZM33.078 33.294H37.908V32.3H33.078V33.294ZM33.078 31.502H37.908V30.466H33.078V31.502ZM35.01 36.486H35.99V37.606H38.832V38.502H35.99V39.986H40.792V40.924H30.11V39.986H35.01V38.502H32.14V37.606H35.01V36.486ZM43.508 31.138H48.982V28.604H50.018V31.138H55.478V32.104H50.914C51.852 34.33 53.532 36.318 55.94 38.068L55.254 38.936C52.79 36.92 51.082 34.638 50.13 32.104H50.018V37.564H53.014V38.53H50.018V41.4H48.982V38.53H46.098V37.564H48.982V32.104H48.884C47.848 34.946 46.084 37.284 43.592 39.118L43.018 38.18C45.37 36.612 47.05 34.582 48.086 32.104H43.508V31.138ZM61.988 28.52H62.982L58.026 41.4H57.018L61.988 28.52ZM66.874 32.146C66.314 33.42 65.6 34.484 64.732 35.352L64.088 34.526C65.404 33.154 66.3 31.292 66.762 28.954L67.784 29.136C67.63 29.864 67.448 30.536 67.238 31.166H70.234V28.674H71.256V31.166H75.862V32.146H71.256V35.38H75.582V36.36H71.256V39.916H76.758V40.924H64.424V39.916H70.234V36.36H66.118V35.38H70.234V32.146H66.874ZM83.324 29.122H90.17V35.59H87.258V37.242H90.408V38.194H87.258V40.014H90.926V40.98H82.498V40.014H86.25V38.194H83.086V37.242H86.25V35.59H83.324V29.122ZM89.204 34.694V32.804H87.258V34.694H89.204ZM86.25 34.694V32.804H84.29V34.694H86.25ZM84.29 31.922H86.25V30.018H84.29V31.922ZM87.258 30.018V31.922H89.204V30.018H87.258ZM78.382 33.756H79.908V30.438H78.186V29.486H82.652V30.438H80.944V33.756H82.484V34.722H80.944V37.9C81.476 37.718 81.98 37.522 82.484 37.298V38.278C81.196 38.81 79.81 39.258 78.326 39.622L78.074 38.656C78.69 38.544 79.306 38.404 79.908 38.236V34.722H78.382V33.756ZM98.542 30.2C98.108 30.788 97.562 31.306 96.918 31.768L96.358 31.026C97.38 30.34 98.08 29.5 98.444 28.506L99.368 28.618C99.27 28.87 99.172 29.122 99.06 29.36H104.072V30.074C103.708 30.802 103.302 31.418 102.854 31.922L102.154 31.376C102.476 31.04 102.77 30.648 103.036 30.2H98.542ZM92.62 29.374H96.064V30.242H92.62V29.374ZM92.34 31.894H96.358V32.776H92.34V31.894ZM100.18 30.452L101.048 30.62C100.992 30.844 100.922 31.054 100.838 31.25C101.846 32.272 103.148 32.888 104.716 33.084L104.31 33.924C102.784 33.686 101.496 33.028 100.446 31.95C99.774 32.874 98.696 33.476 97.212 33.77L96.736 33.042C98.668 32.692 99.816 31.824 100.18 30.452ZM93.992 33.812H103.036V39.356H93.992V33.812ZM102.042 38.544V37.648H94.986V38.544H102.042ZM94.986 36.962H102.042V36.15H94.986V36.962ZM94.986 35.464H102.042V34.596H94.986V35.464ZM99.998 39.482C101.608 39.762 103.162 40.154 104.646 40.672L104.31 41.47C102.826 40.91 101.258 40.49 99.634 40.182L99.998 39.482ZM96.806 39.44L97.31 40.098C96.274 40.658 94.776 41.12 92.816 41.456L92.354 40.672C94.314 40.35 95.798 39.944 96.806 39.44ZM107.208 29.724C107.488 30.564 107.74 31.53 107.964 32.622L107.166 32.846C106.956 31.852 106.69 30.9 106.368 29.99L107.208 29.724ZM110.708 29.514L111.562 29.626C111.478 30.802 111.282 31.838 110.96 32.748L110.19 32.496C110.47 31.628 110.652 30.634 110.708 29.514ZM106.452 33.504H108.608V28.548H109.588V33.504H111.618V34.47H109.588V41.358H108.608V34.47H106.452V33.504ZM116.476 28.59H117.442V36.584L118.786 36.374L118.94 37.354L117.442 37.578V41.386H116.476V37.732L112.262 38.376L112.108 37.396L116.476 36.724V28.59ZM113.41 29.64C114.39 30.34 115.202 31.026 115.86 31.698L115.202 32.356C114.614 31.712 113.802 31.012 112.766 30.27L113.41 29.64ZM113.046 32.93C114.012 33.658 114.824 34.372 115.482 35.086L114.81 35.758C114.222 35.058 113.424 34.33 112.388 33.56L113.046 32.93ZM110.918 35.24C111.226 36.192 111.506 37.298 111.758 38.544L110.988 38.74C110.792 37.592 110.54 36.5 110.246 35.45L110.918 35.24ZM107.236 35.296L107.978 35.492C107.684 36.948 107.32 38.222 106.886 39.314L106.13 39.048C106.55 38.068 106.928 36.808 107.236 35.296Z" fill="#B0B0B0"/>
<path d="M226 28.464L227.316 29.08C226.98 30.116 226.56 31.096 226.042 32.02V41.484H224.586V34.204C224.222 34.652 223.844 35.1 223.438 35.534L222.962 34.008C224.334 32.44 225.342 30.592 226 28.464ZM235.618 28.912V41.442H234.302V40.658H228.674V41.442H227.372V28.912H235.618ZM228.674 39.356H234.302V30.172H228.674V39.356ZM229.094 32.104H230.886V30.718H232.132V32.104H233.91V33.336H232.132V34.666H233.49V38.796H229.57V34.666H230.886V33.336H229.094V32.104ZM232.356 37.69V35.772H230.704V37.69H232.356ZM244.186 28.52C244.186 29.752 244.144 30.802 244.088 31.67C244.9 35.352 246.902 38.166 250.08 40.112L249.1 41.4C246.482 39.636 244.634 37.284 243.556 34.33C242.632 37.186 240.714 39.552 237.802 41.428L236.906 40.112C240.658 37.872 242.576 34.736 242.688 30.718C242.688 29.78 242.702 29.052 242.702 28.52H244.186ZM255.75 28.52H257.122L252.264 41.4H250.878L255.75 28.52ZM264.878 28.408C265.018 28.758 265.158 29.15 265.298 29.584H270.534V32.244H269.092V30.928H259.908V32.244H258.466V29.584H263.814C263.674 29.248 263.534 28.94 263.38 28.66L264.878 28.408ZM260.356 31.894H268.644V33.238H265.578C265.27 33.448 264.976 33.644 264.668 33.826C265.13 34.33 265.494 34.876 265.774 35.464C266.866 35.03 267.916 34.372 268.896 33.49L269.904 34.484C268.966 35.296 267.93 35.94 266.782 36.402C267.846 37.564 269.246 38.544 270.982 39.356L270.212 40.672C268.644 39.818 267.356 38.81 266.376 37.634C266.404 37.858 266.418 38.096 266.418 38.334C266.418 39.482 266.25 40.252 265.942 40.672C265.564 41.176 264.724 41.442 263.436 41.442H263.002L262.512 40.154H263.24C263.996 40.154 264.472 40.042 264.668 39.846C264.892 39.58 265.018 39.076 265.018 38.334C265.018 38.222 265.004 38.124 265.004 38.04C263.492 39.16 261.546 40.084 259.152 40.812L258.424 39.566C261.154 38.796 263.268 37.83 264.766 36.654C264.682 36.402 264.598 36.164 264.5 35.94C263.184 36.892 261.462 37.676 259.334 38.292L258.606 37.046C260.846 36.486 262.61 35.758 263.898 34.876C263.786 34.722 263.66 34.568 263.548 34.428C263.52 34.428 263.492 34.442 263.492 34.456C262.596 34.89 261.294 35.366 259.614 35.87L258.872 34.652C260.146 34.4 261.35 34.036 262.484 33.574C262.75 33.462 263.016 33.35 263.268 33.238H260.356V31.894ZM282.504 37.984C283.54 38.992 284.352 39.874 284.926 40.658L283.764 41.47C283.19 40.644 282.42 39.734 281.454 38.74L282.504 37.984ZM279.872 34.162C279.564 34.806 279.228 35.352 278.85 35.8H280.418C280.474 35.296 280.516 34.75 280.544 34.162H279.872ZM281.916 34.162C281.888 34.75 281.86 35.296 281.804 35.8H284.716V37.214H281.552C281.51 37.41 281.468 37.592 281.412 37.774C281.006 39.272 280.026 40.518 278.472 41.512L277.548 40.378C278.836 39.552 279.69 38.558 280.082 37.382C280.096 37.312 280.11 37.256 280.124 37.214H277.716V35.8H278.766L277.968 34.82C278.528 34.092 279.032 33.042 279.452 31.698L280.642 31.95C280.558 32.258 280.474 32.552 280.39 32.832H284.03V34.162H281.916ZM272.284 30.354H274.23C274.006 29.794 273.768 29.29 273.488 28.814L274.958 28.562C275.182 29.094 275.406 29.682 275.63 30.354H277.282V31.74H274.72V33.308H277.24C277.24 36.962 277.17 39.216 277.044 40.084C276.918 40.924 276.288 41.358 275.168 41.358C275.028 41.358 274.776 41.33 274.44 41.288L274.132 40.084C274.44 40.112 274.72 40.14 274.944 40.14C275.406 40.14 275.672 39.902 275.756 39.454C275.812 38.992 275.854 37.396 275.882 34.652H274.706C274.608 37.76 274.034 40.056 272.998 41.54L271.92 40.574C272.83 39.202 273.292 36.99 273.306 33.938V31.74H272.284V30.354ZM279.172 31.306C278.78 32.188 278.346 32.958 277.884 33.616L276.988 32.524C277.646 31.572 278.22 30.228 278.71 28.492L280.068 28.8C279.956 29.192 279.83 29.556 279.704 29.92H284.478V31.306H279.172ZM294.334 37.144C293.942 37.998 293.354 38.726 292.556 39.342L291.688 38.292C292.556 37.592 293.13 36.738 293.396 35.744L293.452 35.506H291.548V41.414H290.176V34.19H293.648C293.676 33.84 293.704 33.476 293.718 33.112H289.91V31.768H298.562V33.112H295.034C295.02 33.49 295.006 33.854 294.978 34.19H298.268V39.706C298.268 40.784 297.792 41.33 296.868 41.33H295.44L295.076 39.972L296.406 40.042C296.728 40.042 296.896 39.818 296.896 39.398V35.506H294.796C294.768 35.674 294.726 35.828 294.698 35.982C295.426 36.542 296.112 37.2 296.742 37.956L295.944 39.16C295.412 38.362 294.88 37.69 294.334 37.144ZM288.202 34.512C288.202 34.4 288.216 34.316 288.216 34.232V33.35L287.096 33.84C286.746 32.818 286.368 31.922 285.948 31.152L287.208 30.62C287.6 31.376 287.936 32.16 288.216 32.986V29.43H292.808C292.696 29.136 292.556 28.856 292.416 28.604L293.9 28.352C294.026 28.674 294.152 29.038 294.292 29.43H298.66V30.802H289.616V34.232C289.56 37.214 288.972 39.608 287.852 41.4L286.76 40.434C287.46 39.3 287.908 37.844 288.104 36.066C287.572 36.486 286.998 36.878 286.396 37.242L285.99 35.842C286.788 35.45 287.53 35.002 288.202 34.512ZM301.432 30.2H305.884V28.52H307.354V30.2H311.708V35.506H307.284C307.144 36.654 306.822 37.62 306.318 38.418C308.194 39.328 310.378 39.832 312.87 39.944L312.492 41.414C309.776 41.274 307.382 40.644 305.338 39.552C304.33 40.406 302.93 41.064 301.124 41.512L300.284 40.196C301.81 39.832 303.028 39.342 303.924 38.698C303.07 38.11 302.286 37.438 301.572 36.682L302.762 35.856C303.434 36.556 304.19 37.158 305.002 37.69C305.408 37.102 305.674 36.374 305.8 35.506H301.432V30.2ZM310.266 34.106V31.6H307.354V34.106H310.266ZM305.884 34.106V31.6H302.86V34.106H305.884Z" fill="#3690A4"/>
<path d="M450.464 35.618V36.766H453.082V35.618H450.464ZM453.082 34.792V33.644H450.464V34.792H453.082ZM450.534 31.18C450.044 31.684 449.526 32.16 448.994 32.608L448.448 31.866C449.554 30.956 450.562 29.892 451.458 28.688H452.13C453.054 29.458 453.936 30.284 454.804 31.152L454.16 31.838C453.278 30.914 452.508 30.172 451.85 29.64C451.444 30.158 451.024 30.648 450.604 31.11H453.264V31.922H450.534V31.18ZM449.484 41.134L449.19 40.336C449.414 40.266 449.54 40.14 449.54 39.958V32.804H453.992V37.634H450.464V40.07C451.416 39.804 452.27 39.538 452.998 39.272C452.816 38.908 452.634 38.572 452.452 38.264L453.264 38.012C453.684 38.74 454.076 39.496 454.412 40.308C455.504 39.454 456.232 38.418 456.624 37.2C456.96 36.038 457.128 34.554 457.128 32.762H458.038C458.038 33.588 457.996 34.358 457.926 35.058C458.584 37.41 459.746 39.272 461.412 40.644L460.754 41.414C459.382 40.182 458.36 38.642 457.66 36.822L457.534 37.34C457.1 38.978 456.106 40.322 454.552 41.372L454.006 40.686L453.684 40.84C453.572 40.546 453.46 40.28 453.348 40.028C452.214 40.448 450.926 40.812 449.484 41.134ZM456.064 28.506L457.002 28.66C456.904 29.416 456.778 30.13 456.638 30.774H460.894V31.418C460.684 32.622 460.404 33.812 460.068 34.988L459.102 34.708C459.41 33.84 459.676 32.846 459.872 31.74H456.4C456.064 32.902 455.63 33.854 455.098 34.582L454.328 34.036C455.224 32.706 455.798 30.858 456.064 28.506ZM468.664 28.618H469.364C471.1 30.27 473.088 31.572 475.342 32.524L474.852 33.392C473.368 32.748 472.024 31.978 470.834 31.082V31.74H467.222V31.11C466.046 32.006 464.674 32.804 463.134 33.518L462.658 32.636C465.066 31.558 467.068 30.214 468.664 28.618ZM467.46 30.928H470.638C470.05 30.48 469.504 30.018 469.014 29.528C468.524 30.018 468.006 30.48 467.46 30.928ZM466.396 35.506V36.654H471.744V35.506H466.396ZM471.744 34.638V33.49H466.396V34.638H471.744ZM473.536 37.256L474.376 37.69C473.816 38.334 473.214 38.922 472.57 39.426C473.382 39.832 474.138 40.252 474.824 40.686L474.194 41.456C472.766 40.476 470.918 39.552 468.678 38.698L469.266 37.998C470.134 38.334 470.96 38.67 471.744 39.034C472.402 38.488 473.004 37.9 473.536 37.256ZM465.22 41.414L464.954 40.602C465.248 40.518 465.402 40.266 465.402 39.874V32.594H472.738V37.55H466.396V40.322C467.502 40.112 468.552 39.86 469.56 39.566L469.756 40.42C468.538 40.798 467.026 41.134 465.22 41.414ZM487.788 35.226V41.414H486.822V40.784H479.78V41.414H478.814V35.226H482.356C482.552 34.862 482.692 34.484 482.804 34.092L483.742 34.218C483.644 34.582 483.504 34.918 483.336 35.226H487.788ZM479.78 39.846H486.822V38.474H479.78V39.846ZM479.78 37.578H486.822V36.15H479.78V37.578ZM481.502 31.6V29.78H477.54V28.954H482.454V33.56C482.454 34.232 482.076 34.568 481.334 34.568H480.144L479.934 33.756L481.152 33.784C481.376 33.784 481.502 33.602 481.502 33.266V32.412C480.298 33 478.94 33.532 477.4 34.036L477.162 33.154C478.744 32.706 480.186 32.188 481.502 31.6ZM477.918 30.34C478.758 30.508 479.584 30.732 480.368 31.026L480.088 31.74C479.262 31.446 478.408 31.222 477.54 31.054L477.918 30.34ZM487.284 31.614V29.78H483.182V28.954H488.236V33.602C488.236 34.218 487.844 34.54 487.074 34.54H485.954L485.744 33.728L486.892 33.756C487.144 33.756 487.284 33.602 487.284 33.308V32.398C486.136 32.958 484.82 33.49 483.364 33.966L483.126 33.084C484.638 32.664 486.024 32.174 487.284 31.614ZM483.658 30.326C484.512 30.494 485.324 30.746 486.108 31.068L485.814 31.782C485.002 31.46 484.148 31.208 483.28 31.04L483.658 30.326ZM496.272 28.828H502.544L502.404 30.606H503.202V31.418H502.334L502.194 33.154H495.796L495.992 31.418H495.082V30.606H496.076L496.272 28.828ZM496.748 32.398H498.638L498.75 31.418H496.86L496.748 32.398ZM499.632 31.418L499.52 32.398H501.34L501.438 31.418H499.632ZM496.958 30.606H498.848L498.96 29.584H497.084L496.958 30.606ZM499.856 29.584L499.73 30.606H501.508L501.606 29.584H499.856ZM495.726 33.826H502.53V39.16H495.726V33.826ZM501.578 38.376V37.578H496.678V38.376H501.578ZM496.678 36.878H501.578V36.108H496.678V36.878ZM496.678 35.394H501.578V34.61H496.678V35.394ZM500.374 39.258C501.466 39.664 502.474 40.154 503.412 40.728L502.838 41.386C501.858 40.798 500.822 40.28 499.716 39.846L500.374 39.258ZM497.938 39.202L498.596 39.776C497.7 40.406 496.58 40.966 495.264 41.442L494.732 40.742C495.992 40.308 497.07 39.79 497.938 39.202ZM491.008 31.264L491.806 31.334C491.764 32.734 491.624 34.05 491.372 35.296L490.546 35.058C490.812 33.854 490.966 32.594 491.008 31.264ZM494.41 30.942C494.774 31.852 495.11 32.888 495.39 34.064L494.578 34.26C494.326 33.196 494.032 32.16 493.668 31.18L494.41 30.942ZM492.464 28.604H493.472V41.344H492.464V28.604Z" fill="#3690A4"/>
<path d="M661.11 29.598H664.568V28.548H665.534V29.598H668.992V30.48H665.534V31.39H668.194V37.858H669.482V38.754H660.62V37.858H661.922V31.39H664.568V30.48H661.11V29.598ZM662.874 37.858H667.242V36.948H662.874V37.858ZM662.874 36.22H667.242V35.366H662.874V36.22ZM662.874 34.652H667.242V33.784H662.874V34.652ZM662.874 33.07H667.242V32.188H662.874V33.07ZM666.612 38.95C667.578 39.454 668.474 40.056 669.286 40.756L668.684 41.456C667.844 40.728 666.948 40.084 665.982 39.524L666.612 38.95ZM663.504 38.95L664.176 39.538C663.364 40.266 662.356 40.91 661.152 41.456L660.564 40.7C661.726 40.196 662.706 39.622 663.504 38.95ZM656.7 31.992H658.268V28.618H659.234V31.992H660.676V32.944H659.234V37.312C659.71 37.144 660.186 36.962 660.648 36.766V37.76C659.472 38.236 658.198 38.628 656.84 38.95L656.588 37.984C657.148 37.872 657.708 37.746 658.268 37.606V32.944H656.7V31.992ZM679.744 37.9C680.024 38.432 680.276 38.992 680.5 39.58L679.73 39.916C679.492 39.258 679.24 38.684 678.974 38.208L679.744 37.9ZM677.714 38.138C677.966 38.754 678.204 39.44 678.4 40.168L677.518 40.378C677.35 39.594 677.14 38.908 676.888 38.306L677.714 38.138ZM678.792 41.358L678.554 40.476C679.016 40.504 679.45 40.518 679.87 40.518C680.5 40.518 680.92 40.322 681.116 39.958C681.312 39.566 681.452 38.74 681.508 37.466H673.696C673.066 37.97 672.38 38.432 671.624 38.838L670.994 38.082C672.268 37.466 673.346 36.696 674.228 35.772H672.772V31.544C674.088 31.46 675.208 31.264 676.16 30.942L676.608 31.684C675.88 31.95 674.9 32.16 673.668 32.314V33.238H676.384V34.022H673.668V34.946H680.332V34.022H677.756V33.252H680.332V32.314H677.574V31.502H681.256V35.772H675.348C675.11 36.08 674.858 36.36 674.606 36.626H682.488C682.446 37.774 682.376 38.712 682.264 39.44C682.138 40.14 681.942 40.644 681.662 40.924C681.382 41.19 680.934 41.33 680.318 41.358H678.792ZM673.01 38.18L673.864 38.404C673.612 39.44 673.304 40.364 672.94 41.162L672.03 40.84C672.408 40.14 672.73 39.244 673.01 38.18ZM675.684 38.278C675.88 39.02 676.048 39.832 676.202 40.714L675.292 40.924C675.18 39.986 675.026 39.16 674.844 38.46L675.684 38.278ZM682.81 29.668V32.188H681.858V30.564H672.156V32.202H671.204V29.668H676.468C676.3 29.304 676.104 28.982 675.908 28.688L676.944 28.52C677.126 28.856 677.308 29.248 677.476 29.668H682.81ZM696.922 30.06V33.196H695.9V31.04H686.072V33.196H685.05V30.06H690.426C690.258 29.584 690.09 29.15 689.894 28.758L691.028 28.562C691.21 29.01 691.392 29.5 691.56 30.06H696.922ZM687.052 32.664H694.892V33.644H687.052V32.664ZM684.91 35.296H697.104V36.262H693.142V39.58C693.142 40 693.338 40.224 693.744 40.224H695.606C695.858 40.224 696.026 40.126 696.124 39.944C696.236 39.734 696.32 39.104 696.376 38.04L697.328 38.348C697.244 39.692 697.076 40.518 696.824 40.798C696.6 41.05 696.264 41.19 695.788 41.19H693.422C692.554 41.19 692.134 40.714 692.134 39.79V36.262H689.782V36.36C689.74 37.732 689.362 38.838 688.662 39.678C687.962 40.434 686.828 41.036 685.26 41.47L684.686 40.574C686.212 40.182 687.276 39.664 687.892 39.006C688.452 38.334 688.746 37.452 688.788 36.36V36.262H684.91V35.296ZM708.416 28.52C709.088 29.024 709.662 29.542 710.138 30.06L709.494 30.704H711.202V31.67H706.89C706.988 33.406 707.17 34.778 707.422 35.786C707.506 36.136 707.604 36.458 707.702 36.766C708.402 35.646 708.962 34.33 709.396 32.832L710.306 33.224C709.746 35.072 709.018 36.64 708.122 37.9C708.318 38.348 708.528 38.74 708.752 39.062C709.214 39.734 709.592 40.07 709.872 40.07C710.124 40.056 710.362 39.328 710.572 37.886L711.482 38.39C711.146 40.252 710.67 41.19 710.04 41.19C709.452 41.19 708.822 40.77 708.15 39.93C707.898 39.594 707.66 39.202 707.45 38.768C706.47 39.916 705.322 40.77 704.006 41.358L703.446 40.518C704.846 39.888 706.036 38.964 707.002 37.746C706.806 37.228 706.624 36.668 706.47 36.066C706.162 34.89 705.966 33.42 705.854 31.67H701.052V33.994H704.482C704.454 36.36 704.342 37.886 704.16 38.572C703.978 39.174 703.544 39.482 702.844 39.51C702.508 39.51 702.102 39.482 701.654 39.454L701.346 38.544C701.892 38.572 702.354 38.586 702.732 38.586C703.04 38.572 703.236 38.362 703.32 37.97C703.404 37.494 703.446 36.486 703.474 34.946H701.052V35.366C700.996 37.872 700.436 39.888 699.4 41.4L698.63 40.714C699.526 39.426 699.988 37.648 700.03 35.366V30.704H705.812C705.784 30.004 705.77 29.29 705.77 28.534H706.806C706.806 29.318 706.82 30.032 706.848 30.704H709.466C709.046 30.2 708.486 29.682 707.772 29.136L708.416 28.52Z" fill="#3690A4"/>
</svg>
