<svg width="390" height="36" viewBox="0 0 390 36" fill="none" xmlns="http://www.w3.org/2000/svg">
<path d="M36.192 3.184L36.972 3.544C36.672 4.468 36.3 5.332 35.844 6.148V14.2H34.98V7.492C34.596 8.032 34.164 8.548 33.708 9.028L33.432 8.128C34.704 6.688 35.616 5.044 36.192 3.184ZM44.136 3.664V14.188H43.356V13.48H38.052V14.188H37.272V3.664H44.136ZM38.052 12.712H43.356V4.42H38.052V12.712ZM38.604 6.364H40.344V4.996H41.1V6.364H42.828V7.108H41.1V8.512H42.348V11.908H39.12V8.512H40.344V7.108H38.604V6.364ZM41.664 11.236V9.184H39.804V11.236H41.664ZM51.432 3.22C51.432 4.252 51.396 5.14 51.348 5.884C52.02 9.148 53.76 11.644 56.556 13.36L55.992 14.116C53.544 12.508 51.888 10.348 51.036 7.636C50.316 10.252 48.612 12.412 45.948 14.128L45.42 13.36C48.72 11.332 50.424 8.584 50.532 5.128C50.544 4.312 50.556 3.676 50.556 3.22H51.432ZM57.96 4.096H60.084V3.184H60.924V4.096H65.064V3.184H65.904V4.096H68.028V4.828H65.904V8.8H68.208V9.568H65.712C66.288 10.288 67.188 10.852 68.388 11.26L68.04 12.004C66.552 11.38 65.496 10.564 64.872 9.568H61.104C60.48 10.564 59.472 11.392 58.08 12.04L57.636 11.308C58.824 10.852 59.7 10.276 60.276 9.568H57.78V8.8H60.084V4.828H57.96V4.096ZM60.924 8.8H65.064V7.936H60.924V8.8ZM60.924 7.252H65.064V6.4H60.924V7.252ZM60.924 5.716H65.064V4.828H60.924V5.716ZM62.58 9.988H63.42V10.948H65.856V11.716H63.42V12.988H67.536V13.792H58.38V12.988H62.58V11.716H60.12V10.948H62.58V9.988ZM69.864 5.404H74.556V3.232H75.444V5.404H80.124V6.232H76.212C77.016 8.14 78.456 9.844 80.52 11.344L79.932 12.088C77.82 10.36 76.356 8.404 75.54 6.232H75.444V10.912H78.012V11.74H75.444V14.2H74.556V11.74H72.084V10.912H74.556V6.232H74.472C73.584 8.668 72.072 10.672 69.936 12.244L69.444 11.44C71.46 10.096 72.9 8.356 73.788 6.232H69.864V5.404ZM85.704 3.16H86.556L82.308 14.2H81.444L85.704 3.16ZM38.892 24.268C38.412 25.36 37.8 26.272 37.056 27.016L36.504 26.308C37.632 25.132 38.4 23.536 38.796 21.532L39.672 21.688C39.54 22.312 39.384 22.888 39.204 23.428H41.772V21.292H42.648V23.428H46.596V24.268H42.648V27.04H46.356V27.88H42.648V30.928H47.364V31.792H36.792V30.928H41.772V27.88H38.244V27.04H41.772V24.268H38.892ZM52.992 21.676H58.86V27.22H56.364V28.636H59.064V29.452H56.364V31.012H59.508V31.84H52.284V31.012H55.5V29.452H52.788V28.636H55.5V27.22H52.992V21.676ZM58.032 26.452V24.832H56.364V26.452H58.032ZM55.5 26.452V24.832H53.82V26.452H55.5ZM53.82 24.076H55.5V22.444H53.82V24.076ZM56.364 22.444V24.076H58.032V22.444H56.364ZM48.756 25.648H50.064V22.804H48.588V21.988H52.416V22.804H50.952V25.648H52.272V26.476H50.952V29.2C51.408 29.044 51.84 28.876 52.272 28.684V29.524C51.168 29.98 49.98 30.364 48.708 30.676L48.492 29.848C49.02 29.752 49.548 29.632 50.064 29.488V26.476H48.756V25.648ZM66.036 22.6C65.664 23.104 65.196 23.548 64.644 23.944L64.164 23.308C65.04 22.72 65.64 22 65.952 21.148L66.744 21.244C66.66 21.46 66.576 21.676 66.48 21.88H70.776V22.492C70.464 23.116 70.116 23.644 69.732 24.076L69.132 23.608C69.408 23.32 69.66 22.984 69.888 22.6H66.036ZM60.96 21.892H63.912V22.636H60.96V21.892ZM60.72 24.052H64.164V24.808H60.72V24.052ZM67.44 22.816L68.184 22.96C68.136 23.152 68.076 23.332 68.004 23.5C68.868 24.376 69.984 24.904 71.328 25.072L70.98 25.792C69.672 25.588 68.568 25.024 67.668 24.1C67.092 24.892 66.168 25.408 64.896 25.66L64.488 25.036C66.144 24.736 67.128 23.992 67.44 22.816ZM62.136 25.696H69.888V30.448H62.136V25.696ZM69.036 29.752V28.984H62.988V29.752H69.036ZM62.988 28.396H69.036V27.7H62.988V28.396ZM62.988 27.112H69.036V26.368H62.988V27.112ZM67.284 30.556C68.664 30.796 69.996 31.132 71.268 31.576L70.98 32.26C69.708 31.78 68.364 31.42 66.972 31.156L67.284 30.556ZM64.548 30.52L64.98 31.084C64.092 31.564 62.808 31.96 61.128 32.248L60.732 31.576C62.412 31.3 63.684 30.952 64.548 30.52ZM73.464 22.192C73.704 22.912 73.92 23.74 74.112 24.676L73.428 24.868C73.248 24.016 73.02 23.2 72.744 22.42L73.464 22.192ZM76.464 22.012L77.196 22.108C77.124 23.116 76.956 24.004 76.68 24.784L76.02 24.568C76.26 23.824 76.416 22.972 76.464 22.012ZM72.816 25.432H74.664V21.184H75.504V25.432H77.244V26.26H75.504V32.164H74.664V26.26H72.816V25.432ZM81.408 21.22H82.236V28.072L83.388 27.892L83.52 28.732L82.236 28.924V32.188H81.408V29.056L77.796 29.608L77.664 28.768L81.408 28.192V21.22ZM78.78 22.12C79.62 22.72 80.316 23.308 80.88 23.884L80.316 24.448C79.812 23.896 79.116 23.296 78.228 22.66L78.78 22.12ZM78.468 24.94C79.296 25.564 79.992 26.176 80.556 26.788L79.98 27.364C79.476 26.764 78.792 26.14 77.904 25.48L78.468 24.94ZM76.644 26.92C76.908 27.736 77.148 28.684 77.364 29.752L76.704 29.92C76.536 28.936 76.32 28 76.068 27.1L76.644 26.92ZM73.488 26.968L74.124 27.136C73.872 28.384 73.56 29.476 73.188 30.412L72.54 30.184C72.9 29.344 73.224 28.264 73.488 26.968Z" fill="#B0B0B0"/>
<path d="M138 3.112L139.128 3.64C138.84 4.528 138.48 5.368 138.036 6.16V14.272H136.788V8.032C136.476 8.416 136.152 8.8 135.804 9.172L135.396 7.864C136.572 6.52 137.436 4.936 138 3.112ZM146.244 3.496V14.236H145.116V13.564H140.292V14.236H139.176V3.496H146.244ZM140.292 12.448H145.116V4.576H140.292V12.448ZM140.652 6.232H142.188V5.044H143.256V6.232H144.78V7.288H143.256V8.428H144.42V11.968H141.06V8.428H142.188V7.288H140.652V6.232ZM143.448 11.02V9.376H142.032V11.02H143.448ZM153.588 3.16C153.588 4.216 153.552 5.116 153.504 5.86C154.2 9.016 155.916 11.428 158.64 13.096L157.8 14.2C155.556 12.688 153.972 10.672 153.048 8.14C152.256 10.588 150.612 12.616 148.116 14.224L147.348 13.096C150.564 11.176 152.208 8.488 152.304 5.044C152.304 4.24 152.316 3.616 152.316 3.16H153.588ZM163.5 3.16H164.676L160.512 14.2H159.324L163.5 3.16ZM132.324 21.064C132.444 21.364 132.564 21.7 132.684 22.072H137.172V24.352H135.936V23.224H128.064V24.352H126.828V22.072H131.412C131.292 21.784 131.172 21.52 131.04 21.28L132.324 21.064ZM128.448 24.052H135.552V25.204H132.924C132.66 25.384 132.408 25.552 132.144 25.708C132.54 26.14 132.852 26.608 133.092 27.112C134.028 26.74 134.928 26.176 135.768 25.42L136.632 26.272C135.828 26.968 134.94 27.52 133.956 27.916C134.868 28.912 136.068 29.752 137.556 30.448L136.896 31.576C135.552 30.844 134.448 29.98 133.608 28.972C133.632 29.164 133.644 29.368 133.644 29.572C133.644 30.556 133.5 31.216 133.236 31.576C132.912 32.008 132.192 32.236 131.088 32.236H130.716L130.296 31.132H130.92C131.568 31.132 131.976 31.036 132.144 30.868C132.336 30.64 132.444 30.208 132.444 29.572C132.444 29.476 132.432 29.392 132.432 29.32C131.136 30.28 129.468 31.072 127.416 31.696L126.792 30.628C129.132 29.968 130.944 29.14 132.228 28.132C132.156 27.916 132.084 27.712 132 27.52C130.872 28.336 129.396 29.008 127.572 29.536L126.948 28.468C128.868 27.988 130.38 27.364 131.484 26.608C131.388 26.476 131.28 26.344 131.184 26.224C131.16 26.224 131.136 26.236 131.136 26.248C130.368 26.62 129.252 27.028 127.812 27.46L127.176 26.416C128.268 26.2 129.3 25.888 130.272 25.492C130.5 25.396 130.728 25.3 130.944 25.204H128.448V24.052ZM147.432 29.272C148.32 30.136 149.016 30.892 149.508 31.564L148.512 32.26C148.02 31.552 147.36 30.772 146.532 29.92L147.432 29.272ZM145.176 25.996C144.912 26.548 144.624 27.016 144.3 27.4H145.644C145.692 26.968 145.728 26.5 145.752 25.996H145.176ZM146.928 25.996C146.904 26.5 146.88 26.968 146.832 27.4H149.328V28.612H146.616C146.58 28.78 146.544 28.936 146.496 29.092C146.148 30.376 145.308 31.444 143.976 32.296L143.184 31.324C144.288 30.616 145.02 29.764 145.356 28.756C145.368 28.696 145.38 28.648 145.392 28.612H143.328V27.4H144.228L143.544 26.56C144.024 25.936 144.456 25.036 144.816 23.884L145.836 24.1C145.764 24.364 145.692 24.616 145.62 24.856H148.74V25.996H146.928ZM138.672 22.732H140.34C140.148 22.252 139.944 21.82 139.704 21.412L140.964 21.196C141.156 21.652 141.348 22.156 141.54 22.732H142.956V23.92H140.76V25.264H142.92C142.92 28.396 142.86 30.328 142.752 31.072C142.644 31.792 142.104 32.164 141.144 32.164C141.024 32.164 140.808 32.14 140.52 32.104L140.256 31.072C140.52 31.096 140.76 31.12 140.952 31.12C141.348 31.12 141.576 30.916 141.648 30.532C141.696 30.136 141.732 28.768 141.756 26.416H140.748C140.664 29.08 140.172 31.048 139.284 32.32L138.36 31.492C139.14 30.316 139.536 28.42 139.548 25.804V23.92H138.672V22.732ZM144.576 23.548C144.24 24.304 143.868 24.964 143.472 25.528L142.704 24.592C143.268 23.776 143.76 22.624 144.18 21.136L145.344 21.4C145.248 21.736 145.14 22.048 145.032 22.36H149.124V23.548H144.576ZM157.572 28.552C157.236 29.284 156.732 29.908 156.048 30.436L155.304 29.536C156.048 28.936 156.54 28.204 156.768 27.352L156.816 27.148H155.184V32.212H154.008V26.02H156.984C157.008 25.72 157.032 25.408 157.044 25.096H153.78V23.944H161.196V25.096H158.172C158.16 25.42 158.148 25.732 158.124 26.02H160.944V30.748C160.944 31.672 160.536 32.14 159.744 32.14H158.52L158.208 30.976L159.348 31.036C159.624 31.036 159.768 30.844 159.768 30.484V27.148H157.968C157.944 27.292 157.908 27.424 157.884 27.556C158.508 28.036 159.096 28.6 159.636 29.248L158.952 30.28C158.496 29.596 158.04 29.02 157.572 28.552ZM152.316 26.296C152.316 26.2 152.328 26.128 152.328 26.056V25.3L151.368 25.72C151.068 24.844 150.744 24.076 150.384 23.416L151.464 22.96C151.8 23.608 152.088 24.28 152.328 24.988V21.94H156.264C156.168 21.688 156.048 21.448 155.928 21.232L157.2 21.016C157.308 21.292 157.416 21.604 157.536 21.94H161.28V23.116H153.528V26.056C153.48 28.612 152.976 30.664 152.016 32.2L151.08 31.372C151.68 30.4 152.064 29.152 152.232 27.628C151.776 27.988 151.284 28.324 150.768 28.636L150.42 27.436C151.104 27.1 151.74 26.716 152.316 26.296ZM163.656 22.6H167.472V21.16H168.732V22.6H172.464V27.148H168.672C168.552 28.132 168.276 28.96 167.844 29.644C169.452 30.424 171.324 30.856 173.46 30.952L173.136 32.212C170.808 32.092 168.756 31.552 167.004 30.616C166.14 31.348 164.94 31.912 163.392 32.296L162.672 31.168C163.98 30.856 165.024 30.436 165.792 29.884C165.06 29.38 164.388 28.804 163.776 28.156L164.796 27.448C165.372 28.048 166.02 28.564 166.716 29.02C167.064 28.516 167.292 27.892 167.4 27.148H163.656V22.6ZM171.228 25.948V23.8H168.732V25.948H171.228ZM167.472 25.948V23.8H164.88V25.948H167.472Z" fill="#3690A4"/>
<path d="M218.112 9.244V10.228H220.356V9.244H218.112ZM220.356 8.536V7.552H218.112V8.536H220.356ZM218.172 5.44C217.752 5.872 217.308 6.28 216.852 6.664L216.384 6.028C217.332 5.248 218.196 4.336 218.964 3.304H219.54C220.332 3.964 221.088 4.672 221.832 5.416L221.28 6.004C220.524 5.212 219.864 4.576 219.3 4.12C218.952 4.564 218.592 4.984 218.232 5.38H220.512V6.076H218.172V5.44ZM217.272 13.972L217.02 13.288C217.212 13.228 217.32 13.12 217.32 12.964V6.832H221.136V10.972H218.112V13.06C218.928 12.832 219.66 12.604 220.284 12.376C220.128 12.064 219.972 11.776 219.816 11.512L220.512 11.296C220.872 11.92 221.208 12.568 221.496 13.264C222.432 12.532 223.056 11.644 223.392 10.6C223.68 9.604 223.824 8.332 223.824 6.796H224.604C224.604 7.504 224.568 8.164 224.508 8.764C225.072 10.78 226.068 12.376 227.496 13.552L226.932 14.212C225.756 13.156 224.88 11.836 224.28 10.276L224.172 10.72C223.8 12.124 222.948 13.276 221.616 14.176L221.148 13.588L220.872 13.72C220.776 13.468 220.68 13.24 220.584 13.024C219.612 13.384 218.508 13.696 217.272 13.972ZM222.912 3.148L223.716 3.28C223.632 3.928 223.524 4.54 223.404 5.092H227.052V5.644C226.872 6.676 226.632 7.696 226.344 8.704L225.516 8.464C225.78 7.72 226.008 6.868 226.176 5.92H223.2C222.912 6.916 222.54 7.732 222.084 8.356L221.424 7.888C222.192 6.748 222.684 5.164 222.912 3.148ZM233.712 3.244H234.312C235.8 4.66 237.504 5.776 239.436 6.592L239.016 7.336C237.744 6.784 236.592 6.124 235.572 5.356V5.92H232.476V5.38C231.468 6.148 230.292 6.832 228.972 7.444L228.564 6.688C230.628 5.764 232.344 4.612 233.712 3.244ZM232.68 5.224H235.404C234.9 4.84 234.432 4.444 234.012 4.024C233.592 4.444 233.148 4.84 232.68 5.224ZM231.768 9.148V10.132H236.352V9.148H231.768ZM236.352 8.404V7.42H231.768V8.404H236.352ZM237.888 10.648L238.608 11.02C238.128 11.572 237.612 12.076 237.06 12.508C237.756 12.856 238.404 13.216 238.992 13.588L238.452 14.248C237.228 13.408 235.644 12.616 233.724 11.884L234.228 11.284C234.972 11.572 235.68 11.86 236.352 12.172C236.916 11.704 237.432 11.2 237.888 10.648ZM230.76 14.212L230.532 13.516C230.784 13.444 230.916 13.228 230.916 12.892V6.652H237.204V10.9H231.768V13.276C232.716 13.096 233.616 12.88 234.48 12.628L234.648 13.36C233.604 13.684 232.308 13.972 230.76 14.212ZM250.104 8.908V14.212H249.276V13.672H243.24V14.212H242.412V8.908H245.448C245.616 8.596 245.736 8.272 245.832 7.936L246.636 8.044C246.552 8.356 246.432 8.644 246.288 8.908H250.104ZM243.24 12.868H249.276V11.692H243.24V12.868ZM243.24 10.924H249.276V9.7H243.24V10.924ZM244.716 5.8V4.24H241.32V3.532H245.532V7.48C245.532 8.056 245.208 8.344 244.572 8.344H243.552L243.372 7.648L244.416 7.672C244.608 7.672 244.716 7.516 244.716 7.228V6.496C243.684 7 242.52 7.456 241.2 7.888L240.996 7.132C242.352 6.748 243.588 6.304 244.716 5.8ZM241.644 4.72C242.364 4.864 243.072 5.056 243.744 5.308L243.504 5.92C242.796 5.668 242.064 5.476 241.32 5.332L241.644 4.72ZM249.672 5.812V4.24H246.156V3.532H250.488V7.516C250.488 8.044 250.152 8.32 249.492 8.32H248.532L248.352 7.624L249.336 7.648C249.552 7.648 249.672 7.516 249.672 7.264V6.484C248.688 6.964 247.56 7.42 246.312 7.828L246.108 7.072C247.404 6.712 248.592 6.292 249.672 5.812ZM246.564 4.708C247.296 4.852 247.992 5.068 248.664 5.344L248.412 5.956C247.716 5.68 246.984 5.464 246.24 5.32L246.564 4.708ZM257.376 3.424H262.752L262.632 4.948H263.316V5.644H262.572L262.452 7.132H256.968L257.136 5.644H256.356V4.948H257.208L257.376 3.424ZM257.784 6.484H259.404L259.5 5.644H257.88L257.784 6.484ZM260.256 5.644L260.16 6.484H261.72L261.804 5.644H260.256ZM257.964 4.948H259.584L259.68 4.072H258.072L257.964 4.948ZM260.448 4.072L260.34 4.948H261.864L261.948 4.072H260.448ZM256.908 7.708H262.74V12.28H256.908V7.708ZM261.924 11.608V10.924H257.724V11.608H261.924ZM257.724 10.324H261.924V9.664H257.724V10.324ZM257.724 9.052H261.924V8.38H257.724V9.052ZM260.892 12.364C261.828 12.712 262.692 13.132 263.496 13.624L263.004 14.188C262.164 13.684 261.276 13.24 260.328 12.868L260.892 12.364ZM258.804 12.316L259.368 12.808C258.6 13.348 257.64 13.828 256.512 14.236L256.056 13.636C257.136 13.264 258.06 12.82 258.804 12.316ZM252.864 5.512L253.548 5.572C253.512 6.772 253.392 7.9 253.176 8.968L252.468 8.764C252.696 7.732 252.828 6.652 252.864 5.512ZM255.78 5.236C256.092 6.016 256.38 6.904 256.62 7.912L255.924 8.08C255.708 7.168 255.456 6.28 255.144 5.44L255.78 5.236ZM254.112 3.232H254.976V14.152H254.112V3.232Z" fill="#3690A4"/>
<path d="M310.38 4.084H313.344V3.184H314.172V4.084H317.136V4.84H314.172V5.62H316.452V11.164H317.556V11.932H309.96V11.164H311.076V5.62H313.344V4.84H310.38V4.084ZM311.892 11.164H315.636V10.384H311.892V11.164ZM311.892 9.76H315.636V9.028H311.892V9.76ZM311.892 8.416H315.636V7.672H311.892V8.416ZM311.892 7.06H315.636V6.304H311.892V7.06ZM315.096 12.1C315.924 12.532 316.692 13.048 317.388 13.648L316.872 14.248C316.152 13.624 315.384 13.072 314.556 12.592L315.096 12.1ZM312.432 12.1L313.008 12.604C312.312 13.228 311.448 13.78 310.416 14.248L309.912 13.6C310.908 13.168 311.748 12.676 312.432 12.1ZM306.6 6.136H307.944V3.244H308.772V6.136H310.008V6.952H308.772V10.696C309.18 10.552 309.588 10.396 309.984 10.228V11.08C308.976 11.488 307.884 11.824 306.72 12.1L306.504 11.272C306.984 11.176 307.464 11.068 307.944 10.948V6.952H306.6V6.136ZM326.352 11.2C326.592 11.656 326.808 12.136 327 12.64L326.34 12.928C326.136 12.364 325.92 11.872 325.692 11.464L326.352 11.2ZM324.612 11.404C324.828 11.932 325.032 12.52 325.2 13.144L324.444 13.324C324.3 12.652 324.12 12.064 323.904 11.548L324.612 11.404ZM325.536 14.164L325.332 13.408C325.728 13.432 326.1 13.444 326.46 13.444C327 13.444 327.36 13.276 327.528 12.964C327.696 12.628 327.816 11.92 327.864 10.828H321.168C320.628 11.26 320.04 11.656 319.392 12.004L318.852 11.356C319.944 10.828 320.868 10.168 321.624 9.376H320.376V5.752C321.504 5.68 322.464 5.512 323.28 5.236L323.664 5.872C323.04 6.1 322.2 6.28 321.144 6.412V7.204H323.472V7.876H321.144V8.668H326.856V7.876H324.648V7.216H326.856V6.412H324.492V5.716H327.648V9.376H322.584C322.38 9.64 322.164 9.88 321.948 10.108H328.704C328.668 11.092 328.608 11.896 328.512 12.52C328.404 13.12 328.236 13.552 327.996 13.792C327.756 14.02 327.372 14.14 326.844 14.164H325.536ZM320.58 11.44L321.312 11.632C321.096 12.52 320.832 13.312 320.52 13.996L319.74 13.72C320.064 13.12 320.34 12.352 320.58 11.44ZM322.872 11.524C323.04 12.16 323.184 12.856 323.316 13.612L322.536 13.792C322.44 12.988 322.308 12.28 322.152 11.68L322.872 11.524ZM328.98 4.144V6.304H328.164V4.912H319.848V6.316H319.032V4.144H323.544C323.4 3.832 323.232 3.556 323.064 3.304L323.952 3.16C324.108 3.448 324.264 3.784 324.408 4.144H328.98ZM341.076 4.48V7.168H340.2V5.32H331.776V7.168H330.9V4.48H335.508C335.364 4.072 335.22 3.7 335.052 3.364L336.024 3.196C336.18 3.58 336.336 4 336.48 4.48H341.076ZM332.616 6.712H339.336V7.552H332.616V6.712ZM330.78 8.968H341.232V9.796H337.836V12.64C337.836 13 338.004 13.192 338.352 13.192H339.948C340.164 13.192 340.308 13.108 340.392 12.952C340.488 12.772 340.56 12.232 340.608 11.32L341.424 11.584C341.352 12.736 341.208 13.444 340.992 13.684C340.8 13.9 340.512 14.02 340.104 14.02H338.076C337.332 14.02 336.972 13.612 336.972 12.82V9.796H334.956V9.88C334.92 11.056 334.596 12.004 333.996 12.724C333.396 13.372 332.424 13.888 331.08 14.26L330.588 13.492C331.896 13.156 332.808 12.712 333.336 12.148C333.816 11.572 334.068 10.816 334.104 9.88V9.796H330.78V8.968ZM350.928 3.16C351.504 3.592 351.996 4.036 352.404 4.48L351.852 5.032H353.316V5.86H349.62C349.704 7.348 349.86 8.524 350.076 9.388C350.148 9.688 350.232 9.964 350.316 10.228C350.916 9.268 351.396 8.14 351.768 6.856L352.548 7.192C352.068 8.776 351.444 10.12 350.676 11.2C350.844 11.584 351.024 11.92 351.216 12.196C351.612 12.772 351.936 13.06 352.176 13.06C352.392 13.048 352.596 12.424 352.776 11.188L353.556 11.62C353.268 13.216 352.86 14.02 352.32 14.02C351.816 14.02 351.276 13.66 350.7 12.94C350.484 12.652 350.28 12.316 350.1 11.944C349.26 12.928 348.276 13.66 347.148 14.164L346.668 13.444C347.868 12.904 348.888 12.112 349.716 11.068C349.548 10.624 349.392 10.144 349.26 9.628C348.996 8.62 348.828 7.36 348.732 5.86H344.616V7.852H347.556C347.532 9.88 347.436 11.188 347.28 11.776C347.124 12.292 346.752 12.556 346.152 12.58C345.864 12.58 345.516 12.556 345.132 12.532L344.868 11.752C345.336 11.776 345.732 11.788 346.056 11.788C346.32 11.776 346.488 11.596 346.56 11.26C346.632 10.852 346.668 9.988 346.692 8.668H344.616V9.028C344.568 11.176 344.088 12.904 343.2 14.2L342.54 13.612C343.308 12.508 343.704 10.984 343.74 9.028V5.032H348.696C348.672 4.432 348.66 3.82 348.66 3.172H349.548C349.548 3.844 349.56 4.456 349.584 5.032H351.828C351.468 4.6 350.988 4.156 350.376 3.688L350.928 3.16Z" fill="#3690A4"/>
</svg>
