<svg width="390" height="20" viewBox="0 0 390 20" fill="none" xmlns="http://www.w3.org/2000/svg">
<rect x="50.5" y="0.5" width="19" height="19" rx="9.5" stroke="#B0B0B0"/>
<path d="M60.4104 5.504H61.3064V15.5H60.1584V6.904C59.5284 7.548 58.7444 7.996 57.8064 8.276V7.128C58.2544 7.002 58.7304 6.806 59.2064 6.526C59.6824 6.218 60.0744 5.882 60.4104 5.504Z" fill="#B0B0B0"/>
<rect x="74.5" y="7.5" width="61" height="5" stroke="#B0B0B0"/>
<rect x="140" width="20" height="20" rx="10" fill="#3690A4"/>
<path d="M150.143 5.308C151.067 5.308 151.823 5.574 152.425 6.106C153.013 6.638 153.321 7.352 153.321 8.22C153.321 9.088 152.985 9.872 152.341 10.572C151.991 10.936 151.305 11.482 150.269 12.182C148.995 13.036 148.267 13.806 148.085 14.478H153.335V15.5H146.671C146.671 14.59 146.993 13.764 147.665 13.022C148.057 12.574 148.771 11.972 149.835 11.244C150.619 10.684 151.137 10.278 151.403 9.998C151.907 9.452 152.173 8.85 152.173 8.206C152.173 7.59 151.991 7.128 151.627 6.792C151.263 6.456 150.745 6.288 150.101 6.288C149.415 6.288 148.883 6.512 148.519 6.988C148.127 7.436 147.917 8.108 147.903 8.99H146.755C146.755 7.87 147.077 6.974 147.693 6.316C148.309 5.644 149.135 5.308 150.143 5.308Z" fill="white"/>
<rect width="62" height="6" transform="translate(164 7)" fill="#3690A4"/>
<rect x="230.5" y="0.5" width="19" height="19" rx="9.5" stroke="#3690A4"/>
<path d="M240.101 5.308C241.053 5.308 241.837 5.546 242.425 6.036C242.999 6.526 243.293 7.184 243.293 8.024C243.293 9.144 242.747 9.9 241.655 10.264C242.243 10.446 242.691 10.726 242.999 11.118C243.335 11.51 243.503 12 243.503 12.588C243.503 13.498 243.181 14.24 242.551 14.814C241.907 15.402 241.067 15.696 240.031 15.696C239.079 15.696 238.309 15.444 237.707 14.968C236.993 14.38 236.601 13.526 236.517 12.406H237.679C237.707 13.19 237.973 13.792 238.463 14.198C238.883 14.534 239.401 14.716 240.031 14.716C240.745 14.716 241.319 14.506 241.753 14.1C242.145 13.708 242.355 13.218 242.355 12.63C242.355 12.028 242.159 11.566 241.767 11.23C241.375 10.894 240.843 10.74 240.143 10.74H239.331V9.844H240.101C240.773 9.844 241.277 9.69 241.627 9.396C241.977 9.088 242.159 8.654 242.159 8.094C242.159 7.534 241.977 7.1 241.641 6.792C241.277 6.456 240.759 6.302 240.115 6.302C239.443 6.302 238.925 6.47 238.547 6.834C238.155 7.198 237.931 7.716 237.861 8.388H236.727C236.811 7.422 237.175 6.666 237.791 6.12C238.379 5.574 239.149 5.308 240.101 5.308Z" fill="#3690A4"/>
<rect x="254.5" y="7.5" width="61" height="5" stroke="#3690A4"/>
<rect x="320.5" y="0.5" width="19" height="19" rx="9.5" stroke="#3690A4"/>
<path d="M325 9.53333L327.69 12.6579C328.077 13.108 328.769 13.1232 329.176 12.6907L335 6.5" stroke="#3690A4" stroke-linecap="round"/>
</svg>
