<svg width="744" height="45" viewBox="0 0 744 45" fill="none" xmlns="http://www.w3.org/2000/svg">
<rect x="50" width="20" height="20" rx="10" fill="#3690A4"/>
<path d="M60.4104 5.504H61.3064V15.5H60.1584V6.904C59.5284 7.548 58.7444 7.996 57.8064 8.276V7.128C58.2544 7.002 58.7304 6.806 59.2064 6.526C59.6824 6.218 60.0744 5.882 60.4104 5.504Z" fill="white"/>
<rect width="180" height="6" transform="translate(74 7)" fill="#3690A4"/>
<rect x="258.5" y="0.5" width="19" height="19" rx="9.5" stroke="#3690A4"/>
<path d="M268.143 5.308C269.067 5.308 269.823 5.574 270.425 6.106C271.013 6.638 271.321 7.352 271.321 8.22C271.321 9.088 270.985 9.872 270.341 10.572C269.991 10.936 269.305 11.482 268.269 12.182C266.995 13.036 266.267 13.806 266.085 14.478H271.335V15.5H264.671C264.671 14.59 264.993 13.764 265.665 13.022C266.057 12.574 266.771 11.972 267.835 11.244C268.619 10.684 269.137 10.278 269.403 9.998C269.907 9.452 270.173 8.85 270.173 8.206C270.173 7.59 269.991 7.128 269.627 6.792C269.263 6.456 268.745 6.288 268.101 6.288C267.415 6.288 266.883 6.512 266.519 6.988C266.127 7.436 265.917 8.108 265.903 8.99H264.755C264.755 7.87 265.077 6.974 265.693 6.316C266.309 5.644 267.135 5.308 268.143 5.308Z" fill="#3690A4"/>
<rect x="282.5" y="7.5" width="179" height="5" stroke="#3690A4"/>
<rect x="466.5" y="0.5" width="19" height="19" rx="9.5" stroke="#3690A4"/>
<path d="M476.101 5.308C477.053 5.308 477.837 5.546 478.425 6.036C478.999 6.526 479.293 7.184 479.293 8.024C479.293 9.144 478.747 9.9 477.655 10.264C478.243 10.446 478.691 10.726 478.999 11.118C479.335 11.51 479.503 12 479.503 12.588C479.503 13.498 479.181 14.24 478.551 14.814C477.907 15.402 477.067 15.696 476.031 15.696C475.079 15.696 474.309 15.444 473.707 14.968C472.993 14.38 472.601 13.526 472.517 12.406H473.679C473.707 13.19 473.973 13.792 474.463 14.198C474.883 14.534 475.401 14.716 476.031 14.716C476.745 14.716 477.319 14.506 477.753 14.1C478.145 13.708 478.355 13.218 478.355 12.63C478.355 12.028 478.159 11.566 477.767 11.23C477.375 10.894 476.843 10.74 476.143 10.74H475.331V9.844H476.101C476.773 9.844 477.277 9.69 477.627 9.396C477.977 9.088 478.159 8.654 478.159 8.094C478.159 7.534 477.977 7.1 477.641 6.792C477.277 6.456 476.759 6.302 476.115 6.302C475.443 6.302 474.925 6.47 474.547 6.834C474.155 7.198 473.931 7.716 473.861 8.388H472.727C472.811 7.422 473.175 6.666 473.791 6.12C474.379 5.574 475.149 5.308 476.101 5.308Z" fill="#3690A4"/>
<rect x="490.5" y="7.5" width="179" height="5" stroke="#3690A4"/>
<rect x="674.5" y="0.5" width="19" height="19" rx="9.5" stroke="#3690A4"/>
<path d="M679 9.53333L681.69 12.6579C682.077 13.108 682.769 13.1232 683.176 12.6907L689 6.5" stroke="#3690A4" stroke-linecap="round"/>
<path d="M4 28.464L5.316 29.08C4.98 30.116 4.56 31.096 4.042 32.02V41.484H2.586V34.204C2.222 34.652 1.844 35.1 1.438 35.534L0.962 34.008C2.334 32.44 3.342 30.592 4 28.464ZM13.618 28.912V41.442H12.302V40.658H6.674V41.442H5.372V28.912H13.618ZM6.674 39.356H12.302V30.172H6.674V39.356ZM7.094 32.104H8.886V30.718H10.132V32.104H11.91V33.336H10.132V34.666H11.49V38.796H7.57V34.666H8.886V33.336H7.094V32.104ZM10.356 37.69V35.772H8.704V37.69H10.356ZM22.186 28.52C22.186 29.752 22.144 30.802 22.088 31.67C22.9 35.352 24.902 38.166 28.08 40.112L27.1 41.4C24.482 39.636 22.634 37.284 21.556 34.33C20.632 37.186 18.714 39.552 15.802 41.428L14.906 40.112C18.658 37.872 20.576 34.736 20.688 30.718C20.688 29.78 20.702 29.052 20.702 28.52H22.186ZM29.564 29.416H31.874V28.492H33.302V29.416H37.684V28.492H39.112V29.416H41.422V30.634H39.112V34.918H41.632V36.178H39.07C39.714 36.822 40.638 37.326 41.842 37.704L41.24 38.964C40.302 38.558 39.518 38.096 38.888 37.564V38.698H36.214V39.664H40.848V41.008H30.054V39.664H34.786V38.698H32.084V37.578C31.468 38.082 30.754 38.53 29.928 38.936L29.186 37.704C30.39 37.284 31.3 36.78 31.916 36.178H29.354V34.918H31.874V30.634H29.564V29.416ZM32.266 37.41H34.786V36.486H36.214V37.41H38.706C38.258 37.018 37.894 36.598 37.614 36.178H33.372C33.064 36.612 32.7 37.018 32.266 37.41ZM33.302 34.918H37.684V34.26H33.302V34.918ZM33.302 33.14H37.684V32.468H33.302V33.14ZM33.302 31.348H37.684V30.634H33.302V31.348ZM43.438 30.914H48.758V28.534H50.242V30.914H55.548V32.328H51.334C52.258 34.386 53.826 36.22 56.038 37.83L55.044 39.09C52.762 37.088 51.166 34.848 50.242 32.37V37.34H53.084V38.754H50.242V41.47H48.758V38.754H46.028V37.34H48.758V32.37C47.75 35.184 46.098 37.48 43.774 39.272L42.92 37.9C45.076 36.444 46.644 34.582 47.652 32.328H43.438V30.914ZM61.75 28.52H63.122L58.264 41.4H56.878L61.75 28.52ZM67.042 32.328C66.496 33.56 65.796 34.61 64.942 35.45L63.976 34.232C65.236 32.916 66.076 31.152 66.51 28.926L68.008 29.206C67.882 29.808 67.742 30.382 67.574 30.914H70.01V28.618H71.48V30.914H75.918V32.328H71.48V35.072H75.652V36.486H71.48V39.538H76.828V40.994H64.368V39.538H70.01V36.486H66.062V35.072H70.01V32.328H67.042ZM83.156 28.94H90.324V35.73H87.482V37.018H90.492V38.376H87.482V39.678H90.968V41.092H82.47V39.678H86.026V38.376H83.002V37.018H86.026V35.73H83.156V28.94ZM88.924 34.442V32.958H87.482V34.442H88.924ZM86.026 34.442V32.958H84.556V34.442H86.026ZM84.556 31.712H86.026V30.228H84.556V31.712ZM87.482 30.228V31.712H88.924V30.228H87.482ZM78.354 33.532H79.684V30.676H78.144V29.29H82.694V30.676H81.168V33.532H82.526V34.932H81.168V37.578C81.616 37.424 82.05 37.256 82.484 37.074V38.488C81.196 38.992 79.824 39.412 78.368 39.762L78.004 38.362C78.578 38.264 79.138 38.152 79.684 38.012V34.932H78.354V33.532ZM98.654 30.382C98.22 30.942 97.688 31.446 97.072 31.894L96.274 30.844C97.254 30.186 97.912 29.374 98.262 28.394L99.606 28.562C99.522 28.786 99.452 28.982 99.368 29.178H104.226V30.186C103.862 30.928 103.456 31.544 103.022 32.034L102.042 31.236C102.28 30.984 102.504 30.704 102.714 30.382H98.654ZM92.592 29.192H96.092V30.424H92.592V29.192ZM92.312 31.712H96.386V32.958H92.312V31.712ZM99.998 30.452L101.23 30.704C101.174 30.886 101.118 31.068 101.062 31.236C102.07 32.132 103.302 32.65 104.772 32.818L104.184 34.036C103.82 33.98 103.484 33.896 103.176 33.812V39.524H100.81C102.168 39.748 103.47 40.042 104.702 40.406L104.226 41.568C102.742 41.05 101.174 40.658 99.55 40.378L99.984 39.524H96.834L97.394 40.266C96.358 40.798 94.874 41.232 92.942 41.568L92.284 40.434C93.95 40.182 95.252 39.888 96.204 39.524H93.838V33.658H97.254L96.722 32.818C98.57 32.496 99.662 31.712 99.998 30.452ZM98.22 33.658H102.742C101.902 33.322 101.146 32.846 100.502 32.202C99.956 32.874 99.2 33.35 98.22 33.658ZM101.748 38.376V37.76H95.266V38.376H101.748ZM95.266 36.836H101.748V36.276H95.266V36.836ZM95.266 35.338H101.748V34.75H95.266V35.338ZM107.432 29.654C107.67 30.494 107.894 31.474 108.09 32.566L106.97 32.874C106.774 31.894 106.522 30.942 106.228 30.046L107.432 29.654ZM110.526 29.514L111.744 29.682C111.66 30.844 111.478 31.88 111.184 32.776L110.106 32.426C110.33 31.586 110.47 30.606 110.526 29.514ZM106.41 33.28H108.384V28.492H109.812V33.28H111.632V34.694H109.812V41.414H108.384V34.694H106.41V33.28ZM116.252 28.534H117.666V36.332L118.8 36.164L119.038 37.564L117.666 37.774V41.442H116.252V37.984L112.234 38.586L112.024 37.186L116.252 36.542V28.534ZM113.536 29.486C114.488 30.172 115.3 30.844 115.944 31.516L114.978 32.468C114.418 31.824 113.62 31.138 112.598 30.396L113.536 29.486ZM113.186 32.776C114.11 33.504 114.894 34.218 115.538 34.932L114.558 35.884C114.026 35.198 113.242 34.456 112.234 33.672L113.186 32.776ZM111.128 35.184C111.422 36.136 111.688 37.228 111.912 38.46L110.82 38.74C110.652 37.606 110.442 36.528 110.19 35.492L111.128 35.184ZM107.012 35.24L108.062 35.52C107.782 36.976 107.46 38.264 107.068 39.37L106.004 38.992C106.396 38.012 106.732 36.752 107.012 35.24Z" fill="#3690A4"/>
<path d="M226.224 28.548L227.134 28.968C226.784 30.046 226.35 31.054 225.818 32.006V41.4H224.81V33.574C224.362 34.204 223.858 34.806 223.326 35.366L223.004 34.316C224.488 32.636 225.552 30.718 226.224 28.548ZM235.492 29.108V41.386H234.582V40.56H228.394V41.386H227.484V29.108H235.492ZM228.394 39.664H234.582V29.99H228.394V39.664ZM229.038 32.258H231.068V30.662H231.95V32.258H233.966V33.126H231.95V34.764H233.406V38.726H229.64V34.764H231.068V33.126H229.038V32.258ZM232.608 37.942V35.548H230.438V37.942H232.608ZM244.004 28.59C244.004 29.794 243.962 30.83 243.906 31.698C244.69 35.506 246.72 38.418 249.982 40.42L249.324 41.302C246.468 39.426 244.536 36.906 243.542 33.742C242.702 36.794 240.714 39.314 237.606 41.316L236.99 40.42C240.84 38.054 242.828 34.848 242.954 30.816C242.968 29.864 242.982 29.122 242.982 28.59H244.004ZM255.988 28.52H256.982L252.026 41.4H251.018L255.988 28.52ZM264.668 28.478C264.836 28.87 264.99 29.304 265.144 29.794H270.408V32.23H269.414V30.732H259.586V32.23H258.592V29.794H264.136C263.982 29.374 263.814 28.982 263.632 28.646L264.668 28.478ZM260.3 32.09H268.7V33.028H265.522C265.13 33.308 264.738 33.546 264.36 33.77C264.92 34.372 265.354 35.03 265.662 35.744C266.852 35.296 267.986 34.568 269.05 33.574L269.75 34.26C268.742 35.184 267.608 35.898 266.348 36.388C267.482 37.676 268.98 38.754 270.828 39.622L270.31 40.518C268.574 39.622 267.174 38.544 266.11 37.284C266.166 37.648 266.194 38.012 266.208 38.39C266.208 39.482 266.054 40.238 265.746 40.658C265.41 41.134 264.64 41.372 263.422 41.372H262.96L262.624 40.49H263.282C264.122 40.476 264.64 40.35 264.85 40.126C265.102 39.832 265.228 39.258 265.228 38.39C265.214 38.138 265.2 37.886 265.172 37.662C263.604 38.894 261.56 39.888 259.012 40.658L258.508 39.79C261.294 38.978 263.45 37.956 264.976 36.71C264.864 36.332 264.738 35.982 264.57 35.646C263.226 36.682 261.434 37.522 259.194 38.166L258.69 37.298C261.028 36.682 262.848 35.898 264.15 34.918C263.982 34.666 263.786 34.414 263.59 34.19C263.478 34.246 263.366 34.288 263.268 34.344C262.302 34.792 261.028 35.24 259.46 35.688L258.942 34.862C260.286 34.568 261.504 34.19 262.568 33.728C263.072 33.504 263.562 33.28 264.024 33.028H260.3V32.09ZM282.252 38.026C283.358 39.076 284.212 40 284.814 40.812L284.016 41.372C283.358 40.476 282.532 39.538 281.524 38.544L282.252 38.026ZM279.718 33.952C279.396 34.652 279.032 35.254 278.626 35.758L278.052 35.044C278.668 34.26 279.172 33.154 279.592 31.726L280.418 31.894C280.306 32.3 280.194 32.678 280.068 33.042H283.974V33.952H281.72C281.706 34.708 281.65 35.394 281.566 36.024H284.66V36.99H281.398C281.342 37.242 281.272 37.494 281.216 37.718C280.782 39.23 279.788 40.462 278.248 41.428L277.618 40.644C278.948 39.818 279.83 38.782 280.264 37.522C280.32 37.34 280.362 37.158 280.418 36.99H277.786V36.024H280.614C280.698 35.38 280.754 34.694 280.768 33.952H279.718ZM272.34 30.592H274.58C274.328 29.934 274.048 29.332 273.74 28.786L274.762 28.618C275.042 29.192 275.294 29.85 275.532 30.592H277.212V31.558H274.496V33.532H277.03C277.03 37.06 276.96 39.244 276.82 40.056C276.708 40.882 276.134 41.302 275.112 41.302C274.972 41.302 274.748 41.288 274.412 41.26L274.202 40.42C274.496 40.448 274.748 40.462 274.972 40.462C275.504 40.462 275.812 40.21 275.924 39.706C276.022 39.146 276.078 37.41 276.092 34.47H274.496C274.412 37.634 273.852 39.958 272.788 41.456L272.046 40.798C273.012 39.37 273.502 37.088 273.53 33.938V31.558H272.34V30.592ZM278.99 31.096C278.598 32.02 278.164 32.846 277.674 33.56L277.044 32.818C277.786 31.726 278.388 30.298 278.85 28.534L279.788 28.744C279.648 29.234 279.508 29.696 279.354 30.13H284.422V31.096H278.99ZM294.25 36.822C293.858 37.774 293.228 38.586 292.36 39.23L291.758 38.502C292.668 37.802 293.27 36.92 293.578 35.856L293.704 35.31H291.282V41.358H290.33V34.386H293.83C293.886 33.924 293.914 33.434 293.928 32.902H289.966V31.978H298.506V32.902H294.852C294.838 33.434 294.81 33.924 294.768 34.386H298.114V39.902C298.114 40.812 297.694 41.274 296.868 41.274H295.426L295.174 40.322L296.532 40.364C296.952 40.364 297.162 40.14 297.162 39.692V35.31H294.642C294.586 35.548 294.544 35.786 294.502 36.01C295.286 36.64 296.014 37.368 296.672 38.208L296.126 39.048C295.496 38.138 294.866 37.396 294.25 36.822ZM288.412 34.568C288.412 34.442 288.426 34.316 288.426 34.204V29.64H293.116C292.962 29.262 292.794 28.912 292.612 28.59L293.634 28.422C293.802 28.786 293.97 29.192 294.138 29.64H298.604V30.592H289.406V34.204C289.35 37.158 288.748 39.524 287.6 41.302L286.844 40.644C287.67 39.384 288.174 37.718 288.342 35.66C287.754 36.15 287.096 36.612 286.368 37.032L286.088 36.066C286.942 35.632 287.712 35.128 288.412 34.568ZM286.956 30.718C287.432 31.558 287.838 32.44 288.174 33.392L287.306 33.742C286.942 32.734 286.536 31.838 286.088 31.082L286.956 30.718ZM301.544 30.368H306.108V28.59H307.13V30.368H311.596V35.24H307.074C306.934 36.584 306.556 37.69 305.912 38.558C307.872 39.622 310.182 40.224 312.842 40.35L312.576 41.344C309.762 41.19 307.312 40.518 305.226 39.314C304.19 40.238 302.734 40.938 300.872 41.414L300.298 40.518C302.006 40.084 303.336 39.482 304.302 38.726C303.378 38.096 302.538 37.368 301.782 36.528L302.594 35.954C303.322 36.766 304.12 37.452 305.016 38.026C305.576 37.312 305.912 36.388 306.038 35.24H301.544V30.368ZM310.602 34.274V31.334H307.13V34.274H310.602ZM306.108 34.274V31.334H302.538V34.274H306.108Z" fill="#3690A4"/>
<path d="M450.464 35.618V36.766H453.082V35.618H450.464ZM453.082 34.792V33.644H450.464V34.792H453.082ZM450.534 31.18C450.044 31.684 449.526 32.16 448.994 32.608L448.448 31.866C449.554 30.956 450.562 29.892 451.458 28.688H452.13C453.054 29.458 453.936 30.284 454.804 31.152L454.16 31.838C453.278 30.914 452.508 30.172 451.85 29.64C451.444 30.158 451.024 30.648 450.604 31.11H453.264V31.922H450.534V31.18ZM449.484 41.134L449.19 40.336C449.414 40.266 449.54 40.14 449.54 39.958V32.804H453.992V37.634H450.464V40.07C451.416 39.804 452.27 39.538 452.998 39.272C452.816 38.908 452.634 38.572 452.452 38.264L453.264 38.012C453.684 38.74 454.076 39.496 454.412 40.308C455.504 39.454 456.232 38.418 456.624 37.2C456.96 36.038 457.128 34.554 457.128 32.762H458.038C458.038 33.588 457.996 34.358 457.926 35.058C458.584 37.41 459.746 39.272 461.412 40.644L460.754 41.414C459.382 40.182 458.36 38.642 457.66 36.822L457.534 37.34C457.1 38.978 456.106 40.322 454.552 41.372L454.006 40.686L453.684 40.84C453.572 40.546 453.46 40.28 453.348 40.028C452.214 40.448 450.926 40.812 449.484 41.134ZM456.064 28.506L457.002 28.66C456.904 29.416 456.778 30.13 456.638 30.774H460.894V31.418C460.684 32.622 460.404 33.812 460.068 34.988L459.102 34.708C459.41 33.84 459.676 32.846 459.872 31.74H456.4C456.064 32.902 455.63 33.854 455.098 34.582L454.328 34.036C455.224 32.706 455.798 30.858 456.064 28.506ZM468.664 28.618H469.364C471.1 30.27 473.088 31.572 475.342 32.524L474.852 33.392C473.368 32.748 472.024 31.978 470.834 31.082V31.74H467.222V31.11C466.046 32.006 464.674 32.804 463.134 33.518L462.658 32.636C465.066 31.558 467.068 30.214 468.664 28.618ZM467.46 30.928H470.638C470.05 30.48 469.504 30.018 469.014 29.528C468.524 30.018 468.006 30.48 467.46 30.928ZM466.396 35.506V36.654H471.744V35.506H466.396ZM471.744 34.638V33.49H466.396V34.638H471.744ZM473.536 37.256L474.376 37.69C473.816 38.334 473.214 38.922 472.57 39.426C473.382 39.832 474.138 40.252 474.824 40.686L474.194 41.456C472.766 40.476 470.918 39.552 468.678 38.698L469.266 37.998C470.134 38.334 470.96 38.67 471.744 39.034C472.402 38.488 473.004 37.9 473.536 37.256ZM465.22 41.414L464.954 40.602C465.248 40.518 465.402 40.266 465.402 39.874V32.594H472.738V37.55H466.396V40.322C467.502 40.112 468.552 39.86 469.56 39.566L469.756 40.42C468.538 40.798 467.026 41.134 465.22 41.414ZM487.788 35.226V41.414H486.822V40.784H479.78V41.414H478.814V35.226H482.356C482.552 34.862 482.692 34.484 482.804 34.092L483.742 34.218C483.644 34.582 483.504 34.918 483.336 35.226H487.788ZM479.78 39.846H486.822V38.474H479.78V39.846ZM479.78 37.578H486.822V36.15H479.78V37.578ZM481.502 31.6V29.78H477.54V28.954H482.454V33.56C482.454 34.232 482.076 34.568 481.334 34.568H480.144L479.934 33.756L481.152 33.784C481.376 33.784 481.502 33.602 481.502 33.266V32.412C480.298 33 478.94 33.532 477.4 34.036L477.162 33.154C478.744 32.706 480.186 32.188 481.502 31.6ZM477.918 30.34C478.758 30.508 479.584 30.732 480.368 31.026L480.088 31.74C479.262 31.446 478.408 31.222 477.54 31.054L477.918 30.34ZM487.284 31.614V29.78H483.182V28.954H488.236V33.602C488.236 34.218 487.844 34.54 487.074 34.54H485.954L485.744 33.728L486.892 33.756C487.144 33.756 487.284 33.602 487.284 33.308V32.398C486.136 32.958 484.82 33.49 483.364 33.966L483.126 33.084C484.638 32.664 486.024 32.174 487.284 31.614ZM483.658 30.326C484.512 30.494 485.324 30.746 486.108 31.068L485.814 31.782C485.002 31.46 484.148 31.208 483.28 31.04L483.658 30.326ZM496.272 28.828H502.544L502.404 30.606H503.202V31.418H502.334L502.194 33.154H495.796L495.992 31.418H495.082V30.606H496.076L496.272 28.828ZM496.748 32.398H498.638L498.75 31.418H496.86L496.748 32.398ZM499.632 31.418L499.52 32.398H501.34L501.438 31.418H499.632ZM496.958 30.606H498.848L498.96 29.584H497.084L496.958 30.606ZM499.856 29.584L499.73 30.606H501.508L501.606 29.584H499.856ZM495.726 33.826H502.53V39.16H495.726V33.826ZM501.578 38.376V37.578H496.678V38.376H501.578ZM496.678 36.878H501.578V36.108H496.678V36.878ZM496.678 35.394H501.578V34.61H496.678V35.394ZM500.374 39.258C501.466 39.664 502.474 40.154 503.412 40.728L502.838 41.386C501.858 40.798 500.822 40.28 499.716 39.846L500.374 39.258ZM497.938 39.202L498.596 39.776C497.7 40.406 496.58 40.966 495.264 41.442L494.732 40.742C495.992 40.308 497.07 39.79 497.938 39.202ZM491.008 31.264L491.806 31.334C491.764 32.734 491.624 34.05 491.372 35.296L490.546 35.058C490.812 33.854 490.966 32.594 491.008 31.264ZM494.41 30.942C494.774 31.852 495.11 32.888 495.39 34.064L494.578 34.26C494.326 33.196 494.032 32.16 493.668 31.18L494.41 30.942ZM492.464 28.604H493.472V41.344H492.464V28.604Z" fill="#3690A4"/>
<path d="M661.11 29.598H664.568V28.548H665.534V29.598H668.992V30.48H665.534V31.39H668.194V37.858H669.482V38.754H660.62V37.858H661.922V31.39H664.568V30.48H661.11V29.598ZM662.874 37.858H667.242V36.948H662.874V37.858ZM662.874 36.22H667.242V35.366H662.874V36.22ZM662.874 34.652H667.242V33.784H662.874V34.652ZM662.874 33.07H667.242V32.188H662.874V33.07ZM666.612 38.95C667.578 39.454 668.474 40.056 669.286 40.756L668.684 41.456C667.844 40.728 666.948 40.084 665.982 39.524L666.612 38.95ZM663.504 38.95L664.176 39.538C663.364 40.266 662.356 40.91 661.152 41.456L660.564 40.7C661.726 40.196 662.706 39.622 663.504 38.95ZM656.7 31.992H658.268V28.618H659.234V31.992H660.676V32.944H659.234V37.312C659.71 37.144 660.186 36.962 660.648 36.766V37.76C659.472 38.236 658.198 38.628 656.84 38.95L656.588 37.984C657.148 37.872 657.708 37.746 658.268 37.606V32.944H656.7V31.992ZM679.744 37.9C680.024 38.432 680.276 38.992 680.5 39.58L679.73 39.916C679.492 39.258 679.24 38.684 678.974 38.208L679.744 37.9ZM677.714 38.138C677.966 38.754 678.204 39.44 678.4 40.168L677.518 40.378C677.35 39.594 677.14 38.908 676.888 38.306L677.714 38.138ZM678.792 41.358L678.554 40.476C679.016 40.504 679.45 40.518 679.87 40.518C680.5 40.518 680.92 40.322 681.116 39.958C681.312 39.566 681.452 38.74 681.508 37.466H673.696C673.066 37.97 672.38 38.432 671.624 38.838L670.994 38.082C672.268 37.466 673.346 36.696 674.228 35.772H672.772V31.544C674.088 31.46 675.208 31.264 676.16 30.942L676.608 31.684C675.88 31.95 674.9 32.16 673.668 32.314V33.238H676.384V34.022H673.668V34.946H680.332V34.022H677.756V33.252H680.332V32.314H677.574V31.502H681.256V35.772H675.348C675.11 36.08 674.858 36.36 674.606 36.626H682.488C682.446 37.774 682.376 38.712 682.264 39.44C682.138 40.14 681.942 40.644 681.662 40.924C681.382 41.19 680.934 41.33 680.318 41.358H678.792ZM673.01 38.18L673.864 38.404C673.612 39.44 673.304 40.364 672.94 41.162L672.03 40.84C672.408 40.14 672.73 39.244 673.01 38.18ZM675.684 38.278C675.88 39.02 676.048 39.832 676.202 40.714L675.292 40.924C675.18 39.986 675.026 39.16 674.844 38.46L675.684 38.278ZM682.81 29.668V32.188H681.858V30.564H672.156V32.202H671.204V29.668H676.468C676.3 29.304 676.104 28.982 675.908 28.688L676.944 28.52C677.126 28.856 677.308 29.248 677.476 29.668H682.81ZM696.922 30.06V33.196H695.9V31.04H686.072V33.196H685.05V30.06H690.426C690.258 29.584 690.09 29.15 689.894 28.758L691.028 28.562C691.21 29.01 691.392 29.5 691.56 30.06H696.922ZM687.052 32.664H694.892V33.644H687.052V32.664ZM684.91 35.296H697.104V36.262H693.142V39.58C693.142 40 693.338 40.224 693.744 40.224H695.606C695.858 40.224 696.026 40.126 696.124 39.944C696.236 39.734 696.32 39.104 696.376 38.04L697.328 38.348C697.244 39.692 697.076 40.518 696.824 40.798C696.6 41.05 696.264 41.19 695.788 41.19H693.422C692.554 41.19 692.134 40.714 692.134 39.79V36.262H689.782V36.36C689.74 37.732 689.362 38.838 688.662 39.678C687.962 40.434 686.828 41.036 685.26 41.47L684.686 40.574C686.212 40.182 687.276 39.664 687.892 39.006C688.452 38.334 688.746 37.452 688.788 36.36V36.262H684.91V35.296ZM708.416 28.52C709.088 29.024 709.662 29.542 710.138 30.06L709.494 30.704H711.202V31.67H706.89C706.988 33.406 707.17 34.778 707.422 35.786C707.506 36.136 707.604 36.458 707.702 36.766C708.402 35.646 708.962 34.33 709.396 32.832L710.306 33.224C709.746 35.072 709.018 36.64 708.122 37.9C708.318 38.348 708.528 38.74 708.752 39.062C709.214 39.734 709.592 40.07 709.872 40.07C710.124 40.056 710.362 39.328 710.572 37.886L711.482 38.39C711.146 40.252 710.67 41.19 710.04 41.19C709.452 41.19 708.822 40.77 708.15 39.93C707.898 39.594 707.66 39.202 707.45 38.768C706.47 39.916 705.322 40.77 704.006 41.358L703.446 40.518C704.846 39.888 706.036 38.964 707.002 37.746C706.806 37.228 706.624 36.668 706.47 36.066C706.162 34.89 705.966 33.42 705.854 31.67H701.052V33.994H704.482C704.454 36.36 704.342 37.886 704.16 38.572C703.978 39.174 703.544 39.482 702.844 39.51C702.508 39.51 702.102 39.482 701.654 39.454L701.346 38.544C701.892 38.572 702.354 38.586 702.732 38.586C703.04 38.572 703.236 38.362 703.32 37.97C703.404 37.494 703.446 36.486 703.474 34.946H701.052V35.366C700.996 37.872 700.436 39.888 699.4 41.4L698.63 40.714C699.526 39.426 699.988 37.648 700.03 35.366V30.704H705.812C705.784 30.004 705.77 29.29 705.77 28.534H706.806C706.806 29.318 706.82 30.032 706.848 30.704H709.466C709.046 30.2 708.486 29.682 707.772 29.136L708.416 28.52Z" fill="#3690A4"/>
</svg>
