<svg width="744" height="45" viewBox="0 0 744 45" fill="none" xmlns="http://www.w3.org/2000/svg">
<rect x="50.5" y="0.5" width="19" height="19" rx="9.5" stroke="#B0B0B0"/>
<path d="M60.4104 5.504H61.3064V15.5H60.1584V6.904C59.5284 7.548 58.7444 7.996 57.8064 8.276V7.128C58.2544 7.002 58.7304 6.806 59.2064 6.526C59.6824 6.218 60.0744 5.882 60.4104 5.504Z" fill="#B0B0B0"/>
<rect x="74.5" y="7.5" width="179" height="5" stroke="#B0B0B0"/>
<rect x="258.5" y="0.5" width="19" height="19" rx="9.5" stroke="#B0B0B0"/>
<path d="M268.143 5.308C269.067 5.308 269.823 5.574 270.425 6.106C271.013 6.638 271.321 7.352 271.321 8.22C271.321 9.088 270.985 9.872 270.341 10.572C269.991 10.936 269.305 11.482 268.269 12.182C266.995 13.036 266.267 13.806 266.085 14.478H271.335V15.5H264.671C264.671 14.59 264.993 13.764 265.665 13.022C266.057 12.574 266.771 11.972 267.835 11.244C268.619 10.684 269.137 10.278 269.403 9.998C269.907 9.452 270.173 8.85 270.173 8.206C270.173 7.59 269.991 7.128 269.627 6.792C269.263 6.456 268.745 6.288 268.101 6.288C267.415 6.288 266.883 6.512 266.519 6.988C266.127 7.436 265.917 8.108 265.903 8.99H264.755C264.755 7.87 265.077 6.974 265.693 6.316C266.309 5.644 267.135 5.308 268.143 5.308Z" fill="#B0B0B0"/>
<rect x="282.5" y="7.5" width="179" height="5" stroke="#B0B0B0"/>
<rect x="466.5" y="0.5" width="19" height="19" rx="9.5" stroke="#B0B0B0"/>
<path d="M476.101 5.308C477.053 5.308 477.837 5.546 478.425 6.036C478.999 6.526 479.293 7.184 479.293 8.024C479.293 9.144 478.747 9.9 477.655 10.264C478.243 10.446 478.691 10.726 478.999 11.118C479.335 11.51 479.503 12 479.503 12.588C479.503 13.498 479.181 14.24 478.551 14.814C477.907 15.402 477.067 15.696 476.031 15.696C475.079 15.696 474.309 15.444 473.707 14.968C472.993 14.38 472.601 13.526 472.517 12.406H473.679C473.707 13.19 473.973 13.792 474.463 14.198C474.883 14.534 475.401 14.716 476.031 14.716C476.745 14.716 477.319 14.506 477.753 14.1C478.145 13.708 478.355 13.218 478.355 12.63C478.355 12.028 478.159 11.566 477.767 11.23C477.375 10.894 476.843 10.74 476.143 10.74H475.331V9.844H476.101C476.773 9.844 477.277 9.69 477.627 9.396C477.977 9.088 478.159 8.654 478.159 8.094C478.159 7.534 477.977 7.1 477.641 6.792C477.277 6.456 476.759 6.302 476.115 6.302C475.443 6.302 474.925 6.47 474.547 6.834C474.155 7.198 473.931 7.716 473.861 8.388H472.727C472.811 7.422 473.175 6.666 473.791 6.12C474.379 5.574 475.149 5.308 476.101 5.308Z" fill="#B0B0B0"/>
<rect x="490.5" y="7.5" width="179" height="5" stroke="#B0B0B0"/>
<rect x="674" width="20" height="20" rx="10" fill="#3690A4"/>
<path d="M679 9.53333L681.69 12.6579C682.077 13.108 682.769 13.1232 683.176 12.6907L689 6.5" stroke="white" stroke-linecap="round"/>
<path d="M4.224 28.548L5.134 28.968C4.784 30.046 4.35 31.054 3.818 32.006V41.4H2.81V33.574C2.362 34.204 1.858 34.806 1.326 35.366L1.004 34.316C2.488 32.636 3.552 30.718 4.224 28.548ZM13.492 29.108V41.386H12.582V40.56H6.394V41.386H5.484V29.108H13.492ZM6.394 39.664H12.582V29.99H6.394V39.664ZM7.038 32.258H9.068V30.662H9.95V32.258H11.966V33.126H9.95V34.764H11.406V38.726H7.64V34.764H9.068V33.126H7.038V32.258ZM10.608 37.942V35.548H8.438V37.942H10.608ZM22.004 28.59C22.004 29.794 21.962 30.83 21.906 31.698C22.69 35.506 24.72 38.418 27.982 40.42L27.324 41.302C24.468 39.426 22.536 36.906 21.542 33.742C20.702 36.794 18.714 39.314 15.606 41.316L14.99 40.42C18.84 38.054 20.828 34.848 20.954 30.816C20.968 29.864 20.982 29.122 20.982 28.59H22.004ZM29.62 29.612H32.098V28.548H33.078V29.612H37.908V28.548H38.888V29.612H41.366V30.466H38.888V35.1H41.576V35.996H38.664C39.336 36.836 40.386 37.494 41.786 37.97L41.38 38.838C39.644 38.11 38.412 37.158 37.684 35.996H33.288C32.56 37.158 31.384 38.124 29.76 38.88L29.242 38.026C30.628 37.494 31.65 36.822 32.322 35.996H29.41V35.1H32.098V30.466H29.62V29.612ZM33.078 35.1H37.908V34.092H33.078V35.1ZM33.078 33.294H37.908V32.3H33.078V33.294ZM33.078 31.502H37.908V30.466H33.078V31.502ZM35.01 36.486H35.99V37.606H38.832V38.502H35.99V39.986H40.792V40.924H30.11V39.986H35.01V38.502H32.14V37.606H35.01V36.486ZM43.508 31.138H48.982V28.604H50.018V31.138H55.478V32.104H50.914C51.852 34.33 53.532 36.318 55.94 38.068L55.254 38.936C52.79 36.92 51.082 34.638 50.13 32.104H50.018V37.564H53.014V38.53H50.018V41.4H48.982V38.53H46.098V37.564H48.982V32.104H48.884C47.848 34.946 46.084 37.284 43.592 39.118L43.018 38.18C45.37 36.612 47.05 34.582 48.086 32.104H43.508V31.138ZM61.988 28.52H62.982L58.026 41.4H57.018L61.988 28.52ZM66.874 32.146C66.314 33.42 65.6 34.484 64.732 35.352L64.088 34.526C65.404 33.154 66.3 31.292 66.762 28.954L67.784 29.136C67.63 29.864 67.448 30.536 67.238 31.166H70.234V28.674H71.256V31.166H75.862V32.146H71.256V35.38H75.582V36.36H71.256V39.916H76.758V40.924H64.424V39.916H70.234V36.36H66.118V35.38H70.234V32.146H66.874ZM83.324 29.122H90.17V35.59H87.258V37.242H90.408V38.194H87.258V40.014H90.926V40.98H82.498V40.014H86.25V38.194H83.086V37.242H86.25V35.59H83.324V29.122ZM89.204 34.694V32.804H87.258V34.694H89.204ZM86.25 34.694V32.804H84.29V34.694H86.25ZM84.29 31.922H86.25V30.018H84.29V31.922ZM87.258 30.018V31.922H89.204V30.018H87.258ZM78.382 33.756H79.908V30.438H78.186V29.486H82.652V30.438H80.944V33.756H82.484V34.722H80.944V37.9C81.476 37.718 81.98 37.522 82.484 37.298V38.278C81.196 38.81 79.81 39.258 78.326 39.622L78.074 38.656C78.69 38.544 79.306 38.404 79.908 38.236V34.722H78.382V33.756ZM98.542 30.2C98.108 30.788 97.562 31.306 96.918 31.768L96.358 31.026C97.38 30.34 98.08 29.5 98.444 28.506L99.368 28.618C99.27 28.87 99.172 29.122 99.06 29.36H104.072V30.074C103.708 30.802 103.302 31.418 102.854 31.922L102.154 31.376C102.476 31.04 102.77 30.648 103.036 30.2H98.542ZM92.62 29.374H96.064V30.242H92.62V29.374ZM92.34 31.894H96.358V32.776H92.34V31.894ZM100.18 30.452L101.048 30.62C100.992 30.844 100.922 31.054 100.838 31.25C101.846 32.272 103.148 32.888 104.716 33.084L104.31 33.924C102.784 33.686 101.496 33.028 100.446 31.95C99.774 32.874 98.696 33.476 97.212 33.77L96.736 33.042C98.668 32.692 99.816 31.824 100.18 30.452ZM93.992 33.812H103.036V39.356H93.992V33.812ZM102.042 38.544V37.648H94.986V38.544H102.042ZM94.986 36.962H102.042V36.15H94.986V36.962ZM94.986 35.464H102.042V34.596H94.986V35.464ZM99.998 39.482C101.608 39.762 103.162 40.154 104.646 40.672L104.31 41.47C102.826 40.91 101.258 40.49 99.634 40.182L99.998 39.482ZM96.806 39.44L97.31 40.098C96.274 40.658 94.776 41.12 92.816 41.456L92.354 40.672C94.314 40.35 95.798 39.944 96.806 39.44ZM107.208 29.724C107.488 30.564 107.74 31.53 107.964 32.622L107.166 32.846C106.956 31.852 106.69 30.9 106.368 29.99L107.208 29.724ZM110.708 29.514L111.562 29.626C111.478 30.802 111.282 31.838 110.96 32.748L110.19 32.496C110.47 31.628 110.652 30.634 110.708 29.514ZM106.452 33.504H108.608V28.548H109.588V33.504H111.618V34.47H109.588V41.358H108.608V34.47H106.452V33.504ZM116.476 28.59H117.442V36.584L118.786 36.374L118.94 37.354L117.442 37.578V41.386H116.476V37.732L112.262 38.376L112.108 37.396L116.476 36.724V28.59ZM113.41 29.64C114.39 30.34 115.202 31.026 115.86 31.698L115.202 32.356C114.614 31.712 113.802 31.012 112.766 30.27L113.41 29.64ZM113.046 32.93C114.012 33.658 114.824 34.372 115.482 35.086L114.81 35.758C114.222 35.058 113.424 34.33 112.388 33.56L113.046 32.93ZM110.918 35.24C111.226 36.192 111.506 37.298 111.758 38.544L110.988 38.74C110.792 37.592 110.54 36.5 110.246 35.45L110.918 35.24ZM107.236 35.296L107.978 35.492C107.684 36.948 107.32 38.222 106.886 39.314L106.13 39.048C106.55 38.068 106.928 36.808 107.236 35.296Z" fill="#B0B0B0"/>
<path d="M226.224 28.548L227.134 28.968C226.784 30.046 226.35 31.054 225.818 32.006V41.4H224.81V33.574C224.362 34.204 223.858 34.806 223.326 35.366L223.004 34.316C224.488 32.636 225.552 30.718 226.224 28.548ZM235.492 29.108V41.386H234.582V40.56H228.394V41.386H227.484V29.108H235.492ZM228.394 39.664H234.582V29.99H228.394V39.664ZM229.038 32.258H231.068V30.662H231.95V32.258H233.966V33.126H231.95V34.764H233.406V38.726H229.64V34.764H231.068V33.126H229.038V32.258ZM232.608 37.942V35.548H230.438V37.942H232.608ZM244.004 28.59C244.004 29.794 243.962 30.83 243.906 31.698C244.69 35.506 246.72 38.418 249.982 40.42L249.324 41.302C246.468 39.426 244.536 36.906 243.542 33.742C242.702 36.794 240.714 39.314 237.606 41.316L236.99 40.42C240.84 38.054 242.828 34.848 242.954 30.816C242.968 29.864 242.982 29.122 242.982 28.59H244.004ZM255.988 28.52H256.982L252.026 41.4H251.018L255.988 28.52ZM264.668 28.478C264.836 28.87 264.99 29.304 265.144 29.794H270.408V32.23H269.414V30.732H259.586V32.23H258.592V29.794H264.136C263.982 29.374 263.814 28.982 263.632 28.646L264.668 28.478ZM260.3 32.09H268.7V33.028H265.522C265.13 33.308 264.738 33.546 264.36 33.77C264.92 34.372 265.354 35.03 265.662 35.744C266.852 35.296 267.986 34.568 269.05 33.574L269.75 34.26C268.742 35.184 267.608 35.898 266.348 36.388C267.482 37.676 268.98 38.754 270.828 39.622L270.31 40.518C268.574 39.622 267.174 38.544 266.11 37.284C266.166 37.648 266.194 38.012 266.208 38.39C266.208 39.482 266.054 40.238 265.746 40.658C265.41 41.134 264.64 41.372 263.422 41.372H262.96L262.624 40.49H263.282C264.122 40.476 264.64 40.35 264.85 40.126C265.102 39.832 265.228 39.258 265.228 38.39C265.214 38.138 265.2 37.886 265.172 37.662C263.604 38.894 261.56 39.888 259.012 40.658L258.508 39.79C261.294 38.978 263.45 37.956 264.976 36.71C264.864 36.332 264.738 35.982 264.57 35.646C263.226 36.682 261.434 37.522 259.194 38.166L258.69 37.298C261.028 36.682 262.848 35.898 264.15 34.918C263.982 34.666 263.786 34.414 263.59 34.19C263.478 34.246 263.366 34.288 263.268 34.344C262.302 34.792 261.028 35.24 259.46 35.688L258.942 34.862C260.286 34.568 261.504 34.19 262.568 33.728C263.072 33.504 263.562 33.28 264.024 33.028H260.3V32.09ZM282.252 38.026C283.358 39.076 284.212 40 284.814 40.812L284.016 41.372C283.358 40.476 282.532 39.538 281.524 38.544L282.252 38.026ZM279.718 33.952C279.396 34.652 279.032 35.254 278.626 35.758L278.052 35.044C278.668 34.26 279.172 33.154 279.592 31.726L280.418 31.894C280.306 32.3 280.194 32.678 280.068 33.042H283.974V33.952H281.72C281.706 34.708 281.65 35.394 281.566 36.024H284.66V36.99H281.398C281.342 37.242 281.272 37.494 281.216 37.718C280.782 39.23 279.788 40.462 278.248 41.428L277.618 40.644C278.948 39.818 279.83 38.782 280.264 37.522C280.32 37.34 280.362 37.158 280.418 36.99H277.786V36.024H280.614C280.698 35.38 280.754 34.694 280.768 33.952H279.718ZM272.34 30.592H274.58C274.328 29.934 274.048 29.332 273.74 28.786L274.762 28.618C275.042 29.192 275.294 29.85 275.532 30.592H277.212V31.558H274.496V33.532H277.03C277.03 37.06 276.96 39.244 276.82 40.056C276.708 40.882 276.134 41.302 275.112 41.302C274.972 41.302 274.748 41.288 274.412 41.26L274.202 40.42C274.496 40.448 274.748 40.462 274.972 40.462C275.504 40.462 275.812 40.21 275.924 39.706C276.022 39.146 276.078 37.41 276.092 34.47H274.496C274.412 37.634 273.852 39.958 272.788 41.456L272.046 40.798C273.012 39.37 273.502 37.088 273.53 33.938V31.558H272.34V30.592ZM278.99 31.096C278.598 32.02 278.164 32.846 277.674 33.56L277.044 32.818C277.786 31.726 278.388 30.298 278.85 28.534L279.788 28.744C279.648 29.234 279.508 29.696 279.354 30.13H284.422V31.096H278.99ZM294.25 36.822C293.858 37.774 293.228 38.586 292.36 39.23L291.758 38.502C292.668 37.802 293.27 36.92 293.578 35.856L293.704 35.31H291.282V41.358H290.33V34.386H293.83C293.886 33.924 293.914 33.434 293.928 32.902H289.966V31.978H298.506V32.902H294.852C294.838 33.434 294.81 33.924 294.768 34.386H298.114V39.902C298.114 40.812 297.694 41.274 296.868 41.274H295.426L295.174 40.322L296.532 40.364C296.952 40.364 297.162 40.14 297.162 39.692V35.31H294.642C294.586 35.548 294.544 35.786 294.502 36.01C295.286 36.64 296.014 37.368 296.672 38.208L296.126 39.048C295.496 38.138 294.866 37.396 294.25 36.822ZM288.412 34.568C288.412 34.442 288.426 34.316 288.426 34.204V29.64H293.116C292.962 29.262 292.794 28.912 292.612 28.59L293.634 28.422C293.802 28.786 293.97 29.192 294.138 29.64H298.604V30.592H289.406V34.204C289.35 37.158 288.748 39.524 287.6 41.302L286.844 40.644C287.67 39.384 288.174 37.718 288.342 35.66C287.754 36.15 287.096 36.612 286.368 37.032L286.088 36.066C286.942 35.632 287.712 35.128 288.412 34.568ZM286.956 30.718C287.432 31.558 287.838 32.44 288.174 33.392L287.306 33.742C286.942 32.734 286.536 31.838 286.088 31.082L286.956 30.718ZM301.544 30.368H306.108V28.59H307.13V30.368H311.596V35.24H307.074C306.934 36.584 306.556 37.69 305.912 38.558C307.872 39.622 310.182 40.224 312.842 40.35L312.576 41.344C309.762 41.19 307.312 40.518 305.226 39.314C304.19 40.238 302.734 40.938 300.872 41.414L300.298 40.518C302.006 40.084 303.336 39.482 304.302 38.726C303.378 38.096 302.538 37.368 301.782 36.528L302.594 35.954C303.322 36.766 304.12 37.452 305.016 38.026C305.576 37.312 305.912 36.388 306.038 35.24H301.544V30.368ZM310.602 34.274V31.334H307.13V34.274H310.602ZM306.108 34.274V31.334H302.538V34.274H306.108Z" fill="#B0B0B0"/>
<path d="M450.464 35.618V36.766H453.082V35.618H450.464ZM453.082 34.792V33.644H450.464V34.792H453.082ZM450.534 31.18C450.044 31.684 449.526 32.16 448.994 32.608L448.448 31.866C449.554 30.956 450.562 29.892 451.458 28.688H452.13C453.054 29.458 453.936 30.284 454.804 31.152L454.16 31.838C453.278 30.914 452.508 30.172 451.85 29.64C451.444 30.158 451.024 30.648 450.604 31.11H453.264V31.922H450.534V31.18ZM449.484 41.134L449.19 40.336C449.414 40.266 449.54 40.14 449.54 39.958V32.804H453.992V37.634H450.464V40.07C451.416 39.804 452.27 39.538 452.998 39.272C452.816 38.908 452.634 38.572 452.452 38.264L453.264 38.012C453.684 38.74 454.076 39.496 454.412 40.308C455.504 39.454 456.232 38.418 456.624 37.2C456.96 36.038 457.128 34.554 457.128 32.762H458.038C458.038 33.588 457.996 34.358 457.926 35.058C458.584 37.41 459.746 39.272 461.412 40.644L460.754 41.414C459.382 40.182 458.36 38.642 457.66 36.822L457.534 37.34C457.1 38.978 456.106 40.322 454.552 41.372L454.006 40.686L453.684 40.84C453.572 40.546 453.46 40.28 453.348 40.028C452.214 40.448 450.926 40.812 449.484 41.134ZM456.064 28.506L457.002 28.66C456.904 29.416 456.778 30.13 456.638 30.774H460.894V31.418C460.684 32.622 460.404 33.812 460.068 34.988L459.102 34.708C459.41 33.84 459.676 32.846 459.872 31.74H456.4C456.064 32.902 455.63 33.854 455.098 34.582L454.328 34.036C455.224 32.706 455.798 30.858 456.064 28.506ZM468.664 28.618H469.364C471.1 30.27 473.088 31.572 475.342 32.524L474.852 33.392C473.368 32.748 472.024 31.978 470.834 31.082V31.74H467.222V31.11C466.046 32.006 464.674 32.804 463.134 33.518L462.658 32.636C465.066 31.558 467.068 30.214 468.664 28.618ZM467.46 30.928H470.638C470.05 30.48 469.504 30.018 469.014 29.528C468.524 30.018 468.006 30.48 467.46 30.928ZM466.396 35.506V36.654H471.744V35.506H466.396ZM471.744 34.638V33.49H466.396V34.638H471.744ZM473.536 37.256L474.376 37.69C473.816 38.334 473.214 38.922 472.57 39.426C473.382 39.832 474.138 40.252 474.824 40.686L474.194 41.456C472.766 40.476 470.918 39.552 468.678 38.698L469.266 37.998C470.134 38.334 470.96 38.67 471.744 39.034C472.402 38.488 473.004 37.9 473.536 37.256ZM465.22 41.414L464.954 40.602C465.248 40.518 465.402 40.266 465.402 39.874V32.594H472.738V37.55H466.396V40.322C467.502 40.112 468.552 39.86 469.56 39.566L469.756 40.42C468.538 40.798 467.026 41.134 465.22 41.414ZM487.788 35.226V41.414H486.822V40.784H479.78V41.414H478.814V35.226H482.356C482.552 34.862 482.692 34.484 482.804 34.092L483.742 34.218C483.644 34.582 483.504 34.918 483.336 35.226H487.788ZM479.78 39.846H486.822V38.474H479.78V39.846ZM479.78 37.578H486.822V36.15H479.78V37.578ZM481.502 31.6V29.78H477.54V28.954H482.454V33.56C482.454 34.232 482.076 34.568 481.334 34.568H480.144L479.934 33.756L481.152 33.784C481.376 33.784 481.502 33.602 481.502 33.266V32.412C480.298 33 478.94 33.532 477.4 34.036L477.162 33.154C478.744 32.706 480.186 32.188 481.502 31.6ZM477.918 30.34C478.758 30.508 479.584 30.732 480.368 31.026L480.088 31.74C479.262 31.446 478.408 31.222 477.54 31.054L477.918 30.34ZM487.284 31.614V29.78H483.182V28.954H488.236V33.602C488.236 34.218 487.844 34.54 487.074 34.54H485.954L485.744 33.728L486.892 33.756C487.144 33.756 487.284 33.602 487.284 33.308V32.398C486.136 32.958 484.82 33.49 483.364 33.966L483.126 33.084C484.638 32.664 486.024 32.174 487.284 31.614ZM483.658 30.326C484.512 30.494 485.324 30.746 486.108 31.068L485.814 31.782C485.002 31.46 484.148 31.208 483.28 31.04L483.658 30.326ZM496.272 28.828H502.544L502.404 30.606H503.202V31.418H502.334L502.194 33.154H495.796L495.992 31.418H495.082V30.606H496.076L496.272 28.828ZM496.748 32.398H498.638L498.75 31.418H496.86L496.748 32.398ZM499.632 31.418L499.52 32.398H501.34L501.438 31.418H499.632ZM496.958 30.606H498.848L498.96 29.584H497.084L496.958 30.606ZM499.856 29.584L499.73 30.606H501.508L501.606 29.584H499.856ZM495.726 33.826H502.53V39.16H495.726V33.826ZM501.578 38.376V37.578H496.678V38.376H501.578ZM496.678 36.878H501.578V36.108H496.678V36.878ZM496.678 35.394H501.578V34.61H496.678V35.394ZM500.374 39.258C501.466 39.664 502.474 40.154 503.412 40.728L502.838 41.386C501.858 40.798 500.822 40.28 499.716 39.846L500.374 39.258ZM497.938 39.202L498.596 39.776C497.7 40.406 496.58 40.966 495.264 41.442L494.732 40.742C495.992 40.308 497.07 39.79 497.938 39.202ZM491.008 31.264L491.806 31.334C491.764 32.734 491.624 34.05 491.372 35.296L490.546 35.058C490.812 33.854 490.966 32.594 491.008 31.264ZM494.41 30.942C494.774 31.852 495.11 32.888 495.39 34.064L494.578 34.26C494.326 33.196 494.032 32.16 493.668 31.18L494.41 30.942ZM492.464 28.604H493.472V41.344H492.464V28.604Z" fill="#B0B0B0"/>
<path d="M661.054 29.388H664.344V28.464H665.758V29.388H669.048V30.634H665.758V31.25H668.348V37.634H669.538V38.922H666.92C667.802 39.384 668.628 39.93 669.398 40.546L668.516 41.568C667.69 40.826 666.808 40.182 665.856 39.636L666.626 38.922H663.476L664.302 39.65C663.49 40.378 662.496 41.022 661.306 41.568L660.452 40.476C661.516 40.028 662.426 39.51 663.182 38.922H660.564V37.942C659.388 38.404 658.156 38.796 656.854 39.118L656.49 37.704C657.008 37.62 657.526 37.508 658.044 37.368V33.154H656.644V31.782H658.044V28.562H659.458V31.782H660.732V33.154H659.458V36.948C659.878 36.794 660.284 36.626 660.676 36.458V37.634H661.768V31.25H664.344V30.634H661.054V29.388ZM663.14 37.634H666.976V37.032H663.14V37.634ZM663.14 36.038H666.976V35.478H663.14V36.038ZM663.14 34.484H666.976V33.924H663.14V34.484ZM663.14 32.93H666.976V32.37H663.14V32.93ZM679.926 37.844C680.192 38.348 680.43 38.88 680.626 39.44L679.52 39.916C679.31 39.3 679.086 38.754 678.848 38.292L679.926 37.844ZM677.896 38.124C678.148 38.712 678.358 39.342 678.554 40.042L677.308 40.336C677.154 39.594 676.958 38.936 676.72 38.362L677.896 38.124ZM678.792 41.414L678.442 40.154C678.946 40.182 679.436 40.196 679.898 40.196C680.402 40.196 680.738 40.042 680.892 39.734C681.06 39.426 681.158 38.74 681.214 37.676H673.724C673.486 37.858 673.248 38.026 673.024 38.18L674.018 38.446C673.794 39.482 673.5 40.406 673.15 41.204L671.834 40.728C672.184 40.084 672.492 39.3 672.744 38.362C672.422 38.558 672.086 38.754 671.75 38.936L670.868 37.858C671.974 37.382 672.968 36.724 673.864 35.898H672.646V31.488C673.962 31.446 675.124 31.264 676.118 30.942L676.734 32.02C676.09 32.244 675.152 32.426 673.948 32.594V33.098H676.454V34.19H673.948V34.75H680.052V34.204H677.742V33.112H680.052V32.538H677.532V31.404H681.368V35.898H675.53C675.362 36.094 675.194 36.29 675.026 36.472H682.628C682.586 37.676 682.516 38.642 682.418 39.398C682.292 40.126 682.096 40.644 681.83 40.952C681.55 41.232 681.116 41.386 680.528 41.414H678.792ZM675.838 38.25C676.034 38.978 676.202 39.762 676.37 40.602L675.068 40.91C674.956 40 674.816 39.202 674.648 38.516L675.838 38.25ZM682.964 29.458V32.188H681.592V30.746H672.422V32.202H671.05V29.458H676.104C675.95 29.178 675.782 28.926 675.614 28.688L677.126 28.436C677.294 28.744 677.448 29.08 677.602 29.458H682.964ZM697.048 29.836V33.21H695.578V31.25H686.394V33.21H684.924V29.836H690.09C689.95 29.444 689.796 29.094 689.628 28.772L691.294 28.492C691.448 28.898 691.602 29.346 691.742 29.836H697.048ZM686.982 32.482H694.962V33.882H686.982V32.482ZM684.854 35.072H697.16V36.486H693.394V39.258C693.394 39.678 693.562 39.888 693.898 39.888H695.62C695.76 39.888 695.858 39.79 695.928 39.608C695.984 39.426 696.04 38.852 696.068 37.9L697.454 38.334C697.356 39.762 697.188 40.616 696.936 40.882C696.712 41.134 696.362 41.274 695.9 41.274H693.45C692.442 41.274 691.938 40.7 691.938 39.552V36.486H689.936C689.866 37.858 689.474 38.964 688.774 39.79C688.088 40.546 686.982 41.148 685.442 41.568L684.602 40.252C686.1 39.874 687.108 39.412 687.626 38.852C688.144 38.236 688.424 37.452 688.48 36.486H684.854V35.072ZM708.626 28.38C709.256 28.856 709.788 29.346 710.236 29.836L709.592 30.494H711.258V31.88H707.142C707.254 33.504 707.422 34.764 707.646 35.632C707.688 35.828 707.744 36.01 707.8 36.206C708.36 35.226 708.822 34.092 709.186 32.832L710.516 33.406C709.97 35.184 709.27 36.696 708.416 37.942C708.542 38.222 708.682 38.474 708.822 38.684C709.214 39.286 709.522 39.594 709.732 39.594C709.872 39.594 710.04 38.922 710.222 37.578L711.538 38.292C711.174 40.266 710.656 41.26 709.956 41.26C709.34 41.26 708.696 40.84 708.01 40.014C707.814 39.762 707.618 39.482 707.45 39.174C706.526 40.182 705.462 40.952 704.258 41.484L703.418 40.252C704.734 39.664 705.854 38.81 706.778 37.69C706.582 37.2 706.414 36.668 706.26 36.094C705.952 34.974 705.756 33.56 705.644 31.88H701.276V33.826H704.706C704.664 36.43 704.524 38.054 704.286 38.698C704.062 39.286 703.572 39.58 702.816 39.594C702.48 39.594 702.102 39.566 701.682 39.524L701.234 38.194C701.794 38.236 702.256 38.264 702.648 38.264C702.872 38.25 703.026 38.11 703.096 37.83C703.18 37.508 703.222 36.626 703.25 35.198H701.276C701.206 37.802 700.632 39.888 699.554 41.47L698.448 40.476C699.316 39.202 699.764 37.424 699.806 35.156V30.494H705.574C705.546 29.85 705.546 29.164 705.546 28.464H707.03C707.03 29.178 707.044 29.85 707.072 30.494H709.046C708.696 30.102 708.248 29.682 707.702 29.262L708.626 28.38Z" fill="#3690A4"/>
</svg>
