<svg width="390" height="36" viewBox="0 0 390 36" fill="none" xmlns="http://www.w3.org/2000/svg">
<path d="M36.192 3.184L36.972 3.544C36.672 4.468 36.3 5.332 35.844 6.148V14.2H34.98V7.492C34.596 8.032 34.164 8.548 33.708 9.028L33.432 8.128C34.704 6.688 35.616 5.044 36.192 3.184ZM44.136 3.664V14.188H43.356V13.48H38.052V14.188H37.272V3.664H44.136ZM38.052 12.712H43.356V4.42H38.052V12.712ZM38.604 6.364H40.344V4.996H41.1V6.364H42.828V7.108H41.1V8.512H42.348V11.908H39.12V8.512H40.344V7.108H38.604V6.364ZM41.664 11.236V9.184H39.804V11.236H41.664ZM51.432 3.22C51.432 4.252 51.396 5.14 51.348 5.884C52.02 9.148 53.76 11.644 56.556 13.36L55.992 14.116C53.544 12.508 51.888 10.348 51.036 7.636C50.316 10.252 48.612 12.412 45.948 14.128L45.42 13.36C48.72 11.332 50.424 8.584 50.532 5.128C50.544 4.312 50.556 3.676 50.556 3.22H51.432ZM57.96 4.096H60.084V3.184H60.924V4.096H65.064V3.184H65.904V4.096H68.028V4.828H65.904V8.8H68.208V9.568H65.712C66.288 10.288 67.188 10.852 68.388 11.26L68.04 12.004C66.552 11.38 65.496 10.564 64.872 9.568H61.104C60.48 10.564 59.472 11.392 58.08 12.04L57.636 11.308C58.824 10.852 59.7 10.276 60.276 9.568H57.78V8.8H60.084V4.828H57.96V4.096ZM60.924 8.8H65.064V7.936H60.924V8.8ZM60.924 7.252H65.064V6.4H60.924V7.252ZM60.924 5.716H65.064V4.828H60.924V5.716ZM62.58 9.988H63.42V10.948H65.856V11.716H63.42V12.988H67.536V13.792H58.38V12.988H62.58V11.716H60.12V10.948H62.58V9.988ZM69.864 5.404H74.556V3.232H75.444V5.404H80.124V6.232H76.212C77.016 8.14 78.456 9.844 80.52 11.344L79.932 12.088C77.82 10.36 76.356 8.404 75.54 6.232H75.444V10.912H78.012V11.74H75.444V14.2H74.556V11.74H72.084V10.912H74.556V6.232H74.472C73.584 8.668 72.072 10.672 69.936 12.244L69.444 11.44C71.46 10.096 72.9 8.356 73.788 6.232H69.864V5.404ZM85.704 3.16H86.556L82.308 14.2H81.444L85.704 3.16ZM38.892 24.268C38.412 25.36 37.8 26.272 37.056 27.016L36.504 26.308C37.632 25.132 38.4 23.536 38.796 21.532L39.672 21.688C39.54 22.312 39.384 22.888 39.204 23.428H41.772V21.292H42.648V23.428H46.596V24.268H42.648V27.04H46.356V27.88H42.648V30.928H47.364V31.792H36.792V30.928H41.772V27.88H38.244V27.04H41.772V24.268H38.892ZM52.992 21.676H58.86V27.22H56.364V28.636H59.064V29.452H56.364V31.012H59.508V31.84H52.284V31.012H55.5V29.452H52.788V28.636H55.5V27.22H52.992V21.676ZM58.032 26.452V24.832H56.364V26.452H58.032ZM55.5 26.452V24.832H53.82V26.452H55.5ZM53.82 24.076H55.5V22.444H53.82V24.076ZM56.364 22.444V24.076H58.032V22.444H56.364ZM48.756 25.648H50.064V22.804H48.588V21.988H52.416V22.804H50.952V25.648H52.272V26.476H50.952V29.2C51.408 29.044 51.84 28.876 52.272 28.684V29.524C51.168 29.98 49.98 30.364 48.708 30.676L48.492 29.848C49.02 29.752 49.548 29.632 50.064 29.488V26.476H48.756V25.648ZM66.036 22.6C65.664 23.104 65.196 23.548 64.644 23.944L64.164 23.308C65.04 22.72 65.64 22 65.952 21.148L66.744 21.244C66.66 21.46 66.576 21.676 66.48 21.88H70.776V22.492C70.464 23.116 70.116 23.644 69.732 24.076L69.132 23.608C69.408 23.32 69.66 22.984 69.888 22.6H66.036ZM60.96 21.892H63.912V22.636H60.96V21.892ZM60.72 24.052H64.164V24.808H60.72V24.052ZM67.44 22.816L68.184 22.96C68.136 23.152 68.076 23.332 68.004 23.5C68.868 24.376 69.984 24.904 71.328 25.072L70.98 25.792C69.672 25.588 68.568 25.024 67.668 24.1C67.092 24.892 66.168 25.408 64.896 25.66L64.488 25.036C66.144 24.736 67.128 23.992 67.44 22.816ZM62.136 25.696H69.888V30.448H62.136V25.696ZM69.036 29.752V28.984H62.988V29.752H69.036ZM62.988 28.396H69.036V27.7H62.988V28.396ZM62.988 27.112H69.036V26.368H62.988V27.112ZM67.284 30.556C68.664 30.796 69.996 31.132 71.268 31.576L70.98 32.26C69.708 31.78 68.364 31.42 66.972 31.156L67.284 30.556ZM64.548 30.52L64.98 31.084C64.092 31.564 62.808 31.96 61.128 32.248L60.732 31.576C62.412 31.3 63.684 30.952 64.548 30.52ZM73.464 22.192C73.704 22.912 73.92 23.74 74.112 24.676L73.428 24.868C73.248 24.016 73.02 23.2 72.744 22.42L73.464 22.192ZM76.464 22.012L77.196 22.108C77.124 23.116 76.956 24.004 76.68 24.784L76.02 24.568C76.26 23.824 76.416 22.972 76.464 22.012ZM72.816 25.432H74.664V21.184H75.504V25.432H77.244V26.26H75.504V32.164H74.664V26.26H72.816V25.432ZM81.408 21.22H82.236V28.072L83.388 27.892L83.52 28.732L82.236 28.924V32.188H81.408V29.056L77.796 29.608L77.664 28.768L81.408 28.192V21.22ZM78.78 22.12C79.62 22.72 80.316 23.308 80.88 23.884L80.316 24.448C79.812 23.896 79.116 23.296 78.228 22.66L78.78 22.12ZM78.468 24.94C79.296 25.564 79.992 26.176 80.556 26.788L79.98 27.364C79.476 26.764 78.792 26.14 77.904 25.48L78.468 24.94ZM76.644 26.92C76.908 27.736 77.148 28.684 77.364 29.752L76.704 29.92C76.536 28.936 76.32 28 76.068 27.1L76.644 26.92ZM73.488 26.968L74.124 27.136C73.872 28.384 73.56 29.476 73.188 30.412L72.54 30.184C72.9 29.344 73.224 28.264 73.488 26.968Z" fill="#B0B0B0"/>
<path d="M138.192 3.184L138.972 3.544C138.672 4.468 138.3 5.332 137.844 6.148V14.2H136.98V7.492C136.596 8.032 136.164 8.548 135.708 9.028L135.432 8.128C136.704 6.688 137.616 5.044 138.192 3.184ZM146.136 3.664V14.188H145.356V13.48H140.052V14.188H139.272V3.664H146.136ZM140.052 12.712H145.356V4.42H140.052V12.712ZM140.604 6.364H142.344V4.996H143.1V6.364H144.828V7.108H143.1V8.512H144.348V11.908H141.12V8.512H142.344V7.108H140.604V6.364ZM143.664 11.236V9.184H141.804V11.236H143.664ZM153.432 3.22C153.432 4.252 153.396 5.14 153.348 5.884C154.02 9.148 155.76 11.644 158.556 13.36L157.992 14.116C155.544 12.508 153.888 10.348 153.036 7.636C152.316 10.252 150.612 12.412 147.948 14.128L147.42 13.36C150.72 11.332 152.424 8.584 152.532 5.128C152.544 4.312 152.556 3.676 152.556 3.22H153.432ZM163.704 3.16H164.556L160.308 14.2H159.444L163.704 3.16ZM132.144 21.124C132.288 21.46 132.42 21.832 132.552 22.252H137.064V24.34H136.212V23.056H127.788V24.34H126.936V22.252H131.688C131.556 21.892 131.412 21.556 131.256 21.268L132.144 21.124ZM128.4 24.22H135.6V25.024H132.876C132.54 25.264 132.204 25.468 131.88 25.66C132.36 26.176 132.732 26.74 132.996 27.352C134.016 26.968 134.988 26.344 135.9 25.492L136.5 26.08C135.636 26.872 134.664 27.484 133.584 27.904C134.556 29.008 135.84 29.932 137.424 30.676L136.98 31.444C135.492 30.676 134.292 29.752 133.38 28.672C133.428 28.984 133.452 29.296 133.464 29.62C133.464 30.556 133.332 31.204 133.068 31.564C132.78 31.972 132.12 32.176 131.076 32.176H130.68L130.392 31.42H130.956C131.676 31.408 132.12 31.3 132.3 31.108C132.516 30.856 132.624 30.364 132.624 29.62C132.612 29.404 132.6 29.188 132.576 28.996C131.232 30.052 129.48 30.904 127.296 31.564L126.864 30.82C129.252 30.124 131.1 29.248 132.408 28.18C132.312 27.856 132.204 27.556 132.06 27.268C130.908 28.156 129.372 28.876 127.452 29.428L127.02 28.684C129.024 28.156 130.584 27.484 131.7 26.644C131.556 26.428 131.388 26.212 131.22 26.02C131.124 26.068 131.028 26.104 130.944 26.152C130.116 26.536 129.024 26.92 127.68 27.304L127.236 26.596C128.388 26.344 129.432 26.02 130.344 25.624C130.776 25.432 131.196 25.24 131.592 25.024H128.4V24.22ZM147.216 29.308C148.164 30.208 148.896 31 149.412 31.696L148.728 32.176C148.164 31.408 147.456 30.604 146.592 29.752L147.216 29.308ZM145.044 25.816C144.768 26.416 144.456 26.932 144.108 27.364L143.616 26.752C144.144 26.08 144.576 25.132 144.936 23.908L145.644 24.052C145.548 24.4 145.452 24.724 145.344 25.036H148.692V25.816H146.76C146.748 26.464 146.7 27.052 146.628 27.592H149.28V28.42H146.484C146.436 28.636 146.376 28.852 146.328 29.044C145.956 30.34 145.104 31.396 143.784 32.224L143.244 31.552C144.384 30.844 145.14 29.956 145.512 28.876C145.56 28.72 145.596 28.564 145.644 28.42H143.388V27.592H145.812C145.884 27.04 145.932 26.452 145.944 25.816H145.044ZM138.72 22.936H140.64C140.424 22.372 140.184 21.856 139.92 21.388L140.796 21.244C141.036 21.736 141.252 22.3 141.456 22.936H142.896V23.764H140.568V25.456H142.74C142.74 28.48 142.68 30.352 142.56 31.048C142.464 31.756 141.972 32.116 141.096 32.116C140.976 32.116 140.784 32.104 140.496 32.08L140.316 31.36C140.568 31.384 140.784 31.396 140.976 31.396C141.432 31.396 141.696 31.18 141.792 30.748C141.876 30.268 141.924 28.78 141.936 26.26H140.568C140.496 28.972 140.016 30.964 139.104 32.248L138.468 31.684C139.296 30.46 139.716 28.504 139.74 25.804V23.764H138.72V22.936ZM144.42 23.368C144.084 24.16 143.712 24.868 143.292 25.48L142.752 24.844C143.388 23.908 143.904 22.684 144.3 21.172L145.104 21.352C144.984 21.772 144.864 22.168 144.732 22.54H149.076V23.368H144.42ZM157.5 28.276C157.164 29.092 156.624 29.788 155.88 30.34L155.364 29.716C156.144 29.116 156.66 28.36 156.924 27.448L157.032 26.98H154.956V32.164H154.14V26.188H157.14C157.188 25.792 157.212 25.372 157.224 24.916H153.828V24.124H161.148V24.916H158.016C158.004 25.372 157.98 25.792 157.944 26.188H160.812V30.916C160.812 31.696 160.452 32.092 159.744 32.092H158.508L158.292 31.276L159.456 31.312C159.816 31.312 159.996 31.12 159.996 30.736V26.98H157.836C157.788 27.184 157.752 27.388 157.716 27.58C158.388 28.12 159.012 28.744 159.576 29.464L159.108 30.184C158.568 29.404 158.028 28.768 157.5 28.276ZM152.496 26.344C152.496 26.236 152.508 26.128 152.508 26.032V22.12H156.528C156.396 21.796 156.252 21.496 156.096 21.22L156.972 21.076C157.116 21.388 157.26 21.736 157.404 22.12H161.232V22.936H153.348V26.032C153.3 28.564 152.784 30.592 151.8 32.116L151.152 31.552C151.86 30.472 152.292 29.044 152.436 27.28C151.932 27.7 151.368 28.096 150.744 28.456L150.504 27.628C151.236 27.256 151.896 26.824 152.496 26.344ZM151.248 23.044C151.656 23.764 152.004 24.52 152.292 25.336L151.548 25.636C151.236 24.772 150.888 24.004 150.504 23.356L151.248 23.044ZM163.752 22.744H167.664V21.22H168.54V22.744H172.368V26.92H168.492C168.372 28.072 168.048 29.02 167.496 29.764C169.176 30.676 171.156 31.192 173.436 31.3L173.208 32.152C170.796 32.02 168.696 31.444 166.908 30.412C166.02 31.204 164.772 31.804 163.176 32.212L162.684 31.444C164.148 31.072 165.288 30.556 166.116 29.908C165.324 29.368 164.604 28.744 163.956 28.024L164.652 27.532C165.276 28.228 165.96 28.816 166.728 29.308C167.208 28.696 167.496 27.904 167.604 26.92H163.752V22.744ZM171.516 26.092V23.572H168.54V26.092H171.516ZM167.664 26.092V23.572H164.604V26.092H167.664Z" fill="#B0B0B0"/>
<path d="M218.112 9.244V10.228H220.356V9.244H218.112ZM220.356 8.536V7.552H218.112V8.536H220.356ZM218.172 5.44C217.752 5.872 217.308 6.28 216.852 6.664L216.384 6.028C217.332 5.248 218.196 4.336 218.964 3.304H219.54C220.332 3.964 221.088 4.672 221.832 5.416L221.28 6.004C220.524 5.212 219.864 4.576 219.3 4.12C218.952 4.564 218.592 4.984 218.232 5.38H220.512V6.076H218.172V5.44ZM217.272 13.972L217.02 13.288C217.212 13.228 217.32 13.12 217.32 12.964V6.832H221.136V10.972H218.112V13.06C218.928 12.832 219.66 12.604 220.284 12.376C220.128 12.064 219.972 11.776 219.816 11.512L220.512 11.296C220.872 11.92 221.208 12.568 221.496 13.264C222.432 12.532 223.056 11.644 223.392 10.6C223.68 9.604 223.824 8.332 223.824 6.796H224.604C224.604 7.504 224.568 8.164 224.508 8.764C225.072 10.78 226.068 12.376 227.496 13.552L226.932 14.212C225.756 13.156 224.88 11.836 224.28 10.276L224.172 10.72C223.8 12.124 222.948 13.276 221.616 14.176L221.148 13.588L220.872 13.72C220.776 13.468 220.68 13.24 220.584 13.024C219.612 13.384 218.508 13.696 217.272 13.972ZM222.912 3.148L223.716 3.28C223.632 3.928 223.524 4.54 223.404 5.092H227.052V5.644C226.872 6.676 226.632 7.696 226.344 8.704L225.516 8.464C225.78 7.72 226.008 6.868 226.176 5.92H223.2C222.912 6.916 222.54 7.732 222.084 8.356L221.424 7.888C222.192 6.748 222.684 5.164 222.912 3.148ZM233.712 3.244H234.312C235.8 4.66 237.504 5.776 239.436 6.592L239.016 7.336C237.744 6.784 236.592 6.124 235.572 5.356V5.92H232.476V5.38C231.468 6.148 230.292 6.832 228.972 7.444L228.564 6.688C230.628 5.764 232.344 4.612 233.712 3.244ZM232.68 5.224H235.404C234.9 4.84 234.432 4.444 234.012 4.024C233.592 4.444 233.148 4.84 232.68 5.224ZM231.768 9.148V10.132H236.352V9.148H231.768ZM236.352 8.404V7.42H231.768V8.404H236.352ZM237.888 10.648L238.608 11.02C238.128 11.572 237.612 12.076 237.06 12.508C237.756 12.856 238.404 13.216 238.992 13.588L238.452 14.248C237.228 13.408 235.644 12.616 233.724 11.884L234.228 11.284C234.972 11.572 235.68 11.86 236.352 12.172C236.916 11.704 237.432 11.2 237.888 10.648ZM230.76 14.212L230.532 13.516C230.784 13.444 230.916 13.228 230.916 12.892V6.652H237.204V10.9H231.768V13.276C232.716 13.096 233.616 12.88 234.48 12.628L234.648 13.36C233.604 13.684 232.308 13.972 230.76 14.212ZM250.104 8.908V14.212H249.276V13.672H243.24V14.212H242.412V8.908H245.448C245.616 8.596 245.736 8.272 245.832 7.936L246.636 8.044C246.552 8.356 246.432 8.644 246.288 8.908H250.104ZM243.24 12.868H249.276V11.692H243.24V12.868ZM243.24 10.924H249.276V9.7H243.24V10.924ZM244.716 5.8V4.24H241.32V3.532H245.532V7.48C245.532 8.056 245.208 8.344 244.572 8.344H243.552L243.372 7.648L244.416 7.672C244.608 7.672 244.716 7.516 244.716 7.228V6.496C243.684 7 242.52 7.456 241.2 7.888L240.996 7.132C242.352 6.748 243.588 6.304 244.716 5.8ZM241.644 4.72C242.364 4.864 243.072 5.056 243.744 5.308L243.504 5.92C242.796 5.668 242.064 5.476 241.32 5.332L241.644 4.72ZM249.672 5.812V4.24H246.156V3.532H250.488V7.516C250.488 8.044 250.152 8.32 249.492 8.32H248.532L248.352 7.624L249.336 7.648C249.552 7.648 249.672 7.516 249.672 7.264V6.484C248.688 6.964 247.56 7.42 246.312 7.828L246.108 7.072C247.404 6.712 248.592 6.292 249.672 5.812ZM246.564 4.708C247.296 4.852 247.992 5.068 248.664 5.344L248.412 5.956C247.716 5.68 246.984 5.464 246.24 5.32L246.564 4.708ZM257.376 3.424H262.752L262.632 4.948H263.316V5.644H262.572L262.452 7.132H256.968L257.136 5.644H256.356V4.948H257.208L257.376 3.424ZM257.784 6.484H259.404L259.5 5.644H257.88L257.784 6.484ZM260.256 5.644L260.16 6.484H261.72L261.804 5.644H260.256ZM257.964 4.948H259.584L259.68 4.072H258.072L257.964 4.948ZM260.448 4.072L260.34 4.948H261.864L261.948 4.072H260.448ZM256.908 7.708H262.74V12.28H256.908V7.708ZM261.924 11.608V10.924H257.724V11.608H261.924ZM257.724 10.324H261.924V9.664H257.724V10.324ZM257.724 9.052H261.924V8.38H257.724V9.052ZM260.892 12.364C261.828 12.712 262.692 13.132 263.496 13.624L263.004 14.188C262.164 13.684 261.276 13.24 260.328 12.868L260.892 12.364ZM258.804 12.316L259.368 12.808C258.6 13.348 257.64 13.828 256.512 14.236L256.056 13.636C257.136 13.264 258.06 12.82 258.804 12.316ZM252.864 5.512L253.548 5.572C253.512 6.772 253.392 7.9 253.176 8.968L252.468 8.764C252.696 7.732 252.828 6.652 252.864 5.512ZM255.78 5.236C256.092 6.016 256.38 6.904 256.62 7.912L255.924 8.08C255.708 7.168 255.456 6.28 255.144 5.44L255.78 5.236ZM254.112 3.232H254.976V14.152H254.112V3.232Z" fill="#B0B0B0"/>
<path d="M310.332 3.904H313.152V3.112H314.364V3.904H317.184V4.972H314.364V5.5H316.584V10.972H317.604V12.076H315.36C316.116 12.472 316.824 12.94 317.484 13.468L316.728 14.344C316.02 13.708 315.264 13.156 314.448 12.688L315.108 12.076H312.408L313.116 12.7C312.42 13.324 311.568 13.876 310.548 14.344L309.816 13.408C310.728 13.024 311.508 12.58 312.156 12.076H309.912V11.236C308.904 11.632 307.848 11.968 306.732 12.244L306.42 11.032C306.864 10.96 307.308 10.864 307.752 10.744V7.132H306.552V5.956H307.752V3.196H308.964V5.956H310.056V7.132H308.964V10.384C309.324 10.252 309.672 10.108 310.008 9.964V10.972H310.944V5.5H313.152V4.972H310.332V3.904ZM312.12 10.972H315.408V10.456H312.12V10.972ZM312.12 9.604H315.408V9.124H312.12V9.604ZM312.12 8.272H315.408V7.792H312.12V8.272ZM312.12 6.94H315.408V6.46H312.12V6.94ZM326.508 11.152C326.736 11.584 326.94 12.04 327.108 12.52L326.16 12.928C325.98 12.4 325.788 11.932 325.584 11.536L326.508 11.152ZM324.768 11.392C324.984 11.896 325.164 12.436 325.332 13.036L324.264 13.288C324.132 12.652 323.964 12.088 323.76 11.596L324.768 11.392ZM325.536 14.212L325.236 13.132C325.668 13.156 326.088 13.168 326.484 13.168C326.916 13.168 327.204 13.036 327.336 12.772C327.48 12.508 327.564 11.92 327.612 11.008H321.192C320.988 11.164 320.784 11.308 320.592 11.44L321.444 11.668C321.252 12.556 321 13.348 320.7 14.032L319.572 13.624C319.872 13.072 320.136 12.4 320.352 11.596C320.076 11.764 319.788 11.932 319.5 12.088L318.744 11.164C319.692 10.756 320.544 10.192 321.312 9.484H320.268V5.704C321.396 5.668 322.392 5.512 323.244 5.236L323.772 6.16C323.22 6.352 322.416 6.508 321.384 6.652V7.084H323.532V8.02H321.384V8.5H326.616V8.032H324.636V7.096H326.616V6.604H324.456V5.632H327.744V9.484H322.74C322.596 9.652 322.452 9.82 322.308 9.976H328.824C328.788 11.008 328.728 11.836 328.644 12.484C328.536 13.108 328.368 13.552 328.14 13.816C327.9 14.056 327.528 14.188 327.024 14.212H325.536ZM323.004 11.5C323.172 12.124 323.316 12.796 323.46 13.516L322.344 13.78C322.248 13 322.128 12.316 321.984 11.728L323.004 11.5ZM329.112 3.964V6.304H327.936V5.068H320.076V6.316H318.9V3.964H323.232C323.1 3.724 322.956 3.508 322.812 3.304L324.108 3.088C324.252 3.352 324.384 3.64 324.516 3.964H329.112ZM341.184 4.288V7.18H339.924V5.5H332.052V7.18H330.792V4.288H335.22C335.1 3.952 334.968 3.652 334.824 3.376L336.252 3.136C336.384 3.484 336.516 3.868 336.636 4.288H341.184ZM332.556 6.556H339.396V7.756H332.556V6.556ZM330.732 8.776H341.28V9.988H338.052V12.364C338.052 12.724 338.196 12.904 338.484 12.904H339.96C340.08 12.904 340.164 12.82 340.224 12.664C340.272 12.508 340.32 12.016 340.344 11.2L341.532 11.572C341.448 12.796 341.304 13.528 341.088 13.756C340.896 13.972 340.596 14.092 340.2 14.092H338.1C337.236 14.092 336.804 13.6 336.804 12.616V9.988H335.088C335.028 11.164 334.692 12.112 334.092 12.82C333.504 13.468 332.556 13.984 331.236 14.344L330.516 13.216C331.8 12.892 332.664 12.496 333.108 12.016C333.552 11.488 333.792 10.816 333.84 9.988H330.732V8.776ZM351.108 3.04C351.648 3.448 352.104 3.868 352.488 4.288L351.936 4.852H353.364V6.04H349.836C349.932 7.432 350.076 8.512 350.268 9.256C350.304 9.424 350.352 9.58 350.4 9.748C350.88 8.908 351.276 7.936 351.588 6.856L352.728 7.348C352.26 8.872 351.66 10.168 350.928 11.236C351.036 11.476 351.156 11.692 351.276 11.872C351.612 12.388 351.876 12.652 352.056 12.652C352.176 12.652 352.32 12.076 352.476 10.924L353.604 11.536C353.292 13.228 352.848 14.08 352.248 14.08C351.72 14.08 351.168 13.72 350.58 13.012C350.412 12.796 350.244 12.556 350.1 12.292C349.308 13.156 348.396 13.816 347.364 14.272L346.644 13.216C347.772 12.712 348.732 11.98 349.524 11.02C349.356 10.6 349.212 10.144 349.08 9.652C348.816 8.692 348.648 7.48 348.552 6.04H344.808V7.708H347.748C347.712 9.94 347.592 11.332 347.388 11.884C347.196 12.388 346.776 12.64 346.128 12.652C345.84 12.652 345.516 12.628 345.156 12.592L344.772 11.452C345.252 11.488 345.648 11.512 345.984 11.512C346.176 11.5 346.308 11.38 346.368 11.14C346.44 10.864 346.476 10.108 346.5 8.884H344.808C344.748 11.116 344.256 12.904 343.332 14.26L342.384 13.408C343.128 12.316 343.512 10.792 343.548 8.848V4.852H348.492C348.468 4.3 348.468 3.712 348.468 3.112H349.74C349.74 3.724 349.752 4.3 349.776 4.852H351.468C351.168 4.516 350.784 4.156 350.316 3.796L351.108 3.04Z" fill="#3690A4"/>
</svg>
