<svg width="33" height="33" viewBox="0 0 33 33" fill="none" xmlns="http://www.w3.org/2000/svg">
<g id="icon/logo">
<rect width="33" height="33" rx="16.5" fill="#3690A4"/>
<path id="Vector" d="M27 15.1272C27 14.4098 26.8917 13.7025 26.6751 13.0278C26.6628 12.9877 26.6431 12.9476 26.6234 12.9125C26.6234 12.8698 26.6258 12.8272 26.6258 12.7845C26.6258 9.0449 23.64 6 19.9674 6H13.6585C9.98585 6 7 9.04239 7 12.7845V22.1876C7 24.2869 8.67631 25.9975 10.7391 25.9975H15.3298C15.6523 25.9975 15.9132 25.7316 15.9132 25.4031C15.9132 25.0745 15.6523 24.8086 15.3298 24.8086H10.7391C9.88738 24.8086 9.13169 24.3822 8.664 23.7301C9.00123 22.6491 9.97846 21.9117 11.1132 21.9117H19.1502V22.1901C19.1502 24.2894 20.8265 26 22.8892 26C24.952 26 26.6283 24.292 26.6283 22.1901V17.5124C26.6283 17.4748 26.6234 17.4347 26.616 17.3995C26.8646 16.6897 27 15.9248 27 15.1297V15.1272ZM20.3415 20.7229H20.3169V19.5616C22.6332 19.4387 24.6369 18.1043 25.7348 16.1706C25.2548 18.759 23.0197 20.7229 20.3415 20.7229ZM19.9674 7.19137C22.9951 7.19137 25.4591 9.70203 25.4591 12.7871C25.4591 15.8721 23.1822 18.1846 20.3169 18.3702V12.7871C20.3169 10.467 19.1674 8.41535 17.4197 7.19137H19.9674ZM13.6585 7.19137C16.6862 7.19137 19.1502 9.70203 19.1502 12.7871V18.3827H10.7391C9.74215 18.3827 8.83877 18.784 8.16923 19.4337V12.7871C8.16677 9.69952 10.6308 7.18886 13.6585 7.18886V7.19137ZM11.4997 20.7229H11.1132C9.92677 20.7229 8.85846 21.2797 8.16923 22.1776C8.17415 20.7379 9.32615 19.5691 10.7391 19.5691H19.1502V20.7203H11.4997V20.7229ZM25.4591 22.1901C25.4591 23.6348 24.3071 24.8086 22.8892 24.8086C21.4714 24.8086 20.3194 23.6348 20.3194 22.1901V21.9117H20.344C22.3994 21.9117 24.2382 20.9586 25.4615 19.4613V22.1876L25.4591 22.1901Z" fill="white"/>
</g>
</svg>
