<svg width="40" height="58" viewBox="0 0 40 58" fill="none" xmlns="http://www.w3.org/2000/svg">
<path d="M22.4678 40.565L37.6309 37.7919V31.3213H31.5515V0H23.6683L2.42578 31.3571V39.6406H22.4619V40.565H22.4678ZM11.2138 31.3213L22.4678 14.45V31.3213H11.2138Z" fill="#30768A"/>
<path d="M0.391653 55.4681L1.5212 55.158C1.65722 55.6112 1.85237 55.969 2.10667 56.2314C2.36096 56.4938 2.7099 56.6787 3.16527 56.7861C3.61472 56.8934 4.10555 56.8994 4.62597 56.804C5.09316 56.7205 5.4894 56.5714 5.82058 56.3686C6.15175 56.1658 6.38238 55.9273 6.51249 55.647C6.64259 55.3727 6.684 55.0924 6.63077 54.8061C6.57755 54.5139 6.44742 54.2754 6.24044 54.0905C6.03345 53.9056 5.72597 53.7684 5.312 53.6909C5.04587 53.6372 4.47221 53.5895 3.59105 53.5359C2.70988 53.4822 2.08302 53.3987 1.71045 53.2794C1.22551 53.1303 0.84703 52.8977 0.569079 52.5936C0.291128 52.2894 0.113698 51.9257 0.0368181 51.4963C-0.0459758 51.0251 0.0072604 50.5659 0.196504 50.1067C0.385747 49.6535 0.716912 49.2718 1.18411 48.9677C1.6513 48.6635 2.19538 48.4548 2.81633 48.3415C3.49643 48.2162 4.12328 48.2162 4.68509 48.3415C5.24691 48.4667 5.7082 48.7232 6.06303 49.0989C6.41786 49.4806 6.66034 49.9398 6.77862 50.4825L5.62541 50.7866C5.45982 50.2081 5.16414 49.8086 4.75017 49.57C4.3362 49.3374 3.77439 49.2838 3.06472 49.415C2.32549 49.5521 1.8169 49.7847 1.52712 50.1187C1.23734 50.4526 1.13089 50.8105 1.19595 51.1981C1.25508 51.5321 1.42658 51.7825 1.70453 51.9555C1.97656 52.1284 2.633 52.2358 3.66201 52.2835C4.69102 52.3312 5.4066 52.4028 5.80874 52.5041C6.3883 52.6532 6.84366 52.8977 7.16892 53.2317C7.49418 53.5657 7.70116 53.9831 7.78986 54.4841C7.87857 54.9791 7.81945 55.4681 7.61838 55.9571C7.4173 56.4461 7.07431 56.8576 6.58937 57.1976C6.10444 57.5375 5.5367 57.7641 4.88026 57.8834C4.04641 58.0325 3.32493 58.0384 2.71581 57.9013C2.10668 57.7581 1.59808 57.4719 1.19003 57.0365C0.78197 56.6012 0.509942 56.0764 0.385751 55.4621L0.391653 55.4681Z" fill="#30768A"/>
<path d="M14.8451 55.9096L13.3725 47.7155L10.3387 48.2701L10.1436 47.1728L17.4471 45.8369L17.6423 46.9342L14.5967 47.4889L16.0692 55.683L14.851 55.9036L14.8451 55.9096Z" fill="#30768A"/>
<path d="M22.9646 54.4309L21.2969 45.1394L27.9618 43.9229L28.1569 45.0202L22.7162 46.0161L23.2307 48.8608L28.3284 47.9304L28.5236 49.0218L23.4258 49.9521L23.9936 53.1129L29.6472 52.0812L29.8424 53.1785L22.9646 54.4368V54.4309Z" fill="#30768A"/>
<path d="M34.0945 52.397L32.4268 43.1056L35.9041 42.4735C36.5132 42.3601 36.9863 42.3065 37.3234 42.3065C37.7906 42.3005 38.1928 42.378 38.5358 42.5331C38.8788 42.6881 39.1804 42.9446 39.4347 43.2964C39.6889 43.6483 39.8605 44.0538 39.9433 44.513C40.0852 45.3062 39.9551 46.0159 39.5529 46.654C39.1508 47.2921 38.2992 47.7275 36.9982 47.966L34.6326 48.3954L35.3127 52.1704L34.0945 52.3911V52.397ZM34.4375 47.2981L36.8207 46.8627C37.6073 46.7196 38.1395 46.4691 38.4175 46.1113C38.6954 45.7535 38.7841 45.3062 38.6895 44.7695C38.6185 44.3818 38.4648 44.0658 38.2164 43.8272C37.9739 43.5827 37.6842 43.4515 37.3471 43.4217C37.1342 43.4038 36.7498 43.4455 36.1939 43.5469L33.8343 43.9763L34.4316 47.2981H34.4375Z" fill="#30768A"/>
</svg>
