<svg width="40" height="58" viewBox="0 0 40 58" fill="none" xmlns="http://www.w3.org/2000/svg">
<path d="M18.6967 41.2568L28.082 39.5392V0H20.4649C19.3945 3.0057 17.4252 5.64165 14.5511 7.89592C11.6769 10.1502 9.01572 11.6829 6.56738 12.4939V21.0816C11.2216 19.5311 15.2607 17.1396 18.6908 13.9073V41.2508L18.6967 41.2568Z" fill="#30768A"/>
<path d="M0.393605 55.4681L1.52315 55.158C1.65917 55.6112 1.85433 55.969 2.10862 56.2314C2.36292 56.4938 2.71183 56.6787 3.1672 56.7861C3.61665 56.8934 4.1075 56.8994 4.62792 56.804C5.09512 56.7205 5.49134 56.5714 5.82252 56.3686C6.1537 56.1658 6.38434 55.9273 6.51444 55.647C6.64455 55.3727 6.68594 55.0924 6.63272 54.8061C6.57949 54.5139 6.44939 54.2754 6.2424 54.0905C6.03542 53.9056 5.7279 53.7684 5.31393 53.6909C5.0478 53.6372 4.47416 53.5895 3.593 53.5359C2.71183 53.4822 2.08497 53.3987 1.71239 53.2794C1.22746 53.1303 0.848971 52.8977 0.57102 52.5936C0.293069 52.2894 0.115654 51.9257 0.0387738 51.4963C-0.0440201 51.0251 0.00920454 50.5659 0.198448 50.1067C0.387691 49.6535 0.718867 49.2718 1.18606 48.9677C1.65325 48.6635 2.19733 48.4548 2.81828 48.3415C3.49838 48.2162 4.12524 48.2162 4.68706 48.3415C5.24888 48.4667 5.71016 48.7232 6.06499 49.0989C6.41982 49.4806 6.66229 49.9398 6.78056 50.4825L5.62736 50.7866C5.46177 50.2081 5.16608 49.8086 4.75211 49.57C4.33814 49.3374 3.77633 49.2838 3.06667 49.415C2.32743 49.5521 1.81884 49.7847 1.52906 50.1187C1.23929 50.4526 1.13284 50.8105 1.19789 51.1981C1.25703 51.5321 1.42853 51.7825 1.70648 51.9555C1.97852 52.1284 2.63495 52.2358 3.66396 52.2835C4.69297 52.3312 5.40855 52.4028 5.81069 52.5041C6.39025 52.6532 6.84562 52.8977 7.17088 53.2317C7.49614 53.5657 7.70312 53.9831 7.79183 54.4841C7.88054 54.9791 7.8214 55.4681 7.62033 55.9571C7.41926 56.4461 7.07626 56.8576 6.59132 57.1976C6.10638 57.5375 5.53865 57.7641 4.88222 57.8834C4.04836 58.0325 3.32687 58.0384 2.71775 57.9013C2.10862 57.7581 1.60003 57.4719 1.19197 57.0365C0.783919 56.6012 0.511882 56.0764 0.387691 55.4621L0.393605 55.4681Z" fill="#30768A"/>
<path d="M14.847 55.9096L13.3745 47.7155L10.3407 48.2701L10.1455 47.1728L17.4491 45.8369L17.6443 46.9342L14.5986 47.4889L16.0712 55.683L14.8529 55.9036L14.847 55.9096Z" fill="#30768A"/>
<path d="M22.9665 54.4309L21.2988 45.1394L27.9637 43.9229L28.1589 45.0202L22.7182 46.0161L23.2327 48.8608L28.3304 47.9304L28.5256 49.0218L23.4278 49.9521L23.9955 53.1129L29.6492 52.0812L29.8443 53.1785L22.9665 54.4368V54.4309Z" fill="#30768A"/>
<path d="M34.0964 52.397L32.4287 43.1056L35.9061 42.4735C36.5152 42.3601 36.9883 42.3065 37.3254 42.3065C37.7926 42.3005 38.1947 42.378 38.5377 42.5331C38.8807 42.6881 39.1823 42.9446 39.4366 43.2964C39.6909 43.6483 39.8624 44.0538 39.9452 44.513C40.0871 45.3062 39.957 46.0159 39.5549 46.654C39.1528 47.2921 38.3012 47.7275 37.0001 47.966L34.6346 48.3954L35.3147 52.1704L34.0964 52.3911V52.397ZM34.4394 47.2981L36.8227 46.8627C37.6092 46.7196 38.1415 46.4691 38.4194 46.1113C38.6974 45.7535 38.7861 45.3062 38.6915 44.7695C38.6205 44.3818 38.4668 44.0658 38.2184 43.8272C37.9759 43.5827 37.6861 43.4515 37.349 43.4217C37.1361 43.4038 36.7517 43.4455 36.1958 43.5469L33.8362 43.9763L34.4335 47.2981H34.4394Z" fill="#30768A"/>
</svg>
