<svg width="30" height="30" viewBox="0 0 30 30" fill="none" xmlns="http://www.w3.org/2000/svg">
<g id="icon/mynu/choose">
<path id="Vector" d="M12.6 4H4.2C3.53726 4 3 4.65663 3 5.46667V24.5333C3 25.3434 3.53726 26 4.2 26H25.8C26.4628 26 27 25.3434 27 24.5333V22.7" stroke="#51ACBF" stroke-linecap="round" stroke-linejoin="round"/>
<path id="Vector_2" d="M6.25 14.375H11.25" stroke="#51ACBF" stroke-linecap="round"/>
<path id="Vector_3" d="M6.25 19.375H21.25" stroke="#51ACBF" stroke-linecap="round"/>
<path id="Vector_4" d="M21.25 11.5C23.3211 11.5 25 9.82107 25 7.75C25 5.67893 23.3211 4 21.25 4C19.1789 4 17.5 5.67893 17.5 7.75C17.5 9.82107 19.1789 11.5 21.25 11.5Z" stroke="#51ACBF" stroke-linecap="round" stroke-linejoin="round"/>
<path id="Vector_5" d="M27.5 17.7617C26.2792 15.3764 23.7499 13.75 21.2499 13.75C18.7499 13.75 17.5044 14.4581 16.2189 15.625" stroke="#51ACBF" stroke-linecap="round" stroke-linejoin="round"/>
</g>
</svg>
