<svg width="20" height="20" viewBox="0 0 20 20" fill="none" xmlns="http://www.w3.org/2000/svg">
<path d="M8.4 4H2.8C2.35817 4 2 4.35816 2 4.8V15.2C2 15.6418 2.35817 16 2.8 16H17.2C17.6418 16 18 15.6418 18 15.2V14.2" stroke="#6D6D6D" stroke-linecap="round" stroke-linejoin="round"/>
<path d="M4 9H7" stroke="#6D6D6D" stroke-linecap="round"/>
<path d="M4 13H14" stroke="#6D6D6D" stroke-linecap="round"/>
<path d="M14.5 7C15.3284 7 16 6.32843 16 5.5C16 4.67157 15.3284 4 14.5 4C13.6716 4 13 4.67157 13 5.5C13 6.32843 13.6716 7 14.5 7Z" stroke="#6D6D6D" stroke-linecap="round" stroke-linejoin="round"/>
<path d="M18 12C17.2425 10.2163 15.6731 9 14.1218 9C12.5705 9 11.7977 9.5295 11 10.4022" stroke="#6D6D6D" stroke-linecap="round" stroke-linejoin="round"/>
</svg>
