<svg width="185" height="186" viewBox="0 0 185 186" fill="none" xmlns="http://www.w3.org/2000/svg">
<rect y="0.0400391" width="185" height="185" rx="92.5" fill="white"/>
<g clip-path="url(#clip0_2496_19432)">
<path d="M57.2604 154.97C56.7604 153.88 56.9904 153.01 57.9604 152.37C58.6504 151.93 59.4804 151.32 60.4704 150.55V146.77C60.4704 146.29 60.2304 146.04 59.7404 146.04H58.8004C57.6904 146.04 57.1304 145.49 57.1304 144.37C57.1304 143.25 57.6804 142.71 58.8004 142.71H62.3404C62.8204 142.71 63.2104 142.86 63.5104 143.15C63.8004 143.44 63.9504 143.83 63.9504 144.32V150.31C65.1204 152.17 67.3304 153.17 70.5804 153.34C74.2504 153.5 78.2704 153.46 82.6204 153.22C83.4304 153.16 83.9604 153.29 84.2104 153.6C84.4604 153.91 84.4704 154.46 84.2304 155.25C84.0704 155.75 83.8604 156.12 83.5904 156.34C83.3304 156.56 82.9304 156.68 82.4104 156.7C77.8904 156.84 73.9404 156.85 70.5504 156.73C68.6304 156.63 67.0604 156.34 65.8304 155.85C64.5004 155.33 63.3804 154.49 62.4704 153.34C61.4204 154.27 60.6104 154.97 60.0504 155.46C58.8204 156.51 57.8904 156.35 57.2704 154.98L57.2604 154.97ZM60.8304 140.05C60.2904 139.57 59.6304 139.07 58.8604 138.57C58.3204 138.23 58.0104 137.84 57.9504 137.42C57.8904 137 58.0804 136.56 58.5304 136.12C59.1504 135.5 59.8304 135.37 60.5604 135.76C61.1704 136.12 61.7204 136.48 62.2204 136.82C62.4004 136.94 62.6804 137.14 63.0704 137.42C63.1704 137.48 63.2404 137.53 63.2804 137.57C64.0704 138.28 64.0704 139.04 63.2804 139.87C62.8404 140.31 62.4304 140.56 62.0704 140.6C61.6704 140.64 61.2504 140.46 60.8304 140.06V140.05ZM61.8604 134.06C61.3404 133.56 60.7204 133.05 60.0104 132.55C59.4704 132.21 59.1704 131.82 59.1204 131.38C59.0704 130.95 59.2804 130.52 59.7404 130.09C60.3604 129.51 61.0404 129.42 61.7704 129.82C62.3504 130.18 62.8904 130.55 63.3704 130.91C63.6904 131.13 64.0304 131.39 64.3704 131.7C65.1604 132.43 65.1504 133.18 64.3404 133.97C63.4504 134.82 62.6304 134.85 61.8604 134.06ZM74.4504 152.34C73.2604 152.34 72.6604 151.76 72.6604 150.59V150.32H66.5204C65.6504 150.32 65.2204 149.89 65.2204 149.02C65.2204 148.15 65.6504 147.72 66.5204 147.72H72.6604V146.3H67.6404C66.8104 146.3 66.4004 145.89 66.4004 145.06C66.4004 144.23 66.8104 143.82 67.6404 143.82H72.6604V142.46H66.5204C65.6704 142.46 65.2504 142.04 65.2504 141.19C65.2504 140.34 65.6704 139.92 66.5204 139.92H69.2104C69.0704 139.3 68.8104 138.6 68.4204 137.83C68.3204 137.65 68.3804 137.54 68.6004 137.5L68.6904 137.47H66.0904C65.2204 137.47 64.7904 137.04 64.7904 136.17C64.7904 135.3 65.2204 134.87 66.0904 134.87H72.6604V133.33H68.0004C67.1704 133.33 66.7604 132.92 66.7604 132.09C66.7604 131.26 67.1704 130.85 68.0004 130.85H72.6604V130.79C72.6604 129.64 73.2504 129.07 74.4504 129.07C75.6504 129.07 76.2004 129.65 76.2004 130.79V130.85H81.1604C81.9904 130.85 82.4004 131.26 82.4004 132.09C82.4004 132.92 81.9904 133.33 81.1604 133.33H76.2004V134.87H82.9204C83.7904 134.87 84.2204 135.3 84.2204 136.17C84.2204 137.04 83.7904 137.47 82.9204 137.47H80.1104L80.5604 137.59C80.7604 137.63 80.8004 137.74 80.6804 137.92C80.4204 138.4 80.0304 139.04 79.5304 139.83L79.4704 139.92H82.6804C83.5304 139.92 83.9504 140.34 83.9504 141.19C83.9504 142.04 83.5304 142.46 82.6804 142.46H76.2004V143.82H81.5604C82.3904 143.82 82.8004 144.23 82.8004 145.06C82.8004 145.89 82.3904 146.3 81.5604 146.3H76.2004V147.72H82.7104C83.5804 147.72 84.0104 148.15 84.0104 149.02C84.0104 149.89 83.5804 150.32 82.7104 150.32H76.2004V150.59C76.2004 151.76 75.6204 152.34 74.4504 152.34ZM71.7304 139.9H76.9404L76.5204 139.78C76.3404 139.74 76.2804 139.64 76.3404 139.48C76.6204 138.86 76.8904 138.18 77.1604 137.45H71.6804C71.9604 137.98 72.1804 138.52 72.3504 139.08C72.4104 139.26 72.3904 139.43 72.2904 139.58C72.1904 139.73 72.0404 139.83 71.8404 139.87L71.7504 139.9H71.7304Z" fill="#89CBD7"/>
<path d="M99.1405 155.85C98.6405 155.27 98.4405 154.74 98.5705 154.28C98.6705 153.84 99.0605 153.4 99.7505 152.98C101.26 151.89 102.63 150.67 103.83 149.32C102.9 146.21 102.22 142.15 101.77 137.12H93.8105C93.3305 137.12 93.0805 137.36 93.0805 137.85V140.36H98.5005C99.1505 140.36 99.6205 140.6 99.9205 141.09C100.26 141.67 100.42 142.62 100.4 143.93C100.32 146.47 100.22 148.3 100.1 149.41C99.9605 150.54 99.7605 151.29 99.4905 151.65C99.0105 152.3 98.3105 152.7 97.4005 152.86C96.9805 152.92 96.4505 152.95 95.8305 152.95C94.5805 152.95 93.8205 152.5 93.5605 151.59C93.3405 150.84 93.4005 150.33 93.7405 150.05C94.0405 149.79 94.6205 149.68 95.4605 149.72H95.5505C95.9505 149.72 96.2605 149.6 96.4605 149.36C96.6805 149.04 96.8305 147.59 96.9105 145C96.9305 144.48 96.8805 144.11 96.7605 143.91C96.6605 143.75 96.4805 143.67 96.2205 143.67H93.0705C92.9505 148.75 92.2205 152.8 90.8905 155.8C90.5305 156.47 90.1405 156.84 89.7205 156.93C89.3105 157.02 88.8205 156.83 88.2505 156.37C87.7305 155.97 87.4305 155.52 87.3705 155.04C87.3105 154.6 87.4305 154.06 87.7305 153.44C88.7805 150.9 89.3005 147.22 89.3005 142.39V135.52C89.3005 134.94 89.4805 134.46 89.8405 134.1C90.2005 133.74 90.6805 133.56 91.2605 133.56H101.52C101.5 133 101.47 132.13 101.43 130.96C101.39 129.71 102.01 129.08 103.28 129.08C104.55 129.08 105.16 129.72 105.16 130.99C105.16 131.57 105.18 132.43 105.22 133.56H109.79C109.22 133.08 108.43 132.51 107.4 131.87C106.45 131.25 106.4 130.51 107.25 129.66C107.86 129.05 108.5 128.95 109.19 129.36C110.22 129.97 111.03 130.49 111.61 130.93C112.01 131.23 112.22 131.62 112.23 132.1C112.23 132.57 112.04 133.02 111.64 133.45L111.55 133.57H112.88C114.07 133.57 114.67 134.17 114.67 135.36C114.67 136.55 114.07 137.15 112.88 137.15H105.44C105.68 140.08 106.07 142.84 106.62 145.44C107.57 143.77 108.33 142.11 108.92 140.48C109.3 139.31 110.07 138.87 111.22 139.15C112.45 139.45 112.84 140.25 112.4 141.54C111.21 144.69 109.72 147.5 107.92 149.98C108.81 152.28 109.74 153.43 110.7 153.43C111.06 153.43 111.34 153.02 111.52 152.19C111.62 151.12 111.85 150.31 112.22 149.77C112.66 149.08 113.22 148.97 113.88 149.44C114.24 149.68 114.47 150.19 114.58 150.95C114.66 151.51 114.66 152.12 114.58 152.77C114.26 154.42 113.76 155.57 113.1 156.22C112.5 156.8 111.6 157.1 110.41 157.1C108.43 157.1 106.75 155.77 105.36 153.11C104.29 154.24 103.12 155.26 101.85 156.17C100.78 156.88 99.8705 156.79 99.1305 155.9L99.1405 155.85Z" fill="#89CBD7"/>
<path d="M123.679 154.94C122.769 154.94 122.019 154.66 121.429 154.11C120.829 153.56 120.539 152.84 120.539 151.98C120.539 151.12 120.839 150.4 121.449 149.83C122.049 149.27 122.799 148.98 123.689 148.98C124.579 148.98 125.359 149.26 125.929 149.83C126.529 150.4 126.839 151.11 126.839 151.98C126.839 152.85 126.539 153.56 125.949 154.11C125.359 154.66 124.599 154.94 123.699 154.94H123.679ZM123.709 146.89C122.639 146.89 122.069 146.42 121.979 145.47L121.039 136.54L120.979 134.03C120.959 133.42 121.129 132.94 121.479 132.58C121.829 132.22 122.309 132.04 122.919 132.04H125.159C125.559 132.04 125.879 132.16 126.109 132.4C126.339 132.64 126.449 132.96 126.429 133.34L126.309 136.55L125.399 145.48C125.319 146.43 124.749 146.9 123.709 146.9V146.89Z" fill="#89CBD7"/>
</g>
<circle cx="92" cy="75.04" r="44" fill="#E081AF"/>
<path d="M92.0117 63.0266C93.0254 53.0356 97.3321 48.04 104.932 48.04C105.629 50.1427 105.809 52.1777 105.472 54.1451C105.312 55.0797 104.815 56.4125 103.982 58.1433" stroke="white" stroke-width="2" stroke-linecap="round"/>
<path fill-rule="evenodd" clip-rule="evenodd" d="M92 97.0244C95.1402 97.0244 96.4318 98.7165 98.115 99.0926C99.7982 99.4689 101.211 99.5733 102.658 98.9357C105.524 97.673 107.271 96.1688 109.39 93.9223C113.318 89.7589 115.25 84.0345 115.25 76.3686C115.25 68.7026 113.183 64.7409 109.997 62.1494C106.812 59.5581 104.964 59.0616 101.113 59.5581C97.2606 60.0545 95.1632 64.1932 92.0107 64.1932C88.8584 64.1932 85.0163 60.1123 81.6738 59.5581C78.3312 59.0037 76.5 59.5581 73.6062 62.1494C70.7125 64.7409 68.75 68.7762 68.75 76.3686C68.75 83.961 70.7541 89.5906 74.6822 93.7539C76.8019 96.0005 78.4762 97.673 81.3418 98.9357C82.7889 99.5733 84.2845 99.4689 85.909 99.0926C87.5337 98.7165 88.8253 97.0244 92 97.0244ZM99.8575 67.5255C100.142 67.9991 99.9881 68.6133 99.5145 68.8975C93.0809 72.7576 86.4916 70.5091 83.9592 68.8812C83.4947 68.5825 83.3602 67.9638 83.6588 67.4992C83.9575 67.0347 84.5762 66.9002 85.0408 67.1988C87.1751 68.5709 92.9191 70.5223 98.4855 67.1825C98.9591 66.8984 99.5733 67.0519 99.8575 67.5255Z" fill="white" fill-opacity="0.3"/>
<path fill-rule="evenodd" clip-rule="evenodd" d="M92 97.0244C95.1402 97.0244 96.4318 98.7165 98.115 99.0926C99.7982 99.4689 101.211 99.5733 102.658 98.9357C105.524 97.673 107.271 96.1688 109.39 93.9223C113.318 89.7589 115.25 84.0345 115.25 76.3686C115.25 68.7026 113.183 64.7409 109.997 62.1494C106.812 59.5581 104.964 59.0616 101.113 59.5581C97.2606 60.0545 95.1632 64.1932 92.0107 64.1932C88.8584 64.1932 85.0163 60.1123 81.6738 59.5581C78.3312 59.0037 76.5 59.5581 73.6062 62.1494C70.7125 64.7409 68.75 68.7762 68.75 76.3686C68.75 83.961 70.7541 89.5906 74.6822 93.7539C76.8019 96.0005 78.4762 97.673 81.3418 98.9357C82.7889 99.5733 84.2845 99.4689 85.909 99.0926C87.5337 98.7165 88.8253 97.0244 92 97.0244Z" stroke="white" stroke-width="2"/>
<g filter="url(#filter0_b_2496_19432)">
<circle cx="92" cy="75.04" r="44" fill="white" fill-opacity="0.6"/>
<circle cx="92" cy="75.04" r="43.5" stroke="white" stroke-opacity="0.3"/>
</g>
<path d="M109 64.04L85.625 87.04L75 76.5855" stroke="#6D6D6D" stroke-width="3" stroke-linecap="round" stroke-linejoin="round"/>
<defs>
<filter id="filter0_b_2496_19432" x="42" y="25.04" width="100" height="100" filterUnits="userSpaceOnUse" color-interpolation-filters="sRGB">
<feFlood flood-opacity="0" result="BackgroundImageFix"/>
<feGaussianBlur in="BackgroundImageFix" stdDeviation="3"/>
<feComposite in2="SourceAlpha" operator="in" result="effect1_backgroundBlur_2496_19432"/>
<feBlend mode="normal" in="SourceGraphic" in2="effect1_backgroundBlur_2496_19432" result="shape"/>
</filter>
<clipPath id="clip0_2496_19432">
<rect width="69.83" height="28.02" fill="white" transform="translate(57 129.04)"/>
</clipPath>
</defs>
</svg>
