<svg width="185" height="186" viewBox="0 0 185 186" fill="none" xmlns="http://www.w3.org/2000/svg">
<g id="Frame 43545">
<rect y="0.0400391" width="185" height="185" rx="92.5" fill="white"/>
<g id="Group">
<g id="Group_2">
<path id="Vector" d="M61.5957 55.9175C71.1358 55.9175 78.9092 48.8909 79.2224 38.9011C79.2304 38.5638 78.9494 38.2827 78.6121 38.2827H44.5792C44.242 38.2827 43.9609 38.5638 43.9689 38.9011C44.2741 48.8829 52.0475 55.9175 61.5957 55.9175Z" fill="#E9D48A"/>
<path id="Vector_2" d="M76.8534 38.2826C76.8534 32.0751 70.0196 27.04 61.5957 27.04C53.1718 27.04 46.3379 32.0751 46.3379 38.2826" stroke="#E9D48A" stroke-width="2.92" stroke-linejoin="round"/>
<path id="Vector_3" d="M55.3717 54.8813L53.7656 59.6996C53.5328 60.3902 54.0467 61.1049 54.7775 61.1049H68.4051C69.1358 61.1049 69.6498 60.3902 69.4169 59.6996L67.8108 54.8813" fill="#E9D48A"/>
<path id="Vector_4" d="M68.0527 31.8584L68.8558 33.4645" stroke="#E9D48A" stroke-width="2" stroke-linecap="round"/>
<path id="Vector_5" d="M54.4007 32.6611L53.5977 34.2672" stroke="#E9D48A" stroke-width="2" stroke-linecap="round"/>
<path id="Vector_6" d="M61.3792 33.3838L61.082 35.1505" stroke="#E9D48A" stroke-width="2" stroke-linecap="round"/>
</g>
<g id="Group_3">
<path id="Vector_7" d="M98.2871 38.2588L109.915 49.8868" stroke="#89CBD7" stroke-width="3" stroke-linecap="round" stroke-linejoin="round"/>
<path id="Vector_8" d="M109.915 38.2588L98.2871 49.8868" stroke="#89CBD7" stroke-width="3" stroke-linecap="round" stroke-linejoin="round"/>
</g>
<path id="Vector_9" d="M141.202 50.1114C141.202 50.6173 141.01 51.0509 140.624 51.4123C140.182 51.8219 139.58 52.0307 138.809 52.0307H132.192C130.217 52.0307 129.229 51.2437 129.229 49.6777C129.229 49.2521 129.382 48.7141 129.695 48.0636C130.241 46.9073 131.245 45.6545 132.69 44.2893C133.517 43.5184 134.336 42.7395 135.163 41.9605C135.782 41.0932 136.095 40.3304 136.095 39.6799C136.095 38.9491 135.79 38.5878 135.188 38.5878C134.77 38.5878 134.457 38.7885 134.256 39.182C134.184 39.3426 134.079 39.7361 133.951 40.3705C133.838 40.8764 133.573 41.2699 133.156 41.559C132.754 41.8642 132.289 42.0087 131.759 42.0087C131.004 42.0087 130.393 41.832 129.92 41.4867C129.349 41.0932 129.068 40.5151 129.068 39.7522C129.068 38.395 129.542 37.2788 130.498 36.4035C131.558 35.4398 133.084 34.958 135.083 34.958C137.083 34.958 138.6 35.4559 139.636 36.4517C140.552 37.3189 141.01 38.4432 141.01 39.8244C141.01 40.8684 140.624 41.8883 139.853 42.884C139.508 43.3257 138.657 44.1689 137.3 45.3975C136.127 46.4736 135.308 47.4132 134.826 48.2242H138.809C139.556 48.2242 140.166 48.417 140.624 48.7944C141.01 49.1558 141.202 49.5974 141.202 50.0953V50.1114Z" fill="#89CBD7"/>
</g>
<g id="Group_4">
<g id="Group_5">
<path id="Vector_10" d="M98.2852 85.2798L109.913 96.9159" stroke="#89CBD7" stroke-width="3" stroke-linecap="round" stroke-linejoin="round"/>
<path id="Vector_11" d="M109.913 85.2798L98.2852 96.9159" stroke="#89CBD7" stroke-width="3" stroke-linecap="round" stroke-linejoin="round"/>
</g>
<path id="Vector_12" d="M141.199 93.1261C141.199 97.2858 139.096 99.3657 134.888 99.3657C133.273 99.3657 131.908 98.9803 130.768 98.2013C129.563 97.3501 128.953 96.2419 128.953 94.8767C128.953 94.3387 129.17 93.897 129.612 93.5517C130.053 93.2064 130.591 93.0297 131.234 93.0297C132.567 93.0297 133.386 93.5356 133.675 94.5475C133.876 95.2622 134.325 95.6155 135.016 95.6155C135.659 95.6155 136.06 95.3184 136.221 94.7161C136.293 94.4832 136.333 93.9693 136.333 93.1984C136.333 92.4274 136.293 91.8894 136.221 91.5602C136.052 90.8615 135.691 90.5162 135.12 90.5162C134.647 90.5162 134.285 90.6768 134.052 90.99C133.812 91.2952 133.587 91.5843 133.37 91.8653C133 92.1785 132.462 92.3391 131.748 92.3391C131.033 92.3391 130.455 92.2187 130.021 91.9858C129.451 91.7047 129.178 91.2791 129.194 90.725V90.6045C129.21 90.4118 129.379 88.3801 129.692 84.5095C129.748 83.7948 130.101 83.2487 130.76 82.8713C131.346 82.5099 132.077 82.3252 132.952 82.3252H138.06C138.718 82.3252 139.296 82.4938 139.786 82.8231C140.284 83.1202 140.525 83.5619 140.525 84.124C140.525 84.6861 140.284 85.1358 139.81 85.457C139.336 85.7863 138.766 85.9549 138.108 85.9549H134.759C134.43 85.9549 134.253 86.0352 134.237 86.1959L134.157 87.1916C134.526 87.0631 134.904 86.9989 135.313 86.9989C137.361 86.9989 138.895 87.6012 139.899 88.8057C140.758 89.8657 141.191 91.3032 141.191 93.1261H141.199Z" fill="#89CBD7"/>
<g id="Group_6">
<path id="Vector_13" d="M76.9328 105.541C75.7684 104.28 73.1264 102.032 69.9785 98.6108" stroke="#B49066" stroke-width="3"/>
<path id="Vector_14" fill-rule="evenodd" clip-rule="evenodd" d="M66.5412 76.9125C72.6604 83.0316 75.3827 96.6351 71.3032 100.715C67.2238 104.794 53.6203 102.072 47.5011 95.9526C44.7788 93.2303 38.9969 85.4086 47.5011 76.9044C56.0053 68.4002 63.8269 74.1821 66.5492 76.9044L66.5412 76.9125Z" fill="#B49066"/>
<path id="Vector_15" d="M72.7257 105.485L76.5883 101.622C77.4074 100.803 78.7244 100.803 79.5435 101.622C80.3626 102.441 80.3626 103.758 79.5435 104.577L75.6808 108.44C74.8617 109.259 73.5448 109.259 72.7257 108.44C71.9066 107.621 71.9066 106.304 72.7257 105.485Z" fill="#B49066"/>
<path id="Vector_16" d="M51.2109 90.082C52.2044 90.082 53.0097 89.2766 53.0097 88.2832C53.0097 87.2897 52.2044 86.4844 51.2109 86.4844C50.2175 86.4844 49.4121 87.2897 49.4121 88.2832C49.4121 89.2766 50.2175 90.082 51.2109 90.082Z" fill="white"/>
<path id="Vector_17" d="M55.7168 87.3842C56.7102 87.3842 57.5156 86.5789 57.5156 85.5854C57.5156 84.592 56.7102 83.7866 55.7168 83.7866C54.7233 83.7866 53.918 84.592 53.918 85.5854C53.918 86.5789 54.7233 87.3842 55.7168 87.3842Z" fill="white"/>
<path id="Vector_18" d="M55.668 92.7807C56.6614 92.7807 57.4668 91.9754 57.4668 90.9819C57.4668 89.9885 56.6614 89.1831 55.668 89.1831C54.6745 89.1831 53.8691 89.9885 53.8691 90.9819C53.8691 91.9754 54.6745 92.7807 55.668 92.7807Z" fill="white"/>
</g>
</g>
<g id="Group_7">
<g id="Group_8">
<path id="Vector_19" d="M98.2852 133.226L109.913 144.862" stroke="#89CBD7" stroke-width="3" stroke-linecap="round" stroke-linejoin="round"/>
<path id="Vector_20" d="M109.913 133.226L98.2852 144.862" stroke="#89CBD7" stroke-width="3" stroke-linecap="round" stroke-linejoin="round"/>
</g>
<path id="Vector_21" d="M141.234 141.048C141.234 142.911 140.768 144.397 139.837 145.489C138.793 146.726 137.211 147.344 135.091 147.344C132.601 147.344 130.883 146.437 129.927 144.614C129.269 143.377 128.939 141.53 128.939 139.057C128.939 136.334 129.285 134.303 129.983 132.962C130.987 130.954 132.85 129.95 135.557 129.95C136.986 129.95 138.207 130.263 139.234 130.898C140.367 131.58 140.937 132.504 140.937 133.676C140.937 134.23 140.664 134.672 140.11 135.009C139.652 135.274 139.082 135.411 138.407 135.411C137.508 135.411 136.857 135.114 136.456 134.511C136.416 134.431 136.352 134.287 136.263 134.086C136.175 133.877 136.087 133.749 136.014 133.684C135.942 133.636 135.757 133.612 135.468 133.612C134.537 133.612 133.999 134.367 133.846 135.869C134.521 135.571 135.163 135.419 135.765 135.419C137.652 135.419 139.058 135.973 139.989 137.081C140.816 138.045 141.226 139.378 141.226 141.064L141.234 141.048ZM136.352 141.522C136.352 140.775 136.327 140.277 136.271 140.028C136.127 139.394 135.765 139.081 135.203 139.081C134.545 139.081 134.135 139.378 133.966 139.98C133.894 140.237 133.854 140.759 133.854 141.57C133.854 142.221 133.91 142.686 134.023 142.967C134.207 143.473 134.593 143.73 135.179 143.73C135.765 143.73 136.151 143.465 136.279 142.943C136.335 142.751 136.36 142.277 136.36 141.522H136.352Z" fill="#89CBD7"/>
<g id="Group_9">
<path id="Vector_22" d="M60.896 120.57C62.4941 120.57 63.2168 121.839 64.5418 122.385C65.5456 122.795 67.232 122.361 67.9949 123.148C68.8542 124.039 68.4286 125.975 68.8622 127.436C69.2316 128.657 70.5325 129.315 70.5325 130.986C70.5325 132.351 69.7455 133.387 69.2557 134.816C68.806 136.125 68.6855 137.828 67.9949 139.088C65.1361 144.3 60.896 148.677 60.896 148.677C60.896 148.677 56.648 144.3 53.7972 139.088C53.1065 137.828 53.2109 136.125 52.7693 134.816C52.2794 133.387 51.2676 132.343 51.2676 130.986C51.2676 129.315 52.4079 128.657 52.7693 127.436C53.2109 125.975 52.9459 124.047 53.7972 123.148C54.56 122.353 56.4713 122.795 57.4751 122.385C58.8001 121.839 59.298 120.57 60.896 120.57Z" stroke="#A6D16E" stroke-width="2" stroke-linecap="round" stroke-linejoin="round"/>
<path id="Vector_23" d="M60.8965 148.709C60.8965 148.709 65.9235 147.207 70.284 144.453C71.344 143.786 72.1631 142.533 73.0626 141.722C74.0423 140.839 75.0702 140.381 75.6644 139.337C76.3871 138.06 75.7126 136.984 75.9696 135.892C76.2747 134.583 77.4311 133.29 77.1822 132.23C76.9653 131.291 75.5279 130.897 74.9658 130.142C74.2189 129.147 74.235 127.862 73.0545 127.163C71.8741 126.465 70.9586 127.227 69.746 127.067" stroke="#A6D16E" stroke-width="2" stroke-linecap="round" stroke-linejoin="round"/>
<path id="Vector_24" d="M60.8962 148.709C60.8962 148.709 55.8692 147.207 51.5086 144.453C50.4486 143.786 49.7982 142.437 48.8988 141.626C47.919 140.743 46.7225 140.389 46.1283 139.346C45.4055 138.069 45.9596 137.065 45.7027 135.973C45.3975 134.664 44.3616 133.299 44.6105 132.239C44.8273 131.299 46.4334 130.801 46.9956 130.046C47.7424 129.051 47.5577 127.862 48.7301 127.163C49.9106 126.465 50.9947 127.123 52.2073 126.963" stroke="#A6D16E" stroke-width="2" stroke-linecap="round" stroke-linejoin="round"/>
<path id="Vector_25" d="M60.8964 157.51C59.491 157.51 58.2865 156.924 57.4834 156.041C56.5519 155.013 56.0781 153.551 56.0781 151.696C56.0781 150.146 56.7446 148.862 57.3871 147.609C57.8448 146.726 58.4792 144.975 58.4792 144.975C58.4792 144.975 58.8085 143.537 58.7603 142.598C58.6559 140.871 57.3228 139.562 57.106 138.671C56.841 137.563 56.9053 136.888 57.3068 136.551C57.4272 136.447 57.901 136.406 57.901 136.406C57.901 136.406 57.8127 134.784 57.8689 134.246C57.9331 133.604 58.2062 131.066 58.8326 131.002C59.2662 130.954 59.6115 132.656 59.8364 133.242C59.9086 133.435 59.9568 133.66 60.0291 133.981C60.2379 134.977 60.5752 136.141 60.9124 137.089C61.2417 136.141 61.587 134.977 61.7958 133.981C61.8681 133.66 61.9162 133.435 61.9885 133.242C62.2134 132.656 62.5587 130.954 62.9923 131.002C63.5223 131.058 63.8837 133.604 63.956 134.246C64.0122 134.784 64.0041 135.499 63.9238 136.406H63.956C64.1085 136.406 64.3976 136.439 64.5181 136.543C64.9196 136.88 64.9437 137.884 64.7188 138.663C64.4297 139.683 63.169 140.679 63.0244 142.325C62.9361 143.361 63.0887 143.971 63.3376 144.967C63.6187 146.075 63.972 146.709 64.4297 147.601C65.0722 148.846 65.7387 150.138 65.7387 151.688C65.7387 153.543 65.2649 155.005 64.3334 156.033C63.5223 156.916 62.3258 157.502 60.9205 157.502L60.8964 157.51Z" fill="#A6D16E"/>
</g>
</g>
</g>
</svg>
