<svg width="185" height="186" viewBox="0 0 185 186" fill="none" xmlns="http://www.w3.org/2000/svg">
<rect y="0.0400391" width="185" height="185" rx="92.5" fill="white"/>
<path d="M148.99 83.5698H55.86C54.8106 83.5698 53.96 84.4205 53.96 85.4698V149.29C53.96 150.339 54.8106 151.19 55.86 151.19H148.99C150.039 151.19 150.89 150.339 150.89 149.29V85.4698C150.89 84.4205 150.039 83.5698 148.99 83.5698Z" stroke="#89CBD7" stroke-width="3" stroke-linecap="round" stroke-linejoin="round"/>
<path d="M145.9 88.7598H58.96V146.01H145.9V88.7598Z" fill="#E9D48A"/>
<path d="M129.33 159.79H32.3896L53.9596 151.2H150.9L129.33 159.79Z" stroke="#89CBD7" stroke-width="2.73" stroke-linecap="round" stroke-linejoin="round"/>
<path d="M129.2 159.79H32.3896V165.21H129.2V159.79Z" stroke="#89CBD7" stroke-width="2.73" stroke-linecap="round" stroke-linejoin="round"/>
<path d="M150.899 156.62L129.199 165.22V159.79L150.899 151.2V156.62Z" stroke="#89CBD7" stroke-width="2.73" stroke-linecap="round" stroke-linejoin="round"/>
<path d="M138.65 93.3799H113.04V141.38H138.65V93.3799Z" fill="white" stroke="#89CBD7" stroke-width="2.52" stroke-linecap="round" stroke-linejoin="round"/>
<path d="M116.94 130.67H134.75" stroke="#89CBD7" stroke-width="1.68" stroke-linecap="round" stroke-linejoin="round"/>
<path d="M127.58 119.46H117.42C116.675 119.46 116.07 120.064 116.07 120.81C116.07 121.556 116.675 122.16 117.42 122.16H127.58C128.326 122.16 128.93 121.556 128.93 120.81C128.93 120.064 128.326 119.46 127.58 119.46Z" fill="#EEEEEF"/>
<path d="M134.02 110.29H123.86C123.114 110.29 122.51 110.894 122.51 111.64C122.51 112.386 123.114 112.99 123.86 112.99H134.02C134.765 112.99 135.37 112.386 135.37 111.64C135.37 110.894 134.765 110.29 134.02 110.29Z" fill="#EEEEEF"/>
<path d="M127.58 105.71H117.42C116.675 105.71 116.07 106.314 116.07 107.06C116.07 107.806 116.675 108.41 117.42 108.41H127.58C128.326 108.41 128.93 107.806 128.93 107.06C128.93 106.314 128.326 105.71 127.58 105.71Z" fill="#EEEEEF"/>
<path d="M127.58 101.13H117.42C116.675 101.13 116.07 101.734 116.07 102.48C116.07 103.225 116.675 103.83 117.42 103.83H127.58C128.326 103.83 128.93 103.225 128.93 102.48C128.93 101.734 128.326 101.13 127.58 101.13Z" fill="#EEEEEF"/>
<path d="M134.02 124.04H123.86C123.114 124.04 122.51 124.644 122.51 125.39C122.51 126.136 123.114 126.74 123.86 126.74H134.02C134.765 126.74 135.37 126.136 135.37 125.39C135.37 124.644 134.765 124.04 134.02 124.04Z" fill="#EEEEEF"/>
<path d="M134.02 114.88H123.86C123.114 114.88 122.51 115.484 122.51 116.23C122.51 116.975 123.114 117.58 123.86 117.58H134.02C134.765 117.58 135.37 116.975 135.37 116.23C135.37 115.484 134.765 114.88 134.02 114.88Z" fill="#EEEEEF"/>
<path d="M116.81 134.1C116.993 134.1 117.14 133.952 117.14 133.77C117.14 133.588 116.993 133.44 116.81 133.44C116.628 133.44 116.48 133.588 116.48 133.77C116.48 133.952 116.628 134.1 116.81 134.1Z" fill="#89CBD7"/>
<path d="M117.86 134.1C118.043 134.1 118.19 133.952 118.19 133.77C118.19 133.588 118.043 133.44 117.86 133.44C117.678 133.44 117.53 133.588 117.53 133.77C117.53 133.952 117.678 134.1 117.86 134.1Z" fill="#89CBD7"/>
<path d="M118.91 134.1C119.092 134.1 119.24 133.952 119.24 133.77C119.24 133.588 119.092 133.44 118.91 133.44C118.728 133.44 118.58 133.588 118.58 133.77C118.58 133.952 118.728 134.1 118.91 134.1Z" fill="#89CBD7"/>
<path d="M99.001 160.04C100.681 154.86 106.001 153.03 113.491 155.27C114.561 155.59 115.771 156.4 115.571 157.5C115.431 158.28 114.651 158.74 113.971 159.13C107.131 163.12 103.721 170.68 102.921 178.28" fill="white"/>
<path d="M99.001 160.04C100.681 154.86 106.001 153.03 113.491 155.27C114.561 155.59 115.771 156.4 115.571 157.5C115.431 158.28 114.651 158.74 113.971 159.13C107.131 163.12 103.721 170.68 102.921 178.28" stroke="#89CBD7" stroke-width="2.67" stroke-linecap="round" stroke-linejoin="round"/>
<path d="M101.69 99.2699C101.15 99.2699 100.65 99.3699 100.16 99.5099C97.1104 84.8999 84.1604 73.9199 68.6404 73.9199C50.8604 73.9199 36.4404 88.3399 36.4404 106.12C36.4404 123.9 50.8604 138.32 68.6404 138.32C84.9704 138.32 98.4204 126.16 100.52 110.41C100.9 110.49 101.29 110.53 101.69 110.53C104.8 110.53 107.32 108.01 107.32 104.9C107.32 101.79 104.8 99.2699 101.69 99.2699Z" fill="white" stroke="#89CBD7" stroke-width="3" stroke-linecap="round" stroke-linejoin="round"/>
<path d="M90.0503 98.42C91.5581 98.42 92.7803 97.1977 92.7803 95.69C92.7803 94.1822 91.5581 92.96 90.0503 92.96C88.5426 92.96 87.3203 94.1822 87.3203 95.69C87.3203 97.1977 88.5426 98.42 90.0503 98.42Z" fill="#89CBD7"/>
<path d="M25.0898 179.97C25.0898 158.66 43.0298 141.39 65.1698 141.39C87.3098 141.39 105.25 158.66 105.25 179.97" fill="white"/>
<path d="M25.0898 179.97C25.0898 158.66 43.0298 141.39 65.1698 141.39C87.3098 141.39 105.25 158.66 105.25 179.97" stroke="#89CBD7" stroke-width="3.16" stroke-linecap="round" stroke-linejoin="round"/>
<path d="M63.0605 138.35H73.0405V142.84C73.0405 145.6 70.8005 147.83 68.0505 147.83C65.2905 147.83 63.0605 145.59 63.0605 142.84V138.35Z" fill="white" stroke="#89CBD7" stroke-width="2.98" stroke-linecap="round" stroke-linejoin="round"/>
<path d="M94.8701 81.6701C94.7301 81.4701 92.6701 82.0601 92.4701 82.1001C68.8301 87.6901 74.7901 119.72 77.8101 136.81C78.0001 137.9 79.9401 151.19 80.7901 151.19C80.7901 151.19 45.1401 157.01 25.0801 144.85C25.0801 144.85 22.7701 74.9101 64.9901 70.0101C64.9901 70.0101 84.5801 66.7901 94.8601 81.6701H94.8701Z" fill="#89CBD7"/>
<path d="M98.5903 117.87C98.5903 117.87 92.1403 120.2 87.3203 115.3L98.5903 117.87Z" fill="white"/>
<path d="M98.5903 117.87C98.5903 117.87 92.1403 120.2 87.3203 115.3" stroke="#89CBD7" stroke-width="3" stroke-linecap="round" stroke-linejoin="round"/>
<mask id="mask0_2444_22557" style="mask-type:luminance" maskUnits="userSpaceOnUse" x="87" y="14" width="57" height="64">
<path d="M140.883 53.6698C135.343 66.0998 121.913 72.5398 109.123 69.7198C107.293 69.3198 103.693 77.5498 103.693 77.5498C103.693 77.5498 100.553 66.3398 99.1328 65.3598C88.2028 57.8098 83.8428 43.3298 89.4428 30.7498C95.7728 16.5398 112.413 10.1598 126.623 16.4798C140.833 22.7998 147.213 39.4498 140.893 53.6598L140.883 53.6698Z" fill="white"/>
</mask>
<g mask="url(#mask0_2444_22557)">
<path d="M114.873 87.6999C124.748 87.6999 132.753 79.6948 132.753 69.8199C132.753 59.9451 124.748 51.9399 114.873 51.9399C104.998 51.9399 96.9932 59.9451 96.9932 69.8199C96.9932 79.6948 104.998 87.6999 114.873 87.6999Z" fill="white" stroke="#89CBD7" stroke-width="2" stroke-linecap="round" stroke-linejoin="round"/>
<path d="M116.623 56.7197H113.153V59.2397H116.623V56.7197Z" stroke="#89CBD7" stroke-width="2" stroke-linecap="round" stroke-linejoin="round"/>
<path d="M118.193 71.1295L116.613 59.2495H114.893H114.873H113.153L111.573 71.1295L114.873 75.2195H114.893L118.193 71.1295Z" stroke="#89CBD7" stroke-width="2" stroke-linecap="round" stroke-linejoin="round"/>
<path d="M109.163 55.5996C109.163 55.5996 114.583 66.3496 109.163 86.6596" stroke="#89CBD7" stroke-width="2" stroke-linecap="round" stroke-linejoin="round"/>
<path d="M120.593 55.5996C120.593 55.5996 115.173 66.3496 120.593 86.6596" stroke="#89CBD7" stroke-width="2" stroke-linecap="round" stroke-linejoin="round"/>
<path d="M132.423 36.0298C132.033 36.0298 131.673 36.1398 131.363 36.3198C129.623 28.9798 123.033 23.5098 115.163 23.5098C107.293 23.5098 100.703 28.9798 98.9629 36.3198C98.6429 36.1398 98.2829 36.0298 97.9029 36.0298C96.6929 36.0298 95.7129 37.0098 95.7129 38.2198C95.7129 39.4298 96.6929 40.4098 97.9029 40.4098C98.1129 40.4098 98.3129 40.3698 98.5029 40.3098C98.5729 49.4498 106.003 56.8498 115.163 56.8498C124.323 56.8498 131.753 49.4598 131.823 40.3098C132.013 40.3698 132.213 40.4098 132.423 40.4098C133.633 40.4098 134.613 39.4298 134.613 38.2198C134.613 37.0098 133.633 36.0298 132.423 36.0298Z" fill="white" stroke="#89CBD7" stroke-width="2" stroke-linecap="round" stroke-linejoin="round"/>
<path d="M107.853 41.0697C108.985 41.0697 109.903 40.1519 109.903 39.0197C109.903 37.8875 108.985 36.9697 107.853 36.9697C106.721 36.9697 105.803 37.8875 105.803 39.0197C105.803 40.1519 106.721 41.0697 107.853 41.0697Z" fill="#89CBD7"/>
<path d="M122.473 41.0697C123.605 41.0697 124.523 40.1519 124.523 39.0197C124.523 37.8875 123.605 36.9697 122.473 36.9697C121.341 36.9697 120.423 37.8875 120.423 39.0197C120.423 40.1519 121.341 41.0697 122.473 41.0697Z" fill="#89CBD7"/>
<path d="M115.017 38.9697C114.767 40.2654 113.599 41.0991 113.13 42.2842C112.581 43.6804 113.52 45.1267 115.106 44.9559C116.064 44.8455 116.873 44.0118 116.973 43.0576" stroke="#89CBD7" stroke-width="2" stroke-linecap="round" stroke-linejoin="round"/>
<path d="M119.053 47.8096C120.472 47.8096 117.313 51.6996 115.163 51.6996C113.013 51.6996 109.471 47.8096 111.273 47.8096H119.063H119.053Z" stroke="#89CBD7" stroke-width="2" stroke-miterlimit="10"/>
<path d="M132.423 34.8997C130.943 24.9697 124.253 18.7397 115.143 18.7397C106.553 18.7397 99.3532 25.4797 97.3232 34.5797C102.163 34.0897 117.033 34.0397 124.153 29.3397C124.153 29.3397 125.823 32.0297 132.423 34.8997Z" fill="#89CBD7"/>
</g>
<path d="M140.883 53.6698C135.343 66.0998 121.913 72.5398 109.123 69.7198C107.293 69.3198 103.693 77.5498 103.693 77.5498C103.693 77.5498 100.553 66.3398 99.1328 65.3598C88.2028 57.8098 83.8428 43.3298 89.4428 30.7498C95.7728 16.5398 112.413 10.1598 126.623 16.4798C140.833 22.7998 147.213 39.4498 140.893 53.6598L140.883 53.6698Z" stroke="#89CBD7" stroke-width="3" stroke-linecap="round" stroke-linejoin="round"/>
</svg>
