<svg width="185" height="186" viewBox="0 0 185 186" fill="none" xmlns="http://www.w3.org/2000/svg">
<rect y="0.0400391" width="185" height="185" rx="92.5" fill="white"/>
<g clip-path="url(#clip0_2444_22616)">
<path d="M91.89 122.76C131.296 122.76 163.24 102.796 163.24 78.1701C163.24 53.5437 131.296 33.5801 91.89 33.5801C52.4845 33.5801 20.54 53.5437 20.54 78.1701C20.54 102.796 52.4845 122.76 91.89 122.76Z" stroke="#89CBD7" stroke-width="3.09" stroke-linecap="round" stroke-linejoin="round"/>
<path d="M122.98 49.6499L114.72 56.2299C108.34 51.2099 91.4499 43.8299 73.2599 46.5599C50.4599 49.9799 33.9499 65.9399 34.8199 71.7899C35.9199 79.0999 56.1599 88.0499 78.9699 84.6199C96.9199 81.9299 110.69 69.6199 115.53 63.1099L125.6 67.0699C127.57 67.8399 129.63 66.1999 129.32 64.1099L127.41 51.3999C127.1 49.3099 124.64 48.3399 122.98 49.6599V49.6499Z" fill="#B49066"/>
<path d="M60.17 78.7899C62.19 75.7399 63.13 71.7699 62.51 67.6199C61.89 63.4699 59.82 59.9499 57 57.6299" stroke="white" stroke-width="2.5" stroke-linecap="round" stroke-linejoin="round"/>
<path d="M43.2995 72.0297C44.4207 72.0297 45.3295 71.1209 45.3295 69.9997C45.3295 68.8786 44.4207 67.9697 43.2995 67.9697C42.1784 67.9697 41.2695 68.8786 41.2695 69.9997C41.2695 71.1209 42.1784 72.0297 43.2995 72.0297Z" fill="white"/>
<path d="M154.89 70.7902C155.98 71.3302 156.05 72.4302 156.77 73.2502C157.32 73.8702 158.62 74.1302 158.87 74.9302C159.15 75.8302 158.22 77.0002 158.03 78.1502C157.87 79.1102 158.54 79.9902 157.98 81.1302C157.52 82.0602 156.64 82.5102 155.82 83.3202C155.07 84.0602 154.42 85.1802 153.53 85.8102C149.83 88.4102 145.47 89.9702 145.47 89.9702C145.47 89.9702 144.04 85.5602 143.84 81.0502C143.79 79.9602 144.44 78.8302 144.57 77.7902C144.72 76.6502 144.37 75.6002 144.83 74.6702C145.39 73.5302 146.39 73.4602 147.05 72.7502C147.84 71.9002 148.31 70.4902 149.19 70.1702C149.97 69.8802 151.13 70.8302 151.96 70.8802C153.05 70.9502 153.81 70.2502 154.9 70.7902H154.89Z" fill="white" stroke="#A6D16E" stroke-width="2" stroke-linecap="round" stroke-linejoin="round"/>
<path d="M142.51 96.0101C141.55 95.5401 140.93 94.7401 140.67 93.8601C140.38 92.8501 140.55 91.6901 141.17 90.4301C141.69 89.3701 142.57 88.7201 143.43 88.0801C144.04 87.6301 145.06 86.6501 145.06 86.6501C145.06 86.6501 145.77 85.7801 146.05 85.1201C146.56 83.9101 146.08 82.5701 146.24 81.8901C146.43 81.0401 146.7 80.6001 147.09 80.5101C147.21 80.4801 147.54 80.6101 147.54 80.6101C147.54 80.6101 148.02 79.4701 148.24 79.1201C148.5 78.7001 149.53 77.0601 149.98 77.2301C150.29 77.3401 149.96 78.6201 149.91 79.0901C149.9 79.2401 149.85 79.4201 149.79 79.6601C149.6 80.4101 149.44 81.3201 149.35 82.0801C149.89 81.5501 150.52 80.8601 151 80.2501C151.15 80.0601 151.27 79.9201 151.38 79.8101C151.73 79.4801 152.53 78.4401 152.81 78.6201C153.15 78.8401 152.55 80.7001 152.38 81.1601C152.24 81.5401 151.99 82.0301 151.63 82.6201H151.65C151.75 82.6801 151.94 82.8001 151.99 82.9201C152.15 83.2801 151.83 83.9701 151.41 84.4401C150.87 85.0401 149.68 85.3001 149.03 86.3701C148.62 87.0501 148.52 87.5201 148.36 88.2801C148.18 89.1301 148.21 89.6801 148.22 90.4401C148.24 91.5101 148.26 92.6101 147.74 93.6701C147.12 94.9401 146.31 95.7701 145.33 96.1601C144.48 96.4901 143.47 96.4901 142.51 96.0201V96.0101Z" fill="#A6D16E"/>
<path d="M144.04 72.2402C145.25 72.3402 145.72 73.3402 146.69 73.8402C147.43 74.2102 148.73 73.9902 149.26 74.6302C149.85 75.3602 149.41 76.8002 149.65 77.9302C149.85 78.8802 150.8 79.4602 150.7 80.7202C150.62 81.7502 149.96 82.4902 149.5 83.5502C149.08 84.5202 148.88 85.8002 148.28 86.7102C145.8 90.4802 142.31 93.5402 142.31 93.5402C142.31 93.5402 139.36 89.9602 137.52 85.8402C137.07 84.8402 137.26 83.5602 137 82.5402C136.72 81.4302 136.01 80.5702 136.09 79.5402C136.19 78.2702 137.1 77.8502 137.45 76.9402C137.87 75.8602 137.79 74.3802 138.5 73.7602C139.12 73.2102 140.55 73.6602 141.34 73.4102C142.38 73.0802 142.83 72.1502 144.04 72.2502V72.2402Z" fill="white" stroke="#A6D16E" stroke-width="2" stroke-linecap="round" stroke-linejoin="round"/>
<path d="M141.77 100.23C140.7 100.14 139.83 99.63 139.27 98.91C138.63 98.07 138.36 96.94 138.47 95.53C138.57 94.36 139.15 93.42 139.71 92.52C140.11 91.88 140.7 90.59 140.7 90.59C140.7 90.59 141.04 89.52 141.06 88.81C141.09 87.49 140.16 86.42 140.05 85.73C139.92 84.87 140.01 84.36 140.33 84.13C140.43 84.06 140.79 84.06 140.79 84.06C140.79 84.06 140.82 82.82 140.9 82.42C140.99 81.94 141.35 80.03 141.83 80.02C142.16 80.02 142.32 81.32 142.45 81.78C142.49 81.93 142.52 82.11 142.55 82.35C142.65 83.12 142.83 84.02 143.03 84.76C143.34 84.06 143.67 83.2 143.89 82.46C143.96 82.22 144.01 82.05 144.08 81.91C144.28 81.48 144.65 80.21 144.98 80.27C145.38 80.35 145.5 82.3 145.51 82.79C145.51 83.2 145.47 83.74 145.35 84.43H145.38C145.49 84.44 145.71 84.48 145.8 84.57C146.08 84.85 146.04 85.61 145.82 86.19C145.54 86.95 144.52 87.62 144.31 88.86C144.18 89.64 144.26 90.11 144.39 90.88C144.53 91.73 144.76 92.24 145.05 92.94C145.46 93.93 145.89 94.95 145.79 96.12C145.68 97.53 145.23 98.6 144.46 99.32C143.79 99.94 142.85 100.31 141.78 100.22L141.77 100.23Z" fill="#A6D16E"/>
<path d="M43.9198 90.55C44.8098 89.73 45.8698 90.06 46.8998 89.69C47.6698 89.4 48.3898 88.29 49.2298 88.34C50.1698 88.4 50.9298 89.7 51.9198 90.29C52.7498 90.78 53.8198 90.48 54.6798 91.42C55.3798 92.18 55.4798 93.17 55.9398 94.22C56.3598 95.18 57.1698 96.2 57.4398 97.26C58.5298 101.65 58.3998 106.28 58.3998 106.28C58.3998 106.28 53.7698 106.02 49.4898 104.57C48.4498 104.22 47.6398 103.21 46.7098 102.71C45.6998 102.16 44.5998 102.1 43.8898 101.34C43.0298 100.41 43.3298 99.45 42.8998 98.58C42.3898 97.54 41.2498 96.59 41.2698 95.65C41.2898 94.82 42.5898 94.07 42.9398 93.33C43.3998 92.34 43.0198 91.38 43.9198 90.55Z" fill="white" stroke="#A6D16E" stroke-width="2" stroke-linecap="round" stroke-linejoin="round"/>
<path d="M62.9395 111.21C62.1495 111.94 61.1795 112.23 60.2695 112.15C59.2195 112.05 58.1995 111.48 57.2495 110.44C56.4495 109.58 56.1595 108.51 55.8795 107.48C55.6795 106.75 55.1295 105.45 55.1295 105.45C55.1295 105.45 54.5695 104.47 54.0595 103.98C53.1095 103.06 51.6895 103.02 51.1095 102.64C50.3895 102.15 50.0795 101.74 50.1295 101.35C50.1395 101.23 50.3895 100.97 50.3895 100.97C50.3895 100.97 49.4995 100.11 49.2595 99.7802C48.9695 99.3902 47.8095 97.8302 48.1295 97.4702C48.3495 97.2202 49.4195 97.9902 49.8395 98.2102C49.9795 98.2802 50.1195 98.3802 50.3295 98.5202C50.9595 98.9702 51.7495 99.4502 52.4195 99.8102C52.1195 99.1102 51.7095 98.2802 51.3095 97.6202C51.1895 97.4102 51.0895 97.2502 51.0395 97.1102C50.8595 96.6702 50.1795 95.5402 50.4495 95.3402C50.7795 95.1002 52.2895 96.3402 52.6595 96.6602C52.9695 96.9302 53.3295 97.3402 53.7495 97.8902L53.7695 97.8702C53.8495 97.7902 54.0295 97.6602 54.1595 97.6602C54.5595 97.6402 55.0795 98.1902 55.3595 98.7502C55.7195 99.4702 55.5295 100.68 56.2995 101.67C56.7795 102.3 57.1795 102.56 57.8395 102.98C58.5595 103.45 59.0895 103.63 59.7995 103.89C60.7995 104.26 61.8395 104.64 62.6395 105.5C63.5895 106.54 64.0795 107.6 64.0895 108.65C64.0895 109.56 63.7295 110.5 62.9395 111.23V111.21Z" fill="#A6D16E"/>
<path d="M52.6805 89.0402C53.7005 88.3902 54.6905 88.9002 55.7605 88.7102C56.5705 88.5602 57.4705 87.5902 58.2905 87.7902C59.2105 88.0102 59.7205 89.4302 60.6005 90.1802C61.3305 90.8102 62.4405 90.7002 63.1205 91.7702C63.6805 92.6402 63.6005 93.6302 63.8705 94.7502C64.1205 95.7702 64.7405 96.9102 64.8105 98.0102C65.1105 102.52 64.1805 107.06 64.1805 107.06C64.1805 107.06 59.6705 105.99 55.7105 103.82C54.7505 103.29 54.1205 102.16 53.3005 101.5C52.4005 100.78 51.3205 100.53 50.7705 99.6602C50.0905 98.5902 50.5505 97.7002 50.2805 96.7702C49.9605 95.6602 49.0105 94.5302 49.1905 93.6002C49.3505 92.7802 50.7605 92.2802 51.2405 91.6002C51.8705 90.7102 51.6705 89.6902 52.6905 89.0402H52.6805Z" fill="white" stroke="#A6D16E" stroke-width="2" stroke-linecap="round" stroke-linejoin="round"/>
<path d="M67.7902 112.72C66.8902 113.3 65.8802 113.41 65.0002 113.17C63.9802 112.89 63.0802 112.15 62.3202 110.96C61.6902 109.97 61.5902 108.87 61.4902 107.81C61.4202 107.05 61.1102 105.68 61.1102 105.68C61.1102 105.68 60.7302 104.62 60.3202 104.04C59.5502 102.97 58.1602 102.68 57.6502 102.2C57.0302 101.6 56.7902 101.14 56.9102 100.76C56.9502 100.64 57.2302 100.43 57.2302 100.43C57.2302 100.43 56.5102 99.4204 56.3302 99.0604C56.1102 98.6204 55.2402 96.8904 55.6202 96.5904C55.8802 96.3804 56.7902 97.3304 57.1802 97.6204C57.3002 97.7104 57.4302 97.8404 57.6002 98.0204C58.1402 98.5704 58.8402 99.1804 59.4402 99.6504C59.2702 98.9104 59.0102 98.0204 58.7402 97.3004C58.6502 97.0704 58.5902 96.9004 58.5602 96.7504C58.4602 96.2804 57.9902 95.0504 58.2902 94.9004C58.6502 94.7204 59.9302 96.2004 60.2302 96.5904C60.4802 96.9104 60.7702 97.3704 61.0902 97.9904H61.1102C61.2102 97.9104 61.4102 97.8204 61.5302 97.8404C61.9202 97.8904 62.3502 98.5204 62.5302 99.1204C62.7602 99.8904 62.3602 101.05 62.9402 102.16C63.3102 102.86 63.6602 103.19 64.2202 103.72C64.8502 104.31 65.3402 104.58 65.9902 104.96C66.9102 105.5 67.8702 106.05 68.5002 107.04C69.2602 108.23 69.5502 109.36 69.3702 110.4C69.2102 111.3 68.6902 112.16 67.7802 112.74L67.7902 112.72Z" fill="#A6D16E"/>
<path d="M104.683 111.562C119.938 108.65 131.188 100.444 129.812 93.2342C128.435 86.0246 114.953 82.5413 99.6981 85.454C84.4435 88.3668 73.1931 96.5726 74.5697 103.782C75.9463 110.992 89.4286 114.475 104.683 111.562Z" stroke="#E9D48A" stroke-width="3.15" stroke-linejoin="round"/>
<path d="M112.95 103.14C114.01 102.53 114.96 101.73 115.76 100.81" stroke="#E9D48A" stroke-width="2" stroke-linecap="round" stroke-linejoin="round"/>
<path d="M100.15 100.29C101.39 100.58 102.67 100.68 103.93 100.6" stroke="#E9D48A" stroke-width="2" stroke-linecap="round" stroke-linejoin="round"/>
<path d="M84.0303 100.53C84.7203 101.28 85.6103 101.85 86.5803 102.17" stroke="#E9D48A" stroke-width="2" stroke-linecap="round" stroke-linejoin="round"/>
<path d="M92.96 105.56C93.83 106.12 94.8 106.53 95.81 106.79" stroke="#E9D48A" stroke-width="2" stroke-linecap="round" stroke-linejoin="round"/>
<path d="M92.7803 96.0803C93.4703 95.3503 94.3003 94.7403 95.2003 94.3003" stroke="#E9D48A" stroke-width="2" stroke-linecap="round" stroke-linejoin="round"/>
<path d="M107.07 92.3701C108.22 92.6301 109.36 92.9801 110.47 93.3901" stroke="#E9D48A" stroke-width="2" stroke-linecap="round" stroke-linejoin="round"/>
<path d="M118.8 93.5903C119.59 94.2603 120.49 94.8003 121.45 95.1803" stroke="#E9D48A" stroke-width="2" stroke-linecap="round" stroke-linejoin="round"/>
<path d="M121.28 50.3101H63.6896C62.0052 50.3101 60.6396 51.6756 60.6396 53.3601V157.58C60.6396 159.265 62.0052 160.63 63.6896 160.63H121.28C122.964 160.63 124.33 159.265 124.33 157.58V53.3601C124.33 51.6756 122.964 50.3101 121.28 50.3101Z" fill="white" stroke="#89CBD7" stroke-width="3.09" stroke-linecap="round" stroke-linejoin="round"/>
<path d="M116.87 54.4502H68.1096C66.4251 54.4502 65.0596 55.8157 65.0596 57.5002V153.45C65.0596 155.135 66.4251 156.5 68.1096 156.5H116.87C118.554 156.5 119.92 155.135 119.92 153.45V57.5002C119.92 55.8157 118.554 54.4502 116.87 54.4502Z" fill="#EEEEEF"/>
<path d="M65.0596 133.82V153.44C65.0596 155.12 66.4296 156.49 68.1096 156.49H116.87C118.55 156.49 119.92 155.12 119.92 153.44V133.82H65.0596Z" fill="#89CBD7"/>
<path d="M119.92 57.5002C119.92 55.8202 118.55 54.4502 116.87 54.4502H68.1096C66.4296 54.4502 65.0596 55.8202 65.0596 57.5002V64.4002H119.92V57.5002Z" fill="#89CBD7"/>
<path d="M119.92 64.3999H65.0596V133.83H119.92V64.3999Z" fill="#F7F7F7"/>
<path d="M92.4892 112.35C104.684 112.35 114.569 106.172 114.569 98.55C114.569 90.9285 104.684 84.75 92.4892 84.75C80.2947 84.75 70.4092 90.9285 70.4092 98.55C70.4092 106.172 80.2947 112.35 92.4892 112.35Z" stroke="#89CBD7" stroke-width="0.67" stroke-linecap="round" stroke-linejoin="round"/>
<path d="M102.11 89.7298L99.5496 91.7698C97.5796 90.2198 92.3496 87.9298 86.7196 88.7798C79.6596 89.8398 74.5596 94.7798 74.8296 96.5898C75.1696 98.8498 81.4296 101.62 88.4896 100.56C94.0496 99.7298 98.3096 95.9198 99.7996 93.8998L102.92 95.1198C103.53 95.3598 104.17 94.8498 104.07 94.1998L103.48 90.2698C103.38 89.6198 102.62 89.3198 102.11 89.7298Z" fill="#B49066"/>
<path d="M82.6697 98.7399C83.2897 97.7999 83.5897 96.5699 83.3897 95.2799C83.1897 93.9899 82.5597 92.9099 81.6797 92.1899" stroke="white" stroke-width="0.54" stroke-linecap="round" stroke-linejoin="round"/>
<path d="M77.4493 96.6497C77.7973 96.6497 78.0793 96.3676 78.0793 96.0196C78.0793 95.6717 77.7973 95.3896 77.4493 95.3896C77.1014 95.3896 76.8193 95.6717 76.8193 96.0196C76.8193 96.3676 77.1014 96.6497 77.4493 96.6497Z" fill="white"/>
<path d="M111.98 96.2698C112.32 96.4398 112.34 96.7798 112.56 97.0298C112.73 97.2198 113.13 97.2998 113.21 97.5498C113.3 97.8298 113.01 98.1898 112.95 98.5498C112.9 98.8498 113.11 99.1198 112.93 99.4698C112.79 99.7598 112.51 99.8998 112.26 100.15C112.03 100.38 111.83 100.73 111.55 100.92C110.41 101.72 109.06 102.21 109.06 102.21C109.06 102.21 108.62 100.85 108.56 99.4498C108.54 99.1098 108.74 98.7598 108.79 98.4398C108.84 98.0898 108.73 97.7598 108.87 97.4698C109.04 97.1198 109.35 97.0998 109.56 96.8798C109.8 96.6198 109.95 96.1798 110.22 96.0798C110.46 95.9898 110.82 96.2798 111.08 96.2998C111.42 96.3198 111.65 96.1098 111.99 96.2698H111.98Z" fill="white" stroke="#A6D16E" stroke-width="0.43" stroke-linecap="round" stroke-linejoin="round"/>
<path d="M108.15 104.07C107.85 103.92 107.66 103.68 107.58 103.41C107.49 103.1 107.54 102.74 107.73 102.35C107.89 102.02 108.16 101.82 108.43 101.62C108.62 101.48 108.93 101.18 108.93 101.18C108.93 101.18 109.15 100.91 109.24 100.71C109.4 100.33 109.25 99.9198 109.3 99.7098C109.36 99.4498 109.44 99.3098 109.56 99.2798C109.6 99.2798 109.7 99.3098 109.7 99.3098C109.7 99.3098 109.85 98.9598 109.92 98.8498C110 98.7198 110.32 98.2098 110.46 98.2598C110.56 98.2998 110.46 98.6898 110.44 98.8398C110.44 98.8898 110.42 98.9398 110.4 99.0198C110.34 99.2498 110.29 99.5298 110.26 99.7698C110.43 99.5998 110.62 99.3898 110.77 99.2098C110.82 99.1498 110.85 99.1098 110.89 99.0698C111 98.9698 111.25 98.6498 111.33 98.6998C111.44 98.7698 111.25 99.3398 111.2 99.4798C111.16 99.5998 111.08 99.7498 110.97 99.9298C110.97 99.9298 111.06 99.9898 111.07 100.02C111.12 100.13 111.02 100.35 110.89 100.49C110.72 100.68 110.35 100.76 110.15 101.09C110.02 101.3 109.99 101.44 109.94 101.68C109.88 101.94 109.89 102.11 109.9 102.35C109.9 102.68 109.91 103.02 109.75 103.35C109.56 103.74 109.31 104 109 104.12C108.74 104.22 108.42 104.22 108.13 104.08L108.15 104.07Z" fill="#A6D16E"/>
<path d="M108.629 96.7202C108.999 96.7502 109.149 97.0602 109.449 97.2102C109.679 97.3302 110.079 97.2502 110.239 97.4602C110.419 97.6902 110.289 98.1302 110.359 98.4802C110.419 98.7702 110.719 98.9502 110.679 99.3402C110.649 99.6602 110.449 99.8902 110.309 100.21C110.179 100.51 110.119 100.91 109.929 101.19C109.159 102.36 108.079 103.3 108.079 103.3C108.079 103.3 107.169 102.19 106.599 100.92C106.459 100.61 106.519 100.21 106.439 99.9002C106.349 99.5602 106.129 99.2902 106.159 98.9702C106.189 98.5802 106.469 98.4502 106.579 98.1702C106.709 97.8402 106.689 97.3802 106.899 97.1802C107.089 97.0102 107.529 97.1502 107.779 97.0702C108.099 96.9702 108.239 96.6802 108.619 96.7102L108.629 96.7202Z" fill="white" stroke="#A6D16E" stroke-width="0.43" stroke-linecap="round" stroke-linejoin="round"/>
<path d="M107.919 105.38C107.589 105.35 107.319 105.19 107.149 104.97C106.949 104.71 106.869 104.36 106.899 103.92C106.929 103.56 107.109 103.27 107.279 102.99C107.399 102.79 107.589 102.39 107.589 102.39C107.589 102.39 107.699 102.06 107.699 101.84C107.699 101.43 107.419 101.1 107.389 100.89C107.349 100.62 107.379 100.47 107.479 100.4C107.509 100.38 107.619 100.38 107.619 100.38C107.619 100.38 107.629 100 107.649 99.8704C107.679 99.7204 107.789 99.1304 107.939 99.1304C108.039 99.1304 108.089 99.5304 108.129 99.6704C108.139 99.7204 108.149 99.7704 108.159 99.8504C108.189 100.09 108.249 100.37 108.309 100.6C108.409 100.38 108.509 100.12 108.579 99.8904C108.599 99.8204 108.619 99.7604 108.639 99.7204C108.699 99.5904 108.819 99.1904 108.919 99.2104C109.039 99.2304 109.079 99.8404 109.079 99.9904C109.079 100.12 109.069 100.28 109.029 100.5C109.029 100.5 109.129 100.52 109.159 100.54C109.249 100.63 109.229 100.86 109.159 101.04C109.069 101.27 108.759 101.48 108.689 101.87C108.649 102.11 108.669 102.26 108.709 102.5C108.749 102.76 108.819 102.92 108.919 103.14C109.049 103.45 109.179 103.76 109.149 104.12C109.109 104.55 108.979 104.89 108.739 105.11C108.529 105.3 108.239 105.42 107.909 105.39L107.919 105.38Z" fill="#A6D16E"/>
<path d="M77.6493 102.38C77.9293 102.13 78.2493 102.23 78.5693 102.11C78.8093 102.02 79.0293 101.68 79.2893 101.69C79.5793 101.71 79.8193 102.11 80.1193 102.29C80.3793 102.44 80.7093 102.35 80.9693 102.64C81.1893 102.88 81.2193 103.18 81.3593 103.51C81.4893 103.81 81.7393 104.12 81.8193 104.45C82.1593 105.81 82.1193 107.24 82.1193 107.24C82.1193 107.24 80.6893 107.16 79.3593 106.71C79.0393 106.6 78.7893 106.29 78.4993 106.13C78.1893 105.96 77.8493 105.94 77.6293 105.71C77.3593 105.42 77.4593 105.13 77.3293 104.86C77.1693 104.54 76.8193 104.25 76.8293 103.95C76.8293 103.69 77.2393 103.46 77.3493 103.23C77.4893 102.92 77.3793 102.63 77.6493 102.37V102.38Z" fill="white" stroke="#A6D16E" stroke-width="0.43" stroke-linecap="round" stroke-linejoin="round"/>
<path d="M83.529 108.78C83.289 109 82.989 109.09 82.699 109.07C82.379 109.04 82.059 108.86 81.759 108.54C81.509 108.27 81.419 107.94 81.339 107.62C81.279 107.39 81.109 106.99 81.109 106.99C81.109 106.99 80.939 106.69 80.779 106.53C80.489 106.25 80.049 106.23 79.869 106.11C79.649 105.96 79.549 105.83 79.569 105.71C79.569 105.67 79.649 105.59 79.649 105.59C79.649 105.59 79.379 105.32 79.299 105.22C79.209 105.1 78.849 104.62 78.949 104.5C79.019 104.42 79.349 104.66 79.479 104.73C79.519 104.75 79.569 104.78 79.629 104.83C79.829 104.97 80.069 105.12 80.279 105.23C80.189 105.01 80.059 104.76 79.939 104.55C79.899 104.48 79.869 104.44 79.859 104.39C79.799 104.25 79.589 103.9 79.679 103.84C79.779 103.77 80.249 104.15 80.359 104.25C80.449 104.33 80.569 104.46 80.699 104.63C80.699 104.63 80.779 104.56 80.819 104.56C80.939 104.56 81.109 104.72 81.189 104.9C81.299 105.12 81.239 105.5 81.479 105.8C81.629 105.99 81.749 106.07 81.959 106.21C82.179 106.36 82.349 106.41 82.569 106.49C82.879 106.6 83.199 106.72 83.449 106.99C83.749 107.31 83.899 107.64 83.899 107.97C83.899 108.25 83.789 108.54 83.539 108.77L83.529 108.78Z" fill="#A6D16E"/>
<path d="M80.3597 101.91C80.6797 101.71 80.9797 101.87 81.3097 101.81C81.5597 101.76 81.8397 101.46 82.0897 101.53C82.3697 101.6 82.5297 102.04 82.7997 102.27C83.0297 102.47 83.3697 102.43 83.5797 102.76C83.7497 103.03 83.7297 103.34 83.8097 103.68C83.8897 104 84.0797 104.35 84.0997 104.69C84.1897 106.08 83.8997 107.49 83.8997 107.49C83.8997 107.49 82.4997 107.16 81.2797 106.49C80.9797 106.33 80.7897 105.98 80.5297 105.77C80.2497 105.55 79.9197 105.47 79.7497 105.2C79.5397 104.87 79.6797 104.59 79.5997 104.31C79.4997 103.97 79.2097 103.62 79.2597 103.33C79.3097 103.08 79.7497 102.92 79.8897 102.71C80.0797 102.43 80.0197 102.12 80.3397 101.92L80.3597 101.91Z" fill="white" stroke="#A6D16E" stroke-width="0.43" stroke-linecap="round" stroke-linejoin="round"/>
<path d="M85.0298 109.24C84.7498 109.42 84.4398 109.45 84.1698 109.38C83.8598 109.29 83.5798 109.06 83.3398 108.7C83.1398 108.39 83.1098 108.05 83.0798 107.72C83.0598 107.49 82.9598 107.06 82.9598 107.06C82.9598 107.06 82.8398 106.73 82.7098 106.55C82.4698 106.22 82.0398 106.13 81.8898 105.98C81.6998 105.79 81.6198 105.65 81.6598 105.53C81.6698 105.49 81.7598 105.43 81.7598 105.43C81.7598 105.43 81.5398 105.12 81.4798 105.01C81.4098 104.87 81.1398 104.34 81.2598 104.24C81.3398 104.18 81.6198 104.47 81.7398 104.56C81.7798 104.59 81.8198 104.63 81.8698 104.68C82.0398 104.85 82.2498 105.04 82.4398 105.19C82.3898 104.96 82.3098 104.69 82.2198 104.46C82.1898 104.39 82.1698 104.34 82.1598 104.29C82.1298 104.15 81.9798 103.76 82.0798 103.72C82.1898 103.66 82.5898 104.12 82.6798 104.24C82.7598 104.34 82.8498 104.48 82.9498 104.67C82.9498 104.67 83.0398 104.62 83.0798 104.62C83.1998 104.64 83.3298 104.83 83.3898 105.02C83.4598 105.26 83.3398 105.62 83.5198 105.96C83.6298 106.18 83.7398 106.28 83.9198 106.44C84.1098 106.62 84.2698 106.71 84.4698 106.82C84.7598 106.99 85.0498 107.16 85.2498 107.46C85.4798 107.83 85.5798 108.18 85.5198 108.5C85.4698 108.78 85.3098 109.05 85.0298 109.22V109.24Z" fill="#A6D16E"/>
<path d="M96.4535 108.874C101.173 107.972 104.654 105.434 104.228 103.205C103.803 100.975 99.6314 99.8983 94.9118 100.799C90.1922 101.701 86.7113 104.239 87.1371 106.468C87.5628 108.698 91.7339 109.775 96.4535 108.874Z" stroke="#E9D48A" stroke-width="0.68" stroke-linejoin="round"/>
<path d="M99.0098 106.28C99.3398 106.09 99.6298 105.84 99.8798 105.56" stroke="#E9D48A" stroke-width="0.43" stroke-linecap="round" stroke-linejoin="round"/>
<path d="M95.04 105.4C95.42 105.49 95.82 105.52 96.21 105.49" stroke="#E9D48A" stroke-width="0.43" stroke-linecap="round" stroke-linejoin="round"/>
<path d="M90.0596 105.47C90.2696 105.7 90.5496 105.88 90.8496 105.98" stroke="#E9D48A" stroke-width="0.43" stroke-linecap="round" stroke-linejoin="round"/>
<path d="M92.8193 107.03C93.0893 107.2 93.3893 107.33 93.6993 107.41" stroke="#E9D48A" stroke-width="0.43" stroke-linecap="round" stroke-linejoin="round"/>
<path d="M92.7598 104.09C92.9698 103.86 93.2298 103.68 93.5098 103.54" stroke="#E9D48A" stroke-width="0.43" stroke-linecap="round" stroke-linejoin="round"/>
<path d="M97.1895 102.95C97.5495 103.03 97.8994 103.14 98.2394 103.27" stroke="#E9D48A" stroke-width="0.43" stroke-linecap="round" stroke-linejoin="round"/>
<path d="M100.819 103.32C101.059 103.53 101.339 103.69 101.639 103.81" stroke="#E9D48A" stroke-width="0.43" stroke-linecap="round" stroke-linejoin="round"/>
<path d="M92.4897 153.18C96.0906 153.18 99.0097 150.261 99.0097 146.66C99.0097 143.059 96.0906 140.14 92.4897 140.14C88.8888 140.14 85.9697 143.059 85.9697 146.66C85.9697 150.261 88.8888 153.18 92.4897 153.18Z" fill="white"/>
<path d="M92.4901 151.82C95.3399 151.82 97.6501 149.51 97.6501 146.66C97.6501 143.81 95.3399 141.5 92.4901 141.5C89.6403 141.5 87.3301 143.81 87.3301 146.66C87.3301 149.51 89.6403 151.82 92.4901 151.82Z" fill="white" stroke="#89CBD7" stroke-width="0.5" stroke-miterlimit="10"/>
<path d="M83.1699 64.3999V133.82" stroke="#DBDCDC" stroke-width="0.25" stroke-miterlimit="10"/>
<path d="M101.29 64.3999V133.82" stroke="#DBDCDC" stroke-width="0.25" stroke-miterlimit="10"/>
<path d="M65.0596 87.54H119.92" stroke="#DBDCDC" stroke-width="0.25" stroke-miterlimit="10"/>
<path d="M65.0596 110.68H119.92" stroke="#DBDCDC" stroke-width="0.25" stroke-miterlimit="10"/>
<path d="M141.46 176.15C145 169.91 146.37 162.8 146.52 155.69C146.63 150.51 146.64 145.23 145.67 140.13C143.65 129.5 135.02 118.09 124.33 115.02C124.38 118.15 124.61 139.56 124.05 145.38C123.67 149.36 112.96 144.83 111.52 143.82C107.53 141.03 103.31 138.03 98.24 138.04C95.35 138.04 92.76 139.86 93.09 142.39C93.83 148.17 98.8 151.21 103.65 154.25C105.93 155.68 109.93 158.3 111.78 160.2C113.14 161.6 112.53 163.75 112.3 165.44C111.79 169.03 111.62 172.71 112.18 176.31" fill="white"/>
<path d="M141.46 176.15C145 169.91 146.37 162.8 146.52 155.69C146.63 150.51 146.64 145.23 145.67 140.13C143.65 129.5 135.02 118.09 124.33 115.02C124.38 118.15 124.61 139.56 124.05 145.38C123.67 149.36 112.96 144.83 111.52 143.82C107.53 141.03 103.31 138.03 98.24 138.04C95.35 138.04 92.76 139.86 93.09 142.39C93.83 148.17 98.8 151.21 103.65 154.25C105.93 155.68 109.93 158.3 111.78 160.2C113.14 161.6 112.53 163.75 112.3 165.44C111.79 169.03 111.62 172.71 112.18 176.31" stroke="#89CBD7" stroke-width="3.09" stroke-linecap="round" stroke-linejoin="round"/>
</g>
<defs>
<clipPath id="clip0_2444_22616">
<rect width="145.78" height="145.82" fill="white" transform="translate(19 32.04)"/>
</clipPath>
</defs>
</svg>
