<svg width="570" height="50" viewBox="0 0 570 50" fill="none" xmlns="http://www.w3.org/2000/svg">
<g clip-path="url(#clip0_2444_22498)">
<rect x="-11" y="36" width="592" height="13" fill="white"/>
<path d="M20.8695 48.8298C18.2595 48.8298 17.2895 47.5298 17.9495 44.9198L20.2495 35.8198C15.7695 39.7298 11.0495 42.9298 6.09948 45.4298C3.52948 46.6298 1.74948 46.2998 0.739476 44.4498C-0.0205243 43.1098 -0.0705243 41.9498 0.599476 40.9598C1.20948 40.0298 2.45948 39.1798 4.32948 38.3898C7.91948 36.6798 11.3295 34.6498 14.5795 32.2998C17.8295 29.9498 20.6395 27.4598 23.0195 24.8198L25.9295 13.3098H16.8795L19.9095 13.9298C20.7595 14.0998 21.2795 14.4898 21.4895 15.1098C21.6995 15.7298 21.5695 16.4698 21.1095 17.3198C20.4895 18.4198 20.0095 19.2198 19.6795 19.7398C20.2295 20.2898 20.7495 20.8498 21.2495 21.4398C21.9095 22.2298 22.1395 22.9898 21.9595 23.7298C21.7795 24.4698 21.1595 25.2798 20.1095 26.1698C17.9695 27.9898 16.2495 27.9998 14.9595 26.2198C14.9295 26.1898 14.9095 26.1498 14.8795 26.1198C13.4895 27.6998 12.1595 29.0198 10.8995 30.0798C9.77948 30.9698 8.82948 31.4498 8.03948 31.5198C7.24948 31.5898 6.48948 31.2298 5.76948 30.4398C4.87948 29.4798 4.56948 28.5498 4.82948 27.6398C5.08948 26.7298 5.91948 25.7598 7.30948 24.7398C10.7195 21.6898 13.5295 17.8898 15.7495 13.3298H11.5895C9.15948 13.3298 8.24948 12.1098 8.85948 9.67977C9.46948 7.24977 10.9995 6.02977 13.4295 6.02977H27.7695L28.2995 3.91977C28.9595 1.31977 30.5895 0.00976562 33.1895 0.00976562C35.7895 0.00976562 36.7695 1.30977 36.1095 3.91977L35.5795 6.02977H50.6395C53.0695 6.02977 53.9795 7.24977 53.3695 9.67977C52.7595 12.1098 51.2295 13.3298 48.7995 13.3298H40.8295L43.8595 13.9498C44.7095 14.1198 45.2395 14.5098 45.4695 15.1098C45.6995 15.7098 45.5795 16.4398 45.1195 17.2898C44.7295 18.0098 44.2395 18.8098 43.6395 19.7098C43.9495 19.9898 44.4195 20.4298 45.0495 21.0498C46.3895 22.2498 47.3495 23.1398 47.9195 23.7198C48.6495 24.5098 48.8995 25.2598 48.6795 25.9798C48.4595 26.6998 47.7995 27.4998 46.6795 28.3998C45.5595 29.2998 44.6295 29.7898 43.8895 29.8898C43.1195 29.9598 42.4095 29.5798 41.7595 28.7598C41.6195 28.6198 41.4095 28.3798 41.1195 28.0398C40.2095 27.0498 39.5095 26.2898 39.0195 25.7798C38.4495 26.3998 37.7895 27.0598 37.0195 27.7798C36.5295 28.2298 35.9995 28.4798 35.4395 28.5498C34.8795 28.6198 34.4295 28.4998 34.0895 28.1898C33.5195 27.7098 32.7995 27.1798 31.9195 26.5998C34.2895 31.0598 37.9195 34.7698 42.8195 37.7598C44.4395 38.5498 45.3195 39.4398 45.4795 40.4298C45.6195 41.4898 44.9495 42.7398 43.4495 44.1798C42.3595 45.2398 41.3195 45.8398 40.3195 45.9798C39.3695 46.0798 38.3595 45.8098 37.2895 45.1598C33.7195 42.6198 30.6695 39.3698 28.1395 35.3898L25.7195 44.9498C25.0595 47.5498 23.4295 48.8598 20.8295 48.8598L20.8695 48.8298ZM30.9995 24.6198C34.4495 21.9498 37.3395 18.1798 39.6695 13.3098H33.7595L32.3395 18.9098L30.9395 24.4598L30.9995 24.6098V24.6198Z" fill="#30768A"/>
<path d="M56.7999 43.95C53.8899 43.95 52.7999 42.49 53.5399 39.58L61.2599 9.04996C61.5099 8.05996 62.0199 7.24996 62.7999 6.62996C63.5799 6.00996 64.4599 5.70996 65.4499 5.70996H69.0499C70.6299 5.70996 71.6299 6.42996 72.0499 7.86996L76.3499 24.01L77.9599 32.49H78.2199C78.2499 32.39 78.2699 32.23 78.2899 32.03C79.0599 25.86 79.8199 21.3 80.5699 18.36L82.6599 10.08C83.3999 7.16996 85.2199 5.70996 88.1299 5.70996C91.0399 5.70996 92.1299 7.16996 91.3899 10.08L83.6699 40.61C83.4199 41.6 82.9099 42.41 82.1399 43.03C81.3699 43.65 80.4799 43.96 79.4899 43.96H75.6399C74.1999 43.96 73.3199 43.33 72.9899 42.06L68.6899 25.51L67.0599 17.13H66.7999C66.6799 17.88 66.4999 19.07 66.2599 20.68C65.5899 25.48 64.9799 29.01 64.3999 31.27L62.2899 39.6C61.5499 42.51 59.7299 43.97 56.8199 43.97L56.7999 43.95Z" fill="#30768A"/>
<path d="M99.5894 44.67C93.5194 44.67 91.4894 40.71 93.4894 32.8L96.9094 19.28C97.6794 16.23 99.5894 14.71 102.639 14.71C105.689 14.71 106.829 16.24 106.059 19.28L102.929 31.67C102.439 33.62 102.359 34.99 102.709 35.78C103.039 36.5 103.809 36.86 105.009 36.86C106.039 36.86 106.969 36.64 107.799 36.19C108.629 35.75 109.579 34.97 110.649 33.88L114.339 19.28C115.109 16.23 117.019 14.71 120.069 14.71C123.119 14.71 124.259 16.24 123.489 19.28L120.939 29.36L118.179 40.26C117.559 42.73 115.939 43.96 113.339 43.96C110.939 43.96 109.849 42.86 110.059 40.67L110.139 39.95H109.929C106.489 43.1 103.039 44.68 99.5794 44.68L99.5894 44.67Z" fill="#30768A"/>
<path d="M141.32 44.6702C136.21 44.6702 132.44 43.0102 129.99 39.6802C127.33 36.1202 126.78 31.2302 128.35 25.0302C129.9 18.9002 132.98 13.9602 137.59 10.2302C141.87 6.74023 146.56 4.99023 151.66 4.99023C154.98 4.99023 157.77 5.95023 160.03 7.87023C160.73 8.62023 160.98 9.39023 160.78 10.1802C160.58 10.9702 160 11.7902 159 12.7502C156.8 14.8102 154.8 15.0802 152.98 13.5702C152.07 13.0902 151.02 12.8502 149.82 12.8502C147.25 12.8502 144.88 13.9002 142.7 15.9902C140.36 18.1802 138.74 21.1002 137.82 24.7302C136.9 28.3602 136.93 31.4502 138 33.5702C139.04 35.6902 140.93 36.7602 143.67 36.7602C145.14 36.7602 146.6 36.4202 148.04 35.7302C150.55 34.0802 152.43 34.3102 153.68 36.4002C154.67 38.1802 154.12 39.8602 152.05 41.4402C148.69 43.6002 145.12 44.6802 141.31 44.6802L141.32 44.6702Z" fill="#30768A"/>
<path d="M166.099 44.6702C163.459 44.6702 161.559 43.8002 160.389 42.0502C159.259 40.4102 159.019 38.3202 159.659 35.7802C160.449 32.6602 162.349 30.2502 165.349 28.5302C168.349 26.8202 172.779 25.6502 178.619 25.0402C179.049 22.5402 177.889 21.2902 175.149 21.2902C173.919 21.2902 172.459 21.5802 170.769 22.1602C169.579 22.6702 168.569 22.8102 167.739 22.5702C166.829 22.3602 166.249 21.7702 165.989 20.7702C165.459 18.8202 166.299 17.3102 168.519 16.2502C172.189 14.7402 175.599 13.9902 178.759 13.9902C186.639 13.9902 189.449 18.4502 187.199 27.3502L185.089 35.6802L183.929 40.2502C183.629 41.4502 182.999 42.3702 182.049 43.0302C181.139 43.6502 180.049 43.9602 178.779 43.9602C177.819 43.9602 177.049 43.7102 176.479 43.2202C175.899 42.7202 175.609 42.0302 175.589 41.1402L175.619 41.0402H175.409C172.089 43.4702 168.989 44.6902 166.109 44.6902L166.099 44.6702ZM171.029 37.5802C172.539 37.5802 174.209 36.8102 176.039 35.2702L177.219 30.5902C174.459 30.9302 172.339 31.5202 170.869 32.3402C169.589 33.0602 168.809 33.9702 168.539 35.0602C168.119 36.7402 168.949 37.5802 171.039 37.5802H171.029Z" fill="#30768A"/>
<path d="M194.599 43.9502C191.549 43.9502 190.409 42.4402 191.169 39.4302L193.719 29.3602L196.489 18.4102C197.109 15.9402 198.709 14.7102 201.279 14.7102C203.709 14.7102 204.759 15.8402 204.429 18.1002L204.209 19.8002H204.419C205.929 17.9202 207.579 16.4602 209.379 15.4302C211.059 14.4702 212.669 13.9902 214.219 13.9902H214.479C215.519 14.2002 216.139 14.7402 216.319 15.6402C216.479 16.5002 216.289 17.5202 215.749 18.7202C215.279 19.7802 214.639 20.6202 213.829 21.2402C212.979 21.8902 212.069 22.1502 211.119 22.0102H211.019C209.819 22.0102 208.589 22.4002 207.329 23.1902C205.859 24.1202 204.539 25.4702 203.369 27.2502L200.289 39.4302C199.529 42.4502 197.639 43.9502 194.619 43.9502H194.599Z" fill="#30768A"/>
<path d="M226.289 44.67C221.969 44.67 218.779 43.32 216.729 40.61C214.589 37.83 214.119 34.08 215.309 29.35C216.499 24.62 218.829 21.04 222.419 18.09C225.789 15.35 229.339 13.98 233.069 13.98C237.149 13.98 239.959 15.34 241.499 18.04C242.909 20.58 243.089 23.94 242.039 28.12C241.809 29.05 241.549 29.87 241.259 30.59C241.089 30.97 240.779 31.3 240.309 31.59C239.839 31.88 239.349 32.03 238.839 32.03H223.469C223.299 35.8 225.259 37.68 229.339 37.68C230.399 37.68 231.489 37.53 232.589 37.22C233.659 36.77 234.569 36.68 235.309 36.94C236.049 37.2 236.559 37.79 236.839 38.71C237.359 40.46 236.629 41.83 234.669 42.82C231.859 44.05 229.059 44.67 226.289 44.67ZM224.829 26.06H234.799C235.659 22.67 234.539 20.97 231.459 20.97C230.119 20.97 228.889 21.38 227.759 22.2C226.539 23.09 225.559 24.38 224.829 26.05V26.06Z" fill="#30768A"/>
<path d="M252.45 44.67C249.61 44.67 246.95 43.92 244.49 42.41C242.99 41.18 243.11 39.65 244.88 37.84C245.81 36.88 246.8 36.33 247.87 36.19C248.85 36.09 249.78 36.36 250.64 37.01C251.82 37.63 253.06 37.94 254.36 37.94C256.66 37.94 258 37.17 258.39 35.63C258.56 34.94 258.26 34.33 257.47 33.78C257.01 33.44 256.03 32.96 254.54 32.34C254.11 32.13 253.78 31.98 253.53 31.88C248.97 29.86 247.16 27 248.09 23.3C248.79 20.52 250.4 18.28 252.9 16.57C255.4 14.86 258.36 14 261.75 14C264.53 14 266.99 14.69 269.15 16.06C269.92 16.68 270.25 17.35 270.13 18.06C269.99 18.75 269.44 19.57 268.48 20.53C267.61 21.39 266.71 21.88 265.76 22.02C264.82 22.16 263.94 21.95 263.12 21.4C262.17 20.95 261.25 20.73 260.36 20.73C258.3 20.73 257.1 21.43 256.74 22.84C256.57 23.53 256.86 24.13 257.62 24.64C258.09 24.95 259.06 25.38 260.53 25.93C261 26.1 261.34 26.24 261.56 26.34C263.66 27.23 265.16 28.21 266.06 29.27C267.32 30.81 267.64 32.76 267.05 35.13C266.34 37.94 264.74 40.2 262.25 41.92C259.59 43.77 256.32 44.7 252.45 44.7V44.67Z" fill="#30768A"/>
<path d="M289.279 34.1801C289.179 33.3601 289.459 32.5701 290.129 31.8201C290.759 31.1001 291.579 30.5701 292.589 30.2301C294.869 29.0701 296.349 27.7101 297.009 26.1701H296.649C295.139 26.1701 293.989 25.7301 293.179 24.8301C292.299 23.8401 292.059 22.5701 292.449 21.0301C292.839 19.4901 293.719 18.2401 295.099 17.2801C296.399 16.3501 297.849 15.8901 299.459 15.8901C301.449 15.8901 302.809 16.5801 303.559 17.9501C304.279 19.3201 304.329 21.2001 303.719 23.6001C302.959 26.6201 301.339 29.2701 298.879 31.5701C296.959 33.3201 294.789 34.6501 292.369 35.5801C290.539 36.2001 289.499 35.7301 289.279 34.1901V34.1801Z" fill="#30768A"/>
<path d="M358.51 49.0399C355.19 49.0399 352.97 46.6099 351.88 41.7399C349.99 42.9699 347.91 44.2099 345.65 45.4399C344.35 46.0899 343.29 46.3599 342.46 46.2599C341.59 46.1599 340.89 45.6299 340.34 44.6699C339.66 43.4399 339.57 42.3699 340.07 41.4799C340.53 40.6199 341.6 39.8199 343.3 39.0599C345.83 37.8599 348.47 36.3499 351.23 34.5399C351.16 30.6299 351.45 26.2299 352.1 21.3299H342.54L341.38 25.8999L345.34 25.2799C347.76 24.9399 348.77 25.9499 348.38 28.3099C348.01 30.4299 346.75 31.6999 344.59 32.1099C342.94 32.4199 341.26 32.7299 339.58 33.0399L337.73 40.3399C337.24 42.2899 336.65 43.7799 335.98 44.8099C335.22 45.9099 334.22 46.7499 332.98 47.3299C331.4 48.0199 329.51 48.4399 327.31 48.6199C324.43 48.7599 322.89 47.7999 322.69 45.7399C322.55 44.1299 322.96 42.9599 323.93 42.2399C324.81 41.5899 326.21 41.2799 328.12 41.3199H328.79C329.27 41.3199 329.62 41.2399 329.83 41.0899C330.04 40.9399 330.2 40.6499 330.3 40.2399L331.76 34.4799L326.91 35.3499C324.33 35.7999 323.07 34.7999 323.14 32.3699C323.17 31.0299 323.49 30.0099 324.09 29.3099C324.7 28.6099 325.67 28.1699 327.02 27.9999C327.66 27.8999 328.64 27.7599 329.95 27.5899C331.55 27.3499 332.78 27.1599 333.64 27.0199L335.08 21.3199H329.63C327.3 21.3199 326.43 20.1399 327.03 17.7699C327.63 15.3999 329.08 14.2699 331.41 14.2699H336.86L338.02 9.6999C335.96 9.9699 334.44 10.1599 333.46 10.2599C331.39 10.4699 330.27 9.6399 330.13 7.7899C329.97 5.4599 331.27 4.1099 334.03 3.7299C339.47 2.9399 344.3 1.9999 348.52 0.899902C349.56 0.589902 350.4 0.589902 351.04 0.899902C351.59 1.1699 352.09 1.7399 352.57 2.5999C353.97 5.2099 352.97 6.9199 349.57 7.7399C349.1 7.8399 348.41 7.9799 347.51 8.1499C346.76 8.2899 346.18 8.3899 345.79 8.4599L344.32 14.2699H353.26C353.94 10.3599 354.62 7.0099 355.29 4.1999C355.9 1.6599 357.49 0.399902 360.06 0.399902C362.63 0.399902 363.57 1.6999 362.88 4.3099C362.1 7.6699 361.41 10.9899 360.82 14.2799H370.69C373.02 14.2799 373.89 15.4499 373.3 17.7799C372.71 20.1099 371.24 21.3299 368.91 21.3299H359.76C359.42 24.4099 359.23 26.7399 359.17 28.3199C359.98 27.5699 360.9 26.6399 361.93 25.5399C363.57 23.6599 365.31 23.1399 367.15 23.9999C369.23 24.9899 369.31 26.5899 367.38 28.7799C364.79 31.5599 362.04 34.1199 359.11 36.4899C359.44 39.7799 360.14 41.4199 361.2 41.4199C361.47 41.4199 361.79 41.1299 362.14 40.5499C362.94 38.4599 363.81 36.9899 364.75 36.1299C365.87 35.0699 367 35.0299 368.12 36.0299C368.73 36.5799 368.95 37.5499 368.77 38.9599C368.62 40.0899 368.27 41.2699 367.72 42.5099C366.44 45.0099 365.07 46.7399 363.63 47.6999C362.31 48.5899 360.6 49.0399 358.51 49.0399ZM367.16 10.3899C367.07 10.1799 366.91 9.8799 366.67 9.4699C366.58 9.2999 366.43 9.0399 366.22 8.6999C366.01 8.3599 365.85 8.0999 365.72 7.9299C364.39 6.1499 364.97 4.5199 367.47 3.0499C369.29 1.9499 370.72 2.0399 371.77 3.3099C372.71 4.4799 373.56 5.7299 374.32 7.0599C374.7 7.9899 374.73 8.7799 374.41 9.4499C374.09 10.1199 373.38 10.7799 372.29 11.4299C369.75 12.9399 368.04 12.5999 367.15 10.3999L367.16 10.3899Z" fill="#30768A"/>
<path d="M377.75 48.7802C375.42 48.7802 374.55 47.6102 375.14 45.2902L380.26 24.8302C379.39 25.6902 378.63 25.9302 377.97 25.5502C377.36 25.2402 376.96 24.5202 376.77 23.3902C376.33 20.6502 376.94 18.4702 378.58 16.8602C382.29 12.8902 385.6 8.48019 388.5 3.65019C389.1 2.62019 390.26 1.95019 391.99 1.65019C393.5 1.37019 394.87 1.43019 396.11 1.80019C396.64 2.00019 396.82 2.24019 396.65 2.52019L396.57 2.62019H407.31C408.3 2.62019 409.03 2.93019 409.49 3.55019C409.95 4.17019 410.06 4.97019 409.8 5.97019L406.37 19.5402C406.12 20.5402 405.61 21.3402 404.83 21.9602C404.05 22.5802 403.17 22.8802 402.18 22.8802H397.5L391.83 45.2902C391.26 47.5502 389.84 48.6802 387.58 48.6802C385.32 48.6802 384.42 47.5502 384.99 45.2902L395.2 4.94019C393.35 7.92019 391.79 10.2802 390.53 12.0302L382.12 45.2902C381.53 47.6202 380.07 48.7802 377.74 48.7802H377.75ZM400.73 10.1302H403.25L403.54 9.00019C403.68 8.45019 403.47 8.18019 402.93 8.18019H401.23L400.74 10.1302H400.73ZM398.91 17.3302H400.35C401.07 17.3302 401.52 16.9702 401.7 16.2502L401.93 15.3202H399.41L398.9 17.3302H398.91ZM402.87 45.7502C402.68 42.9702 404.48 41.6402 408.25 41.7402C408.52 41.7402 408.91 41.7202 409.39 41.6902H409.9C410.38 41.6902 410.75 41.6002 411 41.4102C411.25 41.2202 411.44 40.8902 411.56 40.4102L415.99 22.8802H410.7C409.71 22.8802 408.98 22.5702 408.52 21.9602C408.06 21.3502 407.95 20.5402 408.21 19.5402L411.64 5.97019C411.89 4.98019 412.4 4.17019 413.18 3.55019C413.95 2.93019 414.84 2.62019 415.83 2.62019H424.83C425.82 2.62019 426.55 2.93019 427.01 3.55019C427.47 4.17019 427.58 4.97019 427.32 5.97019L418.58 40.5102C418.09 42.4602 417.49 43.9402 416.79 44.9302C416.08 45.9902 415.08 46.8002 413.82 47.3502C412.2 48.0702 410.04 48.4802 407.34 48.5802C404.51 48.6502 403.02 47.7102 402.86 45.7502H402.87ZM416.3 10.1302H419.23L419.52 9.00019C419.66 8.45019 419.45 8.18019 418.91 8.18019H418.04C417.22 8.18019 416.7 8.59019 416.49 9.41019L416.31 10.1302H416.3ZM415.3 17.3302H417.41L417.92 15.3202H414.99L414.69 16.5002C414.55 17.0502 414.76 17.3202 415.3 17.3202V17.3302Z" fill="#30768A"/>
<path d="M441.03 44.6702C435.92 44.6702 432.15 43.0102 429.7 39.6802C427.04 36.1202 426.49 31.2302 428.06 25.0302C429.61 18.9002 432.69 13.9602 437.3 10.2302C441.58 6.74023 446.27 4.99023 451.37 4.99023C454.69 4.99023 457.48 5.95023 459.74 7.87023C460.44 8.62023 460.69 9.39023 460.49 10.1802C460.29 10.9702 459.71 11.7902 458.71 12.7502C456.51 14.8102 454.51 15.0802 452.69 13.5702C451.78 13.0902 450.73 12.8502 449.53 12.8502C446.96 12.8502 444.59 13.9002 442.41 15.9902C440.07 18.1802 438.45 21.1002 437.53 24.7302C436.61 28.3602 436.64 31.4502 437.71 33.5702C438.75 35.6902 440.64 36.7602 443.38 36.7602C444.85 36.7602 446.31 36.4202 447.75 35.7302C450.26 34.0802 452.14 34.3102 453.39 36.4002C454.38 38.1802 453.83 39.8602 451.76 41.4402C448.4 43.6002 444.83 44.6802 441.02 44.6802L441.03 44.6702Z" fill="#30768A"/>
<path d="M465.81 44.6702C463.17 44.6702 461.27 43.8002 460.1 42.0502C458.97 40.4102 458.73 38.3202 459.37 35.7802C460.16 32.6602 462.06 30.2502 465.06 28.5302C468.06 26.8202 472.49 25.6502 478.33 25.0402C478.76 22.5402 477.6 21.2902 474.86 21.2902C473.63 21.2902 472.17 21.5802 470.48 22.1602C469.29 22.6702 468.28 22.8102 467.45 22.5702C466.54 22.3602 465.96 21.7702 465.7 20.7702C465.17 18.8202 466.01 17.3102 468.23 16.2502C471.9 14.7402 475.31 13.9902 478.47 13.9902C486.35 13.9902 489.16 18.4502 486.91 27.3502L484.8 35.6802L483.64 40.2502C483.34 41.4502 482.71 42.3702 481.76 43.0302C480.85 43.6502 479.76 43.9602 478.49 43.9602C477.53 43.9602 476.76 43.7102 476.19 43.2202C475.61 42.7202 475.32 42.0302 475.3 41.1402L475.33 41.0402H475.12C471.8 43.4702 468.7 44.6902 465.82 44.6902L465.81 44.6702ZM470.74 37.5802C472.25 37.5802 473.92 36.8102 475.75 35.2702L476.93 30.5902C474.17 30.9302 472.05 31.5202 470.58 32.3402C469.3 33.0602 468.52 33.9702 468.25 35.0602C467.83 36.7402 468.66 37.5802 470.75 37.5802H470.74Z" fill="#30768A"/>
<path d="M494.309 43.9502C491.259 43.9502 490.119 42.4402 490.879 39.4302L493.429 29.3602L496.199 18.4102C496.819 15.9402 498.419 14.7102 500.989 14.7102C503.419 14.7102 504.469 15.8402 504.139 18.1002L503.919 19.8002H504.129C505.639 17.9202 507.289 16.4602 509.089 15.4302C510.769 14.4702 512.379 13.9902 513.929 13.9902H514.189C515.229 14.2002 515.849 14.7402 516.029 15.6402C516.189 16.5002 515.999 17.5202 515.459 18.7202C514.989 19.7802 514.349 20.6202 513.539 21.2402C512.689 21.8902 511.779 22.1502 510.829 22.0102H510.729C509.529 22.0102 508.299 22.4002 507.039 23.1902C505.569 24.1202 504.249 25.4702 503.079 27.2502L499.999 39.4302C499.239 42.4502 497.349 43.9502 494.329 43.9502H494.309Z" fill="#30768A"/>
<path d="M525.989 44.67C521.669 44.67 518.479 43.32 516.429 40.61C514.289 37.83 513.819 34.08 515.009 29.35C516.199 24.62 518.529 21.04 522.119 18.09C525.489 15.35 529.039 13.98 532.769 13.98C536.849 13.98 539.659 15.34 541.199 18.04C542.609 20.58 542.789 23.94 541.739 28.12C541.509 29.05 541.249 29.87 540.959 30.59C540.789 30.97 540.479 31.3 540.009 31.59C539.539 31.88 539.049 32.03 538.539 32.03H523.17C523 35.8 524.959 37.68 529.039 37.68C530.099 37.68 531.189 37.53 532.289 37.22C533.359 36.77 534.269 36.68 535.009 36.94C535.749 37.2 536.259 37.79 536.539 38.71C537.059 40.46 536.329 41.83 534.369 42.82C531.559 44.05 528.759 44.67 525.989 44.67ZM524.529 26.06H534.499C535.359 22.67 534.239 20.97 531.159 20.97C529.819 20.97 528.589 21.38 527.459 22.2C526.239 23.09 525.259 24.38 524.529 26.05V26.06Z" fill="#30768A"/>
<path d="M552.16 44.67C549.32 44.67 546.66 43.92 544.2 42.41C542.7 41.18 542.82 39.65 544.59 37.84C545.52 36.88 546.51 36.33 547.58 36.19C548.56 36.09 549.49 36.36 550.35 37.01C551.53 37.63 552.77 37.94 554.07 37.94C556.37 37.94 557.71 37.17 558.1 35.63C558.27 34.94 557.97 34.33 557.18 33.78C556.72 33.44 555.74 32.96 554.25 32.34C553.82 32.13 553.49 31.98 553.24 31.88C548.68 29.86 546.87 27 547.8 23.3C548.5 20.52 550.11 18.28 552.61 16.57C555.11 14.86 558.07 14 561.46 14C564.24 14 566.7 14.69 568.86 16.06C569.63 16.68 569.96 17.35 569.84 18.06C569.7 18.75 569.15 19.57 568.19 20.53C567.32 21.39 566.42 21.88 565.47 22.02C564.53 22.16 563.65 21.95 562.83 21.4C561.88 20.95 560.96 20.73 560.07 20.73C558.01 20.73 556.81 21.43 556.45 22.84C556.28 23.53 556.57 24.13 557.33 24.64C557.8 24.95 558.77 25.38 560.24 25.93C560.71 26.1 561.05 26.24 561.27 26.34C563.37 27.23 564.87 28.21 565.77 29.27C567.03 30.81 567.35 32.76 566.76 35.13C566.05 37.94 564.45 40.2 561.96 41.92C559.3 43.77 556.03 44.7 552.16 44.7V44.67Z" fill="#30768A"/>
</g>
<defs>
<clipPath id="clip0_2444_22498">
<rect width="569.72" height="49.04" fill="white" transform="translate(0.139648)"/>
</clipPath>
</defs>
</svg>
