<svg width="20" height="21" viewBox="0 0 20 21" fill="none" xmlns="http://www.w3.org/2000/svg">
<g id="icon">
<path id="Vector" fill-rule="evenodd" clip-rule="evenodd" d="M9.99935 18.8337C14.6017 18.8337 18.3327 15.1027 18.3327 10.5003C18.3327 5.89795 14.6017 2.16699 9.99935 2.16699C5.39697 2.16699 1.66602 5.89795 1.66602 10.5003C1.66602 15.1027 5.39697 18.8337 9.99935 18.8337Z" stroke="#3690A4" stroke-linecap="round" stroke-linejoin="round"/>
<path id="Vector_2" d="M9.99935 9.66667C11.1499 9.66667 12.0827 8.73392 12.0827 7.58333C12.0827 6.43275 11.1499 5.5 9.99935 5.5C8.84877 5.5 7.91602 6.43275 7.91602 7.58333C7.91602 8.73392 8.84877 9.66667 9.99935 9.66667Z" stroke="#3690A4" stroke-linejoin="round"/>
<path id="Vector_3" d="M14 15.5C14 13.2909 12.2091 11.5 10 11.5C7.79087 11.5 6 13.2909 6 15.5" stroke="#3690A4" stroke-linecap="round" stroke-linejoin="round"/>
</g>
</svg>
