<svg width="20" height="20" viewBox="0 0 20 20" fill="none" xmlns="http://www.w3.org/2000/svg">
<path fill-rule="evenodd" clip-rule="evenodd" d="M9.99996 18.3333C14.6023 18.3333 18.3333 14.6024 18.3333 9.99999C18.3333 5.39761 14.6023 1.66666 9.99996 1.66666C5.39758 1.66666 1.66663 5.39761 1.66663 9.99999C1.66663 14.6024 5.39758 18.3333 9.99996 18.3333Z" stroke="#6D6D6D" stroke-linecap="round" stroke-linejoin="round"/>
<path d="M9.99996 9.16667C11.1505 9.16667 12.0833 8.23392 12.0833 7.08333C12.0833 5.93275 11.1505 5 9.99996 5C8.84938 5 7.91663 5.93275 7.91663 7.08333C7.91663 8.23392 8.84938 9.16667 9.99996 9.16667Z" stroke="#6D6D6D" stroke-linejoin="round"/>
<path d="M14 15C14 12.7909 12.2091 11 10 11C7.79087 11 6 12.7909 6 15" stroke="#6D6D6D" stroke-linecap="round" stroke-linejoin="round"/>
</svg>
