<svg width="20" height="21" viewBox="0 0 20 21" fill="none" xmlns="http://www.w3.org/2000/svg">
<path d="M15.35 4.92334H3.65C3.29101 4.92334 3 5.19197 3 5.52334V16.3233C3 16.6547 3.29101 16.9233 3.65 16.9233H15.35C15.709 16.9233 16 16.6547 16 16.3233V5.52334C16 5.19197 15.709 4.92334 15.35 4.92334Z" stroke="#D1D1D1" stroke-linecap="round" stroke-linejoin="round"/>
<path d="M3 7.92334H16" stroke="#D1D1D1" stroke-linecap="round" stroke-linejoin="round"/>
<path d="M5 9.92334H6" stroke="#D1D1D1" stroke-linecap="round" stroke-linejoin="round"/>
<path d="M9 9.92334H10" stroke="#D1D1D1" stroke-linecap="round" stroke-linejoin="round"/>
<path d="M13 9.92334H14" stroke="#D1D1D1" stroke-linecap="round" stroke-linejoin="round"/>
<path d="M5 11.9233H6" stroke="#D1D1D1" stroke-linecap="round" stroke-linejoin="round"/>
<path d="M9 11.9233H10" stroke="#D1D1D1" stroke-linecap="round" stroke-linejoin="round"/>
<path d="M13 11.9233H14" stroke="#D1D1D1" stroke-linecap="round" stroke-linejoin="round"/>
<path d="M5 13.9233H6" stroke="#D1D1D1" stroke-linecap="round" stroke-linejoin="round"/>
<path d="M9 13.9233H10" stroke="#D1D1D1" stroke-linecap="round" stroke-linejoin="round"/>
<path d="M13 13.9233H14" stroke="#D1D1D1" stroke-linecap="round" stroke-linejoin="round"/>
</svg>
