<svg width="22" height="22" viewBox="0 0 22 22" fill="none" xmlns="http://www.w3.org/2000/svg">
<g id="icon">
<path id="Star 1" d="M10.2741 2.21353C10.4238 1.75287 11.0755 1.75287 11.2252 2.21353L12.9761 7.60225C13.043 7.80826 13.235 7.94774 13.4516 7.94774H19.1177C19.602 7.94774 19.8034 8.56755 19.4116 8.85225L14.8276 12.1827C14.6524 12.31 14.5791 12.5357 14.646 12.7417L16.3969 18.1304C16.5466 18.5911 16.0193 18.9741 15.6275 18.6894L11.0436 15.359C10.8683 15.2317 10.631 15.2317 10.4558 15.359L5.87186 18.6894C5.48 18.9741 4.95276 18.5911 5.10244 18.1304L6.85334 12.7417C6.92028 12.5357 6.84695 12.31 6.67171 12.1827L2.08779 8.85225C1.69593 8.56755 1.89732 7.94774 2.38168 7.94774H8.04771C8.26433 7.94774 8.45631 7.80826 8.52324 7.60225L10.2741 2.21353Z" fill="#D1D1D1"/>
</g>
</svg>
