<svg width="21" height="22" viewBox="0 0 21 22" fill="none" xmlns="http://www.w3.org/2000/svg">
<g id="icon">
<path id="Star 1" d="M9.94114 2.21353C10.0908 1.75287 10.7425 1.75287 10.8922 2.21353L12.6431 7.60225C12.71 7.80826 12.902 7.94774 13.1186 7.94774H18.7847C19.269 7.94774 19.4704 8.56755 19.0786 8.85225L14.4946 12.1827C14.3194 12.31 14.2461 12.5357 14.313 12.7417L16.0639 18.1304C16.2136 18.5911 15.6863 18.9741 15.2945 18.6894L10.7106 15.359C10.5353 15.2317 10.298 15.2317 10.1228 15.359L5.53885 18.6894C5.147 18.9741 4.61976 18.5911 4.76943 18.1304L6.52033 12.7417C6.58727 12.5357 6.51394 12.31 6.3387 12.1827L1.75478 8.85225C1.36292 8.56755 1.56431 7.94774 2.04867 7.94774H7.71471C7.93132 7.94774 8.1233 7.80826 8.19024 7.60225L9.94114 2.21353Z" fill="#FFC700"/>
</g>
</svg>
