<svg width="20" height="21" viewBox="0 0 20 21" fill="none" xmlns="http://www.w3.org/2000/svg">
<g id="icon/name">
<path id="Vector" d="M18.15 3.92334H2.85C2.38056 3.92334 2 4.31509 2 4.79834V17.0483C2 17.5316 2.38056 17.9233 2.85 17.9233H18.15C18.6194 17.9233 19 17.5316 19 17.0483V4.79834C19 4.31509 18.6194 3.92334 18.15 3.92334Z" stroke="#D1D1D1" stroke-linejoin="round"/>
<path id="Vector_2" d="M7.33301 9.58984C7.88528 9.58984 8.33301 9.14212 8.33301 8.58984C8.33301 8.03757 7.88528 7.58984 7.33301 7.58984C6.78073 7.58984 6.33301 8.03757 6.33301 8.58984C6.33301 9.14212 6.78073 9.58984 7.33301 9.58984Z" stroke="#D1D1D1" stroke-linejoin="round"/>
<path id="Vector_3" d="M9.91699 13.5068C9.91699 12.1261 8.7977 11.0068 7.41699 11.0068C6.03628 11.0068 4.91699 12.1261 4.91699 13.5068" stroke="#D1D1D1" stroke-linecap="round" stroke-linejoin="round"/>
<path id="Vector_4" d="M12 8.92334H15.3333" stroke="#D1D1D1" stroke-linecap="round" stroke-linejoin="round"/>
<path id="Vector_5" d="M12.833 12.2568H15.333" stroke="#D1D1D1" stroke-linecap="round" stroke-linejoin="round"/>
</g>
</svg>
