<svg width="290" height="21" viewBox="0 0 290 21" fill="none" xmlns="http://www.w3.org/2000/svg">
<path d="M10.3906 6.42734H11.5386V16.4233H10.0126V8.26134C9.41058 8.83534 8.64058 9.25534 7.71658 9.52134V8.00934C8.16458 7.89734 8.62658 7.70134 9.13058 7.42134C9.63458 7.11334 10.0546 6.79134 10.3906 6.42734Z" fill="#51ACBF"/>
<rect x="0.5" y="1.42334" width="19" height="19" rx="9.5" stroke="#51ACBF"/>
<rect x="23" y="8.42334" width="109" height="5" stroke="#51ACBF"/>
<rect x="135" y="0.92334" width="20" height="20" rx="10" fill="#51ACBF"/>
<path d="M145.157 6.23134C146.109 6.23134 146.907 6.49734 147.523 7.05734C148.125 7.61734 148.433 8.33134 148.433 9.21334C148.433 10.0813 148.097 10.8653 147.453 11.5793C147.061 11.9853 146.375 12.5173 145.381 13.1893C144.303 13.9033 143.659 14.5333 143.449 15.0793H148.447V16.4233H141.559C141.559 15.4293 141.881 14.5613 142.553 13.8053C142.917 13.3713 143.673 12.7693 144.807 11.9853C145.479 11.5093 145.955 11.1313 146.235 10.8373C146.683 10.3333 146.921 9.78734 146.921 9.19934C146.921 8.63934 146.767 8.21934 146.459 7.93934C146.151 7.65934 145.689 7.51934 145.101 7.51934C144.471 7.51934 143.995 7.72934 143.673 8.16334C143.337 8.58334 143.169 9.18534 143.141 9.99734H141.615C141.629 8.87734 141.951 7.98134 142.581 7.30934C143.225 6.58134 144.093 6.23134 145.157 6.23134Z" fill="white"/>
<rect x="157.5" y="7.92334" width="110" height="6" fill="#51ACBF"/>
<path d="M275 10.4567L277.69 13.5813C278.077 14.0313 278.769 14.0466 279.176 13.6141L285 7.42334" stroke="#51ACBF" stroke-linecap="round"/>
<rect x="270.5" y="1.42334" width="19" height="19" rx="9.5" stroke="#51ACBF"/>
</svg>
