<svg width="290" height="21" viewBox="0 0 290 21" fill="none" xmlns="http://www.w3.org/2000/svg">
<rect y="0.923828" width="20" height="20" rx="10" fill="#51ACBF"/>
<path d="M10.3906 6.42783H11.5386V16.4238H10.0126V8.26183C9.41058 8.83583 8.64058 9.25583 7.71658 9.52183V8.00983C8.16458 7.89783 8.62658 7.70183 9.13058 7.42183C9.63458 7.11383 10.0546 6.79183 10.3906 6.42783Z" fill="white" fill-opacity="0.8"/>
<rect x="22.5" y="7.92383" width="110" height="6" fill="#51ACBF"/>
<path d="M145.157 6.23183C146.109 6.23183 146.907 6.49783 147.523 7.05783C148.125 7.61783 148.433 8.33183 148.433 9.21383C148.433 10.0818 148.097 10.8658 147.453 11.5798C147.061 11.9858 146.375 12.5178 145.381 13.1898C144.303 13.9038 143.659 14.5338 143.449 15.0798H148.447V16.4238H141.559C141.559 15.4298 141.881 14.5618 142.553 13.8058C142.917 13.3718 143.673 12.7698 144.807 11.9858C145.479 11.5098 145.955 11.1318 146.235 10.8378C146.683 10.3338 146.921 9.78783 146.921 9.19983C146.921 8.63983 146.767 8.21983 146.459 7.93983C146.151 7.65983 145.689 7.51983 145.101 7.51983C144.471 7.51983 143.995 7.72983 143.673 8.16383C143.337 8.58383 143.169 9.18583 143.141 9.99783H141.615C141.629 8.87783 141.951 7.98183 142.581 7.30983C143.225 6.58183 144.093 6.23183 145.157 6.23183Z" fill="#51ACBF"/>
<rect x="135.5" y="1.42383" width="19" height="19" rx="9.5" stroke="#51ACBF"/>
<rect x="158" y="8.42383" width="109" height="5" stroke="#51ACBF"/>
<path d="M275 10.4572L277.69 13.5818C278.077 14.0318 278.769 14.0471 279.176 13.6146L285 7.42383" stroke="#51ACBF" stroke-linecap="round"/>
<rect x="270.5" y="1.42383" width="19" height="19" rx="9.5" stroke="#51ACBF"/>
</svg>
