<svg width="30" height="30" viewBox="0 0 30 30" fill="none" xmlns="http://www.w3.org/2000/svg">
<path d="M25.625 2.5H4.375C3.33947 2.5 2.5 3.33947 2.5 4.375V25.625C2.5 26.6606 3.33947 27.5 4.375 27.5H25.625C26.6606 27.5 27.5 26.6606 27.5 25.625V4.375C27.5 3.33947 26.6606 2.5 25.625 2.5Z" stroke="#51ACBF" stroke-linejoin="round"/>
<path d="M7.5 11.9086C9.57806 9.40857 12.0781 8.15857 15 8.15857C17.9219 8.15857 20.4219 9.40857 22.5 11.9086" stroke="#51ACBF" stroke-linecap="round"/>
<path d="M15 19.375C16.0356 19.375 16.875 18.5356 16.875 17.5C16.875 16.4644 16.0356 15.625 15 15.625C13.9644 15.625 13.125 16.4644 13.125 17.5C13.125 18.5356 13.9644 19.375 15 19.375Z" fill="#51ACBF"/>
<path d="M11.875 13.125L15.0052 17.5" stroke="#51ACBF" stroke-linecap="round"/>
</svg>
