<svg width="40" height="58" viewBox="0 0 40 58" fill="none" xmlns="http://www.w3.org/2000/svg">
<path d="M18.6977 41.2568L28.0829 39.5392V0H20.4659C19.3955 3.0057 17.4262 5.64165 14.5521 7.89592C11.6779 10.1502 9.01669 11.6829 6.56836 12.4939V21.0816C11.2226 19.5311 15.2617 17.1396 18.6918 13.9073V41.2508L18.6977 41.2568Z" fill="#D76B5C"/>
<path d="M0.394581 55.4681L1.52413 55.158C1.66015 55.6112 1.8553 55.969 2.1096 56.2314C2.36389 56.4938 2.71281 56.6787 3.16818 56.7861C3.61763 56.8934 4.10848 56.8994 4.6289 56.804C5.09609 56.7205 5.49232 56.5714 5.8235 56.3686C6.15467 56.1658 6.38531 55.9273 6.51542 55.647C6.64552 55.3727 6.68692 55.0924 6.63369 54.8061C6.58047 54.5139 6.45036 54.2754 6.24338 54.0905C6.0364 53.9056 5.72887 53.7684 5.3149 53.6909C5.04878 53.6372 4.47514 53.5895 3.59397 53.5359C2.71281 53.4822 2.08594 53.3987 1.71337 53.2794C1.22843 53.1303 0.849948 52.8977 0.571997 52.5936C0.294046 52.2894 0.11663 51.9257 0.0397503 51.4963C-0.0430436 51.0251 0.0101811 50.5659 0.199424 50.1067C0.388668 49.6535 0.719843 49.2718 1.18704 48.9677C1.65423 48.6635 2.19831 48.4548 2.81926 48.3415C3.49935 48.2162 4.12622 48.2162 4.68804 48.3415C5.24985 48.4667 5.71113 48.7232 6.06596 49.0989C6.42079 49.4806 6.66326 49.9398 6.78154 50.4825L5.62834 50.7866C5.46275 50.2081 5.16706 49.8086 4.75309 49.57C4.33912 49.3374 3.7773 49.2838 3.06764 49.415C2.32841 49.5521 1.81982 49.7847 1.53004 50.1187C1.24026 50.4526 1.13381 50.8105 1.19886 51.1981C1.258 51.5321 1.42951 51.7825 1.70746 51.9555C1.97949 52.1284 2.63593 52.2358 3.66494 52.2835C4.69395 52.3312 5.40953 52.4028 5.81167 52.5041C6.39123 52.6532 6.84659 52.8977 7.17185 53.2317C7.49712 53.5657 7.7041 53.9831 7.79281 54.4841C7.88152 54.9791 7.82238 55.4681 7.62131 55.9571C7.42024 56.4461 7.07723 56.8576 6.5923 57.1976C6.10736 57.5375 5.53963 57.7641 4.88319 57.8834C4.04934 58.0325 3.32785 58.0384 2.71872 57.9013C2.1096 57.7581 1.60101 57.4719 1.19295 57.0365C0.784895 56.6012 0.512858 56.0764 0.388668 55.4621L0.394581 55.4681Z" fill="#D76B5C"/>
<path d="M14.848 55.9096L13.3754 47.7155L10.3416 48.2701L10.1465 47.1728L17.4501 45.8369L17.6452 46.9342L14.5996 47.4889L16.0722 55.683L14.8539 55.9036L14.848 55.9096Z" fill="#D76B5C"/>
<path d="M22.9685 54.4309L21.3008 45.1394L27.9657 43.9229L28.1608 45.0202L22.7201 46.0161L23.2346 48.8608L28.3324 47.9304L28.5275 49.0218L23.4298 49.9521L23.9975 53.1129L29.6511 52.0812L29.8463 53.1785L22.9685 54.4368V54.4309Z" fill="#D76B5C"/>
<path d="M34.0974 52.397L32.4297 43.1056L35.907 42.4735C36.5162 42.3601 36.9893 42.3065 37.3264 42.3065C37.7935 42.3005 38.1957 42.378 38.5387 42.5331C38.8817 42.6881 39.1833 42.9446 39.4376 43.2964C39.6919 43.6483 39.8634 44.0538 39.9462 44.513C40.0881 45.3062 39.958 46.0159 39.5559 46.654C39.1537 47.2921 38.3021 47.7275 37.0011 47.966L34.6356 48.3954L35.3156 52.1704L34.0974 52.3911V52.397ZM34.4404 47.2981L36.8237 46.8627C37.6102 46.7196 38.1425 46.4691 38.4204 46.1113C38.6984 45.7535 38.7871 45.3062 38.6925 44.7695C38.6215 44.3818 38.4677 44.0658 38.2193 43.8272C37.9769 43.5827 37.6871 43.4515 37.35 43.4217C37.1371 43.4038 36.7527 43.4455 36.1968 43.5469L33.8372 43.9763L34.4345 47.2981H34.4404Z" fill="#D76B5C"/>
</svg>
