<svg width="40" height="58" viewBox="0 0 40 58" fill="none" xmlns="http://www.w3.org/2000/svg">
<path d="M15.3218 9.63635C16.4807 8.44373 18.0358 7.85338 19.9989 7.85338C21.962 7.85338 23.5349 8.41988 24.6584 9.55286C25.7818 10.6859 26.3436 12.3078 26.3436 14.4187C26.3436 16.3269 25.699 18.259 24.4041 20.2089C23.4462 21.6222 20.8504 24.3175 16.6226 28.2889C11.366 33.2025 7.85369 37.15 6.06797 40.1256C5.33476 41.348 4.72572 42.6063 4.23494 43.8943L21.2584 40.7815H17.1193C17.6101 39.9288 18.2487 39.0523 19.041 38.1578C19.8334 37.2574 21.7078 35.4446 24.6702 32.7016C27.6326 29.9645 29.6785 27.8655 30.8138 26.4045C32.5285 24.2042 33.7821 22.0992 34.5685 20.0896C35.3609 18.0801 35.7511 15.9632 35.7511 13.739C35.7511 9.83313 34.3734 6.56536 31.612 3.9416C28.8507 1.31784 25.0545 0 20.2236 0C15.8185 0 12.1406 1.13299 9.20185 3.40492C6.2631 5.67686 4.51285 9.40975 3.95703 14.6155L13.3054 15.5577C13.4828 12.7968 14.151 10.823 15.31 9.63038L15.3218 9.63635Z" fill="#D76B5C"/>
<path d="M0.392566 55.4683L1.52195 55.1583C1.65795 55.6115 1.85308 55.9692 2.10733 56.2316C2.36159 56.494 2.71045 56.6789 3.16575 56.7862C3.61514 56.8935 4.10592 56.8995 4.62626 56.8041C5.09338 56.7206 5.48956 56.5715 5.82068 56.3688C6.15181 56.166 6.38241 55.9275 6.5125 55.6472C6.64259 55.3729 6.68397 55.0927 6.63076 54.8064C6.57754 54.5143 6.44745 54.2757 6.2405 54.0909C6.03355 53.906 5.72608 53.7689 5.31217 53.6913C5.04608 53.6377 4.47252 53.59 3.59149 53.5363C2.71045 53.4826 2.08368 53.3992 1.71117 53.2799C1.2263 53.1308 0.847867 52.8983 0.569957 52.5941C0.292047 52.29 0.114662 51.9263 0.0377931 51.4969C-0.0449886 51.0258 0.00822169 50.5667 0.197437 50.1075C0.386652 49.6543 0.717778 49.2727 1.1849 48.9686C1.65203 48.6645 2.19603 48.4558 2.81689 48.3425C3.49688 48.2172 4.12366 48.2172 4.68539 48.3425C5.24713 48.4677 5.70833 48.7241 6.06311 49.0998C6.41789 49.4814 6.66032 49.9406 6.77858 50.4832L5.62555 50.7873C5.45999 50.2089 5.16434 49.8094 4.75044 49.5709C4.33653 49.3383 3.77479 49.2846 3.06523 49.4158C2.32611 49.553 1.81759 49.7855 1.52786 50.1195C1.23812 50.4534 1.13169 50.8112 1.19673 51.1988C1.25586 51.5327 1.42734 51.7832 1.70525 51.9561C1.97724 52.129 2.63358 52.2363 3.66244 52.2841C4.6913 52.3318 5.40677 52.4033 5.80885 52.5047C6.38833 52.6538 6.84363 52.8983 7.16884 53.2322C7.49405 53.5661 7.70101 53.9835 7.78971 54.4844C7.8784 54.9794 7.81927 55.4683 7.61822 55.9573C7.41718 56.4463 7.07424 56.8577 6.58937 57.1976C6.10451 57.5375 5.53685 57.7641 4.88051 57.8834C4.04678 58.0325 3.32541 58.0384 2.71637 57.9013C2.10733 57.7582 1.59882 57.4719 1.19082 57.0366C0.782826 56.6013 0.510829 56.0766 0.386657 55.4624L0.392566 55.4683Z" fill="#D76B5C"/>
<path d="M14.8434 55.9095L13.3711 47.7163L10.3377 48.2708L10.1426 47.1736L17.4451 45.8379L17.6402 46.9351L14.595 47.4897L16.0674 55.6829L14.8493 55.9036L14.8434 55.9095Z" fill="#D76B5C"/>
<path d="M22.9624 54.4308L21.2949 45.1403L27.9588 43.9238L28.154 45.021L22.714 46.0169L23.2285 48.8613L28.3255 47.931L28.5206 49.0223L23.4236 49.9525L23.9912 53.1129L29.644 52.0813L29.8392 53.1785L22.9624 54.4367V54.4308Z" fill="#D76B5C"/>
<path d="M34.0971 52.3975L32.4297 43.107L35.9065 42.4749C36.5155 42.3616 36.9886 42.3079 37.3256 42.3079C37.7928 42.302 38.1948 42.3795 38.5378 42.5345C38.8807 42.6896 39.1823 42.946 39.4366 43.2978C39.6908 43.6496 39.8623 44.0551 39.9451 44.5143C40.087 45.3074 39.9569 46.017 39.5548 46.655C39.1527 47.2931 38.3013 47.7284 37.0004 47.9669L34.6352 48.3962L35.3152 52.1709L34.0971 52.3915V52.3975ZM34.4401 47.299L36.823 46.8637C37.6094 46.7206 38.1416 46.4702 38.4195 46.1124C38.6974 45.7546 38.7861 45.3074 38.6915 44.7707C38.6206 44.3831 38.4668 44.067 38.2185 43.8285C37.9761 43.584 37.6863 43.4528 37.3493 43.423C37.1364 43.4051 36.7521 43.4469 36.1963 43.5483L33.837 43.9776L34.4342 47.299H34.4401Z" fill="#D76B5C"/>
</svg>
