<svg width="40" height="58" viewBox="0 0 40 58" fill="none" xmlns="http://www.w3.org/2000/svg">
<path d="M22.4658 40.565L37.629 37.7919V31.3213H31.5495V0H23.6664L2.42383 31.3571V39.6406H22.46V40.565H22.4658ZM11.2118 31.3213L22.4658 14.45V31.3213H11.2118Z" fill="#D76B5C"/>
<path d="M0.390676 55.4681L1.52022 55.158C1.65624 55.6112 1.85139 55.969 2.10569 56.2314C2.35998 56.4938 2.70892 56.6787 3.16429 56.7861C3.61374 56.8934 4.10457 56.8994 4.62499 56.804C5.09219 56.7205 5.48843 56.5714 5.8196 56.3686C6.15078 56.1658 6.38141 55.9273 6.51151 55.647C6.64162 55.3727 6.68302 55.0924 6.6298 54.8061C6.57657 54.5139 6.44645 54.2754 6.23946 54.0905C6.03248 53.9056 5.72499 53.7684 5.31102 53.6909C5.0449 53.6372 4.47123 53.5895 3.59007 53.5359C2.70891 53.4822 2.08204 53.3987 1.70947 53.2794C1.22454 53.1303 0.846053 52.8977 0.568102 52.5936C0.290151 52.2894 0.112722 51.9257 0.0358415 51.4963C-0.0469524 51.0251 0.00628384 50.5659 0.195527 50.1067C0.38477 49.6535 0.715936 49.2718 1.18313 48.9677C1.65032 48.6635 2.1944 48.4548 2.81536 48.3415C3.49545 48.2162 4.1223 48.2162 4.68412 48.3415C5.24593 48.4667 5.70722 48.7232 6.06205 49.0989C6.41689 49.4806 6.65937 49.9398 6.77764 50.4825L5.62444 50.7866C5.45885 50.2081 5.16317 49.8086 4.7492 49.57C4.33523 49.3374 3.77341 49.2838 3.06375 49.415C2.32452 49.5521 1.81592 49.7847 1.52614 50.1187C1.23636 50.4526 1.12992 50.8105 1.19497 51.1981C1.25411 51.5321 1.4256 51.7825 1.70355 51.9555C1.97559 52.1284 2.63202 52.2358 3.66103 52.2835C4.69004 52.3312 5.40562 52.4028 5.80776 52.5041C6.38732 52.6532 6.84268 52.8977 7.16794 53.2317C7.4932 53.5657 7.70018 53.9831 7.78889 54.4841C7.8776 54.9791 7.81847 55.4681 7.6174 55.9571C7.41633 56.4461 7.07333 56.8576 6.5884 57.1976C6.10346 57.5375 5.53572 57.7641 4.87928 57.8834C4.04543 58.0325 3.32396 58.0384 2.71483 57.9013C2.10571 57.7581 1.5971 57.4719 1.18905 57.0365C0.780994 56.6012 0.508965 56.0764 0.384774 55.4621L0.390676 55.4681Z" fill="#D76B5C"/>
<path d="M14.8441 55.9096L13.3715 47.7155L10.3377 48.2701L10.1426 47.1728L17.4462 45.8369L17.6413 46.9342L14.5957 47.4889L16.0682 55.683L14.85 55.9036L14.8441 55.9096Z" fill="#D76B5C"/>
<path d="M22.9646 54.4309L21.2969 45.1394L27.9618 43.9229L28.1569 45.0202L22.7162 46.0161L23.2307 48.8608L28.3284 47.9304L28.5236 49.0218L23.4258 49.9521L23.9936 53.1129L29.6472 52.0812L29.8424 53.1785L22.9646 54.4368V54.4309Z" fill="#D76B5C"/>
<path d="M34.0935 52.397L32.4258 43.1056L35.9031 42.4735C36.5123 42.3601 36.9853 42.3065 37.3224 42.3065C37.7896 42.3005 38.1918 42.378 38.5348 42.5331C38.8778 42.6881 39.1794 42.9446 39.4337 43.2964C39.688 43.6483 39.8595 44.0538 39.9423 44.513C40.0842 45.3062 39.9541 46.0159 39.552 46.654C39.1498 47.2921 38.2982 47.7275 36.9972 47.966L34.6316 48.3954L35.3117 52.1704L34.0935 52.3911V52.397ZM34.4365 47.2981L36.8198 46.8627C37.6063 46.7196 38.1386 46.4691 38.4165 46.1113C38.6945 45.7535 38.7831 45.3062 38.6885 44.7695C38.6176 44.3818 38.4638 44.0658 38.2154 43.8272C37.973 43.5827 37.6832 43.4515 37.3461 43.4217C37.1332 43.4038 36.7488 43.4455 36.1929 43.5469L33.8333 43.9763L34.4306 47.2981H34.4365Z" fill="#D76B5C"/>
</svg>
