<svg width="40" height="58" viewBox="0 0 40 58" fill="none" xmlns="http://www.w3.org/2000/svg">
<path d="M15.1576 9.46437C16.2928 8.3432 17.6647 7.78261 19.2671 7.78261C20.8695 7.78261 22.194 8.2776 23.1756 9.26757C24.1571 10.2575 24.6479 11.5815 24.6479 13.2394C24.6479 15.1955 23.9797 16.758 22.6434 17.9388C21.3071 19.1196 19.3735 19.6742 16.8309 19.6086L15.7962 27.3196C17.4636 26.8485 18.9005 26.61 20.1067 26.61C21.9338 26.61 23.4771 27.3077 24.7484 28.6973C26.0197 30.0868 26.6524 31.9773 26.6524 34.3568C26.6524 36.7363 26.0433 38.6805 24.8371 40.1356L35.9299 38.108C36.1545 37.0345 36.2728 35.9193 36.2728 34.7564C36.2728 31.7686 35.4332 29.2221 33.7539 27.1109C32.0746 24.9998 29.8277 23.6401 27.0249 23.0377C31.7198 20.4554 34.0732 16.9965 34.0732 12.6669C34.0732 9.61346 32.9261 6.87613 30.6318 4.44891C27.8468 1.48496 24.1512 0 19.545 0C16.8546 0 14.4184 0.512877 12.2484 1.53267C10.0783 2.55246 8.38719 3.95989 7.17503 5.74303C5.96287 7.52617 5.05229 9.91164 4.45508 12.8995L13.1058 14.3784C13.3482 12.2196 14.04 10.5855 15.1753 9.45841L15.1576 9.46437Z" fill="#D76B5C"/>
<path d="M16.4058 41.6743C15.9683 41.4119 15.5485 41.0958 15.1582 40.7201C13.8869 39.4857 13.1123 37.7025 12.8226 35.3647L3.74023 36.474C4.0418 39.1636 4.8637 41.5133 6.19412 43.541L16.4058 41.6743Z" fill="#D76B5C"/>
<path d="M0.392557 55.4681L1.52194 55.158C1.65794 55.6112 1.85308 55.969 2.10734 56.2314C2.36159 56.4938 2.71045 56.6787 3.16575 56.7861C3.61513 56.8934 4.10591 56.8994 4.62625 56.804C5.09338 56.7205 5.48956 56.5714 5.82068 56.3686C6.15181 56.1658 6.38241 55.9273 6.51249 55.647C6.64258 55.3727 6.68398 55.0924 6.63076 54.8061C6.57754 54.5139 6.44746 54.2754 6.2405 54.0905C6.03355 53.9056 5.72607 53.7684 5.31216 53.6909C5.04608 53.6372 4.47251 53.5895 3.59148 53.5359C2.71045 53.4822 2.08368 53.3987 1.71116 53.2794C1.22629 53.1303 0.847867 52.8977 0.569958 52.5936C0.292048 52.2894 0.114662 51.9257 0.0377931 51.4963C-0.0449886 51.0251 0.00822169 50.5659 0.197437 50.1067C0.386652 49.6535 0.717769 49.2718 1.18489 48.9677C1.65202 48.6635 2.19602 48.4548 2.81688 48.3415C3.49687 48.2162 4.12365 48.2162 4.68539 48.3415C5.24712 48.4667 5.70832 48.7232 6.0631 49.0989C6.41788 49.4806 6.66032 49.9398 6.77858 50.4825L5.62555 50.7866C5.45998 50.2081 5.16435 49.8086 4.75044 49.57C4.33653 49.3374 3.77479 49.2838 3.06523 49.415C2.32611 49.5521 1.81759 49.7847 1.52786 50.1187C1.23812 50.4526 1.13169 50.8105 1.19673 51.1981C1.25586 51.5321 1.42733 51.7825 1.70524 51.9555C1.97724 52.1284 2.63358 52.2358 3.66243 52.2835C4.69129 52.3312 5.40676 52.4028 5.80885 52.5041C6.38832 52.6532 6.84363 52.8977 7.16884 53.2317C7.49406 53.5657 7.701 53.9831 7.7897 54.4841C7.87839 54.9791 7.81926 55.4681 7.61822 55.9571C7.41718 56.4461 7.07423 56.8576 6.58936 57.1976C6.1045 57.5375 5.53685 57.7641 4.88051 57.8834C4.04678 58.0325 3.32541 58.0384 2.71637 57.9013C2.10733 57.7581 1.59881 57.4719 1.19081 57.0365C0.782817 56.6012 0.510829 56.0764 0.386657 55.4621L0.392557 55.4681Z" fill="#D76B5C"/>
<path d="M14.8493 55.9096L13.3769 47.7155L10.3436 48.2701L10.1484 47.1728L17.451 45.8369L17.6461 46.9342L14.6009 47.4889L16.0733 55.683L14.8552 55.9036L14.8493 55.9096Z" fill="#D76B5C"/>
<path d="M22.9624 54.4309L21.2949 45.1394L27.9589 43.9229L28.154 45.0202L22.714 46.0161L23.2285 48.8608L28.3255 47.9304L28.5206 49.0218L23.4236 49.9521L23.9912 53.1129L29.644 52.0812L29.8392 53.1785L22.9624 54.4368V54.4309Z" fill="#D76B5C"/>
<path d="M34.0971 52.397L32.4297 43.1056L35.9065 42.4735C36.5155 42.3601 36.9886 42.3065 37.3256 42.3065C37.7928 42.3005 38.1948 42.378 38.5378 42.5331C38.8807 42.6881 39.1823 42.9446 39.4366 43.2964C39.6908 43.6483 39.8623 44.0538 39.9451 44.513C40.087 45.3062 39.9569 46.0159 39.5548 46.654C39.1527 47.2921 38.3013 47.7275 37.0004 47.966L34.6352 48.3954L35.3152 52.1704L34.0971 52.3911V52.397ZM34.4401 47.2981L36.823 46.8627C37.6095 46.7196 38.1416 46.4691 38.4195 46.1113C38.6974 45.7535 38.7861 45.3062 38.6915 44.7695C38.6206 44.3818 38.4668 44.0658 38.2185 43.8272C37.976 43.5827 37.6863 43.4515 37.3493 43.4217C37.1364 43.4038 36.7521 43.4455 36.1963 43.5469L33.837 43.9763L34.4342 47.2981H34.4401Z" fill="#D76B5C"/>
</svg>
